<svg width="20" height="20" viewBox="0 0 20 20" fill="none" xmlns="http://www.w3.org/2000/svg">
<path d="M5.27997 17.2586H1.70189V5.73603H5.27997V17.2586ZM3.48877 4.16426C2.34477 4.16426 1.4165 3.21627 1.4165 2.07227C1.4165 1.52267 1.63483 0.995579 2.02346 0.606953C2.41208 0.218328 2.93917 0 3.48877 0C4.03837 0 4.56546 0.218328 4.95409 0.606953C5.34271 0.995579 5.56104 1.52267 5.56104 2.07227C5.56104 3.21627 4.63277 4.16426 3.48877 4.16426ZM18.6714 17.2586H15.1014V11.6496C15.1014 10.3126 15.0742 8.59849 13.2411 8.59849C11.3809 8.59849 11.0955 10.0507 11.0955 11.5534V17.2586H7.52112V5.73603H10.9525V7.30779H11.0024C11.4801 6.40233 12.6469 5.44694 14.3876 5.44694C18.0088 5.44694 18.6745 7.83172 18.6745 10.929V17.2586H18.6714Z" fill="#2F3F56"/>
</svg>
