<svg width="20" height="20" viewBox="0 0 20 20" fill="none" xmlns="http://www.w3.org/2000/svg">
<g clip-path="url(#clip0_716_29443)">
<path d="M19.523 4.05724C18.8367 4.36132 18.0996 4.56678 17.3246 4.65965C18.1242 4.18117 18.7225 3.4281 19.0077 2.54095C18.2564 2.9872 17.4342 3.30131 16.5767 3.46963C16.0001 2.85396 15.2363 2.44589 14.404 2.30876C13.5717 2.17163 12.7174 2.31313 11.9738 2.71128C11.2301 3.10943 10.6387 3.74196 10.2914 4.51066C9.94406 5.27936 9.86024 6.14122 10.0529 6.96245C8.53063 6.88601 7.04141 6.49034 5.68192 5.80111C4.32243 5.11188 3.12305 4.14449 2.16163 2.96173C1.8329 3.5288 1.64387 4.18627 1.64387 4.88648C1.64351 5.51683 1.79873 6.13752 2.09579 6.69348C2.39284 7.24945 2.82252 7.7235 3.34672 8.07357C2.73879 8.05423 2.14427 7.88996 1.61264 7.59444V7.64375C1.61258 8.52784 1.91839 9.38472 2.47819 10.069C3.03799 10.7533 3.81729 11.2228 4.68386 11.3979C4.1199 11.5505 3.52863 11.573 2.95471 11.4637C3.1992 12.2244 3.67546 12.8896 4.3168 13.3662C4.95814 13.8427 5.73245 14.1068 6.53135 14.1215C5.17518 15.1861 3.50032 15.7636 1.77619 15.7611C1.47078 15.7611 1.16563 15.7433 0.862305 15.7076C2.61239 16.8329 4.64962 17.4301 6.73024 17.4277C13.7734 17.4277 17.6237 11.5943 17.6237 6.53509C17.6237 6.37072 17.6196 6.20471 17.6122 6.04034C18.3611 5.49873 19.0076 4.82804 19.5213 4.05971L19.523 4.05724Z" fill="#2F3F56"/>
</g>
<defs>
<clip-path id="clip0_716_29443">
<rect width="19.7241" height="19.7241" fill="white" transform="translate(0.0917969)"/>
</clip-path>
</defs>
</svg>
