<svg width="20" height="20" viewBox="0 0 20 20" fill="none" xmlns="http://www.w3.org/2000/svg">
<path d="M9.86216 7.29404C8.44834 7.29404 7.29456 8.44782 7.29456 9.86165C7.29456 11.2755 8.44834 12.4292 9.86216 12.4292C11.276 12.4292 12.4298 11.2755 12.4298 9.86165C12.4298 8.44782 11.276 7.29404 9.86216 7.29404ZM17.563 9.86165C17.563 8.79839 17.5727 7.74477 17.513 6.68344C17.4533 5.45068 17.172 4.35661 16.2706 3.45515C15.3672 2.55177 14.2751 2.27247 13.0423 2.21276C11.979 2.15305 10.9254 2.16268 9.86409 2.16268C8.80083 2.16268 7.74721 2.15305 6.68588 2.21276C5.45312 2.27247 4.35905 2.5537 3.45759 3.45515C2.55421 4.35853 2.27492 5.45068 2.2152 6.68344C2.15549 7.74669 2.16512 8.80032 2.16512 9.86165C2.16512 10.923 2.15549 11.9785 2.2152 13.0399C2.27492 14.2726 2.55614 15.3667 3.45759 16.2681C4.36098 17.1715 5.45312 17.4508 6.68588 17.5105C7.74914 17.5702 8.80276 17.5606 9.86409 17.5606C10.9273 17.5606 11.981 17.5702 13.0423 17.5105C14.2751 17.4508 15.3691 17.1696 16.2706 16.2681C17.174 15.3648 17.4533 14.2726 17.513 13.0399C17.5746 11.9785 17.563 10.9249 17.563 9.86165ZM9.86216 13.8123C7.67594 13.8123 5.91155 12.0479 5.91155 9.86165C5.91155 7.67542 7.67594 5.91104 9.86216 5.91104C12.0484 5.91104 13.8128 7.67542 13.8128 9.86165C13.8128 12.0479 12.0484 13.8123 9.86216 13.8123ZM13.9746 6.67188C13.4641 6.67188 13.0519 6.25968 13.0519 5.74924C13.0519 5.2388 13.4641 4.8266 13.9746 4.8266C14.485 4.8266 14.8972 5.2388 14.8972 5.74924C14.8974 5.87045 14.8736 5.99049 14.8273 6.1025C14.781 6.21451 14.713 6.31628 14.6273 6.40199C14.5416 6.48769 14.4398 6.55565 14.3278 6.60196C14.2158 6.64827 14.0958 6.67203 13.9746 6.67188Z" fill="#2F3F56"/>
</svg>
