<svg width="24" height="24" viewBox="0 0 24 24" fill="none" xmlns="http://www.w3.org/2000/svg">
<path d="M20.996 11.712L22.245 11.672C22.239 11.4809 22.1892 11.2937 22.0995 11.1248C22.0097 10.9559 21.8824 10.8099 21.7274 10.698C21.5724 10.586 21.3937 10.5111 21.2052 10.479C21.0167 10.447 20.8233 10.4586 20.64 10.513L20.996 11.712ZM12.289 3.00501L13.487 3.36001C13.5414 3.1766 13.553 2.98315 13.5209 2.79456C13.4888 2.60597 13.4138 2.42726 13.3017 2.27221C13.1897 2.11716 13.0435 1.9899 12.8745 1.90023C12.7055 1.81056 12.5182 1.76088 12.327 1.75501L12.289 3.00501ZM20.64 10.513C20.1078 10.67 19.5549 10.7498 19 10.75V13.25C19.7959 13.25 20.5877 13.1355 21.351 12.91L20.64 10.513ZM19 10.75C17.475 10.75 16.0125 10.1442 14.9341 9.06587C13.8558 7.98754 13.25 6.525 13.25 5.00001H10.75C10.75 7.18804 11.6192 9.28646 13.1664 10.8336C14.7135 12.3808 16.812 13.25 19 13.25V10.75ZM13.25 5.00001C13.25 4.42801 13.333 3.87801 13.487 3.36001L11.09 2.65001C10.8646 3.413 10.7501 4.20443 10.75 5.00001H13.25ZM12 4.25001C12.0827 4.25001 12.166 4.25134 12.25 4.25401L12.328 1.75501C12.2187 1.75155 12.1094 1.74988 12 1.75001V4.25001ZM4.25 12C4.25 9.94458 5.06652 7.97334 6.51992 6.51993C7.97333 5.06652 9.94457 4.25001 12 4.25001V1.75001C6.34 1.75001 1.75 6.34001 1.75 12H4.25ZM12 19.75C9.94457 19.75 7.97333 18.9335 6.51992 17.4801C5.06652 16.0267 4.25 14.0554 4.25 12H1.75C1.75 17.66 6.34 22.25 12 22.25V19.75ZM19.75 12C19.75 14.0554 18.9335 16.0267 17.4801 17.4801C16.0267 18.9335 14.0554 19.75 12 19.75V22.25C17.66 22.25 22.25 17.66 22.25 12H19.75ZM19.746 11.75C19.7487 11.834 19.75 11.9173 19.75 12H22.25C22.25 11.89 22.2483 11.7807 22.245 11.672L19.746 11.75Z" fill="#161D27"/>
</svg>
