<svg width="75" height="45" viewBox="0 0 75 45" fill="none" xmlns="http://www.w3.org/2000/svg">
<path d="M64.4884 41.5557V22.6128C64.4884 22.6128 49.8756 24.476 37.2938 30.715C24.7121 24.476 10.0992 22.6128 10.0992 22.6128V41.5557C5.81129 42.5155 2.34144 43.673 0 44.9999C7.89884 42.5155 21.6372 40.8499 37.2656 40.8499C52.894 40.8499 66.6324 42.4873 74.5312 44.9999C72.218 43.673 68.7764 42.5155 64.4884 41.5557Z" fill="#8703F5"/>
<path d="M14.0769 20.5801V23.262C19.2676 24.2501 28.7462 26.4521 37.2939 30.715C27.1946 22.7821 14.0769 20.5801 14.0769 20.5801Z" fill="#5D00AA"/>
<path d="M60.539 20.5801C60.539 20.5801 47.4213 22.7821 37.322 30.715C45.8697 26.4803 55.3483 24.2501 60.539 23.262V20.5801Z" fill="#5D00AA"/>
<path d="M37.322 20.8345C36.786 22.0202 35.9679 23.0647 35.0088 23.8834L37.2938 27.864L39.6353 23.8834C38.6479 23.0647 37.858 22.0202 37.322 20.8345Z" fill="#4E008E"/>
<path d="M30.3823 17.87C31.9056 17.87 33.1751 16.6278 33.1751 15.0751C33.1751 13.5507 31.9338 12.2803 30.3823 12.2803C28.8589 12.2803 27.5895 13.5224 27.5895 15.0751C27.5895 16.6278 28.8307 17.87 30.3823 17.87ZM29.4514 13.1272C30.0438 13.1272 30.5233 13.6071 30.5233 14.2C30.5233 14.7928 30.0438 15.2727 29.4514 15.2727C28.8589 15.2727 28.3794 14.7928 28.3794 14.2C28.3794 13.6071 28.8589 13.1272 29.4514 13.1272Z" fill="#4E008E"/>
<path d="M41.4407 15.0751C41.4407 16.5996 42.6819 17.87 44.2053 17.87C45.7286 17.87 46.9981 16.6278 46.9981 15.0751C46.9981 13.5507 45.7568 12.2803 44.2053 12.2803C42.7101 12.3085 41.4407 13.5507 41.4407 15.0751ZM44.5438 14.2C44.5438 14.7928 44.0642 15.2727 43.4718 15.2727C42.8794 15.2727 42.3998 14.7928 42.3998 14.2C42.3998 13.6071 42.8794 13.1272 43.4718 13.1272C44.0642 13.1272 44.5438 13.6071 44.5438 14.2Z" fill="#4E008E"/>
<path d="M25.0506 20.5521C26.4329 21.9071 28.323 22.7258 30.3823 22.7258C33.429 22.7258 36.0808 20.9191 37.322 18.3218C38.5351 20.9191 41.1868 22.7258 44.2617 22.7258C46.3493 22.7258 48.2111 21.8789 49.5934 20.5521C50.1859 21.399 50.6936 22.3024 51.1168 23.234C52.8376 22.5847 54.4174 22.1048 55.7997 21.7095C54.8969 19.8463 53.4864 18.1807 51.7092 16.7691C51.822 16.2327 51.9067 15.6399 51.9067 15.0753C51.9067 13.946 51.6528 12.8733 51.2014 11.8852C50.6654 10.3043 49.8473 8.83626 48.8035 7.53764L48.7471 0L42.4845 2.93601C40.8483 2.31493 39.0993 2.00439 37.322 2.00439C35.5448 2.00439 33.7957 2.31493 32.1596 2.93601L25.8687 0L25.8123 7.53764C24.7967 8.83626 23.9786 10.276 23.4426 11.8287C22.9913 12.8168 22.7092 13.9178 22.7092 15.0753C22.7092 15.6681 22.7656 16.2327 22.9066 16.7691C21.1294 18.1807 19.7471 19.8463 18.8444 21.7095C20.1984 22.1048 21.8064 22.6129 23.5272 23.234C23.9504 22.3024 24.4582 21.399 25.0506 20.5521ZM50.2705 15.0753C50.2705 18.4065 47.5623 21.1167 44.2335 21.1167C40.9047 21.1167 38.1965 18.4065 38.1965 15.0753C38.1965 11.744 40.9047 9.03387 44.2335 9.03387C47.5623 9.0621 50.2705 11.7723 50.2705 15.0753ZM37.2938 3.61355C41.1304 3.61355 44.6284 5.27917 47.0263 7.9611C46.1518 7.62233 45.1927 7.42472 44.2053 7.42472C41.1586 7.42472 38.5068 9.23149 37.2656 11.8287C36.0526 9.23149 33.4008 7.42472 30.3259 7.42472C29.3385 7.42472 28.3794 7.62233 27.5331 7.9611C29.9874 5.27917 33.4572 3.61355 37.2938 3.61355ZM30.3823 9.06211C33.7111 9.06211 36.4193 11.7723 36.4193 15.1035C36.4193 18.4347 33.7111 21.1449 30.3823 21.1449C27.0535 21.1449 24.3453 18.4347 24.3453 15.1035C24.3453 11.7723 27.0535 9.06211 30.3823 9.06211Z" fill="#4E008E"/>
</svg>
