<svg width="118" height="24" viewBox="0 0 118 24" fill="none" xmlns="http://www.w3.org/2000/svg">
<path d="M10.616 23.352C8.504 23.352 6.70133 22.9467 5.208 22.136C3.736 21.3253 2.616 20.1093 1.848 18.488C1.08 16.8667 0.696 14.8187 0.696 12.344C0.696 8.696 1.53867 5.944 3.224 4.088C4.93067 2.232 7.39467 1.304 10.616 1.304C12.7493 1.304 14.552 1.70933 16.024 2.52C17.496 3.33066 18.616 4.55733 19.384 6.2C20.1733 7.82133 20.568 9.86933 20.568 12.344C20.568 15.9707 19.7147 18.712 18.008 20.568C16.3227 22.424 13.8587 23.352 10.616 23.352ZM10.616 20.312C12.0453 20.312 13.2187 20.0453 14.136 19.512C15.0747 18.9573 15.768 18.0933 16.216 16.92C16.6853 15.7467 16.92 14.2107 16.92 12.312C16.92 10.4347 16.6853 8.92 16.216 7.768C15.768 6.59467 15.0747 5.74133 14.136 5.208C13.2187 4.65333 12.0453 4.376 10.616 4.376C9.208 4.376 8.03467 4.65333 7.096 5.208C6.15733 5.76267 5.45333 6.62667 4.984 7.8C4.536 8.952 4.312 10.4667 4.312 12.344C4.312 14.2213 4.536 15.7467 4.984 16.92C5.45333 18.0933 6.15733 18.9573 7.096 19.512C8.03467 20.0453 9.208 20.312 10.616 20.312ZM28.0548 23L22.7108 6.936H26.2948L30.3588 20.664L29.3668 20.856L33.2708 6.936H36.0548L39.9268 20.472H39.1268L43.1908 6.936H46.6468L41.2708 23H38.1028L34.2948 10.424L34.9028 10.712L31.2228 23H28.0548ZM52.7898 23H49.4618V0.855999H52.7898V23ZM63.9363 23.48C62.3576 23.48 60.9816 23.16 59.8083 22.52C58.6563 21.88 57.7603 20.9307 57.1203 19.672C56.5016 18.4133 56.1923 16.8773 56.1923 15.064C56.1923 12.2693 56.8429 10.1573 58.1443 8.728C59.4669 7.27733 61.3016 6.552 63.6483 6.552C65.3763 6.552 66.7736 6.936 67.8403 7.704C68.9069 8.472 69.6749 9.54933 70.1443 10.936C70.6349 12.3013 70.8696 13.9013 70.8483 15.736H58.2083L58.1123 13.24H68.2883L67.4883 14.04C67.4243 12.3973 67.0829 11.2027 66.4643 10.456C65.8456 9.688 64.8749 9.304 63.5523 9.304C62.6989 9.304 61.9736 9.48533 61.3763 9.848C60.7789 10.1893 60.3203 10.7867 60.0003 11.64C59.7016 12.472 59.5523 13.624 59.5523 15.096C59.5523 16.888 59.9683 18.2533 60.8003 19.192C61.6323 20.1093 62.8589 20.568 64.4803 20.568C65.2056 20.568 65.8776 20.504 66.4963 20.376C67.1363 20.248 67.7229 20.088 68.2563 19.896C68.7896 19.6827 69.2483 19.48 69.6323 19.288V22.392C68.8856 22.712 68.0429 22.968 67.1043 23.16C66.1656 23.3733 65.1096 23.48 63.9363 23.48ZM80.0358 23.48C79.2038 23.48 78.4038 23.3947 77.6358 23.224C76.8678 23.0747 76.1638 22.808 75.5238 22.424C74.9051 22.04 74.4038 21.5173 74.0198 20.856C73.6571 20.1733 73.4758 19.3307 73.4758 18.328C73.4758 17.1333 73.7104 16.152 74.1798 15.384C74.6491 14.616 75.3211 14.04 76.1958 13.656C77.0704 13.272 78.1158 13.08 79.3318 13.08C80.1424 13.08 80.8678 13.144 81.5078 13.272C82.1691 13.4 82.7558 13.5813 83.2678 13.816C83.8011 14.0293 84.2491 14.2747 84.6118 14.552L84.9638 16.76C84.4944 16.44 83.8651 16.1733 83.0758 15.96C82.2864 15.7253 81.4331 15.608 80.5158 15.608C79.2998 15.608 78.3718 15.8213 77.7318 16.248C77.1131 16.6747 76.8038 17.3147 76.8038 18.168C76.8038 18.808 76.9851 19.3307 77.3478 19.736C77.7104 20.12 78.1584 20.408 78.6918 20.6C79.2464 20.7707 79.8224 20.856 80.4198 20.856C81.6784 20.856 82.6064 20.7707 83.2038 20.6C83.8011 20.4293 84.0998 20.0347 84.0998 19.416V12.696C84.0998 11.5653 83.7584 10.744 83.0758 10.232C82.3931 9.69867 81.4224 9.432 80.1638 9.432C79.2678 9.432 78.3398 9.58133 77.3798 9.88C76.4198 10.1573 75.6304 10.552 75.0118 11.064V7.928C75.6091 7.52267 76.4731 7.20267 77.6038 6.968C78.7558 6.712 79.9398 6.584 81.1558 6.584C81.7531 6.584 82.3504 6.648 82.9478 6.776C83.5664 6.88267 84.1424 7.064 84.6758 7.32C85.2091 7.55467 85.6784 7.88533 86.0838 8.312C86.5104 8.71733 86.8411 9.21867 87.0758 9.816C87.3104 10.4133 87.4278 11.1173 87.4278 11.928V19.608C87.4278 20.6533 87.0971 21.464 86.4358 22.04C85.7958 22.5947 84.9211 22.968 83.8118 23.16C82.7024 23.3733 81.4438 23.48 80.0358 23.48ZM91.6493 23V8.408C91.9266 8.23733 92.4386 8.00267 93.1853 7.704C93.9319 7.40533 94.8173 7.14933 95.8413 6.936C96.8653 6.70133 97.8999 6.584 98.9453 6.584C99.4786 6.584 99.9159 6.62667 100.257 6.712C100.599 6.79733 100.887 6.89333 101.121 7V9.688C100.631 9.624 100.119 9.58133 99.5853 9.56C99.0519 9.51733 98.5186 9.51733 97.9853 9.56C97.4519 9.58133 96.9293 9.624 96.4173 9.688C95.9053 9.752 95.4359 9.816 95.0093 9.88V23H91.6493ZM103.931 8.248C104.4 8.01333 104.923 7.8 105.499 7.608C106.096 7.39467 106.725 7.21333 107.387 7.064C108.048 6.91467 108.72 6.79733 109.403 6.712C110.085 6.62667 110.747 6.584 111.387 6.584C112.901 6.584 114.139 6.79733 115.099 7.224C116.059 7.62933 116.773 8.26933 117.243 9.144C117.712 9.99733 117.947 11.0747 117.947 12.376V23H114.587V12.824C114.587 12.4187 114.533 12.024 114.427 11.64C114.341 11.2347 114.16 10.872 113.883 10.552C113.627 10.2107 113.243 9.944 112.731 9.752C112.24 9.56 111.589 9.464 110.779 9.464C110.203 9.464 109.605 9.51733 108.987 9.624C108.389 9.73067 107.824 9.88 107.291 10.072V23H103.931V8.248Z" fill="#313273"/>
</svg>
