<svg width="73" height="73" viewBox="0 0 73 73" fill="none" xmlns="http://www.w3.org/2000/svg">
<rect width="73" height="73" fill="url(#paint0_radial_1252_1054)"/>
<path d="M26 49V45M36 49V43M46 49V39M17 37C17 28.044 17 23.564 19.782 20.782C22.564 18 27.042 18 36 18C44.956 18 49.436 18 52.218 20.782C55 23.564 55 28.042 55 37C55 45.956 55 50.436 52.218 53.218C49.436 56 44.958 56 36 56C27.044 56 22.564 56 19.782 53.218C17 50.436 17 45.958 17 37Z" stroke="#80FF01" stroke-width="3.5" stroke-linecap="round" stroke-linejoin="round"/>
<path d="M23.9844 35.972C28.2944 36.116 38.0684 35.466 43.6284 26.642M39.9844 25.576L43.7364 24.972C44.1924 24.914 44.8644 25.276 45.0304 25.706L46.0204 28.982" stroke="#80FF01" stroke-width="1.5" stroke-linecap="round" stroke-linejoin="round"/>
<defs>
<radialGradient id="paint0_radial_1252_1054" cx="0" cy="0" r="1" gradientUnits="userSpaceOnUse" gradientTransform="translate(36.5 36.5) rotate(90) scale(36.5)">
<stop stop-color="#01FF67" stop-opacity="0.2"/>
<stop offset="1" stop-color="#A3AE27" stop-opacity="0"/>
</radialGradient>
</defs>
</svg>
