<svg width="73" height="73" viewBox="0 0 73 73" fill="none" xmlns="http://www.w3.org/2000/svg">
<rect width="73" height="73" fill="url(#paint0_radial_1252_1052)"/>
<path d="M53.8822 22.9898C54.5702 23.6502 54.9718 24.5609 54.9986 25.5217C55.0254 26.4826 54.6752 27.4149 54.0251 28.1137L33.7896 49.8662C33.4617 50.2182 33.0676 50.4998 32.6306 50.6944C32.1936 50.8891 31.7227 50.9929 31.2455 50.9996C30.7684 51.0064 30.2948 50.916 29.8526 50.7338C29.4105 50.5516 29.0088 50.2812 28.6713 49.9388L17.9584 39.0625C17.3276 38.3752 16.9842 37.4662 17.0006 36.527C17.0169 35.5878 17.3916 34.6917 18.0459 34.0274C18.7002 33.3632 19.5828 32.9827 20.508 32.9661C21.4331 32.9495 22.3284 33.2982 23.0054 33.9386L31.1233 42.1755L48.8353 23.1348C49.4857 22.4363 50.3827 22.0286 51.3292 22.0015C52.2756 21.9743 53.1939 22.3298 53.8822 22.9898Z" fill="#80FF01"/>
<defs>
<radialGradient id="paint0_radial_1252_1052" cx="0" cy="0" r="1" gradientUnits="userSpaceOnUse" gradientTransform="translate(36.5 36.5) rotate(90) scale(36.5)">
<stop stop-color="#01FF67" stop-opacity="0.2"/>
<stop offset="1" stop-color="#A3AE27" stop-opacity="0"/>
</radialGradient>
</defs>
</svg>
