<svg width="73" height="73" viewBox="0 0 73 73" fill="none" xmlns="http://www.w3.org/2000/svg">
<rect width="73" height="73" fill="url(#paint0_radial_1252_1036)"/>
<g clip-path="url(#clip0_1252_1036)">
<mask id="mask0_1252_1036" style="mask-type:luminance" maskUnits="userSpaceOnUse" x="17" y="18" width="38" height="38">
<path d="M17 18H55V56H17V18Z" fill="white"/>
</mask>
<g mask="url(#mask0_1252_1036)">
<path fill-rule="evenodd" clip-rule="evenodd" d="M53.3993 21.0163C53.7016 21.3791 53.8473 21.8472 53.8046 22.3175C53.7618 22.7878 53.534 23.2218 53.1713 23.5243L44.4456 30.7965C43.617 31.4872 42.6302 31.9619 41.5734 32.1783C40.5166 32.3946 39.4227 32.3458 38.3893 32.0363L31.5755 29.9938C31.0777 29.8443 30.5494 29.8282 30.0434 29.947C29.5374 30.0658 29.0715 30.3153 28.6922 30.6706L21.1872 37.7054C21.0174 37.8694 20.8166 37.9981 20.5966 38.0838C20.3766 38.1696 20.1418 38.2107 19.9057 38.2049C19.6697 38.1991 19.4371 38.1464 19.2216 38.0499C19.0061 37.9533 18.812 37.8149 18.6504 37.6427C18.4889 37.4705 18.3632 37.2679 18.2807 37.0466C18.1982 36.8254 18.1605 36.5899 18.1698 36.354C18.1791 36.1181 18.2353 35.8863 18.335 35.6723C18.4346 35.4582 18.5759 35.2661 18.7505 35.1071L26.2555 28.07C27.0897 27.2878 28.1147 26.7383 29.228 26.4766C30.3412 26.2148 31.5037 26.25 32.5991 26.5785L39.4106 28.621C40.3653 28.9084 41.3985 28.697 42.1656 28.0605L50.8913 20.7883C51.2542 20.486 51.7222 20.3403 52.1925 20.3831C52.6628 20.4258 53.0969 20.6536 53.3993 21.0163ZM53.6677 35.7056C53.8533 36.1394 53.8593 36.629 53.6843 37.0672C53.5094 37.5053 53.1677 37.8561 52.7343 38.0426L42.2891 42.5195C41.4167 42.8934 40.4733 43.0726 39.5246 43.0447C38.5759 43.0168 37.6446 42.7825 36.7957 42.358L31.6918 39.8073C31.23 39.5761 30.7159 39.4695 30.2003 39.4978C29.6846 39.5261 29.1853 39.6884 28.7516 39.9688L20.9378 45.0275C20.541 45.2842 20.0585 45.3727 19.5964 45.2736C19.1343 45.1745 18.7305 44.8959 18.4738 44.4991C18.2171 44.1022 18.1286 43.6197 18.2277 43.1576C18.3268 42.6955 18.6054 42.2917 19.0022 42.035L26.816 36.9786C27.7702 36.3616 28.8688 36.0042 30.0034 35.9417C31.138 35.8792 32.2693 36.1139 33.2855 36.6224L38.3893 39.1708C38.7751 39.3636 39.1982 39.4701 39.6293 39.4828C40.0604 39.4955 40.489 39.4142 40.8855 39.2444L51.3307 34.7699C51.7647 34.5844 52.2546 34.5788 52.6928 34.7542C53.131 34.9297 53.4816 35.2719 53.6677 35.7056ZM19.9688 47.6875C19.4964 47.6875 19.0434 47.8752 18.7093 48.2092C18.3753 48.5433 18.1876 48.9963 18.1876 49.4688C18.1876 49.9412 18.3753 50.3942 18.7093 50.7283C19.0434 51.0623 19.4964 51.25 19.9688 51.25H52.0313C52.5038 51.25 52.9568 51.0623 53.2909 50.7283C53.6249 50.3942 53.8126 49.9412 53.8126 49.4688C53.8126 48.9963 53.6249 48.5433 53.2909 48.2092C52.9568 47.8752 52.5038 47.6875 52.0313 47.6875H19.9688Z" fill="#80FF01"/>
</g>
</g>
<defs>
<radialGradient id="paint0_radial_1252_1036" cx="0" cy="0" r="1" gradientUnits="userSpaceOnUse" gradientTransform="translate(36.5 36.5) rotate(90) scale(36.5)">
<stop stop-color="#01FF67" stop-opacity="0.2"/>
<stop offset="1" stop-color="#A3AE27" stop-opacity="0"/>
</radialGradient>
<clipPath id="clip0_1252_1036">
<rect width="38" height="38" fill="white" transform="translate(17 18)"/>
</clipPath>
</defs>
</svg>
