<svg width="73" height="73" viewBox="0 0 73 73" fill="none" xmlns="http://www.w3.org/2000/svg">
<rect width="73" height="73" fill="url(#paint0_radial_1252_1044)"/>
<path d="M53.0501 31.3793L41.5407 19.877L42.3492 19.069C43.0784 18.3402 43.9821 17.9841 45.0601 18.0005C46.1381 18.017 47.0417 18.389 47.771 19.1166L53.9061 25.248C54.6354 25.9767 55 26.8722 55 27.9344C55 28.9965 54.6354 29.8913 53.9061 30.6189L53.0501 31.3793ZM29.6033 54.9068C28.874 55.6356 27.9786 56 26.9171 56C25.8556 56 24.9595 55.6356 24.229 54.9068L18.0939 48.7754C17.3646 48.0466 17 47.1518 17 46.0909C17 45.03 17.3646 44.1346 18.0939 43.4045L18.8548 42.644L30.3642 54.1463L29.6033 54.9068ZM36.4994 53.576C36.1189 53.9562 35.675 54.1463 35.1677 54.1463C34.6604 54.1463 34.2165 53.9562 33.836 53.576L19.4255 39.1743C19.0451 38.7941 18.8548 38.3504 18.8548 37.8435C18.8548 37.3365 19.0451 36.8929 19.4255 36.5126L22.1364 33.7559C22.5169 33.3756 22.969 33.1855 23.4928 33.1855C24.0166 33.1855 24.4681 33.3756 24.8473 33.7559L27.8436 36.7503L35.7384 28.8602L32.7422 25.8658C32.3617 25.4856 32.1715 25.042 32.1715 24.535C32.1715 24.028 32.3617 23.5844 32.7422 23.2042L35.4531 20.4474C35.8335 20.0672 36.2857 19.877 36.8095 19.877C37.3333 19.877 37.7847 20.0672 38.164 20.4474L52.5745 34.8491C52.9549 35.2293 53.1452 35.6811 53.1452 36.2046C53.1452 36.7281 52.9549 37.1793 52.5745 37.5583L49.816 40.2675C49.4355 40.6477 48.9917 40.8379 48.4844 40.8379C47.9771 40.8379 47.5332 40.6477 47.1527 40.2675L44.1564 37.2731L36.2616 45.1631L39.2578 48.1575C39.6383 48.5378 39.8285 48.989 39.8285 49.5112C39.8285 50.0334 39.6383 50.4852 39.2578 50.8667L36.4994 53.576Z" fill="#80FF01"/>
<defs>
<radialGradient id="paint0_radial_1252_1044" cx="0" cy="0" r="1" gradientUnits="userSpaceOnUse" gradientTransform="translate(36.5 36.5) rotate(90) scale(36.5)">
<stop stop-color="#01FF67" stop-opacity="0.2"/>
<stop offset="1" stop-color="#A3AE27" stop-opacity="0"/>
</radialGradient>
</defs>
</svg>
