<svg width="73" height="73" viewBox="0 0 73 73" fill="none" xmlns="http://www.w3.org/2000/svg">
<rect width="73" height="73" fill="url(#paint0_radial_1252_1046)"/>
<path d="M33.8163 31.917C31.749 32.9044 30.3208 35.0145 30.3208 37.4582C30.3208 40.8479 33.0687 43.5957 36.4583 43.5957C38.902 43.5957 41.0122 42.1675 41.9996 40.1003" stroke="#80FF01" stroke-width="4" stroke-linecap="round" stroke-linejoin="round"/>
<path d="M40.8359 24.8976C39.4651 24.42 37.9921 24.1604 36.4586 24.1604C29.1143 24.1604 23.1606 30.1141 23.1606 37.4583C23.1606 44.8025 29.1143 50.7562 36.4586 50.7562C43.8028 50.7562 49.7565 44.8025 49.7565 37.4583C49.7565 35.9248 49.4969 34.4518 49.0193 33.0809" stroke="#80FF01" stroke-width="4" stroke-linecap="round" stroke-linejoin="round"/>
<path d="M46.2451 19.4883C43.338 17.9017 40.0035 17 36.4583 17C25.1595 17 16 26.1595 16 37.4583C16 48.7572 25.1595 57.9167 36.4583 57.9167C47.7572 57.9167 56.9167 48.7572 56.9167 37.4583C56.9167 33.9132 56.015 30.5787 54.4284 27.6716" stroke="#80FF01" stroke-width="4" stroke-linecap="round" stroke-linejoin="round"/>
<path d="M56.9163 17L36.458 37.4583" stroke="#80FF01" stroke-width="4" stroke-linecap="round" stroke-linejoin="round"/>
<defs>
<radialGradient id="paint0_radial_1252_1046" cx="0" cy="0" r="1" gradientUnits="userSpaceOnUse" gradientTransform="translate(36.5 36.5) rotate(90) scale(36.5)">
<stop stop-color="#01FF67" stop-opacity="0.2"/>
<stop offset="1" stop-color="#A3AE27" stop-opacity="0"/>
</radialGradient>
</defs>
</svg>
