<svg width="156" height="30" viewBox="0 0 156 30" fill="none" xmlns="http://www.w3.org/2000/svg">
<path d="M0.528 23V1.656H4.08V23H0.528ZM13.6778 23V4.632H6.76575V1.656H24.1098V4.632H17.1978V23H13.6778ZM35.6488 23.32C32.2994 23.32 29.7714 22.4133 28.0648 20.6C26.3581 18.7867 25.5048 16.024 25.5048 12.312C25.5048 8.664 26.3474 5.92267 28.0328 4.088C29.7181 2.232 32.2568 1.304 35.6488 1.304C36.7794 1.304 37.8994 1.44267 39.0088 1.72C40.1394 1.99733 41.2274 2.38133 42.2728 2.872V6.04C41.2274 5.42133 40.1821 4.97333 39.1368 4.696C38.1128 4.39733 37.0994 4.248 36.0968 4.248C34.5394 4.248 33.2381 4.52533 32.1927 5.08C31.1688 5.63467 30.4008 6.49867 29.8888 7.672C29.3981 8.84533 29.1528 10.4027 29.1528 12.344C29.1528 14.2427 29.4088 15.7893 29.9208 16.984C30.4328 18.1573 31.2008 19.0213 32.2248 19.576C33.2701 20.1093 34.5928 20.376 36.1928 20.376C37.1528 20.376 38.1448 20.2373 39.1688 19.96C40.1928 19.6613 41.2274 19.2133 42.2728 18.616V21.784C41.6328 22.104 40.9394 22.3813 40.1928 22.616C39.4461 22.8507 38.6888 23.0213 37.9208 23.128C37.1528 23.256 36.3954 23.32 35.6488 23.32ZM52.7168 23.48C50.1141 23.48 48.1728 22.744 46.8928 21.272C45.6341 19.8 45.0048 17.6987 45.0048 14.968C45.0048 12.0667 45.6554 9.944 46.9568 8.6C48.2794 7.23467 50.1781 6.552 52.6528 6.552C54.4234 6.552 55.8848 6.88267 57.0368 7.544C58.1888 8.184 59.0421 9.13333 59.5968 10.392C60.1514 11.6507 60.4288 13.176 60.4288 14.968C60.4288 17.6773 59.7568 19.7787 58.4128 21.272C57.0901 22.744 55.1914 23.48 52.7168 23.48ZM52.6848 20.632C53.7728 20.632 54.6368 20.3973 55.2768 19.928C55.9168 19.4373 56.3754 18.7653 56.6528 17.912C56.9514 17.0587 57.1008 16.0773 57.1008 14.968C57.1008 13.7307 56.9514 12.696 56.6528 11.864C56.3541 11.032 55.8848 10.4133 55.2448 10.008C54.6048 9.58133 53.7514 9.368 52.6848 9.368C51.6181 9.368 50.7648 9.592 50.1248 10.04C49.4848 10.488 49.0261 11.128 48.7488 11.96C48.4714 12.792 48.3328 13.7947 48.3328 14.968C48.3328 16.7387 48.6634 18.1253 49.3248 19.128C49.9861 20.1307 51.1061 20.632 52.6848 20.632ZM69.6608 23.48C68.8288 23.48 68.0288 23.3947 67.2608 23.224C66.4928 23.0747 65.7888 22.808 65.1488 22.424C64.5301 22.04 64.0288 21.5173 63.6448 20.856C63.2821 20.1733 63.1008 19.3307 63.1008 18.328C63.1008 17.1333 63.3354 16.152 63.8048 15.384C64.2741 14.616 64.9461 14.04 65.8208 13.656C66.6954 13.272 67.7408 13.08 68.9568 13.08C69.7674 13.08 70.4928 13.144 71.1328 13.272C71.7941 13.4 72.3808 13.5813 72.8928 13.816C73.4261 14.0293 73.8741 14.2747 74.2368 14.552L74.5888 16.76C74.1194 16.44 73.4901 16.1733 72.7008 15.96C71.9114 15.7253 71.0581 15.608 70.1408 15.608C68.9248 15.608 67.9968 15.8213 67.3568 16.248C66.7381 16.6747 66.4288 17.3147 66.4288 18.168C66.4288 18.808 66.6101 19.3307 66.9728 19.736C67.3354 20.12 67.7834 20.408 68.3168 20.6C68.8714 20.7707 69.4474 20.856 70.0448 20.856C71.3034 20.856 72.2314 20.7707 72.8288 20.6C73.4261 20.4293 73.7248 20.0347 73.7248 19.416V12.696C73.7248 11.5653 73.3834 10.744 72.7008 10.232C72.0181 9.69867 71.0474 9.432 69.7888 9.432C68.8928 9.432 67.9648 9.58133 67.0048 9.88C66.0448 10.1573 65.2554 10.552 64.6368 11.064V7.928C65.2341 7.52267 66.0981 7.20267 67.2288 6.968C68.3808 6.712 69.5648 6.584 70.7808 6.584C71.3781 6.584 71.9754 6.648 72.5728 6.776C73.1914 6.88267 73.7674 7.064 74.3008 7.32C74.8341 7.55467 75.3034 7.88533 75.7088 8.312C76.1354 8.71733 76.4661 9.21867 76.7008 9.816C76.9354 10.4133 77.0528 11.1173 77.0528 11.928V19.608C77.0528 20.6533 76.7221 21.464 76.0608 22.04C75.4208 22.5947 74.5461 22.968 73.4368 23.16C72.3274 23.3733 71.0688 23.48 69.6608 23.48ZM88.3463 23.32C87.3649 23.32 86.4049 23.1813 85.4663 22.904C84.5276 22.6267 83.6743 22.1787 82.9062 21.56C82.1596 20.92 81.5623 20.0773 81.1143 19.032C80.6663 17.9653 80.4423 16.6427 80.4423 15.064C80.4423 13.4427 80.6556 12.088 81.0823 11C81.5089 9.912 82.0956 9.048 82.8423 8.408C83.5889 7.74667 84.4316 7.27733 85.3703 7C86.3303 6.72267 87.3116 6.584 88.3142 6.584C89.1676 6.584 90.0209 6.66933 90.8743 6.84C91.7276 6.98933 92.5169 7.224 93.2423 7.544V10.552C92.5169 10.232 91.7916 9.98667 91.0663 9.816C90.3409 9.624 89.5836 9.528 88.7943 9.528C87.1303 9.528 85.8716 9.944 85.0183 10.776C84.1863 11.608 83.7703 12.952 83.7703 14.808C83.7703 16.728 84.1649 18.136 84.9543 19.032C85.7649 19.9067 87.0769 20.344 88.8903 20.344C89.6796 20.344 90.4476 20.248 91.1943 20.056C91.9409 19.8427 92.6343 19.5867 93.2743 19.288V22.296C92.5276 22.6373 91.7489 22.8933 90.9383 23.064C90.1276 23.2347 89.2636 23.32 88.3463 23.32ZM96.6493 23V0.151999H100.009V9.336L99.0173 8.504C99.8493 7.928 100.767 7.46933 101.769 7.128C102.793 6.76533 103.785 6.584 104.745 6.584C106.004 6.584 107.081 6.808 107.977 7.256C108.873 7.68267 109.567 8.376 110.057 9.336C110.569 10.2747 110.825 11.512 110.825 13.048V23H107.465V13.464C107.465 12.1627 107.156 11.1707 106.537 10.488C105.919 9.80533 105.001 9.464 103.785 9.464C103.145 9.464 102.495 9.56 101.833 9.752C101.193 9.944 100.585 10.2 100.009 10.52L99.9773 23H96.6493ZM115.152 23V7.032H118.512L118.544 23H115.152ZM115.056 4.376V1.336H118.64V4.376H115.056ZM122.868 8.248C123.337 8.01333 123.86 7.8 124.436 7.608C125.033 7.39467 125.663 7.21333 126.324 7.064C126.985 6.91467 127.657 6.79733 128.34 6.712C129.023 6.62667 129.684 6.584 130.324 6.584C131.839 6.584 133.076 6.79733 134.036 7.224C134.996 7.62933 135.711 8.26933 136.18 9.144C136.649 9.99733 136.884 11.0747 136.884 12.376V23H133.524V12.824C133.524 12.4187 133.471 12.024 133.364 11.64C133.279 11.2347 133.097 10.872 132.82 10.552C132.564 10.2107 132.18 9.944 131.668 9.752C131.177 9.56 130.527 9.464 129.716 9.464C129.14 9.464 128.543 9.51733 127.924 9.624C127.327 9.73067 126.761 9.88 126.228 10.072V23H122.868V8.248ZM147.486 23.48C145.929 23.4587 144.606 23.1387 143.518 22.52C142.451 21.88 141.641 20.9627 141.086 19.768C140.553 18.5733 140.286 17.1227 140.286 15.416C140.286 13.6027 140.51 12.12 140.958 10.968C141.427 9.816 142.057 8.92 142.846 8.28C143.657 7.64 144.563 7.20267 145.566 6.968C146.59 6.712 147.646 6.584 148.734 6.584C149.886 6.584 150.931 6.73333 151.87 7.032C152.809 7.33067 153.566 7.78933 154.142 8.408C154.718 9.00533 155.006 9.784 155.006 10.744V23.48C155.006 24.3333 154.867 25.1227 154.59 25.848C154.334 26.5947 153.907 27.256 153.31 27.832C152.734 28.408 151.966 28.856 151.006 29.176C150.046 29.496 148.873 29.656 147.486 29.656C146.377 29.656 145.385 29.56 144.51 29.368C143.635 29.1973 142.91 29.016 142.334 28.824V25.752C142.675 25.88 143.102 26.0187 143.614 26.168C144.126 26.3173 144.691 26.4453 145.31 26.552C145.95 26.68 146.601 26.744 147.262 26.744C148.521 26.744 149.459 26.584 150.078 26.264C150.718 25.944 151.145 25.528 151.358 25.016C151.571 24.5253 151.678 23.992 151.678 23.416V20.984L152.574 21.72C152.19 22.04 151.71 22.3387 151.134 22.616C150.579 22.872 149.982 23.0747 149.342 23.224C148.723 23.3947 148.105 23.48 147.486 23.48ZM148.03 20.76C148.649 20.76 149.278 20.6853 149.918 20.536C150.558 20.3653 151.145 20.12 151.678 19.8V11.384C151.678 10.8293 151.529 10.424 151.23 10.168C150.953 9.89067 150.569 9.69867 150.078 9.592C149.587 9.48533 149.065 9.432 148.51 9.432C147.209 9.432 146.206 9.69867 145.502 10.232C144.819 10.744 144.35 11.448 144.094 12.344C143.838 13.24 143.71 14.232 143.71 15.32C143.71 16.9413 144.062 18.2533 144.766 19.256C145.47 20.2587 146.558 20.76 148.03 20.76Z" fill="#313273"/>
</svg>
