<svg width="176" height="30" viewBox="0 0 176 30" fill="none" xmlns="http://www.w3.org/2000/svg">
<path d="M0.528 23V1.656H4.08V23H0.528ZM8.62175 23V1.656H18.0938C20.3124 1.656 22.0084 2.2 23.1818 3.288C24.3764 4.35467 24.9738 5.95467 24.9738 8.088C24.9738 9.19733 24.7498 10.2213 24.3018 11.16C23.8538 12.0987 23.2031 12.8667 22.3498 13.464C21.4964 14.0613 20.4831 14.4027 19.3098 14.488L19.6938 13.4L26.0298 23H21.6458L15.7258 13.432L17.3578 14.936H12.1418V23H8.62175ZM12.1418 12.056H17.1018C18.5098 12.056 19.5551 11.7467 20.2378 11.128C20.9418 10.5093 21.2938 9.57067 21.2938 8.312C21.2938 7.13867 21.0164 6.232 20.4618 5.592C19.9284 4.952 19.0004 4.632 17.6778 4.632H12.1418V12.056ZM33.9903 23V4.632H27.0783V1.656H44.4223V4.632H37.5103V23H33.9903ZM55.9613 23.32C52.6119 23.32 50.0839 22.4133 48.3773 20.6C46.6706 18.7867 45.8173 16.024 45.8173 12.312C45.8173 8.664 46.6599 5.92267 48.3453 4.088C50.0306 2.232 52.5693 1.304 55.9613 1.304C57.0919 1.304 58.2119 1.44267 59.3213 1.72C60.4519 1.99733 61.5399 2.38133 62.5853 2.872V6.04C61.5399 5.42133 60.4946 4.97333 59.4493 4.696C58.4253 4.39733 57.4119 4.248 56.4093 4.248C54.8519 4.248 53.5506 4.52533 52.5052 5.08C51.4813 5.63467 50.7133 6.49867 50.2013 7.672C49.7106 8.84533 49.4653 10.4027 49.4653 12.344C49.4653 14.2427 49.7213 15.7893 50.2333 16.984C50.7453 18.1573 51.5133 19.0213 52.5373 19.576C53.5826 20.1093 54.9053 20.376 56.5053 20.376C57.4653 20.376 58.4573 20.2373 59.4813 19.96C60.5053 19.6613 61.5399 19.2133 62.5853 18.616V21.784C61.9453 22.104 61.2519 22.3813 60.5053 22.616C59.7586 22.8507 59.0013 23.0213 58.2333 23.128C57.4653 23.256 56.7079 23.32 55.9613 23.32ZM73.0293 23.48C70.4266 23.48 68.4853 22.744 67.2053 21.272C65.9466 19.8 65.3173 17.6987 65.3173 14.968C65.3173 12.0667 65.9679 9.944 67.2693 8.6C68.5919 7.23467 70.4906 6.552 72.9653 6.552C74.7359 6.552 76.1973 6.88267 77.3493 7.544C78.5013 8.184 79.3546 9.13333 79.9093 10.392C80.4639 11.6507 80.7413 13.176 80.7413 14.968C80.7413 17.6773 80.0693 19.7787 78.7253 21.272C77.4026 22.744 75.5039 23.48 73.0293 23.48ZM72.9973 20.632C74.0853 20.632 74.9493 20.3973 75.5893 19.928C76.2293 19.4373 76.6879 18.7653 76.9653 17.912C77.2639 17.0587 77.4133 16.0773 77.4133 14.968C77.4133 13.7307 77.2639 12.696 76.9653 11.864C76.6666 11.032 76.1973 10.4133 75.5573 10.008C74.9173 9.58133 74.0639 9.368 72.9973 9.368C71.9306 9.368 71.0773 9.592 70.4373 10.04C69.7973 10.488 69.3386 11.128 69.0613 11.96C68.7839 12.792 68.6453 13.7947 68.6453 14.968C68.6453 16.7387 68.9759 18.1253 69.6373 19.128C70.2986 20.1307 71.4186 20.632 72.9973 20.632ZM89.9733 23.48C89.1413 23.48 88.3413 23.3947 87.5733 23.224C86.8053 23.0747 86.1013 22.808 85.4613 22.424C84.8426 22.04 84.3413 21.5173 83.9573 20.856C83.5946 20.1733 83.4133 19.3307 83.4133 18.328C83.4133 17.1333 83.6479 16.152 84.1173 15.384C84.5866 14.616 85.2586 14.04 86.1333 13.656C87.0079 13.272 88.0533 13.08 89.2693 13.08C90.0799 13.08 90.8053 13.144 91.4453 13.272C92.1066 13.4 92.6933 13.5813 93.2053 13.816C93.7386 14.0293 94.1866 14.2747 94.5493 14.552L94.9013 16.76C94.4319 16.44 93.8026 16.1733 93.0133 15.96C92.2239 15.7253 91.3706 15.608 90.4533 15.608C89.2373 15.608 88.3093 15.8213 87.6693 16.248C87.0506 16.6747 86.7413 17.3147 86.7413 18.168C86.7413 18.808 86.9226 19.3307 87.2853 19.736C87.6479 20.12 88.0959 20.408 88.6293 20.6C89.1839 20.7707 89.7599 20.856 90.3573 20.856C91.6159 20.856 92.5439 20.7707 93.1413 20.6C93.7386 20.4293 94.0373 20.0347 94.0373 19.416V12.696C94.0373 11.5653 93.6959 10.744 93.0133 10.232C92.3306 9.69867 91.3599 9.432 90.1013 9.432C89.2053 9.432 88.2773 9.58133 87.3173 9.88C86.3573 10.1573 85.5679 10.552 84.9493 11.064V7.928C85.5466 7.52267 86.4106 7.20267 87.5413 6.968C88.6933 6.712 89.8773 6.584 91.0933 6.584C91.6906 6.584 92.2879 6.648 92.8853 6.776C93.5039 6.88267 94.0799 7.064 94.6133 7.32C95.1466 7.55467 95.6159 7.88533 96.0213 8.312C96.4479 8.71733 96.7786 9.21867 97.0133 9.816C97.2479 10.4133 97.3653 11.1173 97.3653 11.928V19.608C97.3653 20.6533 97.0346 21.464 96.3733 22.04C95.7333 22.5947 94.8586 22.968 93.7493 23.16C92.6399 23.3733 91.3813 23.48 89.9733 23.48ZM108.659 23.32C107.677 23.32 106.717 23.1813 105.779 22.904C104.84 22.6267 103.987 22.1787 103.219 21.56C102.472 20.92 101.875 20.0773 101.427 19.032C100.979 17.9653 100.755 16.6427 100.755 15.064C100.755 13.4427 100.968 12.088 101.395 11C101.821 9.912 102.408 9.048 103.155 8.408C103.901 7.74667 104.744 7.27733 105.683 7C106.643 6.72267 107.624 6.584 108.627 6.584C109.48 6.584 110.333 6.66933 111.187 6.84C112.04 6.98933 112.829 7.224 113.555 7.544V10.552C112.829 10.232 112.104 9.98667 111.379 9.816C110.653 9.624 109.896 9.528 109.107 9.528C107.443 9.528 106.184 9.944 105.331 10.776C104.499 11.608 104.083 12.952 104.083 14.808C104.083 16.728 104.477 18.136 105.267 19.032C106.077 19.9067 107.389 20.344 109.203 20.344C109.992 20.344 110.76 20.248 111.507 20.056C112.253 19.8427 112.947 19.5867 113.587 19.288V22.296C112.84 22.6373 112.061 22.8933 111.251 23.064C110.44 23.2347 109.576 23.32 108.659 23.32ZM116.962 23V0.151999H120.322V9.336L119.33 8.504C120.162 7.928 121.079 7.46933 122.082 7.128C123.106 6.76533 124.098 6.584 125.058 6.584C126.316 6.584 127.394 6.808 128.29 7.256C129.186 7.68267 129.879 8.376 130.37 9.336C130.882 10.2747 131.138 11.512 131.138 13.048V23H127.778V13.464C127.778 12.1627 127.468 11.1707 126.85 10.488C126.231 9.80533 125.314 9.464 124.098 9.464C123.458 9.464 122.807 9.56 122.146 9.752C121.506 9.944 120.898 10.2 120.322 10.52L120.29 23H116.962ZM135.464 23V7.032H138.824L138.856 23H135.464ZM135.368 4.376V1.336H138.952V4.376H135.368ZM143.181 8.248C143.65 8.01333 144.173 7.8 144.749 7.608C145.346 7.39467 145.975 7.21333 146.637 7.064C147.298 6.91467 147.97 6.79733 148.653 6.712C149.335 6.62667 149.997 6.584 150.637 6.584C152.151 6.584 153.389 6.79733 154.349 7.224C155.309 7.62933 156.023 8.26933 156.493 9.144C156.962 9.99733 157.197 11.0747 157.197 12.376V23H153.837V12.824C153.837 12.4187 153.783 12.024 153.677 11.64C153.591 11.2347 153.41 10.872 153.133 10.552C152.877 10.2107 152.493 9.944 151.981 9.752C151.49 9.56 150.839 9.464 150.029 9.464C149.453 9.464 148.855 9.51733 148.237 9.624C147.639 9.73067 147.074 9.88 146.541 10.072V23H143.181V8.248ZM167.799 23.48C166.241 23.4587 164.919 23.1387 163.831 22.52C162.764 21.88 161.953 20.9627 161.399 19.768C160.865 18.5733 160.599 17.1227 160.599 15.416C160.599 13.6027 160.823 12.12 161.271 10.968C161.74 9.816 162.369 8.92 163.159 8.28C163.969 7.64 164.876 7.20267 165.879 6.968C166.903 6.712 167.959 6.584 169.047 6.584C170.199 6.584 171.244 6.73333 172.183 7.032C173.121 7.33067 173.879 7.78933 174.455 8.408C175.031 9.00533 175.319 9.784 175.319 10.744V23.48C175.319 24.3333 175.18 25.1227 174.903 25.848C174.647 26.5947 174.22 27.256 173.623 27.832C173.047 28.408 172.279 28.856 171.319 29.176C170.359 29.496 169.185 29.656 167.799 29.656C166.689 29.656 165.697 29.56 164.823 29.368C163.948 29.1973 163.223 29.016 162.647 28.824V25.752C162.988 25.88 163.415 26.0187 163.927 26.168C164.439 26.3173 165.004 26.4453 165.623 26.552C166.263 26.68 166.913 26.744 167.575 26.744C168.833 26.744 169.772 26.584 170.391 26.264C171.031 25.944 171.457 25.528 171.671 25.016C171.884 24.5253 171.991 23.992 171.991 23.416V20.984L172.887 21.72C172.503 22.04 172.023 22.3387 171.447 22.616C170.892 22.872 170.295 23.0747 169.655 23.224C169.036 23.3947 168.417 23.48 167.799 23.48ZM168.343 20.76C168.961 20.76 169.591 20.6853 170.231 20.536C170.871 20.3653 171.457 20.12 171.991 19.8V11.384C171.991 10.8293 171.841 10.424 171.543 10.168C171.265 9.89067 170.881 9.69867 170.391 9.592C169.9 9.48533 169.377 9.432 168.823 9.432C167.521 9.432 166.519 9.69867 165.815 10.232C165.132 10.744 164.663 11.448 164.407 12.344C164.151 13.24 164.023 14.232 164.023 15.32C164.023 16.9413 164.375 18.2533 165.079 19.256C165.783 20.2587 166.871 20.76 168.343 20.76Z" fill="#313273"/>
</svg>
