<svg width="84" height="98" viewBox="0 0 84 98" fill="none" xmlns="http://www.w3.org/2000/svg">
<g clip-path="url(#clip0_745_31930)">
<rect width="84" height="98" fill="url(#paint0_radial_745_31930)"/>
<g clip-path="url(#clip1_745_31930)">
<path d="M67.8358 46.8725C67.839 49.156 67.5325 51.4292 66.9246 53.6294L63.957 52.2268L63.4513 51.9887L63.2994 51.6391C63.1476 51.2911 58.4396 46.755 58.0432 46.3627C57.6468 45.9705 57.3021 46.3627 56.6172 46.3627C57.1214 43.1712 56.8085 39.2868 56.6764 37.704C56.6506 37.3698 56.6065 36.9821 56.5488 36.5456C56.792 36.5993 57.0453 36.5822 57.2791 36.4962C57.5129 36.4103 57.7174 36.259 57.8686 36.0602C58.3409 35.4497 57.7167 32.4902 57.6696 30.3763C57.6613 30.0928 57.6679 29.809 57.6894 29.5261C58.5672 29.3949 59.5118 29.2209 60.4154 29.0103C62.7697 31.3438 64.6383 34.125 65.9123 37.1917C67.1862 40.2584 67.8401 43.5493 67.8358 46.8725V46.8725Z" fill="#FF0200"/>
<path d="M63.9522 52.2268L66.9198 53.6295C65.6075 58.3519 62.9482 62.585 59.2701 65.8063L57.2776 61.6013C58.2914 61.6144 59.3052 61.5751 60.315 61.4838C61.7532 61.3312 62.3227 60.6138 62.3227 60.6138V60.6016L63.9522 52.2268Z" fill="#253A45"/>
<path d="M63.9522 52.2253L62.3302 60.6001C62.3575 60.3543 62.8192 56.3264 63.4464 51.9857L63.9522 52.2253Z" fill="#1A2B32"/>
<path d="M52.352 61.331C53.4151 58.2342 54.4022 55.0198 55.1753 52.2267C55.2223 52.0527 55.2694 51.8833 55.3165 51.7139C55.6901 50.3402 56.0105 49.0734 56.255 47.9958C56.4061 47.4607 56.5242 46.9169 56.6089 46.3672C57.2938 46.3672 57.6446 45.9826 58.035 46.3672C58.4253 46.7519 63.1423 51.2956 63.2912 51.6436L63.443 51.9932C62.8158 56.337 62.3541 60.3619 62.3268 60.6076V60.6198L57.2741 61.6058L55.7189 58.3227L58.5665 66.4121C55.5614 68.8631 52.0291 70.5762 48.25 71.4153C49.5546 68.9519 51.014 65.2353 52.352 61.331ZM56.5026 52.4892C56.5542 52.3946 57.3713 50.8698 57.6067 49.4977C57.7483 48.6012 57.7483 47.688 57.6067 46.7915C57.6067 46.7915 57.5156 49.0688 56.5026 52.4892Z" fill="#253A45"/>
<path d="M62.3283 60.6138C62.3283 60.6138 61.7588 61.3342 60.3206 61.4838C59.3108 61.5751 58.297 61.6143 57.2832 61.6013V61.6013L62.3283 60.6138Z" fill="#1A2B32"/>
<path d="M57.2775 61.6013L59.27 65.8063C59.0407 66.0108 58.8068 66.2077 58.5684 66.4015L55.7208 58.3121L57.276 61.5952L57.2775 61.6013Z" fill="#1A2B32"/>
<path d="M57.8288 34.7232C57.8346 35.0707 57.7419 35.4127 57.5615 35.7092C57.156 36.2801 56.2554 36.277 56.9009 36.2205C57.7483 36.1473 57.9002 35.6024 57.8288 34.7232ZM57.6663 30.3748C57.7164 32.4887 58.3376 35.4543 57.8653 36.0588C57.7141 36.2575 57.5096 36.4088 57.2758 36.4948C57.042 36.5807 56.7887 36.5979 56.5455 36.5441C56.4028 35.4452 56.1689 34.0456 55.8712 32.4552C56.5045 32.3437 56.8234 34.5126 56.8918 33.8899C56.8995 33.7883 56.8995 33.6862 56.8918 33.5846L57.3474 33.5556C57.3474 33.5556 57.3352 31.6157 57.2851 30.3504C57.4101 30.3789 57.5388 30.3872 57.6663 30.3748V30.3748Z" fill="#80A1AD"/>
<path d="M57.8288 34.7233C57.9002 35.6024 57.7483 36.1473 56.9009 36.2206C56.2555 36.277 57.156 36.2801 57.5615 35.7093C57.7419 35.4127 57.8346 35.0708 57.8288 34.7233Z" fill="#F9FBFC"/>
<path d="M57.6857 29.5245C57.6642 29.8073 57.6576 30.0911 57.6659 30.3746C57.5372 30.3858 57.4074 30.376 57.2817 30.3456C57.2726 30.1075 57.2635 29.8878 57.2498 29.7199C57.1769 28.6179 56.0045 28.1493 55.2755 29.4299C55.1743 28.9313 55.0675 28.4225 54.9551 27.9036C56.6256 27.2824 57.871 27.6243 57.6887 29.4528C57.6887 29.4757 57.6872 29.5016 57.6857 29.5245Z" fill="#526C77"/>
<path d="M57.606 46.7886C57.7477 47.685 57.7477 48.5983 57.606 49.4947C57.3706 50.8684 56.5536 52.3947 56.502 52.4862C57.5164 49.0689 57.606 46.7886 57.606 46.7886Z" fill="#526C77"/>
<path d="M57.3439 33.5543L56.8883 33.5833C56.8488 32.9117 56.5147 31.9318 55.7493 31.8555C55.6389 31.2816 55.522 30.6884 55.3984 30.0758C55.6741 30.0368 55.9546 30.0519 56.2246 30.1201C56.3562 30.2267 56.4736 30.3498 56.5739 30.4864C57.2133 31.3289 57.3439 33.5543 57.3439 33.5543Z" fill="#80A1AD"/>
<path d="M57.2817 30.3456C57.3319 31.614 57.344 33.5509 57.344 33.5509C57.344 33.5509 57.2134 31.3255 56.5847 30.483C56.4843 30.3464 56.3669 30.2233 56.2354 30.1167C56.5983 30.1884 56.9901 30.2892 57.2817 30.3456Z" fill="#1A2B32"/>
<path d="M57.2502 29.72C57.2639 29.894 57.273 30.1077 57.2821 30.3458C56.9905 30.2893 56.5987 30.1932 56.2327 30.1199C55.9903 29.906 55.674 29.7964 55.3519 29.8147C55.3276 29.6895 55.3002 29.5628 55.2744 29.4346C56.0049 28.1495 57.1773 28.618 57.2502 29.72Z" fill="#1A2B32"/>
<path d="M56.8963 33.5831C56.904 33.6847 56.904 33.7868 56.8963 33.8884C56.828 34.5111 56.509 32.3422 55.8757 32.4537C55.8378 32.2568 55.8013 32.0553 55.7618 31.8538C56.5227 31.9317 56.8568 32.9115 56.8963 33.5831Z" fill="#1A2B32"/>
<path d="M55.8716 32.4549C56.1754 34.0453 56.4032 35.4449 56.5459 36.5439C56.6036 36.9804 56.6477 37.3681 56.6735 37.7023C56.8056 39.2851 57.1185 43.1695 56.6143 46.361H56.6006C56.5125 46.8372 56.3971 47.3836 56.2604 47.9896C56.114 48.5113 55.9102 49.015 55.6529 49.4914C56.1966 48.0705 56.5247 44.9782 56.4958 41.1884C56.467 37.3986 55.3826 32.9647 55.0865 30.8447C54.9209 29.6725 54.7554 28.5369 54.6309 27.5112C54.7827 27.4822 54.8693 27.4746 54.8693 27.4746C54.8981 27.6166 54.9285 27.76 54.9589 27.9004C55.0693 28.4184 55.1761 28.9271 55.2793 29.4267C55.3052 29.555 55.3325 29.6816 55.3568 29.8068L55.4115 30.0724C55.535 30.6829 55.6519 31.2761 55.7623 31.852C55.7972 32.0566 55.8337 32.258 55.8716 32.4549Z" fill="#F9FBFC"/>
<path d="M48.343 41.8175C48.3643 41.8327 48.747 42.1013 49.921 44.023C51.1359 46.0071 52.7503 48.1714 52.7503 48.1714C52.7503 48.1714 50.5011 42.9042 48.343 41.8175ZM52.158 31.3226C52.1079 31.3638 51.2468 32.0049 49.7053 31.5455C48.6832 31.2402 48.1517 30.8098 47.9057 30.5442C48.0317 30.5809 48.1653 30.6114 48.3036 30.6373C50.9081 31.1212 52.4329 28.2807 53.3259 27.9159C53.5856 28.6058 53.1588 29.1675 53.1224 29.6346C53.0859 30.1016 53.7298 29.0561 53.7815 27.7419C54.0571 27.6477 54.3394 27.5742 54.6259 27.5222C54.7565 28.5478 54.922 29.6834 55.0815 30.8556C55.3776 32.9756 56.465 37.4187 56.4908 41.1993C56.5167 44.9799 56.1871 48.0814 55.648 49.5024C55.5125 49.7512 55.3527 49.9858 55.1711 50.2029C54.8619 50.5781 54.4595 50.8645 54.0047 51.0332C49.2861 52.7 49.4486 54.7605 42.8287 54.7605V53.8264C45.5076 53.8264 46.8456 53.6386 48.7166 52.8907C49.8632 52.4287 50.961 51.8529 51.994 51.1721C49.9863 51.3095 48.7455 52.2558 46.7727 52.2329C44.7999 52.21 45.0596 51.1721 42.8241 51.1721V40.2194C43.8758 40.2126 44.913 39.9724 45.8615 39.5158C45.8615 39.5158 44.8181 38.9694 42.8347 38.9694V37.5164C44.3975 37.5164 46.1455 36.9547 47.2997 37.7407C48.4539 38.5268 48.8852 39.1739 49.0857 39.0991C49.2861 39.0243 49.4076 38.4001 49.0857 38.4001H48.7576C48.7576 38.4001 47.3908 37.1546 46.3535 36.7303C45.3163 36.306 43.9707 36.3823 43.9707 36.3823C43.9707 36.3823 43.7475 36.7563 42.8302 36.7563V34.737C44.0937 34.737 44.1074 33.9143 44.8774 33.9631C45.6474 34.012 45.9298 34.1875 46.1531 34.0883C46.3763 33.9891 46.3535 33.0199 45.4849 33.0412C44.6162 33.0626 44.4415 33.8044 42.8302 33.8044V27.9159C44.5433 27.9159 45.2601 29.0072 46.4234 29.833C47.444 31.1318 48.7106 32.2018 50.1958 32.1224C51.6432 32.0461 52.1291 31.3669 52.158 31.3226ZM55.3321 42.6707C55.282 42.518 54.0883 39.0884 53.1786 37.5911C52.2689 36.0938 50.2429 34.5828 50.1655 34.5279C50.2429 34.6271 52.7472 37.8033 54.0336 40.2194C55.1741 42.3685 55.3154 42.6386 55.3321 42.6707V42.6707ZM46.068 31.0021C47.0096 32.1453 47.529 32.7696 46.7347 33.6914L47.3285 33.5388C47.3285 33.5388 50.4054 36.6296 52.0927 39.8699C52.4815 40.6163 52.7807 41.2268 53.0115 41.7259C53.499 42.9362 53.7876 43.8093 53.7876 43.8093C53.7876 43.8093 53.7876 43.3956 53.0115 41.7259C52.3645 40.1187 51.3728 37.9223 50.2566 36.3747C48.296 33.664 48.1972 33.4885 47.7264 32.7909C47.2556 32.0934 46.1333 31.0662 46.062 31.0021H46.068ZM52.1671 33.3404C52.8369 33.2412 52.7564 32.5177 52.7564 32.5177C52.7564 32.5177 51.9439 33.1664 50.9765 33.0412C51.3214 33.2836 51.743 33.3901 52.161 33.3404H52.1671Z" fill="#80A1AD"/>
<path d="M56.2324 30.1201C55.9624 30.0519 55.6819 30.0369 55.4062 30.0759L55.3516 29.8103C55.6743 29.7933 55.9907 29.9046 56.2324 30.1201V30.1201Z" fill="#526C77"/>
<path d="M55.654 49.4947C55.9113 49.0183 56.1151 48.5146 56.2615 47.9929C56.017 49.0704 55.6965 50.3327 55.323 51.7109C51.1314 55.374 46.6664 56.6912 46.5251 56.7309C46.715 56.6042 53.9409 51.775 55.1817 50.1938C55.3617 49.977 55.5199 49.7428 55.654 49.4947V49.4947Z" fill="#1A2B32"/>
<path d="M55.3316 42.6706C55.3149 42.6386 55.1798 42.3654 54.0332 40.2194C52.7499 37.8033 50.2364 34.627 50.165 34.5278C50.2425 34.5828 52.2639 36.0877 53.1781 37.5911C54.0924 39.0945 55.2876 42.5226 55.3316 42.6706Z" fill="#526C77"/>
<path d="M46.5206 56.7324C46.6603 56.6928 51.1268 55.3771 55.3184 51.7125C55.2713 51.8819 55.2242 52.0513 55.1771 52.2253C53.051 55.1085 45.093 58.1656 45.093 58.1656H42.8347V57.1705C45.1128 57.1705 45.7126 56.3967 45.7126 56.3967C45.7126 56.3967 44.6496 56.4226 42.8347 56.3967V54.7528C49.4577 54.7528 49.2922 52.6923 54.0108 51.0256C54.4656 50.8569 54.8679 50.5705 55.1771 50.1953C53.9364 51.7766 46.7104 56.6103 46.5206 56.7324Z" fill="#526C77"/>
<path d="M54.8644 27.4779C54.8644 27.4779 54.7778 27.4855 54.6259 27.5145C54.5181 26.6873 54.4315 25.9348 54.3829 25.2892C54.5485 26.0264 54.7095 26.759 54.8644 27.4779Z" fill="#80A1AD"/>
<path d="M47.9056 30.5443C47.3744 30.3949 46.874 30.1515 46.4279 29.8254C45.2646 28.9996 44.5478 27.916 42.8347 27.916V26.7667C48.5693 26.7667 51.2285 25.6021 54.3054 24.9504C54.3312 25.0633 54.3571 25.1793 54.3829 25.2938C54.4315 25.9394 54.518 26.6919 54.6259 27.5191C54.3394 27.5712 54.0571 27.6447 53.7815 27.7389C53.6402 27.7878 53.4868 27.8442 53.3259 27.9129C52.4329 28.2808 50.9081 31.1212 48.302 30.6374C48.1653 30.6114 48.0317 30.5809 47.9056 30.5443Z" fill="#1A2B32"/>
<path d="M53.01 41.7274C53.7815 43.3972 53.7861 43.8108 53.7861 43.8108C53.7861 43.8108 53.493 42.9378 53.01 41.7274Z" fill="#80A1AD"/>
<path d="M53.3262 27.9162C53.4872 27.8475 53.6406 27.791 53.7818 27.7422C53.7362 29.0563 53.0847 30.1018 53.1227 29.6348C53.1607 29.1677 53.5859 28.5984 53.3262 27.9162Z" fill="#1A2B32"/>
<path d="M55.176 52.2271C54.403 55.0202 53.4159 58.2346 52.3528 61.3314L52.0901 61.6016L48.7489 65.0312C48.3356 63.4731 47.7024 61.9826 46.8688 60.6049C46.3581 59.7332 45.7618 58.9151 45.0889 58.1628C45.0889 58.1628 53.0559 55.1102 55.176 52.2271Z" fill="#F9FBFC"/>
<path d="M50.2501 36.376C51.3663 37.9236 52.358 40.12 53.005 41.7272C52.7742 41.2281 52.475 40.6176 52.0862 39.8712C50.3989 36.6309 47.322 33.5401 47.322 33.5401L46.7282 33.6928C47.5225 32.777 47.0031 32.1466 46.0615 31.0034C46.1329 31.0675 47.2628 32.1176 47.7199 32.7938C48.1771 33.4699 48.2894 33.6653 50.2501 36.376Z" fill="#1A2B32"/>
<path d="M52.7506 32.5176C52.7506 32.5176 52.8311 33.241 52.1614 33.3403C51.7406 33.3897 51.3165 33.281 50.9707 33.035C51.9381 33.1663 52.7506 32.5176 52.7506 32.5176Z" fill="#526C77"/>
<path d="M52.0893 61.6012L52.352 61.3311C51.0141 65.2353 49.5546 68.9519 48.2516 71.4046C48.045 71.4489 47.837 71.4931 47.6289 71.5344C47.9175 70.9238 49.1476 68.3917 50.2016 66.2839C50.9518 64.7738 51.5835 63.2071 52.0908 61.5982L52.0893 61.6012Z" fill="#1A2B32"/>
<path d="M52.0863 61.6043C51.5789 63.2133 50.9472 64.78 50.197 66.2901C49.1415 68.3979 47.919 70.9346 47.6244 71.5405C47.3743 71.5894 47.1212 71.6336 46.865 71.6733C46.66 68.1414 45.6227 64.5516 44.6659 63.3367C44.4476 62.8687 44.2048 62.4127 43.9385 61.9706L44.4503 61.7341L46.7906 61.1235C46.7906 61.1235 47.758 62.6941 48.1119 64.0403C48.4657 65.3865 48.3715 66.2839 48.3715 66.2839L52.0863 61.6043Z" fill="#F9FBFC"/>
<path d="M52.087 61.6046L48.3783 66.2888C48.3783 66.2888 48.4709 65.3913 48.1186 64.0451C47.7663 62.6989 46.7973 61.1284 46.7973 61.1284L44.457 61.7389L46.8718 60.6201C47.7054 61.9978 48.3386 63.4884 48.7519 65.0464L52.087 61.6046Z" fill="#526C77"/>
<path d="M52.75 48.1714C52.75 48.1714 51.1311 46.0025 49.9207 44.0229C48.7467 42.1013 48.364 41.8326 48.3428 41.8174C50.5008 42.9041 52.75 48.1714 52.75 48.1714Z" fill="#526C77"/>
<path d="M52.158 31.3227C52.1292 31.3669 51.6417 32.0461 50.2004 32.1209C48.7151 32.1942 47.4485 31.1243 46.428 29.8315C46.8741 30.1576 47.3745 30.401 47.9057 30.5504C48.1517 30.8159 48.6832 31.2464 49.7053 31.5516C51.2453 32.0049 52.1079 31.3639 52.158 31.3227Z" fill="#1A2B32"/>
<path d="M52 51.1645C50.9671 51.8453 49.8692 52.421 48.7227 52.8831C46.8517 53.631 45.5137 53.8187 42.8347 53.8187V51.1645C45.0657 51.1645 44.809 52.2039 46.7833 52.2253C48.7576 52.2466 49.9923 51.3019 52 51.1645Z" fill="#526C77"/>
<path d="M49.0857 38.4001C49.4076 38.4001 49.2831 39.0243 49.0857 39.0991C48.8882 39.1739 48.4524 38.5252 47.2997 37.7407C46.147 36.9562 44.3975 37.5163 42.8347 37.5163V36.7532C43.7459 36.7532 43.9753 36.3793 43.9753 36.3793C43.9753 36.3793 45.3147 36.3045 46.3581 36.7272C47.4014 37.15 48.7576 38.4001 48.7576 38.4001H49.0857Z" fill="#1A2B32"/>
<path d="M46.8714 60.6138L44.4567 61.7326L43.9449 61.9692H42.8347V58.1672H45.0915C45.7647 58.9209 46.361 59.7405 46.8714 60.6138Z" fill="#1A2B32"/>
<path d="M46.8719 71.6716C46.6882 71.7036 46.5059 71.7326 46.3222 71.7571C46.2857 70.9832 46.1703 68.5518 45.9607 67.3155C45.7151 65.9356 45.2818 64.5962 44.6729 63.335C45.6296 64.5468 46.6669 68.1397 46.8719 71.6716Z" fill="#526C77"/>
<path d="M45.1811 65.2339C45.2069 65.4049 45.7673 69.0817 45.377 71.8718C44.5417 71.9557 43.6928 72 42.8347 72V61.9692H43.9449C44.2112 62.4113 44.4541 62.8673 44.6723 63.3352C45.2812 64.5964 45.7146 65.9359 45.9602 67.3158C46.1622 68.5536 46.2852 70.9789 46.3216 71.7573C46.1895 71.7756 46.0604 71.794 45.9298 71.8077C45.9298 71.8077 46.1622 67.6592 45.1811 65.2339Z" fill="#1A2B32"/>
<path d="M45.4894 33.0413C46.3581 33.0169 46.3809 33.9891 46.1576 34.0883C45.9344 34.1875 45.6489 34.0135 44.8819 33.9632C44.115 33.9128 44.0983 34.737 42.8347 34.737V33.8029C44.4461 33.8029 44.6207 33.0672 45.4894 33.0413Z" fill="#1A2B32"/>
<path d="M45.1807 65.2339C46.1617 67.6592 45.9294 71.8077 45.9294 71.8077C45.7456 71.8321 45.5619 71.8534 45.3766 71.8718C45.7669 69.0817 45.2065 65.4048 45.1807 65.2339Z" fill="#253A45"/>
<path d="M45.7202 56.3982C45.7202 56.3982 45.1128 57.172 42.8347 57.172V56.3982C44.645 56.4241 45.7202 56.3982 45.7202 56.3982Z" fill="#1A2B32"/>
<path d="M42.8347 38.9755C44.8181 38.9755 45.8615 39.5219 45.8615 39.5219C44.9157 39.9749 43.8823 40.213 42.8347 40.2195V38.9755Z" fill="#1A2B32"/>
<path d="M17.834 46.8726C17.8307 49.156 18.1373 51.4293 18.7452 53.6295L21.7249 52.2268L22.2306 51.9887L22.3825 51.6392C22.5344 51.2912 27.2423 46.755 27.6387 46.3628C28.0351 45.9705 28.3798 46.3628 29.0648 46.3628C28.5606 43.1713 28.8734 39.2869 29.0055 37.7041C29.0314 37.3698 29.0754 36.9822 29.1331 36.5456C28.89 36.5994 28.6366 36.5823 28.4028 36.4963C28.1691 36.4103 27.9645 36.2591 27.8134 36.0603C27.341 35.4498 27.9652 32.4903 28.0123 30.3764C28.0207 30.0928 28.0141 29.809 27.9926 29.5262C27.1148 29.3949 26.1701 29.2209 25.2589 29.0103C22.9038 31.3435 21.0344 34.1245 19.7596 37.1912C18.4849 40.258 17.8303 43.549 17.834 46.8726V46.8726Z" fill="#FF0200"/>
<path d="M21.7253 52.2271L18.7578 53.6297C20.0701 58.3522 22.7294 62.5852 26.4075 65.8065L28.3924 61.6016C27.3786 61.6146 26.3648 61.5754 25.355 61.484C23.9168 61.3314 23.3473 60.6141 23.3473 60.6141V60.6018L21.7253 52.2271Z" fill="#253A45"/>
<path d="M21.7246 52.2255L23.3466 60.6003C23.3192 60.3545 22.8576 56.3266 22.2303 51.9858L21.7246 52.2255Z" fill="#1A2B32"/>
<path d="M29.1664 52.4893C29.1148 52.3947 28.2977 50.8699 28.0624 49.4978C27.9207 48.6014 27.9207 47.6881 28.0624 46.7917C28.0624 46.7917 28.1535 49.0689 29.1664 52.4893ZM33.3155 61.3342C32.2524 58.2374 31.2653 55.023 30.4923 52.2299C30.4452 52.0559 30.3981 51.8864 30.351 51.717C29.9774 50.3434 29.657 49.0765 29.4125 47.999C29.2615 47.4639 29.1433 46.92 29.0586 46.3704C28.3737 46.3704 28.0229 45.9858 27.6326 46.3704C27.2423 46.755 22.5252 51.2988 22.3764 51.6468L22.2245 51.9963C22.8517 56.3402 23.3134 60.365 23.3407 60.6108V60.623L28.3934 61.609L29.9486 58.3259L27.101 66.4153C30.1068 68.8654 33.6397 70.5775 37.419 71.4154C36.1145 68.952 34.655 65.2354 33.317 61.3312L33.3155 61.3342Z" fill="#253A45"/>
<path d="M23.3408 60.6138C23.3408 60.6138 23.9103 61.3342 25.3485 61.4838C26.3583 61.5752 27.3721 61.6144 28.3859 61.6013V61.6013L23.3408 60.6138Z" fill="#1A2B32"/>
<path d="M28.3919 61.6013L26.3994 65.8063C26.6287 66.0108 26.8626 66.2077 27.1011 66.4015L29.9486 58.3121L28.3935 61.5952L28.3919 61.6013Z" fill="#1A2B32"/>
<path d="M27.8406 34.7232C27.8349 35.0707 27.9276 35.4127 28.1079 35.7092C28.5134 36.2801 29.414 36.277 28.7686 36.2205C27.9211 36.1473 27.7693 35.6024 27.8406 34.7232ZM28.0031 30.3748C27.9515 32.4949 27.3319 35.4543 27.7996 36.0588C27.9508 36.2575 28.1553 36.4088 28.3891 36.4948C28.6229 36.5807 28.8762 36.5979 29.1194 36.5441C29.2621 35.4452 29.496 34.0456 29.7937 32.4552C29.1604 32.3437 28.8415 34.5126 28.7731 33.8899C28.7654 33.7883 28.7654 33.6862 28.7731 33.5846L28.3251 33.5556C28.3251 33.5556 28.3373 31.6157 28.3874 30.3504C28.2614 30.3793 28.1317 30.3875 28.0031 30.3748V30.3748Z" fill="#80A1AD"/>
<path d="M27.8406 34.7233C27.7693 35.6024 27.9211 36.1473 28.7686 36.2206C29.414 36.277 28.5134 36.2801 28.1079 35.7093C27.9275 35.4127 27.8348 35.0708 27.8406 34.7233Z" fill="#F9FBFC"/>
<path d="M27.9834 29.5247C28.0049 29.8075 28.0115 30.0913 28.0031 30.3748C28.1319 30.386 28.2617 30.3762 28.3874 30.3458C28.3965 30.1077 28.4056 29.8879 28.4193 29.7201C28.4922 28.6181 29.6646 28.1495 30.3936 29.4301C30.4948 28.9315 30.6016 28.4227 30.714 27.9038C29.0435 27.2826 27.7981 27.6244 27.9804 29.453C27.9804 29.4758 27.9819 29.5018 27.9834 29.5247Z" fill="#526C77"/>
<path d="M28.0642 46.7886C27.9226 47.685 27.9226 48.5983 28.0642 49.4947C28.2996 50.8684 29.1167 52.3947 29.1683 52.4862C28.1539 49.0689 28.0642 46.7886 28.0642 46.7886Z" fill="#526C77"/>
<path d="M28.3251 33.5541L28.7731 33.5831C28.8126 32.9115 29.1467 31.9316 29.9121 31.8553C30.0225 31.2814 30.1394 30.6882 30.2629 30.0757C29.9873 30.0367 29.7067 30.0517 29.4368 30.1199C29.3052 30.2265 29.1878 30.3496 29.0875 30.4862C28.4557 31.3288 28.3251 33.5541 28.3251 33.5541Z" fill="#80A1AD"/>
<path d="M28.3873 30.3458C28.3372 31.6142 28.3251 33.5511 28.3251 33.5511C28.3251 33.5511 28.4557 31.3257 29.0844 30.4832C29.1848 30.3466 29.3022 30.2235 29.4337 30.1169C29.0708 30.1886 28.6789 30.2894 28.3873 30.3458Z" fill="#1A2B32"/>
<path d="M28.4196 29.7198C28.4059 29.8938 28.3968 30.1075 28.3877 30.3456C28.6793 30.2892 29.0711 30.193 29.4371 30.1197C29.6795 29.9058 29.9959 29.7962 30.318 29.8145C30.3423 29.6893 30.3696 29.5626 30.3954 29.4344C29.6649 28.1493 28.4925 28.6179 28.4196 29.7198Z" fill="#1A2B32"/>
<path d="M28.7731 33.5831C28.7654 33.6847 28.7654 33.7868 28.7731 33.8884C28.8415 34.5111 29.1604 32.3422 29.7937 32.4537C29.8316 32.2568 29.8681 32.0553 29.9076 31.8538C29.1467 31.9317 28.8126 32.9115 28.7731 33.5831Z" fill="#1A2B32"/>
<path d="M30.3173 29.8098L30.2626 30.0754C30.1391 30.6859 30.0221 31.2792 29.9118 31.8551C29.8723 32.0566 29.8358 32.258 29.7979 32.4549C29.4941 34.0453 29.2663 35.4449 29.1236 36.5439C29.0659 36.9804 29.0218 37.3681 28.996 37.7023C28.8639 39.2851 28.551 43.1695 29.0552 46.361H29.0689C29.157 46.8372 29.2724 47.3836 29.4091 47.9896C29.5555 48.5113 29.7593 49.015 30.0166 49.4914C29.4729 48.0705 29.1448 44.9782 29.1737 41.1884C29.2025 37.3986 30.2869 32.9647 30.583 30.8447C30.7486 29.6725 30.9141 28.5369 31.0386 27.5112C30.8868 27.4822 30.8002 27.4746 30.8002 27.4746C30.7714 27.6166 30.741 27.76 30.7106 27.9004C30.6002 28.4184 30.4934 28.9271 30.3902 29.4267C30.3689 29.558 30.3416 29.6847 30.3173 29.8098Z" fill="#F9FBFC"/>
<path d="M37.326 41.8173C37.3047 41.8325 36.922 42.1012 35.748 44.0228C34.5331 46.007 32.9187 48.1712 32.9187 48.1712C32.9187 48.1712 35.1679 42.904 37.326 41.8173ZM35.5035 34.5277C35.4261 34.6269 32.9218 37.8031 31.6354 40.2192C30.4949 42.3683 30.3536 42.6384 30.3369 42.6705C30.3871 42.5178 31.5807 39.0883 32.4904 37.591C33.4001 36.0937 35.4261 34.5826 35.5035 34.5277V34.5277ZM33.511 31.3225C33.5611 31.3637 34.4222 32.0047 35.9637 31.5453C36.9858 31.24 37.5173 30.8096 37.7634 30.544C37.6373 30.5807 37.5037 30.6112 37.3655 30.6371C34.7609 31.121 33.2361 28.2805 32.3431 27.9158C32.0834 28.6056 32.5102 29.1673 32.5466 29.6344C32.5831 30.1014 31.9392 29.0559 31.8875 27.7418C31.6119 27.6475 31.3296 27.574 31.0431 27.522C30.9125 28.5476 30.7394 29.6832 30.5875 30.8554C30.2914 32.9754 29.204 37.4185 29.1782 41.1991C29.1524 44.9798 29.4819 48.0812 30.021 49.5022C30.1565 49.751 30.3163 49.9857 30.4979 50.2027C30.8072 50.5779 31.2095 50.8644 31.6643 51.0331C36.3829 52.6998 36.2204 54.7603 42.8404 54.7603V53.8262C40.1614 53.8262 38.8234 53.6384 36.9524 52.8906C35.8059 52.4285 34.708 51.8528 33.675 51.1719C35.6827 51.3093 36.9235 52.2556 38.8963 52.2327C40.8691 52.2098 40.6094 51.1719 42.8449 51.1719V40.2192C41.7932 40.2124 40.756 39.9722 39.8075 39.5156C39.8075 39.5156 40.8509 38.9692 42.8343 38.9692V37.5162C41.2715 37.5162 39.5235 36.9545 38.3693 37.7405C37.2151 38.5266 36.7838 39.1737 36.5833 39.0989C36.3829 39.0242 36.2614 38.3999 36.5833 38.3999H36.9114C36.9114 38.3999 38.2782 37.1544 39.3155 36.7301C40.3527 36.3058 41.6983 36.3821 41.6983 36.3821C41.6983 36.3821 41.9215 36.7561 42.8388 36.7561V34.7368C41.5753 34.7368 41.5616 33.9141 40.7916 33.9629C40.0217 34.0118 39.7392 34.1873 39.5159 34.0881C39.2927 33.9889 39.3155 33.0197 40.1842 33.0411C41.0528 33.0624 41.2275 33.8042 42.8388 33.8042V27.9158C41.1257 27.9158 40.4089 29.0071 39.2456 29.8328C38.225 31.1317 36.9584 32.2016 35.4732 32.1222C34.0258 32.0459 33.5399 31.3667 33.511 31.3225V31.3225ZM39.6071 31.0019C38.6655 32.1451 38.1461 32.7694 38.9403 33.6913L38.3465 33.5386C38.3465 33.5386 35.2697 36.6294 33.5824 39.8697C33.1936 40.6161 32.8944 41.2266 32.6636 41.7257C32.1761 42.936 31.8875 43.8091 31.8875 43.8091C31.8875 43.8091 31.8875 43.3955 32.6636 41.7257C33.3105 40.1185 34.3022 37.9222 35.4185 36.3745C37.3791 33.6638 37.4778 33.4883 37.9486 32.7908C38.4194 32.0932 39.5357 31.066 39.6071 31.0019V31.0019ZM33.508 33.3402C32.8382 33.241 32.9187 32.5175 32.9187 32.5175C32.9187 32.5175 33.7312 33.1662 34.6986 33.0411C34.352 33.2849 33.928 33.3914 33.508 33.3402V33.3402Z" fill="#80A1AD"/>
<path d="M29.4365 30.1201C29.7065 30.0519 29.987 30.0369 30.2627 30.0759L30.3174 29.8103C29.9947 29.7933 29.6782 29.9046 29.4365 30.1201V30.1201Z" fill="#526C77"/>
<path d="M30.0157 49.4946C29.7584 49.0181 29.5547 48.5144 29.4082 47.9927C29.6527 49.0702 29.9732 50.3325 30.3468 51.7107C34.5384 55.3738 39.0033 56.691 39.1446 56.7307C38.9547 56.604 31.7288 51.7748 30.488 50.1936C30.308 49.9768 30.1498 49.7426 30.0157 49.4946V49.4946Z" fill="#1A2B32"/>
<path d="M30.3379 42.6706C30.3546 42.6386 30.4898 42.3654 31.6364 40.2194C32.9197 37.8033 35.4331 34.627 35.5045 34.5278C35.427 34.5828 33.4057 36.0877 32.4914 37.5911C31.5771 39.0945 30.3819 42.5226 30.3379 42.6706Z" fill="#526C77"/>
<path d="M39.1484 56.7324C39.0087 56.6928 34.5422 55.3771 30.3506 51.7125C30.3977 51.8819 30.4447 52.0513 30.4918 52.2253C32.618 55.1085 40.576 58.1656 40.576 58.1656H42.8343V57.1705C40.5562 57.1705 39.9563 56.3967 39.9563 56.3967C39.9563 56.3967 41.0194 56.4226 42.8343 56.3967V54.7528C36.2112 54.7528 36.3768 52.6923 31.6582 51.0256C31.2034 50.8569 30.8011 50.5705 30.4918 50.1953C31.7326 51.7766 38.9585 56.6103 39.1484 56.7324Z" fill="#526C77"/>
<path d="M30.8047 27.4778C30.8047 27.4778 30.8913 27.4854 31.0431 27.5144C31.151 26.6872 31.2375 25.9347 31.2861 25.2891C31.1206 26.0263 30.9596 26.7589 30.8047 27.4778Z" fill="#80A1AD"/>
<path d="M39.2419 29.8252C40.4052 28.9995 41.122 27.9158 42.8351 27.9158V26.7665C37.1005 26.7665 34.4413 25.6019 31.3644 24.9502L31.2869 25.2936C31.2383 25.9392 31.1518 26.6917 31.0439 27.519C31.3305 27.571 31.6127 27.6445 31.8883 27.7387C32.0296 27.7876 32.183 27.8441 32.3439 27.9127C33.2369 28.2852 34.7617 31.1271 37.3663 30.6418C37.5045 30.6158 37.6381 30.5853 37.7642 30.5487C38.2957 30.3979 38.7961 30.1529 39.2419 29.8252V29.8252Z" fill="#1A2B32"/>
<path d="M32.6598 41.7275C31.8883 43.3973 31.8838 43.8109 31.8838 43.8109C31.8838 43.8109 32.1769 42.9379 32.6598 41.7275Z" fill="#80A1AD"/>
<path d="M32.3433 27.9162C32.1823 27.8475 32.0289 27.791 31.8877 27.7422C31.9333 29.0563 32.5848 30.1018 32.5468 29.6348C32.5088 29.1677 32.0836 28.5984 32.3433 27.9162Z" fill="#1A2B32"/>
<path d="M30.4941 52.2271C31.2672 55.0202 32.2543 58.2346 33.3174 61.3314L33.5801 61.6016L36.9213 65.0312C37.3346 63.4731 37.9677 61.9826 38.8014 60.6049C39.3121 59.7332 39.9084 58.9151 40.5813 58.1628C40.5813 58.1628 32.6142 55.1102 30.4941 52.2271Z" fill="#F9FBFC"/>
<path d="M35.4186 36.376C34.3024 37.9236 33.3107 40.1261 32.6592 41.7272C32.89 41.2281 33.1892 40.6176 33.578 39.8712C35.2653 36.6309 38.3421 33.5401 38.3421 33.5401L38.9359 33.6928C38.1417 32.777 38.6611 32.1466 39.6027 31.0034C39.5313 31.0675 38.4014 32.1176 37.9442 32.7938C37.4871 33.4699 37.3793 33.6653 35.4186 36.376Z" fill="#1A2B32"/>
<path d="M32.9192 32.5178C32.9192 32.5178 32.8387 33.2412 33.5084 33.3404C33.9292 33.3899 34.3533 33.2811 34.6991 33.0352C33.7317 33.1664 32.9192 32.5178 32.9192 32.5178Z" fill="#526C77"/>
<path d="M33.5801 61.6012L33.3174 61.3311C34.6554 65.2353 36.1148 68.9519 37.4179 71.4046C37.6244 71.4489 37.8325 71.4931 38.0405 71.5344C37.752 70.9238 36.5218 68.3917 35.4679 66.2839C34.7176 64.7738 34.086 63.2071 33.5786 61.5982L33.5801 61.6012Z" fill="#1A2B32"/>
<path d="M33.5829 61.6044C34.0902 63.2134 34.7219 64.78 35.4721 66.2901C36.5276 68.3979 37.7502 70.9346 38.0448 71.5406C38.2959 71.5894 38.549 71.6337 38.8042 71.6734C39.0092 68.1415 40.0465 64.5517 41.0032 63.3367C41.2215 62.8688 41.4643 62.4128 41.7307 61.9707L41.2189 61.7341L38.8786 61.1236C38.8786 61.1236 37.9112 62.6942 37.5573 64.0403C37.2035 65.3865 37.2976 66.284 37.2976 66.284L33.5829 61.6044Z" fill="#F9FBFC"/>
<path d="M33.5829 61.6044L37.2915 66.2886C37.2915 66.2886 37.1989 65.3911 37.5512 64.0449C37.9036 62.6988 38.8725 61.1282 38.8725 61.1282L41.2128 61.7387L38.7981 60.6199C37.9644 61.9976 37.3313 63.4882 36.9179 65.0462L33.5829 61.6044Z" fill="#526C77"/>
<path d="M32.9192 48.1714C32.9192 48.1714 34.5381 46.0026 35.7485 44.0229C36.9225 42.1013 37.3052 41.8327 37.3264 41.8174C35.1684 42.9042 32.9192 48.1714 32.9192 48.1714Z" fill="#526C77"/>
<path d="M33.5117 31.3227C33.5406 31.367 34.0281 32.0462 35.4693 32.121C36.9546 32.1943 38.2212 31.1243 39.2418 29.8315C38.7957 30.1576 38.2953 30.4011 37.7641 30.5504C37.518 30.816 36.9865 31.2464 35.9644 31.5517C34.4245 32.005 33.5618 31.3639 33.5117 31.3227Z" fill="#1A2B32"/>
<path d="M33.6689 51.1646C34.7019 51.8454 35.7998 52.4211 36.9463 52.8832C38.8173 53.631 40.1553 53.8188 42.8343 53.8188V51.1646C40.6033 51.1646 40.86 52.204 38.8857 52.2253C36.9114 52.2467 35.6767 51.3019 33.6689 51.1646Z" fill="#526C77"/>
<path d="M36.5842 38.3999C36.2623 38.3999 36.3868 39.0242 36.5842 39.099C36.7816 39.1738 37.2175 38.5251 38.3702 37.7406C39.5229 36.9561 41.2724 37.5162 42.8352 37.5162V36.7531C41.9239 36.7531 41.6946 36.3791 41.6946 36.3791C41.6946 36.3791 40.3551 36.3043 39.3118 36.7271C38.2684 37.1499 36.9123 38.3999 36.9123 38.3999H36.5842Z" fill="#1A2B32"/>
<path d="M38.7981 60.6138L41.2128 61.7326L41.7246 61.9692H42.8348V58.1672H40.578C39.9048 58.9209 39.3085 59.7405 38.7981 60.6138Z" fill="#1A2B32"/>
<path d="M38.7979 71.6716C38.9816 71.7036 39.1639 71.7326 39.3476 71.7571C39.3841 70.9832 39.5071 68.5518 39.7091 67.3155C39.9547 65.9356 40.388 64.5962 40.9969 63.335C40.0401 64.5468 39.0029 68.1397 38.7979 71.6716Z" fill="#526C77"/>
<path d="M40.4883 65.2339C40.4625 65.4049 39.9021 69.0817 40.2924 71.8718C41.1277 71.9557 41.9766 72 42.8347 72V61.9692H41.7245C41.4582 62.4113 41.2154 62.8673 40.9971 63.3352C40.3882 64.5964 39.9548 65.9359 39.7092 67.3158C39.5072 68.5536 39.3842 70.9789 39.3478 71.7573C39.4799 71.7756 39.609 71.794 39.7396 71.8077C39.7396 71.8077 39.5072 67.6592 40.4883 65.2339Z" fill="#1A2B32"/>
<path d="M40.18 33.0413C39.3113 33.0169 39.2886 33.9891 39.5118 34.0883C39.7351 34.1875 40.0206 34.0135 40.7875 33.9632C41.5545 33.9128 41.5712 34.737 42.8347 34.737V33.8029C41.2234 33.8029 41.0487 33.0672 40.18 33.0413Z" fill="#1A2B32"/>
<path d="M40.4883 65.2339C39.5072 67.6592 39.7396 71.8077 39.7396 71.8077C39.9233 71.8321 40.1071 71.8534 40.2924 71.8718C39.9021 69.0817 40.4625 65.4048 40.4883 65.2339Z" fill="#253A45"/>
<path d="M39.9568 56.3982C39.9568 56.3982 40.5521 57.172 42.8347 57.172V56.3982C41.0244 56.4241 39.9568 56.3982 39.9568 56.3982Z" fill="#1A2B32"/>
<path d="M42.8344 38.9756C40.851 38.9756 39.8076 39.522 39.8076 39.522C40.7534 39.9749 41.7867 40.2131 42.8344 40.2195V38.9756Z" fill="#1A2B32"/>
<path d="M45.3239 30.9975C45.1007 30.0955 44.2031 27.7343 44.2031 27.7343L46.0681 29.459C46.0681 29.459 46.1243 30.4862 45.9162 30.6923C45.7437 30.8368 45.5414 30.9411 45.3239 30.9975V30.9975Z" fill="#1A2B32"/>
<path d="M40.3456 30.9975C40.5688 30.0955 41.4664 27.7343 41.4664 27.7343L39.6014 29.459C39.6014 29.459 39.5452 30.4862 39.7533 30.6923C39.9258 30.8368 40.1281 30.9411 40.3456 30.9975V30.9975Z" fill="#1A2B32"/>
<path d="M43.9753 32.1239C43.6245 32.1453 43.3921 30.0512 43.7779 29.9642C44.1636 29.8772 44.3231 32.101 43.9753 32.1239Z" fill="#F9FBFC"/>
<path d="M46.6925 37.9407C46.407 37.7285 45.353 37.6659 45.3151 37.9407C45.2771 38.2154 46.9765 38.1528 46.6925 37.9407Z" fill="#F9FBFC"/>
<path d="M53.7826 29.5278C53.5867 30.0391 53.122 31.2068 51.9678 31.8539C52.2493 31.8222 52.5198 31.7259 52.7583 31.5724C52.9969 31.4189 53.1972 31.2123 53.3437 30.9687C53.8646 30.1322 53.7826 29.5278 53.7826 29.5278Z" fill="#F9FBFC"/>
<path d="M32.4739 30.5581C32.8395 31.1755 33.3642 31.6823 33.9926 32.0249C33.6125 32.0033 33.2473 31.8689 32.9432 31.6387C32.4466 31.2556 32.4739 30.5581 32.4739 30.5581Z" fill="#F9FBFC"/>
<path d="M50.9188 49.4947C51.0463 48.292 49.3727 44.4335 49.0052 44.2091C48.6377 43.9848 49.4122 45.07 49.8633 47.0511C50.3143 49.0322 50.817 50.4425 50.9188 49.4947Z" fill="#F9FBFC"/>
<path d="M48.8929 31.8538C47.8495 31.8538 46.9034 31.7012 46.4781 31.2616C45.5958 30.3306 44.3079 28.0152 44.2532 27.9175L44.2031 27.8275V25.8112H54.1946L54.1825 26.2203C54.1825 26.2676 54.1475 27.3833 54.0063 28.5509C53.7314 30.8297 53.3001 31.254 52.9128 31.3685C51.5927 31.6667 50.2457 31.8293 48.8929 31.8538V31.8538ZM44.9928 27.6199C45.2389 28.0533 46.3293 29.9521 47.0507 30.7137C47.6733 31.3685 51.587 30.9258 52.6698 30.6114C52.9736 30.3764 53.2773 28.5662 53.373 26.6049H44.9928V27.6199Z" fill="#1A2B32"/>
<path d="M44.9932 27.0932C44.993 27.442 45.0858 27.7846 45.262 28.0852C45.6963 28.827 46.4876 30.1183 47.051 30.7135C47.6737 31.3683 51.5873 30.9257 52.6702 30.6113C52.9466 30.3945 53.2321 28.8438 53.3475 27.0687C53.3504 27.0098 53.3413 26.9508 53.3209 26.8955C53.3004 26.8401 53.269 26.7895 53.2286 26.7467C53.1881 26.7039 53.1394 26.6698 53.0855 26.6464C53.0315 26.6231 52.9734 26.611 52.9147 26.6108H44.9932V27.0932Z" fill="#80A1AD"/>
<path d="M53.9987 26.8918V27.0444C53.9987 27.1452 53.9911 27.2886 53.9789 27.4611C53.9668 27.6336 53.9516 27.835 53.9288 28.0487C53.906 28.2624 53.8772 28.4929 53.8453 28.7203C53.8134 28.9477 53.7708 29.1782 53.7253 29.3873C53.6797 29.5964 53.6266 29.7933 53.5734 29.9596C53.5334 30.0934 53.4863 30.2248 53.4322 30.3534C53.3912 30.4465 53.3654 30.4969 53.3654 30.4969C53.3654 30.4969 53.3851 30.4435 53.414 30.3443C53.4428 30.2451 53.4808 30.1092 53.5218 29.9429C53.5628 29.7765 53.5992 29.5796 53.6372 29.3674C53.6752 29.1553 53.7116 28.9294 53.745 28.7035C53.7784 28.4776 53.8103 28.2456 53.8407 28.0365C53.8711 27.8274 53.8969 27.6229 53.9197 27.4535C53.9425 27.284 53.9622 27.1375 53.9744 27.0398L53.9987 26.8918Z" fill="#F9FBFC"/>
<path d="M52.8844 31.083L52.8115 31.112C52.7644 31.1288 52.6991 31.1547 52.6171 31.1776C52.5351 31.2005 52.4409 31.2295 52.3377 31.254C52.2344 31.2784 52.1251 31.3028 52.0142 31.3257C51.9033 31.3486 51.7925 31.3669 51.6877 31.3822C51.5829 31.3974 51.4842 31.4096 51.4006 31.4188C51.3171 31.428 51.2488 31.4325 51.1956 31.4371H51.1182L51.188 31.4264C51.2366 31.4142 51.305 31.3928 51.387 31.3745L51.6679 31.3074L51.9914 31.2402L52.3164 31.1807L52.6004 31.1334L52.8024 31.1013L52.8844 31.083Z" fill="#F9FBFC"/>
<path d="M45.29 28.5127L45.3493 28.6012C45.3857 28.6562 45.4465 28.7447 45.5011 28.8332L45.7183 29.1598L45.9643 29.5384C46.0463 29.6666 46.1284 29.7917 46.2073 29.9169L46.4199 30.2466L46.5718 30.4816L46.628 30.5701L46.5566 30.4923C46.5126 30.4404 46.4473 30.3702 46.3774 30.2786C46.3076 30.187 46.2256 30.0817 46.139 29.9642C46.0524 29.8467 45.9689 29.7185 45.8854 29.5903C45.8018 29.4621 45.7213 29.3293 45.6484 29.2041C45.5756 29.079 45.5118 28.9614 45.4556 28.8592C45.3994 28.7569 45.3614 28.6699 45.331 28.6104C45.3007 28.5509 45.29 28.5127 45.29 28.5127Z" fill="#F9FBFC"/>
<path d="M32.8842 31.3685C32.4984 31.254 32.0656 30.8297 31.7923 28.5509C31.651 27.3833 31.6161 26.2615 31.6146 26.2203L31.6024 25.8112H41.5954V27.8275L41.5453 27.9175C41.4906 28.0152 40.2028 30.3306 39.3189 31.2616C38.8952 31.7088 37.9521 31.8538 36.9057 31.8538C35.5523 31.8291 34.2049 31.6665 32.8842 31.3685ZM40.8042 26.6049H32.421C32.5121 28.5662 32.825 30.3764 33.1242 30.6114C34.21 30.9258 38.1252 31.3746 38.7433 30.7137C39.4662 29.9505 40.5566 28.0533 40.8012 27.6199L40.8042 26.6049Z" fill="#1A2B32"/>
<path d="M40.8042 26.6049H32.8781C32.8195 26.6052 32.7616 26.6175 32.7078 26.6409C32.654 26.6644 32.6055 26.6985 32.5652 26.7413C32.5249 26.7841 32.4936 26.8346 32.4733 26.8898C32.4529 26.9451 32.4439 27.0039 32.4468 27.0627C32.5607 28.8378 32.8477 30.3885 33.1241 30.6053C34.21 30.9197 38.1252 31.3684 38.7433 30.7075C39.3083 30.1123 40.098 28.821 40.5339 28.0793C40.7089 27.7782 40.8011 27.4358 40.8012 27.0872L40.8042 26.6049Z" fill="#80A1AD"/>
<path d="M31.7999 26.8918L31.8212 27.0444C31.8348 27.1421 31.8546 27.2947 31.8774 27.458C31.9001 27.6214 31.9275 27.832 31.9563 28.0411L32.0505 28.7081C32.0854 28.934 32.1219 29.166 32.1598 29.372C32.1978 29.5781 32.2358 29.7811 32.2753 29.9474C32.3147 30.1138 32.3512 30.2527 32.3816 30.3488C32.4119 30.445 32.4302 30.5015 32.4302 30.5015C32.4302 30.5015 32.4044 30.4511 32.3649 30.358C32.3108 30.2294 32.2636 30.0979 32.2236 29.9642C32.175 29.7979 32.1219 29.604 32.0718 29.3919C32.0216 29.1797 31.9882 28.9523 31.9518 28.7249C31.9153 28.4975 31.888 28.267 31.8667 28.0533C31.8455 27.8396 31.8303 27.6381 31.8181 27.4657C31.806 27.2932 31.8014 27.1497 31.7969 27.049L31.7999 26.8918Z" fill="#F9FBFC"/>
<path d="M48.8396 30.8999C47.5746 30.8999 47.245 30.6954 47.1615 30.6084C46.6041 30.0207 45.8144 28.7264 45.3922 28.0136C45.2302 27.7359 45.1447 27.4198 45.1447 27.0979V26.7621H52.9189C52.9577 26.7622 52.9961 26.7703 53.0316 26.786C53.0672 26.8017 53.0991 26.8246 53.1255 26.8532C53.1519 26.8818 53.1721 26.9156 53.1849 26.9525C53.1976 26.9893 53.2027 27.0284 53.1998 27.0673C53.0738 29.0286 52.7761 30.2802 52.5923 30.4832C51.9393 30.6633 50.2292 30.909 48.8336 30.909L48.8396 30.8999Z" fill="#80A1AD"/>
<path d="M36.9589 30.8999C35.5617 30.8999 33.8532 30.6541 33.2001 30.474C33.0224 30.271 32.7248 29.0195 32.5927 27.0582C32.5899 27.0198 32.595 26.9813 32.6079 26.945C32.6207 26.9088 32.6408 26.8756 32.6671 26.8476C32.6933 26.8192 32.725 26.7966 32.7603 26.7811C32.7955 26.7656 32.8336 26.7576 32.8721 26.7575H40.6463V27.0933C40.6469 27.4153 40.5614 27.7316 40.3987 28.0091C39.9781 28.728 39.1838 30.0223 38.631 30.6038C38.5475 30.6908 38.2179 30.8953 36.9528 30.8953L36.9589 30.8999Z" fill="#80A1AD"/>
<path d="M52.9113 26.7575H51.2165L49.5596 30.8785C50.167 30.848 50.7852 30.7854 51.3228 30.7106L52.9113 26.7575Z" fill="#F9FBFC"/>
<path d="M37.7818 26.7573L36.1279 30.8783C36.4104 30.8951 36.6898 30.9043 36.9587 30.9043C37.2498 30.9066 37.5408 30.8923 37.8304 30.8615L39.4767 26.7619L37.7818 26.7573Z" fill="#F9FBFC"/>
<path d="M60.4121 29.0088C59.5116 29.224 58.5639 29.3934 57.6861 29.5247C57.6861 29.5018 57.6861 29.4759 57.6861 29.453C57.8638 27.6214 56.6154 27.2826 54.9524 27.9038C54.9221 27.7633 54.8917 27.6199 54.8628 27.4779C54.711 26.759 54.5469 26.0264 54.3814 25.2892C54.3556 25.1747 54.3298 25.0587 54.304 24.9458C55.6122 24.6598 56.9472 24.5161 58.286 24.5169C61.2581 24.5169 62.8588 24.9458 63.7244 25.5105L63.7351 25.5182C64.1238 25.8326 64.3683 26.179 64.4124 26.5606C64.543 27.6992 62.6218 28.4838 60.4121 29.0088Z" fill="#1A2B32"/>
<path d="M54.3054 24.9427C51.2285 25.5944 48.5693 26.759 42.8347 26.759V26.5423C49.4714 26.5423 51.1556 24.9046 54.9539 24.5321L55.0875 24.5199C58.9815 24.175 53.6007 24.2925 49.9604 25.3167C46.9838 26.1561 44.3413 26.1424 42.8347 26.1424V22.9692C45.216 22.9692 51.7145 22.7067 54.3176 22.9692C54.3176 22.9692 61.4448 23.6759 63.7259 25.5074C62.8602 24.9427 61.2595 24.5138 58.2874 24.5138C56.9486 24.513 55.6136 24.6568 54.3054 24.9427V24.9427Z" fill="#253A45"/>
<path d="M49.9604 25.3106C53.6053 24.2864 58.9815 24.1689 55.0875 24.5138L54.9539 24.526C51.1572 24.8985 49.4714 26.5362 42.8347 26.5362V26.1363C44.3534 26.1363 46.9838 26.15 49.9604 25.3106Z" fill="#526C77"/>
<path d="M54.2462 22.7632C54.2933 22.896 54.3176 22.9692 54.3176 22.9692C51.7145 22.7067 45.216 22.9692 42.8347 22.9692V20.5424C44.5341 20.5424 49.3089 20.4615 49.3089 20.4615C49.3089 20.4615 44.7954 20.3089 42.8347 20.3089V20.1562C45.1128 20.1562 50.6332 20.1852 53.3972 20.4188C53.7389 21.3346 54.0047 22.0779 54.1657 22.522C50.8944 22.1038 47.728 22.5678 47.728 22.5678C52.7062 22.4106 54.2462 22.7632 54.2462 22.7632Z" fill="#526C77"/>
<path d="M54.1653 22.5328C54.1972 22.6214 54.2245 22.6992 54.2458 22.7633C54.2458 22.7633 52.7119 22.4107 47.7275 22.5786C47.7275 22.5741 50.894 22.1162 54.1653 22.5328Z" fill="#253A45"/>
<path d="M49.0857 11.6013C50.334 12.6545 52.2628 17.4135 53.3972 20.4294C50.6332 20.1959 45.1082 20.1669 42.8347 20.1669V13.4512C45.7855 13.0254 46.6041 11.2793 46.6041 11.2793C46.6041 11.2793 45.3132 11.6456 44.2122 11.9814C45.8493 11.2793 47.6444 10.3849 49.0857 11.6013Z" fill="#253A45"/>
<path d="M42.8347 20.315C44.7954 20.315 49.3089 20.4676 49.3089 20.4676C49.3089 20.4676 44.5341 20.5485 42.8347 20.5485V20.315Z" fill="#253A45"/>
<path d="M46.6041 11.2793C46.6041 11.2793 45.7855 13.0254 42.8347 13.4497V12.5003C43.3012 12.3613 43.7578 12.191 44.2015 11.9906H44.2152C45.3132 11.6487 46.6041 11.2793 46.6041 11.2793Z" fill="#1A2B32"/>
<path d="M25.2574 29.0088C26.1579 29.224 27.1056 29.3934 27.991 29.5247C27.991 29.5018 27.991 29.4759 27.991 29.453C27.8133 27.6214 29.0617 27.2826 30.7247 27.9038C30.755 27.7633 30.7854 27.6199 30.8143 27.4779C30.9661 26.759 31.1302 26.0264 31.2957 25.2892L31.3731 24.9458C30.0649 24.6598 28.7299 24.5161 27.3911 24.5169C24.419 24.5169 22.8183 24.9458 21.9527 25.5105L21.9421 25.5182C21.5533 25.8326 21.3088 26.179 21.2647 26.5606C21.1265 27.6992 23.0477 28.4838 25.2574 29.0088Z" fill="#1A2B32"/>
<path d="M31.3641 24.9427C34.4409 25.5944 37.1002 26.759 42.8348 26.759V26.5423C36.1981 26.5423 34.5138 24.9046 30.7156 24.5321L30.5819 24.5199C26.688 24.175 32.0687 24.2925 35.7091 25.3167C38.6857 26.1561 41.3282 26.1424 42.8348 26.1424V22.9692C40.4535 22.9692 33.955 22.7067 31.3519 22.9692C31.3519 22.9692 24.2247 23.6759 21.9436 25.5074C22.8093 24.9427 24.41 24.5138 27.3821 24.5138C28.7208 24.513 30.0559 24.6568 31.3641 24.9427V24.9427Z" fill="#253A45"/>
<path d="M35.7091 25.3106C32.0642 24.2864 26.688 24.1689 30.5819 24.5138L30.7156 24.526C34.5123 24.8985 36.1981 26.5362 42.8348 26.5362V26.1363C41.3161 26.1363 38.6857 26.15 35.7091 25.3106Z" fill="#526C77"/>
<path d="M31.4229 22.7632C31.3759 22.896 31.3516 22.9692 31.3516 22.9692C33.9546 22.7067 40.4531 22.9692 42.8344 22.9692V20.5424C41.135 20.5424 36.3602 20.4615 36.3602 20.4615C36.3602 20.4615 40.8738 20.3089 42.8344 20.3089V20.1562C40.5564 20.1562 35.0359 20.1852 32.2719 20.4188C31.9302 21.3346 31.6644 22.0779 31.5034 22.522C34.7747 22.1038 37.9412 22.5678 37.9412 22.5678C32.9629 22.4106 31.4229 22.7632 31.4229 22.7632Z" fill="#526C77"/>
<path d="M31.5033 22.5328C31.4714 22.6214 31.4441 22.6992 31.4229 22.7633C31.4229 22.7633 32.9567 22.4107 37.9411 22.5786C37.9411 22.5741 34.7746 22.1162 31.5033 22.5328Z" fill="#253A45"/>
<path d="M36.5838 11.6013C35.3354 12.653 33.4067 17.4135 32.2722 20.4371C35.0362 20.2035 40.5613 20.1745 42.8347 20.1745V13.4588C39.8839 13.0254 39.0653 11.2793 39.0653 11.2793C39.0653 11.2793 40.3562 11.6456 41.4573 11.9814C39.8201 11.2793 38.025 10.3849 36.5838 11.6013Z" fill="#253A45"/>
<path d="M42.8348 20.315C40.8742 20.315 36.3606 20.4676 36.3606 20.4676C36.3606 20.4676 41.1354 20.5485 42.8348 20.5485V20.315Z" fill="#253A45"/>
<path d="M39.0653 11.2793C39.0653 11.2793 39.8839 13.0223 42.8347 13.4466V12.5003C42.3683 12.3613 41.9116 12.191 41.4679 11.9906H41.4542C40.3562 11.6487 39.0653 11.2793 39.0653 11.2793Z" fill="#1A2B32"/>
</g>
</g>
<defs>
<radialGradient id="paint0_radial_745_31930" cx="0" cy="0" r="1" gradientUnits="userSpaceOnUse" gradientTransform="translate(42 49) rotate(90) scale(49 42)">
<stop offset="0.369792" stop-color="#FF0000" stop-opacity="0.72"/>
<stop offset="1" stop-color="white" stop-opacity="0"/>
<stop offset="1" stop-color="#FF0000" stop-opacity="0"/>
</radialGradient>
<clip-path id="clip0_745_31930">
<rect width="84" height="98" fill="white"/>
</clip-path>
<clip-path id="clip1_745_31930">
<rect width="50" height="61" fill="white" transform="translate(17.834 11)"/>
</clip-path>
</defs>
</svg>
