<svg width="84" height="81" viewBox="0 0 84 81" fill="none" xmlns="http://www.w3.org/2000/svg">
<rect width="84" height="81" fill="url(#paint0_radial_1203_555)"/>
<g clip-path="url(#clip0_1203_555)">
<path d="M67.8349 40.8725C67.8382 43.156 67.5316 45.4292 66.9237 47.6294L63.9562 46.2268L63.4504 45.9887L63.2986 45.6391C63.1467 45.2911 58.4388 40.755 58.0424 40.3627C57.646 39.9705 57.3012 40.3627 56.6163 40.3627C57.1205 37.1712 56.8077 33.2868 56.6755 31.704C56.6497 31.3698 56.6057 30.9821 56.548 30.5456C56.7911 30.5993 57.0445 30.5822 57.2782 30.4962C57.512 30.4103 57.7165 30.259 57.8677 30.0602C58.34 29.4497 57.7159 26.4902 57.6688 24.3763C57.6604 24.0928 57.667 23.809 57.6885 23.5261C58.5663 23.3949 59.511 23.2209 60.4146 23.0103C62.7689 25.3438 64.6375 28.125 65.9114 31.1917C67.1854 34.2584 67.8393 37.5493 67.8349 40.8725Z" fill="#FF0200"/>
<path d="M63.9516 46.2268L66.9191 47.6295C65.6068 52.3519 62.9476 56.585 59.2694 59.8063L57.2769 55.6013C58.2907 55.6144 59.3045 55.5751 60.3143 55.4838C61.7525 55.3312 62.322 54.6138 62.322 54.6138V54.6016L63.9516 46.2268Z" fill="#253A45"/>
<path d="M63.9516 46.2252L62.3296 54.6C62.357 54.3543 62.8186 50.3264 63.4459 45.9856L63.9516 46.2252Z" fill="#1A2B32"/>
<path d="M52.3518 55.3313C53.4149 52.2344 54.4021 49.0201 55.1751 46.2269C55.2221 46.0529 55.2692 45.8835 55.3163 45.7141C55.6899 44.3404 56.0103 43.0736 56.2549 41.996C56.4059 41.461 56.524 40.9171 56.6087 40.3675C57.2936 40.3675 57.6445 39.9829 58.0348 40.3675C58.4251 40.7521 63.1421 45.2959 63.291 45.6439L63.4428 45.9934C62.8156 50.3372 62.3539 54.3621 62.3266 54.6078V54.62L57.2739 55.606L55.7188 52.323L58.5663 60.4123C55.5612 62.8634 52.0289 64.5765 48.2498 65.4155C49.5544 62.9521 51.0138 59.2356 52.3518 55.3313ZM56.5024 46.4895C56.554 46.3948 57.3711 44.8701 57.6065 43.4979C57.7482 42.6015 57.7482 41.6882 57.6065 40.7918C57.6065 40.7918 57.5154 43.069 56.5024 46.4895Z" fill="#253A45"/>
<path d="M62.3281 54.6138C62.3281 54.6138 61.7586 55.3342 60.3204 55.4838C59.3106 55.5751 58.2968 55.6143 57.283 55.6013L62.3281 54.6138Z" fill="#1A2B32"/>
<path d="M57.2769 55.6014L59.2695 59.8064C59.0401 60.0109 58.8063 60.2078 58.5678 60.4016L55.7203 52.3123L57.2754 55.5953L57.2769 55.6014Z" fill="#1A2B32"/>
<path d="M57.8282 28.7232C57.834 29.0707 57.7413 29.4127 57.5609 29.7092C57.1554 30.28 56.2548 30.277 56.9003 30.2205C57.7477 30.1472 57.8996 29.6023 57.8282 28.7232ZM57.6657 24.3748C57.7158 26.4887 58.337 29.4543 57.8647 30.0587C57.7135 30.2575 57.509 30.4087 57.2752 30.4947C57.0414 30.5807 56.788 30.5978 56.5449 30.5441C56.4021 29.4451 56.1683 28.0455 55.8706 26.4551C56.5039 26.3437 56.8228 28.5126 56.8912 27.8898C56.8989 27.7882 56.8989 27.6862 56.8912 27.5846L57.3468 27.5556C57.3468 27.5556 57.3346 25.6156 57.2845 24.3503C57.4095 24.3789 57.5382 24.3871 57.6657 24.3748Z" fill="#80A1AD"/>
<path d="M57.8282 28.7231C57.8996 29.6023 57.7477 30.1472 56.9003 30.2204C56.2548 30.2769 57.1554 30.28 57.5609 29.7091C57.7413 29.4126 57.834 29.0706 57.8282 28.7231Z" fill="#F9FBFC"/>
<path d="M57.6854 23.5247C57.6639 23.8076 57.6573 24.0914 57.6657 24.3749C57.5369 24.3861 57.4072 24.3763 57.2815 24.3459C57.2724 24.1078 57.2633 23.888 57.2496 23.7201C57.1767 22.6181 56.0043 22.1496 55.2753 23.4301C55.174 22.9315 55.0672 22.4228 54.9548 21.9038C56.6254 21.2826 57.8707 21.6245 57.6885 23.453C57.6885 23.4759 57.687 23.5019 57.6854 23.5247Z" fill="#526C77"/>
<path d="M57.6049 40.7886C57.7466 41.685 57.7466 42.5983 57.6049 43.4947C57.3696 44.8684 56.5525 46.3947 56.5009 46.4862C57.5153 43.0689 57.6049 40.7886 57.6049 40.7886Z" fill="#526C77"/>
<path d="M57.3438 27.554L56.8882 27.583C56.8487 26.9115 56.5146 25.9316 55.7491 25.8553C55.6388 25.2814 55.5218 24.6882 55.3983 24.0756C55.674 24.0366 55.9545 24.0516 56.2245 24.1199C56.356 24.2264 56.4734 24.3496 56.5738 24.4862C57.2132 25.3287 57.3438 27.554 57.3438 27.554Z" fill="#80A1AD"/>
<path d="M57.2815 24.3459C57.3316 25.6142 57.3438 27.5511 57.3438 27.5511C57.3438 27.5511 57.2131 25.3258 56.5844 24.4833C56.4841 24.3466 56.3667 24.2235 56.2351 24.1169C56.5981 24.1887 56.9899 24.2894 57.2815 24.3459Z" fill="#1A2B32"/>
<path d="M57.2496 23.7201C57.2632 23.8941 57.2723 24.1078 57.2815 24.3459C56.9899 24.2894 56.598 24.1932 56.232 24.12C55.9896 23.9061 55.6733 23.7965 55.3512 23.8147C55.3269 23.6896 55.2996 23.5629 55.2737 23.4347C56.0042 22.1495 57.1767 22.6181 57.2496 23.7201Z" fill="#1A2B32"/>
<path d="M56.8958 27.5831C56.9035 27.6847 56.9035 27.7867 56.8958 27.8883C56.8274 28.511 56.5085 26.3422 55.8752 26.4536C55.8372 26.2567 55.8008 26.0552 55.7613 25.8538C56.5222 25.9316 56.8563 26.9115 56.8958 27.5831Z" fill="#1A2B32"/>
<path d="M55.8706 26.4552C56.1743 28.0456 56.4021 29.4452 56.5449 30.5441C56.6026 30.9806 56.6466 31.3683 56.6725 31.7026C56.8046 33.2853 57.1174 37.1698 56.6132 40.3613H56.5996C56.5115 40.8375 56.3961 41.3839 56.2594 41.9898C56.1129 42.5115 55.9092 43.0153 55.6519 43.4917C56.1956 42.0707 56.5236 38.9784 56.4948 35.1886C56.4659 31.3988 55.3816 26.9649 55.0854 24.8449C54.9199 23.6727 54.7544 22.5372 54.6298 21.5115C54.7817 21.4825 54.8683 21.4749 54.8683 21.4749C54.8971 21.6168 54.9275 21.7603 54.9579 21.9007C55.0682 22.4186 55.175 22.9274 55.2783 23.427C55.3041 23.5552 55.3315 23.6819 55.3558 23.807L55.4104 24.0726C55.5339 24.6831 55.6509 25.2764 55.7612 25.8523C55.7962 26.0568 55.8326 26.2583 55.8706 26.4552Z" fill="#F9FBFC"/>
<path d="M48.3424 35.8175C48.3637 35.8328 48.7464 36.1014 49.9204 38.023C51.1353 40.0072 52.7497 42.1715 52.7497 42.1715C52.7497 42.1715 50.5005 36.9042 48.3424 35.8175ZM52.1574 25.3227C52.1073 25.3639 51.2462 26.005 49.7047 25.5455C48.6826 25.2403 48.1511 24.8099 47.905 24.5443C48.0311 24.5809 48.1647 24.6114 48.3029 24.6374C50.9075 25.1212 52.4323 22.2808 53.3253 21.916C53.585 22.6059 53.1582 23.1676 53.1218 23.6346C53.0853 24.1017 53.7292 23.0561 53.7809 21.742C54.0565 21.6477 54.3388 21.5743 54.6253 21.5222C54.7559 22.5479 54.9214 23.6835 55.0809 24.8556C55.377 26.9757 56.4644 31.4187 56.4902 35.1994C56.516 38.98 56.1865 42.0814 55.6473 43.5024C55.5118 43.7512 55.3521 43.9859 55.1705 44.203C54.8612 44.5782 54.4589 44.8646 54.0041 45.0333C49.2855 46.7 49.448 48.7605 42.828 48.7605V47.8264C45.507 47.8264 46.845 47.6387 48.716 46.8908C49.8625 46.4287 50.9604 45.853 51.9934 45.1722C49.9857 45.3096 48.7449 46.2559 46.7721 46.233C44.7993 46.2101 45.059 45.1722 42.8235 45.1722V34.2195C43.8752 34.2127 44.9124 33.9724 45.8609 33.5159C45.8609 33.5159 44.8175 32.9694 42.8341 32.9694V31.5164C44.3969 31.5164 46.1449 30.9547 47.2991 31.7408C48.4533 32.5268 48.8846 33.174 49.0851 33.0992C49.2855 33.0244 49.407 32.4001 49.0851 32.4001H48.757C48.757 32.4001 47.3902 31.1547 46.3529 30.7304C45.3157 30.3061 43.9701 30.3824 43.9701 30.3824C43.9701 30.3824 43.7469 30.7563 42.8296 30.7563V28.737C44.0931 28.737 44.1068 27.9143 44.8768 27.9632C45.6467 28.012 45.9292 28.1876 46.1525 28.0883C46.3757 27.9891 46.3529 27.0199 45.4842 27.0413C44.6155 27.0627 44.4409 27.8045 42.8296 27.8045V21.916C44.5427 21.916 45.2595 23.0073 46.4228 23.833C47.4434 25.1319 48.7099 26.2018 50.1952 26.1225C51.6425 26.0462 52.1285 25.367 52.1574 25.3227ZM55.3315 36.6707C55.2813 36.5181 54.0876 33.0885 53.1779 31.5912C52.2682 30.0939 50.2423 28.5829 50.1649 28.5279C50.2423 28.6271 52.7466 31.8034 54.033 34.2195C55.1735 36.3685 55.3148 36.6387 55.3315 36.6707ZM46.0674 25.0022C47.009 26.1454 47.5284 26.7696 46.7341 27.6915L47.3279 27.5389C47.3279 27.5389 50.4048 30.6296 52.0921 33.87C52.4809 34.6163 52.7801 35.2268 53.0109 35.7259C53.4984 36.9363 53.7869 37.8093 53.7869 37.8093C53.7869 37.8093 53.7869 37.3957 53.0109 35.7259C52.3639 34.1187 51.3722 31.9224 50.256 30.3747C48.2953 27.664 48.1966 27.4885 47.7258 26.791C47.255 26.0935 46.1327 25.0663 46.0613 25.0022H46.0674ZM52.1665 27.3405C52.8362 27.2413 52.7558 26.5178 52.7558 26.5178C52.7558 26.5178 51.9432 27.1665 50.9758 27.0413C51.3208 27.2837 51.7424 27.3901 52.1604 27.3405H52.1665Z" fill="#80A1AD"/>
<path d="M56.232 24.1199C55.9621 24.0516 55.6815 24.0366 55.4059 24.0756L55.3512 23.81C55.6739 23.793 55.9903 23.9043 56.232 24.1199Z" fill="#526C77"/>
<path d="M55.6534 43.4948C55.9107 43.0184 56.1144 42.5146 56.2609 41.9929C56.0164 43.0705 55.6959 44.3327 55.3223 45.711C51.1307 49.3741 46.6658 50.6913 46.5245 50.731C46.7144 50.6043 53.9403 45.7751 55.1811 44.1938C55.3611 43.977 55.5193 43.7429 55.6534 43.4948Z" fill="#1A2B32"/>
<path d="M55.3315 36.6706C55.3148 36.6386 55.1796 36.3654 54.033 34.2194C52.7497 31.8033 50.2362 28.627 50.1649 28.5278C50.2423 28.5828 52.2637 30.0877 53.1779 31.5911C54.0922 33.0945 55.2874 36.5226 55.3315 36.6706Z" fill="#526C77"/>
<path d="M46.52 50.7324C46.6597 50.6928 51.1262 49.3771 55.3178 45.7125C55.2707 45.8819 55.2236 46.0513 55.1765 46.2253C53.0504 49.1085 45.0924 52.1656 45.0924 52.1656H42.8341V51.1705C45.1121 51.1705 45.712 50.3967 45.712 50.3967C45.712 50.3967 44.6489 50.4226 42.8341 50.3967V48.7528C49.4571 48.7528 49.2916 46.6923 54.0102 45.0256C54.4649 44.8569 54.8673 44.5705 55.1765 44.1953C53.9358 45.7766 46.7098 50.6103 46.52 50.7324Z" fill="#526C77"/>
<path d="M54.8637 21.478C54.8637 21.478 54.7772 21.4856 54.6253 21.5146C54.5175 20.6874 54.4309 19.9349 54.3823 19.2893C54.5479 20.0265 54.7088 20.7591 54.8637 21.478Z" fill="#80A1AD"/>
<path d="M47.905 24.5443C47.3738 24.395 46.8734 24.1515 46.4273 23.8254C45.264 22.9997 44.5472 21.916 42.8341 21.916V20.7667C48.5687 20.7667 51.2279 19.6022 54.3048 18.9504C54.3306 19.0634 54.3564 19.1794 54.3823 19.2939C54.4309 19.9395 54.5174 20.6919 54.6253 21.5192C54.3387 21.5713 54.0565 21.6447 53.7809 21.739C53.6396 21.7878 53.4862 21.8443 53.3252 21.913C52.4323 22.2808 50.9075 25.1213 48.3014 24.6374C48.1647 24.6115 48.0311 24.5809 47.905 24.5443Z" fill="#1A2B32"/>
<path d="M53.0094 35.7275C53.7809 37.3973 53.7855 37.8109 53.7855 37.8109C53.7855 37.8109 53.4923 36.9379 53.0094 35.7275Z" fill="#80A1AD"/>
<path d="M53.3253 21.9159C53.4863 21.8473 53.6396 21.7908 53.7809 21.7419C53.7353 23.0561 53.0838 24.1016 53.1218 23.6346C53.1597 23.1675 53.585 22.5982 53.3253 21.9159Z" fill="#1A2B32"/>
<path d="M55.1751 46.2268C54.4021 49.0199 53.4149 52.2343 52.3518 55.3312L52.0891 55.6013L48.7479 59.0309C48.3346 57.4729 47.7015 55.9824 46.8678 54.6047C46.3571 53.7329 45.7608 52.9148 45.0879 52.1626C45.0879 52.1626 53.055 49.11 55.1751 46.2268Z" fill="#F9FBFC"/>
<path d="M50.2499 30.3762C51.3661 31.9239 52.3579 34.1202 53.0048 35.7274C52.774 35.2283 52.4748 34.6178 52.086 33.8715C50.3987 30.6311 47.3219 27.5404 47.3219 27.5404L46.728 27.693C47.5223 26.7772 47.0029 26.1469 46.0613 25.0037C46.1327 25.0678 47.2626 26.1179 47.7198 26.794C48.1769 27.4702 48.2893 27.6655 50.2499 30.3762Z" fill="#1A2B32"/>
<path d="M52.7497 26.5178C52.7497 26.5178 52.8302 27.2413 52.1604 27.3405C51.7397 27.3899 51.3156 27.2812 50.9698 27.0352C51.9372 27.1665 52.7497 26.5178 52.7497 26.5178Z" fill="#526C77"/>
<path d="M52.0891 55.6012L52.3518 55.3311C51.0138 59.2353 49.5544 62.9519 48.2513 65.4046C48.0448 65.4489 47.8367 65.4931 47.6287 65.5344C47.9172 64.9238 49.1474 62.3917 50.2013 60.2839C50.9516 58.7738 51.5832 57.2071 52.0906 55.5982L52.0891 55.6012Z" fill="#1A2B32"/>
<path d="M52.086 55.6043C51.5787 57.2133 50.947 58.78 50.1968 60.2901C49.1413 62.3979 47.9187 64.9346 47.6241 65.5405C47.374 65.5894 47.1209 65.6336 46.8648 65.6733C46.6597 62.1414 45.6225 58.5516 44.6657 57.3367C44.4474 56.8687 44.2046 56.4127 43.9382 55.9706L44.45 55.7341L46.7903 55.1235C46.7903 55.1235 47.7578 56.6941 48.1116 58.0403C48.4655 59.3865 48.3713 60.2839 48.3713 60.2839L52.086 55.6043Z" fill="#F9FBFC"/>
<path d="M52.086 55.6043L48.3774 60.2885C48.3774 60.2885 48.47 59.3911 48.1177 58.0449C47.7654 56.6987 46.7964 55.1281 46.7964 55.1281L44.4561 55.7387L46.8708 54.6199C47.7045 55.9976 48.3376 57.4881 48.751 59.0461L52.086 55.6043Z" fill="#526C77"/>
<path d="M52.7497 42.1714C52.7497 42.1714 51.1307 40.0025 49.9203 38.0229C48.7464 36.1013 48.3637 35.8326 48.3424 35.8174C50.5005 36.9041 52.7497 42.1714 52.7497 42.1714Z" fill="#526C77"/>
<path d="M52.1574 25.3227C52.1286 25.367 51.641 26.0462 50.1998 26.121C48.7145 26.1943 47.4479 25.1243 46.4274 23.8315C46.8734 24.1576 47.3739 24.4011 47.9051 24.5504C48.1511 24.816 48.6826 25.2464 49.7047 25.5517C51.2447 26.005 52.1073 25.3639 52.1574 25.3227Z" fill="#1A2B32"/>
<path d="M51.9994 45.1646C50.9665 45.8454 49.8686 46.4211 48.7221 46.8832C46.8511 47.631 45.5131 47.8188 42.8341 47.8188V45.1646C45.0651 45.1646 44.8084 46.204 46.7827 46.2253C48.757 46.2467 49.9917 45.3019 51.9994 45.1646Z" fill="#526C77"/>
<path d="M49.0851 32.4002C49.407 32.4002 49.2825 33.0244 49.0851 33.0992C48.8876 33.174 48.4518 32.5253 47.2991 31.7408C46.1464 30.9563 44.3968 31.5165 42.8341 31.5165V30.7533C43.7453 30.7533 43.9746 30.3794 43.9746 30.3794C43.9746 30.3794 45.3141 30.3046 46.3575 30.7274C47.4008 31.1502 48.757 32.4002 48.757 32.4002H49.0851Z" fill="#1A2B32"/>
<path d="M46.8708 54.6139L44.4561 55.7327L43.9443 55.9692H42.8341V52.1672H45.0909C45.7641 52.9209 46.3604 53.7406 46.8708 54.6139Z" fill="#1A2B32"/>
<path d="M46.8708 65.6718C46.6871 65.7039 46.5048 65.7329 46.3211 65.7573C46.2846 64.9835 46.1692 62.5521 45.9596 61.3158C45.714 59.9358 45.2807 58.5964 44.6718 57.3352C45.6285 58.5471 46.6658 62.14 46.8708 65.6718Z" fill="#526C77"/>
<path d="M45.1805 59.234C45.2063 59.4049 45.7667 63.0818 45.3764 65.8719C44.5411 65.9558 43.6922 66.0001 42.8341 66.0001V55.9692H43.9443C44.2106 56.4113 44.4534 56.8673 44.6717 57.3353C45.2806 58.5965 45.714 59.9359 45.9596 61.3159C46.1616 62.5537 46.2846 64.979 46.321 65.7574C46.1889 65.7757 46.0598 65.794 45.9292 65.8078C45.9292 65.8078 46.1616 61.6593 45.1805 59.234Z" fill="#1A2B32"/>
<path d="M45.4888 27.0412C46.3575 27.0168 46.3803 27.9891 46.157 28.0883C45.9338 28.1875 45.6483 28.0135 44.8813 27.9631C44.1144 27.9127 44.0977 28.7369 42.8341 28.7369V27.8028C44.4454 27.8028 44.6201 27.0672 45.4888 27.0412Z" fill="#1A2B32"/>
<path d="M45.1805 59.2339C46.1616 61.6592 45.9293 65.8077 45.9293 65.8077C45.7455 65.8321 45.5617 65.8534 45.3765 65.8718C45.7668 63.0817 45.2064 59.4048 45.1805 59.2339Z" fill="#253A45"/>
<path d="M45.7196 50.3982C45.7196 50.3982 45.1121 51.172 42.8341 51.172V50.3982C44.6444 50.4241 45.7196 50.3982 45.7196 50.3982Z" fill="#1A2B32"/>
<path d="M42.8341 32.9756C44.8175 32.9756 45.8609 33.522 45.8609 33.522C44.9151 33.9749 43.8817 34.2131 42.8341 34.2195V32.9756Z" fill="#1A2B32"/>
<path d="M17.8334 40.8725C17.8301 43.156 18.1367 45.4292 18.7446 47.6294L21.7243 46.2268L22.23 45.9887L22.3819 45.6391C22.5338 45.2911 27.2417 40.755 27.6381 40.3627C28.0345 39.9705 28.3792 40.3627 29.0642 40.3627C28.5599 37.1712 28.8728 33.2868 29.0049 31.704C29.0307 31.3698 29.0748 30.9821 29.1325 30.5456C28.8894 30.5993 28.636 30.5822 28.4022 30.4962C28.1684 30.4103 27.9639 30.259 27.8127 30.0602C27.3404 29.4497 27.9646 26.4902 28.0117 24.3763C28.0201 24.0928 28.0135 23.809 27.992 23.5261C27.1141 23.3949 26.1695 23.2209 25.2583 23.0103C22.9032 25.3434 21.0338 28.1245 19.759 31.1912C18.4842 34.2579 17.8297 37.549 17.8334 40.8725Z" fill="#FF0200"/>
<path d="M21.7242 46.2268L18.7567 47.6295C20.069 52.3519 22.7283 56.585 26.4064 59.8063L28.3913 55.6013C27.3775 55.6144 26.3637 55.5751 25.3539 55.4838C23.9157 55.3312 23.3462 54.6138 23.3462 54.6138V54.6016L21.7242 46.2268Z" fill="#253A45"/>
<path d="M21.7242 46.2252L23.3462 54.6C23.3189 54.3543 22.8572 50.3264 22.23 45.9856L21.7242 46.2252Z" fill="#1A2B32"/>
<path d="M29.1659 46.4893C29.1143 46.3947 28.2972 44.8699 28.0618 43.4978C27.9201 42.6014 27.9201 41.6881 28.0618 40.7917C28.0618 40.7917 28.1529 43.0689 29.1659 46.4893ZM33.315 55.3342C32.2519 52.2374 31.2647 49.023 30.4917 46.2299C30.4446 46.0559 30.3976 45.8864 30.3505 45.717C29.9769 44.3434 29.6564 43.0765 29.4119 41.999C29.2609 41.4639 29.1427 40.92 29.0581 40.3704C28.3731 40.3704 28.0223 39.9858 27.632 40.3704C27.2417 40.755 22.5246 45.2988 22.3758 45.6468L22.2239 45.9963C22.8512 50.3402 23.3128 54.365 23.3402 54.6108V54.623L28.3929 55.609L29.948 52.3259L27.1005 60.4153C30.1063 62.8654 33.6391 64.5775 37.4185 65.4154C36.1139 62.952 34.6545 59.2354 33.3165 55.3312L33.315 55.3342Z" fill="#253A45"/>
<path d="M23.3401 54.6138C23.3401 54.6138 23.9097 55.3342 25.3479 55.4838C26.3577 55.5751 27.3715 55.6143 28.3853 55.6013L23.3401 54.6138Z" fill="#1A2B32"/>
<path d="M28.3913 55.6014L26.3988 59.8064C26.6281 60.0109 26.862 60.2078 27.1004 60.4016L29.948 52.3123L28.3929 55.5953L28.3913 55.6014Z" fill="#1A2B32"/>
<path d="M27.84 28.7232C27.8342 29.0707 27.9269 29.4127 28.1073 29.7092C28.5128 30.28 29.4134 30.277 28.768 30.2205C27.9205 30.1472 27.7687 29.6023 27.84 28.7232ZM28.0025 24.3748C27.9509 26.4948 27.3313 29.4543 27.799 30.0587C27.9502 30.2575 28.1547 30.4087 28.3885 30.4947C28.6223 30.5807 28.8756 30.5978 29.1188 30.5441C29.2615 29.4451 29.4954 28.0455 29.7931 26.4551C29.1598 26.3437 28.8408 28.5126 28.7725 27.8898C28.7648 27.7882 28.7648 27.6862 28.7725 27.5846L28.3245 27.5556C28.3245 27.5556 28.3366 25.6156 28.3868 24.3503C28.2608 24.3792 28.1311 24.3874 28.0025 24.3748Z" fill="#80A1AD"/>
<path d="M27.8401 28.7231C27.7687 29.6023 27.9206 30.1472 28.768 30.2204C29.4134 30.2769 28.5129 30.28 28.1074 29.7091C27.927 29.4126 27.8343 29.0706 27.8401 28.7231Z" fill="#F9FBFC"/>
<path d="M27.9828 23.5247C28.0043 23.8076 28.0109 24.0914 28.0025 24.3749C28.1313 24.3861 28.2611 24.3763 28.3868 24.3459C28.3959 24.1078 28.405 23.888 28.4187 23.7201C28.4916 22.6181 29.664 22.1496 30.393 23.4301C30.4942 22.9315 30.601 22.4228 30.7134 21.9038C29.0428 21.2826 27.7975 21.6245 27.9798 23.453C27.9798 23.4759 27.9813 23.5019 27.9828 23.5247Z" fill="#526C77"/>
<path d="M28.0633 40.7886C27.9217 41.685 27.9217 42.5983 28.0633 43.4947C28.2987 44.8684 29.1158 46.3947 29.1674 46.4862C28.1529 43.0689 28.0633 40.7886 28.0633 40.7886Z" fill="#526C77"/>
<path d="M28.3245 27.554L28.7725 27.583C28.812 26.9115 29.1461 25.9316 29.9116 25.8553C30.0219 25.2814 30.1389 24.6882 30.2624 24.0756C29.9867 24.0366 29.7062 24.0516 29.4362 24.1199C29.3047 24.2264 29.1873 24.3496 29.0869 24.4862C28.4551 25.3287 28.3245 27.554 28.3245 27.554Z" fill="#80A1AD"/>
<path d="M28.3868 24.3459C28.3367 25.6142 28.3245 27.5511 28.3245 27.5511C28.3245 27.5511 28.4551 25.3258 29.0839 24.4833C29.1842 24.3466 29.3016 24.2235 29.4332 24.1169C29.0702 24.1887 28.6784 24.2894 28.3868 24.3459Z" fill="#1A2B32"/>
<path d="M28.4187 23.7201C28.405 23.8941 28.3959 24.1078 28.3868 24.3459C28.6784 24.2894 29.0702 24.1932 29.4362 24.12C29.6786 23.9061 29.995 23.7965 30.317 23.8147C30.3413 23.6896 30.3687 23.5629 30.3945 23.4347C29.664 22.1495 28.4916 22.6181 28.4187 23.7201Z" fill="#1A2B32"/>
<path d="M28.7726 27.5831C28.7649 27.6847 28.7649 27.7867 28.7726 27.8883C28.8409 28.511 29.1598 26.3422 29.7931 26.4536C29.8311 26.2567 29.8675 26.0552 29.907 25.8538C29.1462 25.9316 28.812 26.9115 28.7726 27.5831Z" fill="#1A2B32"/>
<path d="M30.317 23.8101L30.2623 24.0757C30.1388 24.6862 30.0219 25.2794 29.9115 25.8553C29.872 26.0568 29.8356 26.2583 29.7976 26.4552C29.4939 28.0456 29.2661 29.4452 29.1233 30.5441C29.0656 30.9806 29.0216 31.3683 28.9958 31.7026C28.8636 33.2853 28.5508 37.1698 29.055 40.3613H29.0687C29.1567 40.8375 29.2722 41.3839 29.4088 41.9898C29.5553 42.5115 29.759 43.0153 30.0163 43.4917C29.4726 42.0707 29.1446 38.9784 29.1734 35.1886C29.2023 31.3988 30.2866 26.9649 30.5828 24.8449C30.7483 23.6727 30.9139 22.5372 31.0384 21.5115C30.8865 21.4825 30.8 21.4749 30.8 21.4749C30.7711 21.6168 30.7407 21.7603 30.7104 21.9007C30.6 22.4186 30.4932 22.9274 30.3899 23.427C30.3687 23.5582 30.3413 23.6849 30.317 23.8101Z" fill="#F9FBFC"/>
<path d="M37.3258 35.8175C37.3046 35.8328 36.9219 36.1014 35.7479 38.023C34.533 40.0072 32.9186 42.1715 32.9186 42.1715C32.9186 42.1715 35.1678 36.9042 37.3258 35.8175ZM35.5034 28.5279C35.426 28.6271 32.9216 31.8034 31.6353 34.2195C30.4948 36.3685 30.3535 36.6387 30.3368 36.6707C30.3869 36.5181 31.5806 33.0885 32.4903 31.5912C33.4 30.0939 35.426 28.5829 35.5034 28.5279ZM33.5109 25.3227C33.561 25.3639 34.4221 26.005 35.9636 25.5455C36.9857 25.2403 37.5172 24.8099 37.7632 24.5443C37.6372 24.5809 37.5035 24.6114 37.3653 24.6374C34.7608 25.1212 33.236 22.2808 32.343 21.916C32.0833 22.6059 32.5101 23.1676 32.5465 23.6346C32.583 24.1017 31.939 23.0561 31.8874 21.742C31.6118 21.6477 31.3295 21.5743 31.043 21.5222C30.9124 22.5479 30.7393 23.6835 30.5874 24.8556C30.2913 26.9757 29.2039 31.4187 29.178 35.1994C29.1522 38.98 29.4818 42.0814 30.0209 43.5024C30.1564 43.7512 30.3162 43.9859 30.4978 44.203C30.807 44.5782 31.2094 44.8646 31.6642 45.0333C36.3827 46.7 36.2202 48.7605 42.8402 48.7605V47.8264C40.1613 47.8264 38.8233 47.6387 36.9522 46.8908C35.8057 46.4287 34.7079 45.853 33.6749 45.1722C35.6826 45.3096 36.9234 46.2559 38.8962 46.233C40.869 46.2101 40.6093 45.1722 42.8448 45.1722V34.2195C41.7931 34.2127 40.7559 33.9724 39.8074 33.5159C39.8074 33.5159 40.8507 32.9694 42.8342 32.9694V31.5164C41.2714 31.5164 39.5234 30.9547 38.3692 31.7408C37.215 32.5268 36.7837 33.174 36.5832 33.0992C36.3827 33.0244 36.2612 32.4001 36.5832 32.4001H36.9112C36.9112 32.4001 38.2781 31.1547 39.3153 30.7304C40.3526 30.3061 41.6982 30.3824 41.6982 30.3824C41.6982 30.3824 41.9214 30.7563 42.8387 30.7563V28.737C41.5752 28.737 41.5615 27.9143 40.7915 27.9632C40.0215 28.012 39.7391 28.1876 39.5158 28.0883C39.2926 27.9891 39.3153 27.0199 40.184 27.0413C41.0527 27.0627 41.2274 27.8045 42.8387 27.8045V21.916C41.1256 21.916 40.4088 23.0073 39.2455 23.833C38.2249 25.1319 36.9583 26.2018 35.473 26.1225C34.0257 26.0462 33.5397 25.367 33.5109 25.3227ZM39.6069 25.0022C38.6653 26.1454 38.1459 26.7696 38.9402 27.6915L38.3464 27.5389C38.3464 27.5389 35.2695 30.6296 33.5823 33.87C33.1935 34.6163 32.8943 35.2268 32.6635 35.7259C32.176 36.9363 31.8874 37.8093 31.8874 37.8093C31.8874 37.8093 31.8874 37.3957 32.6635 35.7259C33.3104 34.1187 34.3021 31.9224 35.4184 30.3747C37.379 27.664 37.4777 27.4885 37.9485 26.791C38.4193 26.0935 39.5355 25.0663 39.6069 25.0022ZM33.5078 27.3405C32.8381 27.2413 32.9186 26.5178 32.9186 26.5178C32.9186 26.5178 33.7311 27.1665 34.6985 27.0413C34.3519 27.2851 33.9279 27.3917 33.5078 27.3405Z" fill="#80A1AD"/>
<path d="M29.4362 24.1199C29.7062 24.0516 29.9867 24.0366 30.2624 24.0756L30.3171 23.81C29.9944 23.793 29.6779 23.9043 29.4362 24.1199Z" fill="#526C77"/>
<path d="M30.0148 43.4948C29.7575 43.0184 29.5538 42.5146 29.4073 41.9929C29.6519 43.0705 29.9723 44.3327 30.3459 45.711C34.5375 49.3741 39.0025 50.6913 39.1437 50.731C38.9539 50.6043 31.7279 45.7751 30.4871 44.1938C30.3072 43.977 30.149 43.7429 30.0148 43.4948Z" fill="#1A2B32"/>
<path d="M30.3368 36.6706C30.3535 36.6386 30.4887 36.3654 31.6353 34.2194C32.9186 31.8033 35.432 28.627 35.5034 28.5278C35.4259 28.5828 33.4046 30.0877 32.4903 31.5911C31.576 33.0945 30.3808 36.5226 30.3368 36.6706Z" fill="#526C77"/>
<path d="M39.1483 50.7324C39.0085 50.6928 34.5421 49.3771 30.3505 45.7125C30.3975 45.8819 30.4446 46.0513 30.4917 46.2253C32.6179 49.1085 40.5758 52.1656 40.5758 52.1656H42.8341V51.1705C40.5561 51.1705 39.9562 50.3967 39.9562 50.3967C39.9562 50.3967 41.0193 50.4226 42.8341 50.3967V48.7528C36.2111 48.7528 36.3766 46.6923 31.6581 45.0256C31.2033 44.8569 30.8009 44.5705 30.4917 44.1953C31.7325 45.7766 38.9584 50.6103 39.1483 50.7324Z" fill="#526C77"/>
<path d="M30.8046 21.478C30.8046 21.478 30.8911 21.4856 31.043 21.5146C31.1508 20.6874 31.2374 19.9349 31.286 19.2893C31.1205 20.0265 30.9595 20.7591 30.8046 21.478Z" fill="#80A1AD"/>
<path d="M39.2409 23.8254C40.4042 22.9997 41.121 21.916 42.8341 21.916V20.7667C37.0995 20.7667 34.4403 19.6022 31.3634 18.9504L31.286 19.2939C31.2374 19.9395 31.1508 20.6919 31.043 21.5192C31.3295 21.5713 31.6117 21.6447 31.8874 21.739C32.0286 21.7878 32.182 21.8443 32.343 21.913C33.236 22.2854 34.7607 25.1274 37.3653 24.642C37.5035 24.6161 37.6371 24.5855 37.7632 24.5489C38.2947 24.3981 38.7951 24.1531 39.2409 23.8254Z" fill="#1A2B32"/>
<path d="M32.6589 35.7275C31.8874 37.3973 31.8828 37.8109 31.8828 37.8109C31.8828 37.8109 32.1759 36.9379 32.6589 35.7275Z" fill="#80A1AD"/>
<path d="M32.343 21.9159C32.182 21.8473 32.0286 21.7908 31.8874 21.7419C31.933 23.0561 32.5845 24.1016 32.5465 23.6346C32.5085 23.1675 32.0833 22.5982 32.343 21.9159Z" fill="#1A2B32"/>
<path d="M30.4932 46.2268C31.2662 49.0199 32.2534 52.2343 33.3165 55.3312L33.5792 55.6013L36.9203 59.0309C37.3337 57.4729 37.9668 55.9824 38.8005 54.6047C39.3112 53.7329 39.9074 52.9148 40.5804 52.1626C40.5804 52.1626 32.6133 49.11 30.4932 46.2268Z" fill="#F9FBFC"/>
<path d="M35.4183 30.3762C34.3021 31.9239 33.3104 34.1263 32.6589 35.7274C32.8897 35.2283 33.1889 34.6178 33.5777 33.8715C35.265 30.6311 38.3418 27.5404 38.3418 27.5404L38.9356 27.693C38.1414 26.7772 38.6608 26.1469 39.6023 25.0037C39.531 25.0678 38.4011 26.1179 37.9439 26.794C37.4868 27.4702 37.379 27.6655 35.4183 30.3762Z" fill="#1A2B32"/>
<path d="M32.9186 26.5178C32.9186 26.5178 32.8381 27.2413 33.5078 27.3405C33.9286 27.3899 34.3527 27.2812 34.6985 27.0352C33.731 27.1665 32.9186 26.5178 32.9186 26.5178Z" fill="#526C77"/>
<path d="M33.5792 55.6012L33.3165 55.3311C34.6544 59.2353 36.1139 62.9519 37.4169 65.4046C37.6235 65.4489 37.8315 65.4931 38.0396 65.5344C37.7511 64.9238 36.5209 62.3917 35.4669 60.2839C34.7167 58.7738 34.085 57.2071 33.5777 55.5982L33.5792 55.6012Z" fill="#1A2B32"/>
<path d="M33.5822 55.6043C34.0896 57.2133 34.7212 58.78 35.4715 60.2901C36.527 62.3979 37.7495 64.9346 38.0441 65.5405C38.2952 65.5894 38.5483 65.6336 38.8035 65.6733C39.0085 62.1414 40.0458 58.5516 41.0026 57.3367C41.2208 56.8687 41.4637 56.4127 41.73 55.9706L41.2182 55.7341L38.8779 55.1235C38.8779 55.1235 37.9105 56.6941 37.5566 58.0403C37.2028 59.3865 37.2969 60.2839 37.2969 60.2839L33.5822 55.6043Z" fill="#F9FBFC"/>
<path d="M33.5822 55.6043L37.2909 60.2885C37.2909 60.2885 37.1982 59.3911 37.5506 58.0449C37.9029 56.6987 38.8718 55.1281 38.8718 55.1281L41.2121 55.7387L38.7974 54.6199C37.9638 55.9976 37.3306 57.4881 36.9173 59.0461L33.5822 55.6043Z" fill="#526C77"/>
<path d="M32.9186 42.1714C32.9186 42.1714 34.5375 40.0025 35.7479 38.0229C36.9219 36.1013 37.3046 35.8326 37.3258 35.8174C35.1678 36.9041 32.9186 42.1714 32.9186 42.1714Z" fill="#526C77"/>
<path d="M33.5109 25.3227C33.5397 25.367 34.0272 26.0462 35.4685 26.121C36.9537 26.1943 38.2203 25.1243 39.2409 23.8315C38.7948 24.1576 38.2944 24.4011 37.7632 24.5504C37.5172 24.816 36.9856 25.2464 35.9636 25.5517C34.4236 26.005 33.561 25.3639 33.5109 25.3227Z" fill="#1A2B32"/>
<path d="M33.6688 45.1646C34.7018 45.8454 35.7997 46.4211 36.9462 46.8832C38.8172 47.631 40.1552 47.8188 42.8341 47.8188V45.1646C40.6032 45.1646 40.8598 46.204 38.8855 46.2253C36.9112 46.2467 35.6765 45.3019 33.6688 45.1646Z" fill="#526C77"/>
<path d="M36.5832 32.4002C36.2612 32.4002 36.3857 33.0244 36.5832 33.0992C36.7806 33.174 37.2165 32.5253 38.3692 31.7408C39.5219 30.9563 41.2714 31.5165 42.8341 31.5165V30.7533C41.9229 30.7533 41.6936 30.3794 41.6936 30.3794C41.6936 30.3794 40.3541 30.3046 39.3108 30.7274C38.2674 31.1502 36.9112 32.4002 36.9112 32.4002H36.5832Z" fill="#1A2B32"/>
<path d="M38.7974 54.6139L41.2122 55.7327L41.724 55.9692H42.8341V52.1672H40.5773C39.9041 52.9209 39.3079 53.7406 38.7974 54.6139Z" fill="#1A2B32"/>
<path d="M38.7974 65.6718C38.9812 65.7039 39.1634 65.7329 39.3472 65.7573C39.3836 64.9835 39.5067 62.5521 39.7086 61.3158C39.9542 59.9358 40.3876 58.5964 40.9965 57.3352C40.0397 58.5471 39.0024 62.14 38.7974 65.6718Z" fill="#526C77"/>
<path d="M40.4878 59.234C40.462 59.4049 39.9016 63.0818 40.2919 65.8719C41.1271 65.9558 41.9761 66.0001 42.8342 66.0001V55.9692H41.724C41.4576 56.4113 41.2148 56.8673 40.9965 57.3353C40.3876 58.5965 39.9543 59.9359 39.7087 61.3159C39.5067 62.5537 39.3837 64.979 39.3472 65.7574C39.4794 65.7757 39.6084 65.794 39.7391 65.8078C39.7391 65.8078 39.5067 61.6593 40.4878 59.234Z" fill="#1A2B32"/>
<path d="M40.1794 27.0412C39.3107 27.0168 39.288 27.9891 39.5112 28.0883C39.7345 28.1875 40.02 28.0135 40.7869 27.9631C41.5538 27.9127 41.5706 28.7369 42.8341 28.7369V27.8028C41.2228 27.8028 41.0481 27.0672 40.1794 27.0412Z" fill="#1A2B32"/>
<path d="M40.4878 59.2339C39.5067 61.6592 39.739 65.8077 39.739 65.8077C39.9228 65.8321 40.1066 65.8534 40.2918 65.8718C39.9015 63.0817 40.4619 59.4048 40.4878 59.2339Z" fill="#253A45"/>
<path d="M39.9562 50.3982C39.9562 50.3982 40.5515 51.172 42.8341 51.172V50.3982C41.0238 50.4241 39.9562 50.3982 39.9562 50.3982Z" fill="#1A2B32"/>
<path d="M42.8341 32.9756C40.8507 32.9756 39.8074 33.522 39.8074 33.522C40.7531 33.9749 41.7865 34.2131 42.8341 34.2195V32.9756Z" fill="#1A2B32"/>
<path d="M45.3233 24.9976C45.1 24.0956 44.2025 21.7344 44.2025 21.7344L46.0674 23.4591C46.0674 23.4591 46.1236 24.4863 45.9155 24.6923C45.743 24.8369 45.5407 24.9411 45.3233 24.9976Z" fill="#1A2B32"/>
<path d="M40.345 24.9976C40.5683 24.0956 41.4658 21.7344 41.4658 21.7344L39.6008 23.4591C39.6008 23.4591 39.5447 24.4863 39.7527 24.6923C39.9253 24.8369 40.1275 24.9411 40.345 24.9976Z" fill="#1A2B32"/>
<path d="M43.9747 26.1239C43.6238 26.1452 43.3915 24.0512 43.7772 23.9642C44.163 23.8772 44.3224 26.101 43.9747 26.1239Z" fill="#F9FBFC"/>
<path d="M46.6916 31.9407C46.4061 31.7285 45.3521 31.6659 45.3142 31.9407C45.2762 32.2154 46.9756 32.1528 46.6916 31.9407Z" fill="#F9FBFC"/>
<path d="M53.7824 23.5278C53.5865 24.0391 53.1218 25.2068 51.9676 25.8539C52.2491 25.8222 52.5196 25.7259 52.7582 25.5724C52.9967 25.4189 53.197 25.2123 53.3435 24.9687C53.8644 24.1322 53.7824 23.5278 53.7824 23.5278Z" fill="#F9FBFC"/>
<path d="M32.4736 24.5579C32.8392 25.1753 33.3639 25.6821 33.9923 26.0246C33.6122 26.0031 33.247 25.8687 32.9429 25.6385C32.4463 25.2554 32.4736 24.5579 32.4736 24.5579Z" fill="#F9FBFC"/>
<path d="M50.9181 43.4948C51.0457 42.2921 49.3721 38.4336 49.0046 38.2093C48.6371 37.9849 49.4116 39.0701 49.8626 41.0512C50.3137 43.0324 50.8164 44.4427 50.9181 43.4948Z" fill="#F9FBFC"/>
<path d="M48.8922 25.8539C47.8488 25.8539 46.9027 25.7013 46.4775 25.2617C45.5951 24.3306 44.3072 22.0153 44.2526 21.9176L44.2025 21.8275V19.8113H54.1939L54.1818 20.2203C54.1818 20.2676 54.1469 21.3834 54.0056 22.551C53.7307 24.8297 53.2994 25.2541 52.9122 25.3685C51.592 25.6667 50.2451 25.8293 48.8922 25.8539ZM44.9922 21.6199C45.2382 22.0534 46.3286 23.9521 47.05 24.7137C47.6727 25.3685 51.5863 24.9259 52.6692 24.6115C52.9729 24.3764 53.2767 22.5662 53.3723 20.605H44.9922V21.6199Z" fill="#1A2B32"/>
<path d="M44.9922 21.0934C44.992 21.4423 45.0849 21.7848 45.261 22.0855C45.6953 22.8273 46.4866 24.1185 47.05 24.7138C47.6727 25.3686 51.5864 24.9259 52.6692 24.6115C52.9456 24.3948 53.2311 22.8441 53.3465 21.069C53.3494 21.01 53.3404 20.9511 53.3199 20.8957C53.2995 20.8404 53.2681 20.7898 53.2276 20.7469C53.1871 20.7041 53.1385 20.67 53.0845 20.6467C53.0306 20.6233 52.9724 20.6112 52.9137 20.6111H44.9922V21.0934Z" fill="#80A1AD"/>
<path d="M53.998 20.8918V21.0445C53.998 21.1452 53.9904 21.2887 53.9783 21.4612C53.9662 21.6336 53.951 21.8351 53.9282 22.0488C53.9054 22.2625 53.8765 22.4929 53.8447 22.7204C53.8128 22.9478 53.7702 23.1782 53.7247 23.3873C53.6791 23.5964 53.626 23.7933 53.5728 23.9597C53.5328 24.0934 53.4857 24.2249 53.4316 24.3535C53.3906 24.4466 53.3647 24.497 53.3647 24.497C53.3647 24.497 53.3845 24.4435 53.4133 24.3443C53.4422 24.2451 53.4802 24.1093 53.5212 23.9429C53.5622 23.7765 53.5986 23.5797 53.6366 23.3675C53.6746 23.1553 53.711 22.9295 53.7444 22.7036C53.7778 22.4777 53.8097 22.2457 53.8401 22.0366C53.8705 21.8275 53.8963 21.6229 53.9191 21.4535C53.9418 21.2841 53.9616 21.1376 53.9737 21.0399L53.998 20.8918Z" fill="#F9FBFC"/>
<path d="M52.8833 25.083L52.8104 25.112C52.7633 25.1288 52.698 25.1547 52.616 25.1776C52.534 25.2005 52.4398 25.2295 52.3366 25.254C52.2333 25.2784 52.124 25.3028 52.0131 25.3257C51.9022 25.3486 51.7914 25.3669 51.6866 25.3822C51.5818 25.3974 51.4831 25.4096 51.3995 25.4188C51.316 25.428 51.2477 25.4325 51.1945 25.4371H51.1171L51.1869 25.4264C51.2355 25.4142 51.3039 25.3928 51.3859 25.3745L51.6668 25.3074L51.9903 25.2402L52.3153 25.1807L52.5993 25.1334L52.8013 25.1013L52.8833 25.083Z" fill="#F9FBFC"/>
<path d="M45.2899 22.5127L45.3491 22.6012C45.3855 22.6562 45.4463 22.7447 45.501 22.8332L45.7181 23.1598L45.9642 23.5384C46.0462 23.6666 46.1282 23.7917 46.2071 23.9169L46.4198 24.2466L46.5716 24.4816L46.6278 24.5701L46.5564 24.4923C46.5124 24.4404 46.4471 24.3702 46.3772 24.2786C46.3074 24.187 46.2254 24.0817 46.1388 23.9642C46.0522 23.8467 45.9687 23.7185 45.8852 23.5903C45.8017 23.4621 45.7212 23.3293 45.6483 23.2041C45.5754 23.079 45.5116 22.9614 45.4554 22.8592C45.3992 22.7569 45.3612 22.6699 45.3309 22.6104C45.3005 22.5509 45.2899 22.5127 45.2899 22.5127Z" fill="#F9FBFC"/>
<path d="M32.8836 25.3685C32.4979 25.2541 32.0651 24.8297 31.7917 22.551C31.6505 21.3834 31.6155 20.2615 31.614 20.2203L31.6019 19.8113H41.5949V21.8275L41.5448 21.9176C41.4901 22.0153 40.2022 24.3306 39.3184 25.2617C38.8946 25.7089 37.9515 25.8539 36.9052 25.8539C35.5518 25.8292 34.2044 25.6665 32.8836 25.3685ZM40.8036 20.605H32.4204C32.5116 22.5662 32.8244 24.3764 33.1236 24.6115C34.2095 24.9259 38.1247 25.3746 38.7428 24.7137C39.4657 23.9506 40.5561 22.0534 40.8006 21.6199L40.8036 20.605Z" fill="#1A2B32"/>
<path d="M40.8036 20.605H32.8776C32.819 20.6053 32.761 20.6176 32.7072 20.641C32.6535 20.6645 32.605 20.6986 32.5647 20.7414C32.5244 20.7842 32.4931 20.8347 32.4727 20.89C32.4524 20.9452 32.4434 21.004 32.4463 21.0629C32.5602 22.838 32.8472 24.3887 33.1236 24.6054C34.2095 24.9198 38.1247 25.3686 38.7428 24.7077C39.3077 24.1124 40.0974 22.8212 40.5333 22.0794C40.7083 21.7783 40.8005 21.4359 40.8006 21.0873L40.8036 20.605Z" fill="#80A1AD"/>
<path d="M31.7993 20.8918L31.8206 21.0445C31.8342 21.1422 31.854 21.2948 31.8768 21.4581C31.8995 21.6214 31.9269 21.832 31.9557 22.0411L32.0499 22.7081C32.0848 22.934 32.1213 23.166 32.1592 23.3721C32.1972 23.5781 32.2352 23.7811 32.2747 23.9475C32.3141 24.1139 32.3506 24.2528 32.381 24.3489C32.4113 24.4451 32.4296 24.5015 32.4296 24.5015C32.4296 24.5015 32.4037 24.4512 32.3643 24.3581C32.3102 24.2295 32.263 24.098 32.223 23.9643C32.1744 23.7979 32.1213 23.6041 32.0711 23.3919C32.021 23.1798 31.9876 22.9523 31.9512 22.7249C31.9147 22.4975 31.8874 22.267 31.8661 22.0534C31.8449 21.8397 31.8297 21.6382 31.8175 21.4657C31.8054 21.2933 31.8008 21.1498 31.7963 21.0491L31.7993 20.8918Z" fill="#F9FBFC"/>
<path d="M48.839 24.8998C47.574 24.8998 47.2444 24.6952 47.1609 24.6082C46.6035 24.0206 45.8138 22.7263 45.3916 22.0135C45.2296 21.7358 45.1441 21.4197 45.144 21.0977V20.762H52.9182C52.9571 20.7621 52.9955 20.7702 53.031 20.7859C53.0666 20.8016 53.0985 20.8244 53.1249 20.8531C53.1513 20.8817 53.1715 20.9155 53.1843 20.9524C53.197 20.9892 53.2021 21.0283 53.1992 21.0672C53.0732 23.0285 52.7755 24.2801 52.5917 24.4831C51.9387 24.6632 50.2286 24.9089 48.833 24.9089L48.839 24.8998Z" fill="#80A1AD"/>
<path d="M36.9583 24.8999C35.5611 24.8999 33.8526 24.6542 33.1995 24.4741C33.0218 24.2711 32.7242 23.0195 32.592 21.0582C32.5893 21.0199 32.5944 20.9813 32.6072 20.9451C32.6201 20.9088 32.6402 20.8756 32.6665 20.8476C32.6927 20.8193 32.7244 20.7967 32.7597 20.7812C32.7949 20.7657 32.833 20.7577 32.8715 20.7576H40.6457V21.0934C40.6463 21.4154 40.5608 21.7317 40.3981 22.0091C39.9775 22.728 39.1832 24.0223 38.6304 24.6038C38.5468 24.6908 38.2173 24.8954 36.9522 24.8954L36.9583 24.8999Z" fill="#80A1AD"/>
<path d="M52.9107 20.7576H51.2158L49.5589 24.8786C50.1664 24.848 50.7845 24.7855 51.3221 24.7107L52.9107 20.7576Z" fill="#F9FBFC"/>
<path d="M37.7814 20.7576L36.1276 24.8786C36.41 24.8954 36.6895 24.9045 36.9583 24.9045C37.2494 24.9068 37.5405 24.8926 37.83 24.8618L39.4763 20.7621L37.7814 20.7576Z" fill="#F9FBFC"/>
<path d="M60.4115 23.0087C59.511 23.224 58.5633 23.3934 57.6855 23.5246C57.6855 23.5017 57.6855 23.4758 57.6855 23.4529C57.8632 21.6213 56.6148 21.2825 54.9518 21.9037C54.9215 21.7633 54.8911 21.6198 54.8622 21.4779C54.7104 20.759 54.5463 20.0264 54.3808 19.2892C54.355 19.1747 54.3292 19.0587 54.3033 18.9457C55.6116 18.6598 56.9466 18.516 58.2854 18.5168C61.2575 18.5168 62.8582 18.9457 63.7238 19.5105L63.7344 19.5181C64.1232 19.8325 64.3677 20.179 64.4118 20.5606C64.5424 21.6992 62.6212 22.4837 60.4115 23.0087Z" fill="#1A2B32"/>
<path d="M54.3048 18.9427C51.2279 19.5944 48.5687 20.759 42.8341 20.759V20.5423C49.4708 20.5423 51.155 18.9046 54.9533 18.5321L55.0869 18.5199C58.9809 18.175 53.6001 18.2925 49.9598 19.3167C46.9832 20.1561 44.3407 20.1424 42.8341 20.1424V16.9692C45.2154 16.9692 51.7139 16.7067 54.317 16.9692C54.317 16.9692 61.4442 17.6759 63.7253 19.5074C62.8596 18.9427 61.2589 18.5138 58.2868 18.5138C56.948 18.513 55.613 18.6568 54.3048 18.9427Z" fill="#253A45"/>
<path d="M49.9598 19.3106C53.6047 18.2865 58.9809 18.1689 55.0869 18.5139L54.9533 18.5261C51.1566 18.8985 49.4708 20.5362 42.8341 20.5362V20.1363C44.3528 20.1363 46.9832 20.1501 49.9598 19.3106Z" fill="#526C77"/>
<path d="M54.2456 16.7632C54.2927 16.896 54.317 16.9692 54.317 16.9692C51.7139 16.7067 45.2154 16.9692 42.8341 16.9692V14.5424C44.5335 14.5424 49.3083 14.4615 49.3083 14.4615C49.3083 14.4615 44.7947 14.3089 42.8341 14.3089V14.1562C45.1121 14.1562 50.6326 14.1852 53.3966 14.4188C53.7383 15.3346 54.0041 16.0779 54.1651 16.522C50.8938 16.1038 47.7273 16.5678 47.7273 16.5678C52.7056 16.4106 54.2456 16.7632 54.2456 16.7632Z" fill="#526C77"/>
<path d="M54.1651 16.5326C54.197 16.6211 54.2243 16.699 54.2456 16.7631C54.2456 16.7631 52.7117 16.4105 47.7274 16.5784C47.7274 16.5738 50.8938 16.1159 54.1651 16.5326Z" fill="#253A45"/>
<path d="M49.0851 5.60127C50.3334 6.65442 52.2622 11.4134 53.3966 14.4294C50.6326 14.1959 45.1076 14.1669 42.8341 14.1669V7.45115C45.7849 7.02531 46.6035 5.27922 46.6035 5.27922C46.6035 5.27922 45.3126 5.64554 44.2116 5.98132C45.8487 5.27922 47.6438 4.38481 49.0851 5.60127Z" fill="#253A45"/>
<path d="M42.8341 14.3149C44.7947 14.3149 49.3083 14.4676 49.3083 14.4676C49.3083 14.4676 44.5335 14.5485 42.8341 14.5485V14.3149Z" fill="#253A45"/>
<path d="M46.6035 5.2793C46.6035 5.2793 45.7849 7.02538 42.8341 7.44969V6.50033C43.3005 6.36133 43.7572 6.19102 44.2009 5.99055H44.2146C45.3126 5.64866 46.6035 5.2793 46.6035 5.2793Z" fill="#1A2B32"/>
<path d="M25.2568 23.0087C26.1573 23.224 27.105 23.3934 27.9904 23.5246C27.9904 23.5017 27.9904 23.4758 27.9904 23.4529C27.8127 21.6213 29.0611 21.2825 30.7241 21.9037C30.7544 21.7633 30.7848 21.6198 30.8137 21.4779C30.9655 20.759 31.1295 20.0264 31.2951 19.2892L31.3725 18.9457C30.0643 18.6598 28.7293 18.516 27.3905 18.5168C24.4184 18.5168 22.8177 18.9457 21.9521 19.5105L21.9414 19.5181C21.5527 19.8325 21.3081 20.179 21.2641 20.5606C21.1259 21.6992 23.0471 22.4837 25.2568 23.0087Z" fill="#1A2B32"/>
<path d="M31.3635 18.9427C34.4403 19.5944 37.0996 20.759 42.8342 20.759V20.5423C36.1975 20.5423 34.5132 18.9046 30.715 18.5321L30.5813 18.5199C26.6874 18.175 32.0681 18.2925 35.7084 19.3167C38.6851 20.1561 41.3276 20.1424 42.8342 20.1424V16.9692C40.4528 16.9692 33.9544 16.7067 31.3513 16.9692C31.3513 16.9692 24.2241 17.6759 21.943 19.5074C22.8086 18.9427 24.4094 18.5138 27.3814 18.5138C28.7202 18.513 30.0552 18.6568 31.3635 18.9427Z" fill="#253A45"/>
<path d="M35.7084 19.3106C32.0635 18.2865 26.6873 18.1689 30.5813 18.5139L30.7149 18.5261C34.5117 18.8985 36.1974 20.5362 42.8341 20.5362V20.1363C41.3154 20.1363 38.685 20.1501 35.7084 19.3106Z" fill="#526C77"/>
<path d="M31.4226 16.7632C31.3756 16.896 31.3513 16.9692 31.3513 16.9692C33.9543 16.7067 40.4528 16.9692 42.8341 16.9692V14.5424C41.1347 14.5424 36.3599 14.4615 36.3599 14.4615C36.3599 14.4615 40.8735 14.3089 42.8341 14.3089V14.1562C40.5561 14.1562 35.0356 14.1852 32.2716 14.4188C31.9299 15.3346 31.6641 16.0779 31.5031 16.522C34.7744 16.1038 37.9409 16.5678 37.9409 16.5678C32.9626 16.4106 31.4226 16.7632 31.4226 16.7632Z" fill="#526C77"/>
<path d="M31.5032 16.5326C31.4713 16.6211 31.4439 16.699 31.4227 16.7631C31.4227 16.7631 32.9566 16.4105 37.9409 16.5784C37.9409 16.5738 34.7744 16.1159 31.5032 16.5326Z" fill="#253A45"/>
<path d="M36.5832 5.60127C35.3348 6.65289 33.4061 11.4134 32.2716 14.437C35.0356 14.2035 40.5606 14.1745 42.8341 14.1745V7.45878C39.8833 7.02531 39.0647 5.27922 39.0647 5.27922C39.0647 5.27922 40.3556 5.64554 41.4567 5.98132C39.8195 5.27922 38.0244 4.38481 36.5832 5.60127Z" fill="#253A45"/>
<path d="M42.8341 14.3149C40.8735 14.3149 36.3599 14.4676 36.3599 14.4676C36.3599 14.4676 41.1347 14.5485 42.8341 14.5485V14.3149Z" fill="#253A45"/>
<path d="M39.0648 5.2793C39.0648 5.2793 39.8833 7.02233 42.8342 7.44664V6.50033C42.3677 6.36133 41.9111 6.19102 41.4673 5.99055H41.4537C40.3557 5.64866 39.0648 5.2793 39.0648 5.2793Z" fill="#1A2B32"/>
</g>
<defs>
<radialGradient id="paint0_radial_1203_555" cx="0" cy="0" r="1" gradientUnits="userSpaceOnUse" gradientTransform="translate(42 40.5) rotate(90) scale(40.5 42)">
<stop offset="0.369792" stop-color="#FF0000" stop-opacity="0.72"/>
<stop offset="1" stop-color="#FF0000" stop-opacity="0"/>
</radialGradient>
<clipPath id="clip0_1203_555">
<rect width="50" height="61" fill="white" transform="translate(17.8334 5)"/>
</clipPath>
</defs>
</svg>
