<svg width="609" height="446" viewBox="0 0 609 446" fill="none" xmlns="http://www.w3.org/2000/svg">
<g clip-path="url(#clip0_886_7735)" filter="url(#filter0_d_886_7735)">
<rect x="25" y="15" width="270" height="244" fill="url(#paint0_radial_886_7735)"/>
<path d="M161.071 251.541C224.217 251.541 275.408 200.38 275.408 137.27C275.408 74.1606 224.217 23 161.071 23C97.9239 23 46.7334 74.1606 46.7334 137.27C46.7334 200.38 97.9239 251.541 161.071 251.541Z" fill="#F2F2F2"/>
<path d="M4 50.437C4 92.0131 30.0979 125.656 62.3499 125.656Z" fill="#0E0137"/>
<path d="M62.3496 125.656C62.3496 83.6127 91.4734 49.5918 127.465 49.5918Z" fill="#8000FF"/>
<path d="M25.1416 54.2061C25.1416 93.699 41.7838 125.656 62.3503 125.656Z" fill="#8000FF"/>
<path d="M62.3496 125.656C62.3496 71.934 96.0122 28.4629 137.613 28.4629Z" fill="#0E0137"/>
<path d="M50.0742 126.186C50.0742 126.186 58.3492 125.931 60.8431 124.157C63.3369 122.382 73.5721 120.262 74.1907 123.109C74.8094 125.955 86.6265 137.266 77.2841 137.341C67.9417 137.416 55.5765 135.887 53.0874 134.371C50.5983 132.856 50.0742 126.186 50.0742 126.186Z" fill="#2F3F56"/>
<path opacity="0.2" d="M77.4508 136.35C68.1084 136.425 55.7432 134.896 53.2541 133.38C51.3586 132.227 50.6032 128.086 50.3505 126.175C50.1754 126.183 50.0742 126.186 50.0742 126.186C50.0742 126.186 50.5983 132.856 53.0874 134.371C55.5765 135.887 67.9417 137.416 77.2841 137.341C79.9809 137.319 80.9124 136.36 80.8613 134.94C80.4866 135.798 79.4581 136.334 77.4508 136.35Z" fill="#161D27"/>
<path d="M110.612 264.384C166.051 264.384 210.993 258.274 210.993 250.736C210.993 243.198 166.051 237.088 110.612 237.088C55.1734 237.088 10.2314 243.198 10.2314 250.736C10.2314 258.274 55.1734 264.384 110.612 264.384Z" fill="#3F3D56"/>
<path opacity="0.1" d="M110.613 262.194C157.157 262.194 194.889 257.064 194.889 250.736C194.889 244.407 157.157 239.277 110.613 239.277C64.0679 239.277 26.3359 244.407 26.3359 250.736C26.3359 257.064 64.0679 262.194 110.613 262.194Z" fill="#161D27"/>
<path d="M453.088 398C536.987 398 605 388.753 605 377.345C605 365.938 536.987 356.691 453.088 356.691C369.188 356.691 301.175 365.938 301.175 377.345C301.175 388.753 369.188 398 453.088 398Z" fill="#3F3D56"/>
<path d="M170.734 381.706C221.132 381.706 261.989 376.151 261.989 369.298C261.989 362.446 221.132 356.891 170.734 356.891C120.335 356.891 79.4785 362.446 79.4785 369.298C79.4785 376.151 120.335 381.706 170.734 381.706Z" fill="#3F3D56"/>
<path d="M252.326 358.837C300.638 371.176 393.503 342.743 403.702 310.554" stroke="#0E0137" stroke-width="2" stroke-miterlimit="10"/>
<path d="M170.196 161.948C170.196 161.948 239.98 142.635 244.274 204.867C248.568 267.099 186.837 284.803 235.148 297.142" stroke="#0E0137" stroke-width="2" stroke-miterlimit="10"/>
<path d="M102.776 311.242C102.776 311.242 123.75 305.437 125.041 324.141C126.332 342.846 107.778 348.167 122.298 351.875" stroke="#0E0137" stroke-width="2" stroke-miterlimit="10"/>
<path d="M422.005 325.167L417.776 352.15C417.776 352.15 396.958 363.203 411.596 363.528C426.233 363.853 495.193 363.528 495.193 363.528C495.193 363.528 508.529 363.528 487.386 351.825L483.157 323.542L422.005 325.167Z" fill="#0E0137"/>
<path opacity="0.1" d="M408.651 363.235C411.975 360.279 417.776 357.199 417.776 357.199L422.004 330.216L483.157 330.274L487.385 356.874C492.316 359.603 495.37 361.695 497.157 363.3C499.873 362.68 502.84 360.379 487.385 351.825L483.157 323.542L422.004 325.167L417.776 352.15C417.776 352.15 400.283 361.439 408.651 363.235Z" fill="#161D27"/>
<path d="M580.325 137.104H324.187C318.837 137.104 314.5 141.438 314.5 146.785V319.225C314.5 324.572 318.837 328.906 324.187 328.906H580.325C585.675 328.906 590.011 324.572 590.011 319.225V146.785C590.011 141.438 585.675 137.104 580.325 137.104Z" fill="#0E0137"/>
<path d="M580.741 147.344H323.771V291.033H580.741V147.344Z" fill="#3F3D56"/>
<path d="M452.255 144.418C453.154 144.418 453.882 143.69 453.882 142.792C453.882 141.895 453.154 141.167 452.255 141.167C451.357 141.167 450.629 141.895 450.629 142.792C450.629 143.69 451.357 144.418 452.255 144.418Z" fill="#F2F2F2"/>
<path d="M590.011 302.411V319.225C590.012 320.496 589.761 321.755 589.274 322.93C588.788 324.104 588.074 325.172 587.175 326.071C586.275 326.97 585.207 327.683 584.032 328.169C582.856 328.656 581.597 328.906 580.325 328.906H324.187C322.915 328.906 321.655 328.656 320.48 328.169C319.304 327.683 318.236 326.97 317.337 326.071C316.437 325.172 315.724 324.104 315.237 322.93C314.75 321.755 314.5 320.496 314.5 319.225V302.411H590.011Z" fill="#0E0137"/>
<path d="M524.142 381.083V384.334H349.142V381.733L349.383 381.083L353.696 369.379H520.564L524.142 381.083Z" fill="#0E0137"/>
<path d="M591.488 377.9C591.169 379.262 589.965 380.699 587.246 382.058C577.488 386.934 557.646 380.758 557.646 380.758C557.646 380.758 542.357 378.157 542.357 371.33C542.787 371.036 543.234 370.77 543.698 370.534C547.8 368.364 561.403 363.012 585.523 370.76C587.3 371.318 588.887 372.357 590.108 373.763C591.086 374.907 591.852 376.357 591.488 377.9Z" fill="#0E0137"/>
<path opacity="0.1" d="M591.488 377.9C579.544 382.474 568.898 382.815 557.971 375.231C552.461 371.408 547.455 370.462 543.698 370.533C547.801 368.364 561.404 363.011 585.524 370.76C587.301 371.317 588.888 372.357 590.109 373.763C591.086 374.906 591.853 376.357 591.488 377.9Z" fill="#161D27"/>
<rect x="25" y="77" width="193" height="177" fill="url(#paint1_radial_886_7735)"/>
<rect x="111" y="248" width="127" height="116" fill="url(#paint2_radial_886_7735)"/>
<path d="M576.512 375.231C578.847 375.231 580.74 374.649 580.74 373.931C580.74 373.213 578.847 372.63 576.512 372.63C574.176 372.63 572.283 373.213 572.283 373.931C572.283 374.649 574.176 375.231 576.512 375.231Z" fill="#F2F2F2"/>
<path d="M452.256 321.916C455.669 321.916 458.436 319.151 458.436 315.74C458.436 312.328 455.669 309.563 452.256 309.563C448.842 309.563 446.075 312.328 446.075 315.74C446.075 319.151 448.842 321.916 452.256 321.916Z" fill="#F2F2F2"/>
<path opacity="0.1" d="M524.142 381.083V384.334H349.142V381.733L349.383 381.083H524.142Z" fill="#161D27"/>
<path d="M173.954 108.3H62.3008V238.129H173.954V108.3Z" fill="#0E0137"/>
<path d="M185.227 95.4248H51.0283V141.562H185.227V95.4248Z" fill="#3F3D56"/>
<path d="M185.227 150.146H51.0283V196.283H185.227V150.146Z" fill="#3F3D56"/>
<path d="M185.227 204.867H51.0283V251.005H185.227V204.867Z" fill="#3F3D56"/>
<path opacity="0.4" d="M158.387 103.472H149.798V112.056H158.387V103.472Z" fill="#8000FF"/>
<path opacity="0.8" d="M170.733 103.472H162.145V112.056H170.733V103.472Z" fill="#8000FF"/>
<path d="M183.08 103.472H174.491V112.056H183.08V103.472Z" fill="#8000FF"/>
<path opacity="0.4" d="M158.387 157.657H149.798V166.24H158.387V157.657Z" fill="#8000FF"/>
<path opacity="0.8" d="M170.733 157.657H162.145V166.24H170.733V157.657Z" fill="#8000FF"/>
<path d="M183.08 157.657H174.491V166.24H183.08V157.657Z" fill="#8000FF"/>
<path opacity="0.4" d="M158.387 211.841H149.798V220.425H158.387V211.841Z" fill="#8000FF"/>
<path opacity="0.8" d="M170.733 211.841H162.145V220.425H170.733V211.841Z" fill="#8000FF"/>
<path d="M183.08 211.841H174.491V220.425H183.08V211.841Z" fill="#8000FF"/>
<path d="M173.954 354.009C197.374 354.009 216.36 335.034 216.36 311.627C216.36 288.22 197.374 269.245 173.954 269.245C150.533 269.245 131.547 288.22 131.547 311.627C131.547 335.034 150.533 354.009 173.954 354.009Z" fill="#0E0137"/>
<path d="M167.513 344.888H154.63V367.957H167.513V344.888Z" fill="#0E0137"/>
<path d="M193.279 344.888H180.396V367.957H193.279V344.888Z" fill="#0E0137"/>
<path d="M165.366 372.249C171.295 372.249 176.102 370.447 176.102 368.225C176.102 366.003 171.295 364.202 165.366 364.202C159.437 364.202 154.63 366.003 154.63 368.225C154.63 370.447 159.437 372.249 165.366 372.249Z" fill="#0E0137"/>
<path d="M191.131 371.712C197.061 371.712 201.867 369.911 201.867 367.689C201.867 365.466 197.061 363.665 191.131 363.665C185.202 363.665 180.396 365.466 180.396 367.689C180.396 369.911 185.202 371.712 191.131 371.712Z" fill="#0E0137"/>
<path d="M175.028 315.382C183.032 315.382 189.521 308.897 189.521 300.897C189.521 292.897 183.032 286.412 175.028 286.412C167.023 286.412 160.534 292.897 160.534 300.897C160.534 308.897 167.023 315.382 175.028 315.382Z" fill="white"/>
<path d="M175.027 305.726C177.696 305.726 179.859 303.564 179.859 300.897C179.859 298.231 177.696 296.069 175.027 296.069C172.359 296.069 170.196 298.231 170.196 300.897C170.196 303.564 172.359 305.726 175.027 305.726Z" fill="#3F3D56"/>
<path d="M132.818 272.213C129.394 256.887 140.34 241.401 157.266 237.623C174.192 233.846 190.69 243.208 194.114 258.534C197.538 273.86 186.32 279.512 169.394 283.29C152.468 287.067 136.242 287.539 132.818 272.213Z" fill="#8000FF"/>
<path d="M213.727 303.174C224.493 298.569 232.048 292.097 230.601 288.72C229.155 285.342 219.255 286.337 208.489 290.942C197.723 295.547 190.169 302.018 191.615 305.396C193.062 308.774 202.962 307.779 213.727 303.174Z" fill="#0E0137"/>
<path d="M134.282 331.607C145.048 327.002 152.602 320.531 151.156 317.153C149.709 313.775 139.809 314.77 129.044 319.375C118.278 323.98 110.723 330.452 112.17 333.829C113.616 337.207 123.516 336.212 134.282 331.607Z" fill="#0E0137"/>
<path d="M198.646 323.966C198.646 328.114 187.959 336.305 176.101 336.305C164.242 336.305 153.019 328.65 153.019 324.502C153.019 320.354 164.242 321.284 176.101 321.284C187.959 321.284 198.646 319.818 198.646 323.966Z" fill="white"/>
</g>
<defs>
<filter id="filter0_d_886_7735" x="0" y="0" width="609" height="454" filterUnits="userSpaceOnUse" color-interpolation-filters="sRGB">
<feFlood flood-opacity="0" result="BackgroundImageFix"/>
<feColorMatrix in="SourceAlpha" type="matrix" values="0 0 0 0 0 0 0 0 0 0 0 0 0 0 0 0 0 0 127 0" result="hardAlpha"/>
<feOffset dy="4"/>
<feGaussianBlur stdDeviation="2"/>
<feComposite in2="hardAlpha" operator="out"/>
<feColorMatrix type="matrix" values="0 0 0 0 0 0 0 0 0 0 0 0 0 0 0 0 0 0 0.25 0"/>
<feBlend mode="normal" in2="BackgroundImageFix" result="effect1_dropShadow_886_7735"/>
<feBlend mode="normal" in="SourceGraphic" in2="effect1_dropShadow_886_7735" result="shape"/>
</filter>
<radialGradient id="paint0_radial_886_7735" cx="0" cy="0" r="1" gradientUnits="userSpaceOnUse" gradientTransform="translate(160 137) rotate(90) scale(122 135)">
<stop stop-color="#8001FF"/>
<stop offset="1" stop-color="#8001FF" stop-opacity="0"/>
</radialGradient>
<radialGradient id="paint1_radial_886_7735" cx="0" cy="0" r="1" gradientUnits="userSpaceOnUse" gradientTransform="translate(121.5 165.5) rotate(90) scale(88.5 96.5)">
<stop stop-color="#8001FF"/>
<stop offset="1" stop-color="#8001FF" stop-opacity="0"/>
</radialGradient>
<radialGradient id="paint2_radial_886_7735" cx="0" cy="0" r="1" gradientUnits="userSpaceOnUse" gradientTransform="translate(174.5 306) rotate(90) scale(58 63.5)">
<stop stop-color="#F920C3"/>
<stop offset="1" stop-color="#F920C3" stop-opacity="0"/>
</radialGradient>
<clipPath id="clip0_886_7735">
<rect width="601" height="446" fill="white" transform="translate(4)"/>
</clipPath>
</defs>
</svg>
