<svg width="923" height="723" viewBox="0 0 923 723" fill="none" xmlns="http://www.w3.org/2000/svg">
<g clip-path="url(#clip0_727_31535)">
<rect x="540" y="291" width="383" height="351" fill="url(#paint0_radial_727_31535)"/>
<rect y="-5" width="378" height="347" fill="url(#paint1_radial_727_31535)"/>
<rect x="66" y="338" width="419" height="385" fill="url(#paint2_radial_727_31535)"/>
<g filter="url(#filter0_f_727_31535)">
<path d="M456.389 541.966C563.366 541.966 650.089 454.952 650.089 347.616C650.089 240.279 563.366 153.266 456.389 153.266C349.411 153.266 262.689 240.279 262.689 347.616C262.689 454.952 349.411 541.966 456.389 541.966Z" fill="#F1B1D5" fill-opacity="0.4"/>
</g>
<path d="M459.94 521.972C556.301 521.972 634.417 443.856 634.417 347.495C634.417 251.134 556.301 173.019 459.94 173.019C363.579 173.019 285.463 251.134 285.463 347.495C285.463 443.856 363.579 521.972 459.94 521.972Z" fill="#F1B1D5"/>
<path d="M671.009 285.625L642.722 313.912L610.583 304.583C609.5 304.282 609.139 302.898 609.921 302.055L635.741 276.236C636.102 275.875 636.704 275.694 637.245 275.875L671.009 285.625Z" fill="#F48914" stroke="#17005E" stroke-width="1.5" stroke-miterlimit="10" stroke-linecap="round" stroke-linejoin="round"/>
<path d="M613.472 302.115L636.102 279.486L643.805 310.12L613.472 302.115Z" fill="#17005E" stroke="#17005E" stroke-width="1.5" stroke-miterlimit="10" stroke-linecap="round" stroke-linejoin="round"/>
<path d="M615.037 300.551C617.505 298.083 621.176 297.18 624.486 298.143L624.968 298.264C631.768 300.31 637.907 303.981 642.903 308.977L645.25 311.324L613.412 302.115L615.037 300.551Z" fill="#DEFAE5" stroke="#17005E" stroke-width="1.5" stroke-miterlimit="10" stroke-linecap="round" stroke-linejoin="round"/>
<path d="M633.875 281.652C631.407 284.12 630.504 287.791 631.467 291.101L631.588 291.583C633.634 298.384 637.305 304.523 642.301 309.518L644.648 311.865L635.44 280.027L633.875 281.652Z" fill="#DEFAE5" stroke="#17005E" stroke-width="1.5" stroke-miterlimit="10" stroke-linecap="round" stroke-linejoin="round"/>
<path d="M671.792 284.842L642.722 313.912L632.972 280.208C632.792 279.666 632.972 279.125 633.333 278.703L659.995 252.041C660.778 251.259 662.162 251.56 662.523 252.703L671.792 284.842Z" fill="#F48914" stroke="#17005E" stroke-width="1.5" stroke-miterlimit="10" stroke-linecap="round" stroke-linejoin="round"/>
<path d="M665.111 284.782L646.875 303.018C646.333 303.56 645.37 303.319 645.13 302.597L638.93 281.231C638.75 280.629 638.93 279.907 639.412 279.486L657.648 261.25C658.19 260.708 659.153 260.949 659.393 261.671L665.593 283.037C665.713 283.639 665.593 284.301 665.111 284.782Z" fill="#F6A143" stroke="#17005E" stroke-width="1.5" stroke-miterlimit="10" stroke-linecap="round" stroke-linejoin="round"/>
<path d="M671.909 284.151L641.098 314.962L643.183 317.048L673.994 286.236L671.909 284.151Z" fill="#F48914" stroke="#17005E" stroke-width="1.5" stroke-miterlimit="10" stroke-linecap="round" stroke-linejoin="round"/>
<path d="M671.91 284.141L644.333 311.718L646.419 313.803L673.996 286.226L671.91 284.141Z" fill="#F48914" stroke="#17005E" stroke-width="1.5" stroke-miterlimit="10" stroke-linecap="round" stroke-linejoin="round"/>
<path d="M255.997 446.652L215.493 419.689L213.326 387.49C213.266 386.407 214.59 385.985 215.734 386.768L252.808 411.383C253.349 411.745 253.71 412.286 253.771 412.828L255.997 446.652Z" fill="#17005E" stroke="#17005E" stroke-width="1.5" stroke-miterlimit="10" stroke-linecap="round" stroke-linejoin="round"/>
<path d="M216.997 390.258L249.437 411.805L219.886 420.652L216.997 390.258Z" fill="#DEFAE5" stroke="#17005E" stroke-width="1.5" stroke-miterlimit="10" stroke-linecap="round" stroke-linejoin="round"/>
<path d="M219.224 391.763C222.775 394.11 225.122 397.721 225.303 401.092V401.573C225.724 408.374 224.099 414.633 220.729 419.749L219.104 422.156L216.937 390.258L219.224 391.763Z" fill="#DEFAE5" stroke="#17005E" stroke-width="1.5" stroke-miterlimit="10" stroke-linecap="round" stroke-linejoin="round"/>
<path d="M256.419 403.981C252.868 400.911 247.993 399.948 243.78 401.393L243.178 401.633C234.692 404.583 227.289 409.698 221.511 416.379L218.803 419.508L258.706 405.907L256.419 403.981Z" fill="#DEFAE5" stroke="#17005E" stroke-width="1.5" stroke-miterlimit="10" stroke-linecap="round" stroke-linejoin="round"/>
<path d="M257.201 447.374L215.493 419.689L258.706 403.74C259.609 403.439 260.572 403.559 261.354 404.041L297.826 428.295C299.451 429.379 299.15 431.906 297.345 432.568L257.201 447.374Z" fill="#45337E" stroke="#17005E" stroke-width="1.5" stroke-miterlimit="10" stroke-linecap="round" stroke-linejoin="round"/>
<path d="M258.766 441.597L229.757 422.337L260.511 410.541L289.521 429.86L258.766 441.597Z" fill="#17005E" stroke="#17005E" stroke-width="1.5" stroke-miterlimit="10" stroke-linecap="round" stroke-linejoin="round"/>
<path d="M258.098 447.409L213.885 418.028L211.887 421.036L256.1 450.417L258.098 447.409Z" fill="#45337E" stroke="#17005E" stroke-width="1.5" stroke-miterlimit="10" stroke-linecap="round" stroke-linejoin="round"/>
<path d="M258.073 447.419L218.522 421.136L216.523 424.143L256.074 450.427L258.073 447.419Z" fill="#17005E" stroke="#17005E" stroke-width="1.5" stroke-miterlimit="10" stroke-linecap="round" stroke-linejoin="round"/>
<path d="M595.778 528.352H554.01V547.671H595.778V528.352Z" fill="#E556A8" stroke="#17005E" stroke-width="1.5" stroke-miterlimit="10" stroke-linecap="round" stroke-linejoin="round"/>
<path d="M456.509 571.866L451.815 588.537H410.829L414.681 571.866H456.509Z" fill="#E556A8" stroke="#17005E" stroke-width="1.5" stroke-miterlimit="10" stroke-linecap="round" stroke-linejoin="round"/>
<path d="M407.218 612.491H488.709C489.672 612.491 490.454 611.648 490.334 610.685C489.07 600.333 481.065 592.148 470.773 590.643L456.269 588.537L450.972 583C449.769 581.736 448.084 581.014 446.338 581.014H437.009C434.422 581.014 432.074 582.578 431.051 584.926L430.028 587.333L418.533 587.213L412.875 583.842C411.31 582.94 409.324 583.722 408.843 585.467L403.005 606.954C402.283 609.782 404.389 612.491 407.218 612.491Z" fill="white" stroke="#17005E" stroke-width="1.5" stroke-miterlimit="10" stroke-linecap="round" stroke-linejoin="round"/>
<path d="M582.297 402.143L507.968 342.801H413.297L414.741 372.231C415.343 384.991 417.509 397.63 421.181 409.847L438.695 468.347L409.866 571.926H456.51L486.963 476.051C488.588 470.995 488.889 465.579 487.806 460.403L474.986 397.028L483.593 390.528L548.533 440.241V528.472H595.718V430.13C595.778 419.236 590.783 408.884 582.297 402.143Z" fill="#F48914" stroke="#17005E" stroke-width="1.5" stroke-miterlimit="10" stroke-linecap="round" stroke-linejoin="round"/>
<path d="M413.297 342.801L413.959 356.282L482.991 342.801H413.297Z" fill="#17005E" stroke="#17005E" stroke-width="1.5" stroke-miterlimit="10" stroke-linecap="round" stroke-linejoin="round"/>
<path d="M504.477 373.375L483.653 390.468L502.19 404.611L504.477 373.375Z" fill="#17005E" stroke="#17005E" stroke-width="1.5" stroke-miterlimit="10" stroke-linecap="round" stroke-linejoin="round"/>
<path d="M445.676 480.986L438.634 468.287L424.792 518.241L445.676 480.986Z" fill="#17005E" stroke="#17005E" stroke-width="1.5" stroke-miterlimit="10" stroke-linecap="round" stroke-linejoin="round"/>
<path d="M559.426 435.305L548.593 440.12V482.25L559.426 435.305Z" fill="#17005E" stroke="#17005E" stroke-width="1.5" stroke-miterlimit="10" stroke-linecap="round" stroke-linejoin="round"/>
<path d="M456.51 571.866H414.681L413.116 578.727L456.51 571.866Z" fill="#17005E" stroke="#17005E" stroke-width="1.5" stroke-miterlimit="10" stroke-linecap="round" stroke-linejoin="round"/>
<path d="M595.778 528.352L554.01 536.657V528.352H595.778Z" fill="#17005E" stroke="#17005E" stroke-width="1.5" stroke-miterlimit="10" stroke-linecap="round" stroke-linejoin="round"/>
<path d="M488.709 612.491C489.672 612.491 490.454 611.648 490.334 610.685C489.852 606.532 488.227 602.741 485.82 599.551H480.283L473.903 605.931H414.32L411.25 599.732L405.292 598.769L403.065 607.014C402.343 609.782 404.389 612.491 407.278 612.491H488.709V612.491Z" fill="#17005E" stroke="#17005E" stroke-width="1.5" stroke-miterlimit="10" stroke-linecap="round" stroke-linejoin="round"/>
<path d="M550.759 571.505H632.25C633.213 571.505 633.996 570.662 633.875 569.699C632.611 559.347 624.607 551.162 614.315 549.657L599.81 547.551L594.514 542.014C593.31 540.75 591.625 540.028 589.88 540.028H580.611C578.023 540.028 575.676 541.593 574.653 543.94L573.63 546.347L562.134 546.227L556.477 542.857C554.912 541.954 552.926 542.736 552.445 544.482L546.607 565.968C545.824 568.796 547.931 571.505 550.759 571.505Z" fill="white" stroke="#17005E" stroke-width="1.5" stroke-miterlimit="10" stroke-linecap="round" stroke-linejoin="round"/>
<path d="M632.25 571.504C633.213 571.504 633.996 570.662 633.875 569.699C633.394 565.546 631.769 561.754 629.361 558.565H623.824L617.445 564.944H557.861L554.792 558.745L548.834 557.782L546.607 566.028C545.884 568.796 547.931 571.504 550.82 571.504H632.25V571.504Z" fill="#17005E" stroke="#17005E" stroke-width="1.5" stroke-miterlimit="10" stroke-linecap="round" stroke-linejoin="round"/>
<path d="M482.389 449.629C472.398 458.537 474.084 474.666 485.639 481.347C486.121 481.648 486.542 480.866 486.06 480.625C474.926 474.185 473.422 458.778 482.991 450.231C483.412 449.87 482.81 449.268 482.389 449.629Z" fill="#17005E"/>
<path d="M580.009 402.023C579.287 408.764 579.829 416.227 582.778 422.366C584.945 426.879 588.857 431.092 594.273 430.731C594.815 430.671 594.815 429.828 594.273 429.889C588.556 430.25 584.704 425.134 582.838 420.379C580.611 414.602 580.19 408.102 580.852 402.023C580.912 401.481 580.07 401.481 580.009 402.023Z" fill="#17005E"/>
<path d="M422.023 349C422.023 349 422.144 349.722 422.445 351.046" stroke="#17005E" stroke-linecap="round" stroke-linejoin="round"/>
<path d="M423.287 355.199C425.153 364.468 429.185 383.908 435.384 411.713C445.255 455.829 445.616 480.986 445.616 480.986L425.273 567.773" stroke="#17005E" stroke-linecap="round" stroke-linejoin="round" stroke-dasharray="7 7"/>
<path d="M424.852 569.819L424.37 571.866" stroke="#17005E" stroke-linecap="round" stroke-linejoin="round"/>
<path d="M495.148 384.991L559.426 435.306L561.352 527.75" stroke="#17005E" stroke-miterlimit="10" stroke-linecap="round" stroke-linejoin="round" stroke-dasharray="7 7"/>
<path d="M435.685 349C436.408 356.343 433.338 363.625 427.44 368.079C427.019 368.38 427.44 369.162 427.861 368.801C433.94 364.167 437.25 356.644 436.528 349C436.468 348.458 435.625 348.458 435.685 349Z" fill="#17005E"/>
<path d="M467.764 345.75C472.037 352.851 475.347 360.555 477.574 368.5C479.741 376.143 480.523 384.148 483.653 391.551C483.894 392.032 484.616 391.611 484.375 391.129C481.065 383.365 480.343 374.879 477.935 366.875C475.709 359.291 472.459 352.069 468.426 345.328C468.185 344.847 467.463 345.268 467.764 345.75Z" fill="#17005E"/>
<path d="M475.167 344.667C478.537 350.143 485.459 361.579 477.755 366.454C477.273 366.755 477.695 367.477 478.176 367.176C486.421 361.94 479.56 350.083 475.889 344.245C475.588 343.764 474.866 344.185 475.167 344.667Z" fill="#17005E"/>
<path d="M591.144 370.306H326.509C323.5 370.306 321.093 367.898 321.093 364.889V114.157C321.093 111.148 323.5 108.741 326.509 108.741H591.144C594.153 108.741 596.56 111.148 596.56 114.157V364.889C596.56 367.898 594.093 370.306 591.144 370.306Z" stroke="#17005E" stroke-width="3" stroke-miterlimit="10" stroke-linecap="round" stroke-linejoin="round"/>
<path d="M321.093 135.824H596.56" stroke="#17005E" stroke-width="1.5" stroke-miterlimit="10" stroke-linecap="round" stroke-linejoin="round"/>
<path d="M571.403 128.301H560.871C560.209 128.301 559.727 127.759 559.727 127.157V116.625C559.727 115.963 560.269 115.481 560.871 115.481H571.403C572.065 115.481 572.546 116.023 572.546 116.625V127.157C572.607 127.759 572.065 128.301 571.403 128.301Z" fill="#F5A3D2" stroke="#17005E" stroke-width="1.5" stroke-miterlimit="10" stroke-linecap="round" stroke-linejoin="round"/>
<path d="M567.31 120.717H562.556V125.472H567.31V120.717Z" fill="#F5A3D2" stroke="#17005E" stroke-width="1.5" stroke-miterlimit="10" stroke-linecap="round" stroke-linejoin="round"/>
<path d="M569.778 118.31V123.005H567.31V120.717H565.023V118.31H569.778Z" fill="#F5A3D2" stroke="#17005E" stroke-width="1.5" stroke-miterlimit="10" stroke-linecap="round" stroke-linejoin="round"/>
<path d="M554.431 128.301H543.898C543.236 128.301 542.755 127.759 542.755 127.157V116.625C542.755 115.963 543.297 115.481 543.898 115.481H554.431C555.093 115.481 555.574 116.023 555.574 116.625V127.157C555.635 127.759 555.093 128.301 554.431 128.301Z" fill="#F5A3D2" stroke="#17005E" stroke-width="1.5" stroke-miterlimit="10" stroke-linecap="round" stroke-linejoin="round"/>
<path d="M545.102 124.81H553.287" stroke="#17005E" stroke-width="1.5" stroke-miterlimit="10" stroke-linecap="round" stroke-linejoin="round"/>
<path d="M588.375 128.301H577.843C577.181 128.301 576.699 127.759 576.699 127.157V116.625C576.699 115.963 577.241 115.481 577.843 115.481H588.375C589.037 115.481 589.519 116.023 589.519 116.625V127.157C589.579 127.759 589.037 128.301 588.375 128.301Z" fill="#F5A3D2" stroke="#17005E" stroke-width="1.5" stroke-miterlimit="10" stroke-linecap="round" stroke-linejoin="round"/>
<path d="M578.866 117.588L587.412 126.194" stroke="#17005E" stroke-width="1.5" stroke-miterlimit="10" stroke-linecap="round" stroke-linejoin="round"/>
<path d="M587.412 117.588L578.866 126.194" stroke="#17005E" stroke-width="1.5" stroke-miterlimit="10" stroke-linecap="round" stroke-linejoin="round"/>
<path d="M335.838 394.68H418.593C420.218 394.68 421.542 393.356 421.542 391.731V383.125C421.542 381.5 420.218 380.176 418.593 380.176H335.838C334.213 380.176 332.889 381.5 332.889 383.125V391.731C332.889 393.356 334.213 394.68 335.838 394.68Z" fill="#82EC99" stroke="#17005E" stroke-width="1.5" stroke-miterlimit="10" stroke-linecap="round" stroke-linejoin="round"/>
<path d="M398.07 392.574H421.542V382.222H398.07C396.746 382.222 395.602 383.306 395.602 384.69V390.106C395.662 391.491 396.746 392.574 398.07 392.574Z" fill="#DEFAE5" stroke="#17005E" stroke-width="1.5" stroke-miterlimit="10" stroke-linecap="round" stroke-linejoin="round"/>
<path d="M337.778 392.573H341.81V382.221H337.778V392.573Z" fill="#F48914" stroke="#17005E" stroke-width="1.5" stroke-miterlimit="10" stroke-linecap="round" stroke-linejoin="round"/>
<path d="M387.019 392.573H391.052V382.221H387.019V392.573Z" fill="#17005E" stroke="#17005E" stroke-width="1.5" stroke-miterlimit="10" stroke-linecap="round" stroke-linejoin="round"/>
<path d="M421.542 384.269H395.662" stroke="#17005E" stroke-width="1.5" stroke-miterlimit="10" stroke-linecap="round" stroke-linejoin="round"/>
<path d="M421.542 386.315H395.662" stroke="#17005E" stroke-width="1.5" stroke-miterlimit="10" stroke-linecap="round" stroke-linejoin="round"/>
<path d="M421.542 388.301H395.662" stroke="#17005E" stroke-width="1.5" stroke-miterlimit="10" stroke-linecap="round" stroke-linejoin="round"/>
<path d="M421.542 390.287H395.662" stroke="#17005E" stroke-width="1.5" stroke-miterlimit="10" stroke-linecap="round" stroke-linejoin="round"/>
<path d="M403.968 384.569V389.866L401.259 387.819L398.491 389.866V384.389H403.968" fill="#E556A8"/>
<path d="M403.968 384.569V389.866L401.259 387.819L398.491 389.866V384.389H403.968" stroke="#17005E" stroke-width="1.5" stroke-miterlimit="10" stroke-linecap="round" stroke-linejoin="round"/>
<path d="M339.269 380.116H422.023C423.648 380.116 424.972 378.791 424.972 377.166V362.722C424.972 361.097 423.648 359.773 422.023 359.773H339.269C337.644 359.773 336.32 361.097 336.32 362.722V377.166C336.32 378.791 337.644 380.116 339.269 380.116Z" fill="#17005E" stroke="#17005E" stroke-width="1.5" stroke-miterlimit="10" stroke-linecap="round" stroke-linejoin="round"/>
<path d="M412.514 377.167H425.032V362.722H412.514C411.19 362.722 410.046 363.805 410.046 365.19V374.759C410.046 376.083 411.13 377.167 412.514 377.167Z" fill="#DEFAE5" stroke="#17005E" stroke-width="1.5" stroke-miterlimit="10" stroke-linecap="round" stroke-linejoin="round"/>
<path d="M341.197 377.151H345.23V362.706H341.197V377.151Z" fill="white" stroke="#17005E" stroke-width="1.5" stroke-miterlimit="10" stroke-linecap="round" stroke-linejoin="round"/>
<path d="M349.602 373.119H405.092V366.799H349.602V373.119Z" fill="#EF76BB" stroke="#17005E" stroke-width="1.5" stroke-miterlimit="10" stroke-linecap="round" stroke-linejoin="round"/>
<path d="M425.032 365.611H410.046" stroke="#17005E" stroke-width="1.5" stroke-miterlimit="10" stroke-linecap="round" stroke-linejoin="round"/>
<path d="M425.032 368.379H410.046" stroke="#17005E" stroke-width="1.5" stroke-miterlimit="10" stroke-linecap="round" stroke-linejoin="round"/>
<path d="M425.032 371.208H410.046" stroke="#17005E" stroke-width="1.5" stroke-miterlimit="10" stroke-linecap="round" stroke-linejoin="round"/>
<path d="M425.032 373.977H410.046" stroke="#17005E" stroke-width="1.5" stroke-miterlimit="10" stroke-linecap="round" stroke-linejoin="round"/>
<path d="M419.134 365.37V371.268L416.366 369.041L413.597 371.268V365.189H419.134" fill="#F48914"/>
<path d="M419.134 365.37V371.268L416.366 369.041L413.597 371.268V365.189H419.134" stroke="#17005E" stroke-width="1.5" stroke-miterlimit="10" stroke-linecap="round" stroke-linejoin="round"/>
<path d="M333.912 359.773H416.667C418.292 359.773 419.616 358.449 419.616 356.824V348.518C419.616 346.893 418.292 345.569 416.667 345.569H333.912C332.287 345.569 330.963 346.893 330.963 348.518V356.764C330.963 358.449 332.287 359.773 333.912 359.773Z" fill="#F48914" stroke="#17005E" stroke-width="1.5" stroke-miterlimit="10" stroke-linecap="round" stroke-linejoin="round"/>
<path d="M396.144 357.727H419.616V347.616H396.144C394.82 347.616 393.676 348.699 393.676 350.083V355.259C393.676 356.583 394.82 357.727 396.144 357.727Z" fill="#DEFAE5" stroke="#17005E" stroke-width="1.5" stroke-miterlimit="10" stroke-linecap="round" stroke-linejoin="round"/>
<path d="M389.102 350.083H344.204V355.259H389.102V350.083Z" fill="#8636CC" stroke="#17005E" stroke-width="1.5" stroke-miterlimit="10" stroke-linecap="round" stroke-linejoin="round"/>
<path d="M339.57 350.986H336.139V354.356H339.57V350.986Z" fill="#E556A8" stroke="#17005E" stroke-width="1.5" stroke-miterlimit="10" stroke-linecap="round" stroke-linejoin="round"/>
<path d="M419.616 349.602H393.676" stroke="#17005E" stroke-width="1.5" stroke-miterlimit="10" stroke-linecap="round" stroke-linejoin="round"/>
<path d="M419.616 351.588H393.676" stroke="#17005E" stroke-width="1.5" stroke-miterlimit="10" stroke-linecap="round" stroke-linejoin="round"/>
<path d="M419.616 353.514H393.676" stroke="#17005E" stroke-width="1.5" stroke-miterlimit="10" stroke-linecap="round" stroke-linejoin="round"/>
<path d="M419.616 355.5H393.676" stroke="#17005E" stroke-width="1.5" stroke-miterlimit="10" stroke-linecap="round" stroke-linejoin="round"/>
<path d="M408.542 355.62V359.713L411.31 358.148L414.019 359.713V355.439H408.542" fill="#E556A8"/>
<path d="M408.542 355.62V359.713L411.31 358.148L414.019 359.713V355.439H408.542" stroke="#17005E" stroke-width="1.5" stroke-miterlimit="10" stroke-linecap="round" stroke-linejoin="round"/>
<path d="M388.199 378.311L395.963 388.482C397.107 389.986 397.227 392.093 396.204 393.718C394.519 396.426 390.727 396.787 388.56 394.561L382.241 388L388.199 378.311Z" fill="#E556A8" stroke="#17005E" stroke-width="1.5" stroke-miterlimit="10" stroke-linecap="round" stroke-linejoin="round"/>
<path d="M392.232 383.547L388.199 378.311L382.181 388L387.357 393.357L392.232 383.547Z" fill="#17005E" stroke="#17005E" stroke-width="1.5" stroke-miterlimit="10" stroke-linecap="round" stroke-linejoin="round"/>
<path d="M384.107 361.579L389.523 278.764L374.838 241.449L360.213 252.523C351.185 259.384 346.852 270.759 349.139 281.894L365.57 362.783L364.065 363.505C361.176 364.949 359.25 367.898 359.07 371.088L358.167 389.023L375.56 394.259L367.676 404.07L368.579 404.671C371.588 406.597 375.5 406.477 378.329 404.25L383.144 400.519C385.371 398.713 386.815 396.185 387.297 393.357L389.042 382.343C389.343 380.597 389.222 378.852 388.681 377.167L384.107 361.579Z" fill="#E556A8" stroke="#17005E" stroke-width="1.5" stroke-miterlimit="10" stroke-linecap="round" stroke-linejoin="round"/>
<path d="M389.523 278.824L360.213 252.523L365.63 248.731L389.523 278.824Z" fill="#17005E" stroke="#17005E" stroke-width="1.5" stroke-miterlimit="10" stroke-linecap="round" stroke-linejoin="round"/>
<path d="M378.088 393.176L368.82 404.07C367.736 405.334 366.111 405.875 364.486 405.514C361.658 404.852 360.273 401.662 361.658 399.135L366.834 389.926" fill="#E556A8"/>
<path d="M378.088 393.176L368.82 404.07C367.736 405.334 366.111 405.875 364.486 405.514C361.658 404.852 360.273 401.662 361.658 399.135L366.834 389.926" stroke="#17005E" stroke-width="1.5" stroke-miterlimit="10" stroke-linecap="round" stroke-linejoin="round"/>
<path d="M358.287 387.579L355.158 395.222L353.653 394.139C352.269 393.116 350.343 393.296 349.139 394.5C347.695 395.944 347.815 398.352 349.38 399.676L351.306 401.301C352.931 402.625 354.977 403.347 357.084 403.167C359.792 402.986 362.259 401.421 363.523 399.014L369.06 388.722" fill="#E556A8"/>
<path d="M358.287 387.579L355.158 395.222L353.653 394.139C352.269 393.116 350.343 393.296 349.139 394.5C347.695 395.944 347.815 398.352 349.38 399.676L351.306 401.301C352.931 402.625 354.977 403.347 357.084 403.167C359.792 402.986 362.259 401.421 363.523 399.014L369.06 388.722" stroke="#17005E" stroke-width="1.5" stroke-miterlimit="10" stroke-linecap="round" stroke-linejoin="round"/>
<path d="M360.273 336.843L365.57 362.783L369.843 360.074L360.273 336.843Z" fill="#17005E" stroke="#17005E" stroke-width="1.5" stroke-miterlimit="10" stroke-linecap="round" stroke-linejoin="round"/>
<path d="M633.033 214.366V221.949H650.908C653.014 221.949 654.699 220.264 654.699 218.157C654.699 216.051 653.014 214.366 650.908 214.366H633.033Z" fill="#E556A8" stroke="#17005E" stroke-width="1.5" stroke-miterlimit="10" stroke-linecap="round" stroke-linejoin="round"/>
<path d="M627.315 214.366V221.949H645.25C647.357 221.949 649.042 220.264 649.042 218.157C649.042 216.051 647.357 214.366 645.25 214.366H627.315Z" fill="#E556A8" stroke="#17005E" stroke-width="1.5" stroke-miterlimit="10" stroke-linecap="round" stroke-linejoin="round"/>
<path d="M591.505 217.495L598.065 204.857C598.908 203.232 600.533 202.269 602.398 202.269H614.255C616.121 202.269 617.625 203.773 617.625 205.639C617.625 207.505 616.121 209.009 614.255 209.009H608.357C608.357 213.644 604.625 217.375 600.051 217.435L591.505 217.495Z" fill="#E556A8" stroke="#17005E" stroke-width="1.5" stroke-miterlimit="10" stroke-linecap="round" stroke-linejoin="round"/>
<path d="M638.449 214.366H596.32C593.19 214.366 590.121 215.269 587.533 216.954L530.597 253.847L498.097 275.333L521.75 293.569C528.371 298.685 537.88 297.903 543.597 291.824L602.579 228.81C608.959 226.764 618.829 223.574 623.704 221.949H638.389C640.496 221.949 642.181 220.264 642.181 218.157C642.181 216.051 640.496 214.366 638.449 214.366Z" fill="#E556A8" stroke="#17005E" stroke-width="1.5" stroke-miterlimit="10" stroke-linecap="round" stroke-linejoin="round"/>
<path d="M530.597 253.847L500.565 276.657L507.246 282.014L530.597 253.847Z" fill="#17005E" stroke="#17005E" stroke-width="1.5" stroke-miterlimit="10" stroke-linecap="round" stroke-linejoin="round"/>
<path d="M602.579 228.75L585.306 236.032L581.394 251.38L602.579 228.75Z" fill="#17005E" stroke="#17005E" stroke-width="1.5" stroke-miterlimit="10" stroke-linecap="round" stroke-linejoin="round"/>
<path d="M530.597 253.847L498.097 218.519C491.718 211.597 482.69 207.625 473.301 207.625H424.31C417.148 207.625 410.227 209.912 404.449 214.125L366.593 241.75C364.366 243.375 363.945 246.565 365.63 248.731L389.523 278.764L413.236 261.611V342.741H507.908L498.579 279.125L530.597 253.847Z" fill="#8636CC" stroke="#17005E" stroke-width="1.5" stroke-miterlimit="10" stroke-linecap="round" stroke-linejoin="round"/>
<path d="M469.63 207.685H440.621C440.741 215.569 447.181 221.949 455.125 221.949C463.07 221.949 469.51 215.569 469.63 207.685Z" fill="#17005E" stroke="#17005E" stroke-width="1.5" stroke-miterlimit="10" stroke-linecap="round" stroke-linejoin="round"/>
<path d="M498.579 279.125L492.44 239.523L504.056 265.824L498.579 279.125Z" fill="#17005E" stroke="#17005E" stroke-width="1.5" stroke-miterlimit="10" stroke-linecap="round" stroke-linejoin="round"/>
<path d="M413.297 261.671L420.098 235.671L389.523 278.824L413.297 261.671Z" fill="#17005E" stroke="#17005E" stroke-width="1.5" stroke-miterlimit="10" stroke-linecap="round" stroke-linejoin="round"/>
<path d="M436.588 232.241C438.333 232.241 440.079 232.241 441.824 232.241C442.366 232.241 442.366 231.398 441.824 231.398C440.079 231.398 438.333 231.398 436.588 231.398C435.986 231.398 435.986 232.241 436.588 232.241Z" fill="#17005E"/>
<path d="M451.815 238.741C451.815 240.486 451.815 242.231 451.815 243.977C451.815 244.519 452.658 244.519 452.658 243.977C452.658 242.231 452.658 240.486 452.658 238.741C452.658 238.199 451.815 238.199 451.815 238.741Z" fill="#17005E"/>
<path d="M440.199 252.102C440.199 253.245 440.199 254.449 440.199 255.592C440.199 256.134 441.042 256.134 441.042 255.592C441.042 254.449 441.042 253.245 441.042 252.102C441.042 251.56 440.199 251.56 440.199 252.102Z" fill="#17005E"/>
<path d="M431.593 259.926C430.208 261.31 428.884 262.634 427.5 264.018C427.139 264.379 427.741 264.981 428.102 264.62C429.486 263.236 430.81 261.912 432.195 260.528C432.616 260.167 432.014 259.565 431.593 259.926Z" fill="#17005E"/>
<path d="M439.176 274.43C440.922 276.176 442.667 277.921 444.412 279.667C444.773 280.028 445.375 279.426 445.014 279.065C443.269 277.319 441.523 275.574 439.778 273.829C439.357 273.468 438.755 274.069 439.176 274.43Z" fill="#17005E"/>
<path d="M454.704 270.097C454.704 271.662 454.704 273.167 454.704 274.731C454.704 275.273 455.546 275.273 455.546 274.731C455.546 273.167 455.546 271.662 455.546 270.097C455.546 269.556 454.704 269.556 454.704 270.097Z" fill="#17005E"/>
<path d="M468.787 264.019C470.352 265.583 471.857 267.088 473.421 268.653C473.783 269.014 474.384 268.412 474.023 268.051C472.459 266.486 470.954 264.981 469.389 263.417C468.968 263.056 468.366 263.597 468.787 264.019Z" fill="#17005E"/>
<path d="M478.056 255.291C478.658 255.893 479.199 256.435 479.801 257.037C480.162 257.398 480.764 256.796 480.403 256.435C479.801 255.833 479.259 255.291 478.658 254.689C478.236 254.328 477.634 254.93 478.056 255.291Z" fill="#17005E"/>
<path d="M479.801 241.389C480.945 240.245 482.148 239.041 483.292 237.898C483.653 237.537 483.051 236.935 482.69 237.296C481.546 238.439 480.343 239.643 479.199 240.787C478.838 241.148 479.44 241.75 479.801 241.389Z" fill="#17005E"/>
<path d="M481.546 226.282C482.148 225.68 482.69 225.139 483.292 224.537C483.653 224.176 483.051 223.574 482.69 223.935C482.088 224.537 481.546 225.079 480.945 225.68C480.583 226.102 481.185 226.643 481.546 226.282Z" fill="#17005E"/>
<path d="M489.07 217.555C490.033 218.518 490.996 219.481 491.958 220.444C492.32 220.805 492.921 220.204 492.56 219.843C491.597 218.88 490.634 217.917 489.671 216.954C489.31 216.593 488.708 217.194 489.07 217.555Z" fill="#17005E"/>
<path d="M496.472 229.472C496.472 230.616 496.472 231.819 496.472 232.963C496.472 233.505 497.315 233.505 497.315 232.963C497.315 231.819 497.315 230.616 497.315 229.472C497.315 228.931 496.472 228.931 496.472 229.472Z" fill="#17005E"/>
<path d="M475.468 230.194C474.083 230.194 472.759 230.194 471.375 230.194C470.833 230.194 470.833 231.037 471.375 231.037C472.759 231.037 474.083 231.037 475.468 231.037C476.009 231.037 476.009 230.194 475.468 230.194Z" fill="#17005E"/>
<path d="M465.718 242.231C465.718 243.375 465.718 244.579 465.718 245.722C465.718 246.264 466.56 246.264 466.56 245.722C466.56 244.579 466.56 243.375 466.56 242.231C466.56 241.69 465.718 241.69 465.718 242.231Z" fill="#17005E"/>
<path d="M454.283 229.171C453.32 228.208 452.357 227.245 451.394 226.282C451.033 225.921 450.431 226.523 450.792 226.884C451.755 227.847 452.718 228.81 453.681 229.773C454.042 230.134 454.644 229.532 454.283 229.171Z" fill="#17005E"/>
<path d="M436.287 218.699C435.685 218.097 435.144 217.555 434.542 216.954C434.181 216.593 433.579 217.194 433.94 217.555C434.542 218.157 435.083 218.699 435.685 219.301C436.046 219.722 436.648 219.12 436.287 218.699Z" fill="#17005E"/>
<path d="M422.806 221.347C422.806 222.13 422.806 222.912 422.806 223.694C422.806 224.236 423.648 224.236 423.648 223.694C423.648 222.912 423.648 222.13 423.648 221.347C423.648 220.806 422.806 220.806 422.806 221.347Z" fill="#17005E"/>
<path d="M425.273 213.523C426.236 212.56 427.199 211.597 428.162 210.634C428.523 210.273 427.921 209.671 427.56 210.032C426.597 210.995 425.634 211.958 424.671 212.921C424.25 213.282 424.852 213.884 425.273 213.523Z" fill="#17005E"/>
<path d="M410.588 217.856C410.588 219 410.588 220.204 410.588 221.347C410.588 221.889 411.431 221.889 411.431 221.347C411.431 220.204 411.431 219 411.431 217.856C411.431 217.315 410.588 217.315 410.588 217.856Z" fill="#17005E"/>
<path d="M400.718 227.125C400.718 229.472 400.718 231.759 400.718 234.106C400.718 234.648 401.56 234.648 401.56 234.106C401.56 231.759 401.56 229.472 401.56 227.125C401.56 226.583 400.718 226.583 400.718 227.125Z" fill="#17005E"/>
<path d="M386.935 236.152C385.972 237.115 385.009 238.078 384.047 239.041C383.685 239.402 384.287 240.004 384.648 239.643C385.611 238.68 386.574 237.717 387.537 236.754C387.898 236.333 387.297 235.731 386.935 236.152Z" fill="#17005E"/>
<path d="M390.968 247.769C391.57 248.37 392.111 248.912 392.713 249.514C393.074 249.875 393.676 249.273 393.315 248.912C392.713 248.31 392.171 247.769 391.57 247.167C391.209 246.806 390.607 247.347 390.968 247.769Z" fill="#17005E"/>
<path d="M388.56 260.227C388.56 261.972 388.56 263.717 388.56 265.463C388.56 266.004 389.403 266.004 389.403 265.463C389.403 263.717 389.403 261.972 389.403 260.227C389.403 259.685 388.56 259.685 388.56 260.227Z" fill="#17005E"/>
<path d="M379.954 248.31C378.991 247.347 378.028 246.384 377.065 245.421C376.704 245.06 376.102 245.662 376.463 246.023C377.426 246.986 378.389 247.949 379.352 248.912C379.773 249.333 380.375 248.731 379.954 248.31Z" fill="#17005E"/>
<path d="M371.588 244.699C370.445 244.699 369.241 244.699 368.097 244.699C367.556 244.699 367.556 245.541 368.097 245.541C369.241 245.541 370.445 245.541 371.588 245.541C372.13 245.541 372.13 244.699 371.588 244.699Z" fill="#17005E"/>
<path d="M380.435 254.991C380.435 256.134 380.435 257.338 380.435 258.481C380.435 259.023 381.278 259.023 381.278 258.481C381.278 257.338 381.278 256.134 381.278 254.991C381.278 254.449 380.435 254.449 380.435 254.991Z" fill="#17005E"/>
<path d="M403.486 247.888C404.269 247.888 405.051 247.888 405.834 247.888C406.375 247.888 406.375 247.046 405.834 247.046C405.051 247.046 404.269 247.046 403.486 247.046C402.945 247.046 402.945 247.888 403.486 247.888Z" fill="#17005E"/>
<path d="M394.639 229.472C394.639 228.69 394.639 227.907 394.639 227.125C394.639 226.583 393.797 226.583 393.797 227.125C393.797 227.907 393.797 228.69 393.797 229.472C393.797 230.014 394.639 230.014 394.639 229.472Z" fill="#17005E"/>
<path d="M412.755 232.241C413.718 232.241 414.681 232.241 415.644 232.241C416.185 232.241 416.185 231.398 415.644 231.398C414.681 231.398 413.718 231.398 412.755 231.398C412.213 231.398 412.213 232.241 412.755 232.241Z" fill="#17005E"/>
<path d="M428.162 245.421C427.56 246.023 427.019 246.564 426.417 247.166C426.056 247.527 426.658 248.129 427.019 247.768C427.621 247.166 428.162 246.625 428.764 246.023C429.125 245.662 428.523 245.06 428.162 245.421Z" fill="#17005E"/>
<path d="M416.968 272.444C416.968 274.551 416.968 276.717 416.968 278.824C416.968 279.366 417.81 279.366 417.81 278.824C417.81 276.717 417.81 274.551 417.81 272.444C417.81 271.903 416.968 271.903 416.968 272.444Z" fill="#17005E"/>
<path d="M425.815 284.903C426.597 285.685 427.38 286.467 428.162 287.25C428.523 287.611 429.125 287.009 428.764 286.648C427.982 285.866 427.199 285.083 426.417 284.301C425.996 283.94 425.454 284.542 425.815 284.903Z" fill="#17005E"/>
<path d="M425.695 297.361C425.695 298.926 425.695 300.43 425.695 301.995C425.695 302.537 426.537 302.537 426.537 301.995C426.537 300.43 426.537 298.926 426.537 297.361C426.537 296.819 425.695 296.819 425.695 297.361Z" fill="#17005E"/>
<path d="M429.306 308.676C429.908 309.277 430.449 309.819 431.051 310.421C431.412 310.782 432.014 310.18 431.653 309.819C431.051 309.217 430.509 308.676 429.908 308.074C429.486 307.713 428.884 308.314 429.306 308.676Z" fill="#17005E"/>
<path d="M442.366 304.763C443.329 304.763 444.292 304.763 445.255 304.763C445.797 304.763 445.797 303.921 445.255 303.921C444.292 303.921 443.329 303.921 442.366 303.921C441.824 303.921 441.824 304.763 442.366 304.763Z" fill="#17005E"/>
<path d="M442.065 290.68C443.209 291.824 444.412 293.028 445.556 294.171C445.917 294.532 446.519 293.93 446.158 293.569C445.014 292.426 443.81 291.222 442.667 290.079C442.246 289.718 441.704 290.319 442.065 290.68Z" fill="#17005E"/>
<path d="M454.523 289.657C455.486 289.657 456.449 289.657 457.412 289.657C457.954 289.657 457.954 288.814 457.412 288.814C456.449 288.814 455.486 288.814 454.523 288.814C453.982 288.814 453.982 289.657 454.523 289.657Z" fill="#17005E"/>
<path d="M465.176 284C465.176 285.926 465.176 287.852 465.176 289.778C465.176 290.319 466.019 290.319 466.019 289.778C466.019 287.852 466.019 285.926 466.019 284C466.019 283.458 465.176 283.458 465.176 284Z" fill="#17005E"/>
<path d="M475.047 292.125C475.047 293.509 475.047 294.833 475.047 296.218C475.047 296.759 475.889 296.759 475.889 296.218C475.889 294.833 475.889 293.509 475.889 292.125C475.889 291.583 475.047 291.583 475.047 292.125Z" fill="#17005E"/>
<path d="M462.107 304.763C463.491 304.763 464.815 304.763 466.199 304.763C466.741 304.763 466.741 303.921 466.199 303.921C464.815 303.921 463.491 303.921 462.107 303.921C461.565 303.921 461.565 304.763 462.107 304.763Z" fill="#17005E"/>
<path d="M480.945 282.555C481.727 283.338 482.509 284.12 483.292 284.903C483.653 285.264 484.255 284.662 483.894 284.301C483.111 283.518 482.329 282.736 481.546 281.954C481.185 281.593 480.583 282.194 480.945 282.555Z" fill="#17005E"/>
<path d="M490.815 275.634C491.176 275.995 491.597 276.417 491.958 276.778C492.32 277.139 492.921 276.537 492.56 276.176C492.199 275.815 491.778 275.393 491.417 275.032C490.996 274.611 490.454 275.213 490.815 275.634Z" fill="#17005E"/>
<path d="M418.172 301.995C418.172 302.778 418.172 303.56 418.172 304.342C418.172 304.884 419.014 304.884 419.014 304.342C419.014 303.56 419.014 302.778 419.014 301.995C419.014 301.453 418.172 301.453 418.172 301.995Z" fill="#17005E"/>
<path d="M416.847 318.125C418.773 318.125 420.699 318.125 422.625 318.125C423.167 318.125 423.167 317.282 422.625 317.282C420.699 317.282 418.773 317.282 416.847 317.282C416.306 317.282 416.306 318.125 416.847 318.125Z" fill="#17005E"/>
<path d="M417.57 326.37C417.57 327.514 417.57 328.717 417.57 329.861C417.57 330.403 418.412 330.403 418.412 329.861C418.412 328.717 418.412 327.514 418.412 326.37C418.412 325.828 417.57 325.828 417.57 326.37Z" fill="#17005E"/>
<path d="M422.324 333.051C423.107 332.268 423.889 331.486 424.672 330.703C425.033 330.342 424.431 329.74 424.07 330.102C423.287 330.884 422.505 331.666 421.722 332.449C421.361 332.87 421.963 333.472 422.324 333.051Z" fill="#17005E"/>
<path d="M436.829 326.129C437.611 326.912 438.394 327.694 439.176 328.477C439.537 328.838 440.139 328.236 439.778 327.875C438.996 327.092 438.213 326.31 437.431 325.527C437.07 325.106 436.468 325.708 436.829 326.129Z" fill="#17005E"/>
<path d="M416.968 339.731C416.968 340.333 416.968 340.875 416.968 341.477C416.968 342.018 417.81 342.018 417.81 341.477C417.81 340.875 417.81 340.333 417.81 339.731C417.81 339.19 416.968 339.19 416.968 339.731Z" fill="#17005E"/>
<path d="M431.352 337.866C432.736 337.866 434.06 337.866 435.445 337.866C435.986 337.866 435.986 337.023 435.445 337.023C434.06 337.023 432.736 337.023 431.352 337.023C430.81 337.023 430.81 337.866 431.352 337.866Z" fill="#17005E"/>
<path d="M450.912 339.731C450.912 338.347 450.912 337.023 450.912 335.639C450.912 335.097 450.07 335.097 450.07 335.639C450.07 337.023 450.07 338.347 450.07 339.731C450.07 340.273 450.912 340.273 450.912 339.731Z" fill="#17005E"/>
<path d="M457.171 327.273C458.917 329.018 460.662 330.764 462.408 332.509C462.769 332.87 463.371 332.268 463.009 331.907C461.264 330.162 459.519 328.416 457.773 326.671C457.352 326.31 456.75 326.912 457.171 327.273Z" fill="#17005E"/>
<path d="M472.82 334.796C473.421 334.194 473.963 333.652 474.565 333.051C474.926 332.689 474.324 332.088 473.963 332.449C473.361 333.051 472.82 333.592 472.218 334.194C471.857 334.615 472.459 335.217 472.82 334.796Z" fill="#17005E"/>
<path d="M484.435 323.782C485.218 324.564 486 325.347 486.783 326.129C487.144 326.49 487.746 325.889 487.384 325.527C486.602 324.745 485.82 323.963 485.037 323.18C484.616 322.819 484.074 323.421 484.435 323.782Z" fill="#17005E"/>
<path d="M443.269 315.657C444.653 314.273 445.977 312.949 447.361 311.565C447.722 311.204 447.121 310.602 446.759 310.963C445.375 312.347 444.051 313.671 442.667 315.056C442.246 315.477 442.847 316.018 443.269 315.657Z" fill="#17005E"/>
<path d="M450.672 315.958C450.672 317.342 450.672 318.666 450.672 320.051C450.672 320.592 451.514 320.592 451.514 320.051C451.514 318.666 451.514 317.342 451.514 315.958C451.514 315.416 450.672 315.416 450.672 315.958Z" fill="#17005E"/>
<path d="M459.759 317.523C460.903 317.523 462.107 317.523 463.25 317.523C463.792 317.523 463.792 316.68 463.25 316.68C462.107 316.68 460.903 316.68 459.759 316.68C459.218 316.68 459.218 317.523 459.759 317.523Z" fill="#17005E"/>
<path d="M472.82 313.37C473.421 313.972 473.963 314.514 474.565 315.115C474.926 315.477 475.528 314.875 475.167 314.514C474.565 313.912 474.023 313.37 473.421 312.768C473.06 312.347 472.458 312.949 472.82 313.37Z" fill="#17005E"/>
<path d="M485.579 306.93C486.361 307.713 487.144 308.495 487.926 309.278C488.287 309.639 488.889 309.037 488.528 308.676C487.746 307.893 486.963 307.111 486.181 306.329C485.82 305.968 485.218 306.569 485.579 306.93Z" fill="#17005E"/>
<path d="M492.259 298.384C493.824 298.384 495.329 298.384 496.894 298.384C497.435 298.384 497.435 297.542 496.894 297.542C495.329 297.542 493.824 297.542 492.259 297.542C491.718 297.542 491.718 298.384 492.259 298.384Z" fill="#17005E"/>
<path d="M490.273 267.509C490.875 266.907 491.417 266.365 492.019 265.763C492.38 265.402 491.778 264.801 491.417 265.162C490.815 265.763 490.273 266.305 489.671 266.907C489.25 267.268 489.852 267.87 490.273 267.509Z" fill="#17005E"/>
<path d="M457.713 254.148C456.148 255.713 454.644 257.218 453.079 258.782C452.718 259.143 453.32 259.745 453.681 259.384C455.246 257.819 456.75 256.315 458.315 254.75C458.736 254.329 458.134 253.727 457.713 254.148Z" fill="#17005E"/>
<path d="M442.065 238.439C440.681 239.824 439.357 241.148 437.972 242.532C437.611 242.893 438.213 243.495 438.574 243.134C439.959 241.75 441.283 240.426 442.667 239.041C443.028 238.68 442.426 238.078 442.065 238.439Z" fill="#17005E"/>
<path d="M428.162 230.917C427.801 231.278 427.38 231.699 427.019 232.06C426.658 232.421 427.259 233.023 427.621 232.662C427.982 232.301 428.403 231.88 428.764 231.519C429.125 231.097 428.523 230.556 428.162 230.917Z" fill="#17005E"/>
<path d="M472.94 219C472.94 217.435 472.94 215.931 472.94 214.366C472.94 213.824 472.097 213.824 472.097 214.366C472.097 215.931 472.097 217.435 472.097 219C472.097 219.542 472.94 219.542 472.94 219Z" fill="#17005E"/>
<path d="M479.801 212.38C480.162 212.019 480.584 211.597 480.945 211.236C481.306 210.875 480.704 210.273 480.343 210.634C479.982 210.995 479.56 211.417 479.199 211.778C478.838 212.139 479.44 212.741 479.801 212.38Z" fill="#17005E"/>
<path d="M504.176 240.185C503.574 240.787 503.033 241.329 502.431 241.93C502.07 242.292 502.672 242.893 503.033 242.532C503.635 241.93 504.176 241.389 504.778 240.787C505.139 240.426 504.537 239.824 504.176 240.185Z" fill="#17005E"/>
<path d="M511.699 238.5C512.06 238.861 512.481 239.282 512.843 239.643C513.204 240.005 513.805 239.403 513.444 239.042C513.083 238.68 512.662 238.259 512.301 237.898C511.94 237.477 511.338 238.079 511.699 238.5Z" fill="#17005E"/>
<path d="M504.718 228.569C504.357 228.93 503.935 229.352 503.574 229.713C503.213 230.074 503.815 230.676 504.176 230.315C504.537 229.954 504.959 229.532 505.32 229.171C505.741 228.81 505.139 228.208 504.718 228.569Z" fill="#17005E"/>
<path d="M510.255 249.333C508.871 249.333 507.546 249.333 506.162 249.333C505.621 249.333 505.621 250.176 506.162 250.176C507.546 250.176 508.871 250.176 510.255 250.176C510.796 250.236 510.796 249.333 510.255 249.333Z" fill="#17005E"/>
<path d="M509.412 257.037C509.773 257.398 510.195 257.819 510.556 258.18C510.917 258.542 511.519 257.94 511.158 257.579C510.796 257.218 510.375 256.796 510.014 256.435C509.593 256.074 508.991 256.676 509.412 257.037Z" fill="#17005E"/>
<path d="M509.954 264.56C509.172 265.342 508.389 266.125 507.607 266.907C507.246 267.268 507.847 267.87 508.209 267.509C508.991 266.727 509.773 265.944 510.556 265.162C510.917 264.801 510.375 264.199 509.954 264.56Z" fill="#17005E"/>
<path d="M520.546 254.991C520.546 253.606 520.546 252.282 520.546 250.898C520.546 250.356 519.704 250.356 519.704 250.898C519.704 252.282 519.704 253.606 519.704 254.991C519.704 255.532 520.546 255.532 520.546 254.991Z" fill="#17005E"/>
<path d="M523.917 253.004C524.278 253.365 524.699 253.787 525.06 254.148C525.421 254.509 526.023 253.907 525.662 253.546C525.301 253.185 524.88 252.764 524.519 252.402C524.097 251.981 523.496 252.583 523.917 253.004Z" fill="#17005E"/>
<path d="M498.218 321.736C498.218 322.518 498.218 323.301 498.218 324.083C498.218 324.625 499.06 324.625 499.06 324.083C499.06 323.301 499.06 322.518 499.06 321.736C499.06 321.194 498.218 321.194 498.218 321.736Z" fill="#17005E"/>
<path d="M492.56 333.051C493.162 333.652 493.704 334.194 494.306 334.796C494.667 335.157 495.269 334.555 494.908 334.194C494.306 333.592 493.764 333.051 493.162 332.449C492.741 332.088 492.199 332.689 492.56 333.051Z" fill="#17005E"/>
<path d="M501.287 338.287C501.889 337.685 502.431 337.143 503.033 336.541C503.394 336.18 502.792 335.578 502.431 335.939C501.829 336.541 501.287 337.083 500.685 337.685C500.324 338.106 500.866 338.708 501.287 338.287Z" fill="#17005E"/>
<path d="M498.398 311.625C499 311.023 499.542 310.481 500.144 309.879C500.505 309.518 499.903 308.916 499.542 309.277C498.94 309.879 498.398 310.421 497.796 311.023C497.375 311.384 497.977 311.986 498.398 311.625Z" fill="#17005E"/>
<path d="M486.181 335.398C486.542 335.759 486.963 336.18 487.324 336.541C487.685 336.902 488.287 336.301 487.926 335.939C487.565 335.578 487.144 335.157 486.783 334.796C486.361 334.435 485.759 335.037 486.181 335.398Z" fill="#17005E"/>
<path d="M474.023 325.527C474.986 324.564 475.949 323.601 476.912 322.638C477.273 322.277 476.671 321.676 476.31 322.037C475.347 323 474.384 323.963 473.421 324.926C473 325.347 473.602 325.889 474.023 325.527Z" fill="#17005E"/>
<path d="M398.972 256.736C398.972 257.699 398.972 258.662 398.972 259.625C398.972 260.166 399.815 260.166 399.815 259.625C399.815 258.662 399.815 257.699 399.815 256.736C399.815 256.194 398.972 256.194 398.972 256.736Z" fill="#17005E"/>
<path d="M399.153 241.389C398.371 240.606 397.588 239.824 396.806 239.042C396.445 238.68 395.843 239.282 396.204 239.643C396.986 240.426 397.769 241.208 398.551 241.991C398.912 242.352 399.514 241.75 399.153 241.389Z" fill="#17005E"/>
<path d="M444.111 163.87H442.005C437.491 163.87 434.121 168.143 435.204 172.537L437.972 183.791C438.634 186.379 440.982 188.245 443.63 188.245H445.435L444.111 163.87Z" fill="#17005E" stroke="#17005E" stroke-width="1.5" stroke-miterlimit="10" stroke-linecap="round" stroke-linejoin="round"/>
<path d="M461.505 157.129C452.417 157.129 444.773 162.967 441.945 171.032H440.019C437.491 171.032 435.385 173.139 435.385 175.666C435.385 178.194 437.491 180.301 440.019 180.301H440.922C442.185 190.532 450.912 198.477 461.445 198.477C472.88 198.477 482.148 189.208 482.148 177.773C482.209 166.398 472.94 157.129 461.505 157.129Z" fill="#E556A8" stroke="#17005E" stroke-width="1.5" stroke-miterlimit="10" stroke-linecap="round" stroke-linejoin="round"/>
<path d="M461.505 157.129C452.417 157.129 444.773 162.967 441.945 171.032H440.019C437.491 171.032 435.385 173.139 435.385 175.666C435.385 178.194 437.491 180.301 440.019 180.301H440.922C442.185 190.532 450.912 198.477 461.445 198.477C472.88 198.477 482.148 189.208 482.148 177.773C482.209 166.398 472.94 157.129 461.505 157.129Z" fill="#E556A8" stroke="#17005E" stroke-width="1.5" stroke-miterlimit="10" stroke-linecap="round" stroke-linejoin="round"/>
<path d="M438.574 174.824C439.718 175.065 440.741 175.546 441.704 176.268C441.704 176.027 441.704 175.787 441.704 175.546C440.861 176.088 440.019 176.69 439.176 177.231C438.755 177.532 439.176 178.254 439.597 177.953C440.44 177.412 441.283 176.81 442.125 176.268C442.426 176.088 442.366 175.727 442.125 175.546C441.102 174.824 440.019 174.282 438.755 174.041C438.273 173.921 438.033 174.703 438.574 174.824Z" fill="#17005E"/>
<path d="M442.968 166.819H472.519C479.801 166.819 485.699 160.921 485.699 153.639C485.699 151.833 484.255 150.329 482.389 150.329H453.681C446.158 150.329 440.621 157.43 442.426 164.713L442.968 166.819Z" fill="#17005E" stroke="#17005E" stroke-width="1.5" stroke-miterlimit="10" stroke-linecap="round" stroke-linejoin="round"/>
<path d="M454.343 165.254L453.44 167.602C452.718 169.588 450.792 170.912 448.685 170.912L441.885 171.032V164.773L454.343 165.254Z" fill="#17005E" stroke="#17005E" stroke-width="1.5" stroke-miterlimit="10" stroke-linecap="round" stroke-linejoin="round"/>
<path d="M466.801 176.148C466.801 176.81 466.26 177.352 465.598 177.352C464.935 177.352 464.394 176.81 464.394 176.148C464.394 175.486 464.935 174.944 465.598 174.944C466.26 174.944 466.801 175.486 466.801 176.148Z" fill="#17005E" stroke="#17005E" stroke-width="1.5" stroke-miterlimit="10" stroke-linecap="round" stroke-linejoin="round"/>
<path d="M479.801 176.148C479.801 176.81 479.259 177.352 478.597 177.352C477.935 177.352 477.394 176.81 477.394 176.148C477.394 175.486 477.935 174.944 478.597 174.944C479.259 174.944 479.801 175.486 479.801 176.148Z" fill="#17005E" stroke="#17005E" stroke-width="1.5" stroke-miterlimit="10" stroke-linecap="round" stroke-linejoin="round"/>
<path d="M473 172.236V176.81C473 178.014 473.963 178.916 475.107 178.916C476.31 178.916 477.213 179.879 477.213 181.023C477.213 183.25 475.408 185.115 473.121 185.115H471.375" stroke="#17005E" stroke-width="1.5" stroke-miterlimit="10" stroke-linecap="round" stroke-linejoin="round"/>
<path d="M445.857 173.62C446.94 173.62 447.963 173.62 449.046 173.62C449.588 173.62 449.588 172.778 449.046 172.778C447.963 172.778 446.94 172.778 445.857 172.778C445.315 172.778 445.315 173.62 445.857 173.62Z" fill="#17005E"/>
<path d="M445.917 175.426C446.639 175.426 447.422 175.426 448.144 175.426C448.685 175.426 448.685 174.583 448.144 174.583C447.422 174.583 446.639 174.583 445.917 174.583C445.375 174.583 445.375 175.426 445.917 175.426Z" fill="#17005E"/>
<path d="M446.218 177.352C446.519 177.352 446.88 177.352 447.181 177.352C447.722 177.352 447.722 176.509 447.181 176.509C446.88 176.509 446.519 176.509 446.218 176.509C445.676 176.509 445.676 177.352 446.218 177.352Z" fill="#17005E"/>
<path d="M465.658 187.583L472.76 189.449L469.51 191.977C468.607 192.639 467.463 192.94 466.38 192.699C464.574 192.338 463.431 190.653 463.732 188.847C463.852 187.945 464.755 187.403 465.658 187.583Z" fill="#17005E" stroke="#17005E" stroke-width="1.5" stroke-miterlimit="10" stroke-linecap="round" stroke-linejoin="round"/>
<path d="M678.172 214.366H606.01V211.357C606.01 209.37 607.635 207.806 609.56 207.806H678.111V214.366H678.172Z" fill="#17005E" stroke="#17005E" stroke-width="1.5" stroke-miterlimit="10" stroke-linecap="round" stroke-linejoin="round"/>
<path d="M679.074 214.366H627.917L639.713 172.958C640.074 171.755 641.097 170.972 642.361 170.972H692.435C694.241 170.972 695.565 172.718 695.084 174.463L684.972 209.972C684.13 212.56 681.783 214.366 679.074 214.366Z" fill="#17005E" stroke="#17005E" stroke-width="1.5" stroke-miterlimit="10" stroke-linecap="round" stroke-linejoin="round"/>
<path d="M678.954 203.532H635.621L643.204 176.87C643.445 176.088 644.107 175.606 644.889 175.606H687.5C688.644 175.606 689.486 176.75 689.185 177.833L682.685 200.704C682.204 202.389 680.699 203.532 678.954 203.532Z" fill="white" stroke="#17005E" stroke-width="1.5" stroke-miterlimit="10" stroke-linecap="round" stroke-linejoin="round"/>
<path d="M660.898 184.815L666.917 189.269C667.338 189.569 667.097 190.231 666.556 190.472L658.07 193.963C657.468 194.204 656.986 193.843 657.167 193.301L659.634 185.296C659.755 184.815 660.477 184.514 660.898 184.815Z" fill="white" stroke="#17005E" stroke-width="1.5" stroke-miterlimit="10" stroke-linecap="round" stroke-linejoin="round"/>
<path d="M673.959 186.56L677.931 189.389C678.171 189.57 678.051 190.051 677.69 190.171L672.033 192.579C671.671 192.759 671.31 192.519 671.431 192.158L673.176 186.921C673.236 186.56 673.718 186.32 673.959 186.56Z" fill="#17005E" stroke="#17005E" stroke-width="1.5" stroke-miterlimit="10" stroke-linecap="round" stroke-linejoin="round"/>
<path d="M678.051 192.458L679.797 187.222H680.82L679.074 192.458H678.051Z" fill="#17005E" stroke="#17005E" stroke-width="1.5" stroke-miterlimit="10" stroke-linecap="round" stroke-linejoin="round"/>
<path d="M650.547 192.819L646.574 189.99C646.334 189.81 646.454 189.328 646.815 189.208L652.472 186.801C652.834 186.62 653.195 186.861 653.074 187.222L651.329 192.458C651.329 192.819 650.847 193 650.547 192.819Z" fill="#17005E" stroke="#17005E" stroke-width="1.5" stroke-miterlimit="10" stroke-linecap="round" stroke-linejoin="round"/>
<path d="M646.454 186.921L644.769 192.157H643.685L645.431 186.921H646.454Z" fill="#17005E" stroke="#17005E" stroke-width="1.5" stroke-miterlimit="10" stroke-linecap="round" stroke-linejoin="round"/>
<path d="M587.533 243.856L571.764 224.778L578.144 220.685L593.671 238.5L587.533 243.856Z" fill="white" stroke="#17005E" stroke-width="1.5" stroke-miterlimit="10" stroke-linecap="round" stroke-linejoin="round"/>
<path d="M593.431 243.555C591.023 245.662 587.713 245.843 586.148 243.977C584.523 242.111 585.185 238.921 587.593 236.815C590 234.708 593.31 234.528 594.875 236.393C596.5 238.259 595.838 241.449 593.431 243.555Z" fill="white" stroke="#17005E" stroke-width="1.5" stroke-miterlimit="10" stroke-linecap="round" stroke-linejoin="round"/>
<path d="M594.572 244.865C596.981 242.773 597.627 239.571 596.014 237.714C594.401 235.857 591.141 236.047 588.732 238.14C586.323 240.232 585.677 243.434 587.29 245.291C588.903 247.148 592.163 246.957 594.572 244.865Z" fill="white" stroke="#17005E" stroke-width="1.5" stroke-miterlimit="10" stroke-linecap="round" stroke-linejoin="round"/>
<path d="M593.491 243.676C591.986 245 589.88 245.12 588.857 243.977C587.834 242.773 588.255 240.787 589.759 239.403C591.264 238.079 593.371 237.958 594.394 239.102C595.477 240.306 595.056 242.352 593.491 243.676Z" fill="#F48914" stroke="#17005E" stroke-width="1.5" stroke-miterlimit="10" stroke-linecap="round" stroke-linejoin="round"/>
<path d="M330.361 612.491H512" stroke="#17005E" stroke-width="3" stroke-miterlimit="10" stroke-linecap="round" stroke-linejoin="round"/>
<path d="M539.264 612.491H627.496" stroke="#17005E" stroke-width="3" stroke-miterlimit="10" stroke-linecap="round" stroke-linejoin="round"/>
<path d="M208.667 475.81L220.342 464.134C221.847 462.63 224.315 462.63 225.819 464.134L226.842 465.157C228.347 466.662 228.347 469.13 226.842 470.634L215.167 482.31C213.662 483.815 211.194 483.815 209.69 482.31L208.667 481.287C207.162 479.782 207.162 477.315 208.667 475.81Z" fill="#FAD1E8"/>
<path d="M698.674 288.776C702.518 287.198 704.355 282.803 702.776 278.959C701.198 275.116 696.803 273.279 692.96 274.857C689.116 276.435 687.279 280.83 688.857 284.674C690.435 288.518 694.83 290.354 698.674 288.776Z" fill="white"/>
<path d="M692.074 360.194C691.773 359.893 691.592 359.532 691.592 359.111V352.551H685.032C684.19 352.551 683.467 351.889 683.467 350.986V342.921C683.467 342.079 684.129 341.356 685.032 341.356C685.875 341.356 686.597 342.079 686.597 342.921V349.481H693.157C694 349.481 694.722 350.143 694.722 351.046V357.606H701.282C702.125 357.606 702.847 358.268 702.847 359.171C702.847 360.014 702.185 360.736 701.282 360.736H693.217C692.796 360.676 692.375 360.495 692.074 360.194Z" fill="#D3D3D3"/>
<path d="M697.972 354.357C697.671 354.056 697.491 353.694 697.491 353.273V346.713H690.991C690.148 346.713 689.426 345.991 689.426 345.148V337.083C689.426 336.241 690.088 335.519 690.991 335.519C691.833 335.519 692.555 336.181 692.555 337.083V343.644H699.116C699.958 343.644 700.68 344.366 700.68 345.208V351.769H707.241C708.083 351.769 708.805 352.431 708.805 353.333C708.805 354.176 708.143 354.898 707.241 354.898H699.176C698.634 354.778 698.273 354.597 697.972 354.357Z" fill="#D3D3D3"/>
<path d="M284.907 87C285.389 87 285.87 87.1806 286.231 87.5417L291.889 93.1991L297.546 87.5417C298.269 86.8194 299.472 86.8194 300.255 87.5417L307.296 94.5833C308.019 95.3056 308.019 96.5093 307.296 97.2917C306.574 98.0139 305.37 98.0139 304.588 97.2917L298.931 91.6343L293.273 97.2917C292.551 98.0139 291.347 98.0139 290.565 97.2917L284.907 91.6343L279.25 97.2917C278.528 98.0139 277.324 98.0139 276.542 97.2917C275.819 96.5694 275.819 95.3657 276.542 94.5833L283.583 87.5417C283.944 87.1806 284.426 87 284.907 87Z" fill="#D3D3D3"/>
<path d="M284.907 104C285.389 104 285.87 104.181 286.231 104.542L291.889 110.199L297.546 104.542C298.269 103.819 299.472 103.819 300.255 104.542L307.296 111.583C308.019 112.306 308.019 113.509 307.296 114.292C306.574 115.014 305.37 115.014 304.588 114.292L298.931 108.634L293.273 114.292C292.551 115.014 291.347 115.014 290.565 114.292L284.907 108.634L279.25 114.292C278.528 115.014 277.324 115.014 276.542 114.292C275.819 113.569 275.819 112.366 276.542 111.583L283.583 104.542C283.944 104.181 284.426 104 284.907 104Z" fill="#D3D3D3"/>
<path d="M222.213 294.685C222.213 295.889 221.25 296.792 220.106 296.792C218.903 296.792 218 295.829 218 294.685C218 293.482 218.963 292.579 220.106 292.579C221.25 292.519 222.213 293.482 222.213 294.685Z" fill="#C5C5C5"/>
<path d="M228.713 294.685C228.713 295.889 227.75 296.792 226.606 296.792C225.403 296.792 224.5 295.829 224.5 294.685C224.5 293.482 225.463 292.579 226.606 292.579C227.81 292.519 228.713 293.482 228.713 294.685Z" fill="#C5C5C5"/>
<path d="M235.273 294.685C235.273 295.889 234.31 296.792 233.167 296.792C232.023 296.792 231.06 295.829 231.06 294.685C231.06 293.481 232.023 292.579 233.167 292.579C234.31 292.579 235.273 293.481 235.273 294.685Z" fill="#C5C5C5"/>
<path d="M220.106 284.213C221.27 284.213 222.213 283.27 222.213 282.106C222.213 280.943 221.27 280 220.106 280C218.943 280 218 280.943 218 282.106C218 283.27 218.943 284.213 220.106 284.213Z" fill="#C5C5C5"/>
<path d="M228.713 282.106C228.713 283.31 227.75 284.213 226.606 284.213C225.403 284.213 224.5 283.25 224.5 282.106C224.5 280.963 225.463 280 226.606 280C227.81 280 228.713 280.903 228.713 282.106Z" fill="#C5C5C5"/>
<path d="M233.106 284.213C234.27 284.213 235.213 283.27 235.213 282.106C235.213 280.943 234.27 280 233.106 280C231.943 280 231 280.943 231 282.106C231 283.27 231.943 284.213 233.106 284.213Z" fill="#C5C5C5"/>
<path d="M222.213 288.366C222.213 289.569 221.25 290.472 220.106 290.472C218.903 290.472 218 289.509 218 288.366C218 287.162 218.963 286.259 220.106 286.259C221.25 286.259 222.213 287.222 222.213 288.366Z" fill="#C5C5C5"/>
<path d="M228.713 288.366C228.713 289.569 227.75 290.472 226.606 290.472C225.403 290.472 224.5 289.509 224.5 288.366C224.5 287.162 225.463 286.259 226.606 286.259C227.81 286.259 228.713 287.222 228.713 288.366Z" fill="#C5C5C5"/>
<path d="M235.273 288.366C235.273 289.569 234.31 290.472 233.167 290.472C232.023 290.472 231.06 289.509 231.06 288.366C231.06 287.162 232.023 286.259 233.167 286.259C234.31 286.259 235.273 287.222 235.273 288.366Z" fill="#C5C5C5"/>
<path d="M680.879 130.227C680.879 132.153 679.315 133.718 677.389 133.718C675.463 133.718 673.898 132.153 673.898 130.227C673.898 128.301 675.463 126.736 677.389 126.736C679.315 126.736 680.879 128.301 680.879 130.227Z" fill="#C5C5C5"/>
<path d="M690.93 130.227C690.93 132.153 689.366 133.718 687.44 133.718C685.514 133.718 683.949 132.153 683.949 130.227C683.949 128.301 685.514 126.736 687.44 126.736C689.366 126.736 690.93 128.301 690.93 130.227Z" fill="#C5C5C5"/>
<path d="M680.879 140.459C680.879 142.384 679.315 143.949 677.389 143.949C675.463 143.949 673.898 142.384 673.898 140.459C673.898 138.533 675.463 136.968 677.389 136.968C679.315 137.028 680.879 138.533 680.879 140.459Z" fill="#C5C5C5"/>
<path d="M690.93 140.459C690.93 142.384 689.366 143.949 687.44 143.949C685.514 143.949 683.949 142.384 683.949 140.459C683.949 138.533 685.514 136.968 687.44 136.968C689.366 137.028 690.93 138.533 690.93 140.459Z" fill="#C5C5C5"/>
<path d="M766.412 493.856H679.805C676.796 493.856 674.389 491.449 674.389 488.44V430.782C674.389 427.773 676.796 425.366 679.805 425.366H766.472C769.481 425.366 771.889 427.773 771.889 430.782V488.44C771.828 491.449 769.421 493.856 766.412 493.856Z" fill="#DC4298" stroke="#17005E" stroke-width="1.5" stroke-miterlimit="10" stroke-linecap="round" stroke-linejoin="round"/>
<path d="M716.217 445.407L731.685 454.315C732.708 454.917 732.708 456.421 731.685 457.023L716.217 465.93C715.194 466.532 713.87 465.75 713.87 464.546V446.731C713.87 445.528 715.194 444.805 716.217 445.407Z" fill="white" stroke="#17005E" stroke-width="1.5" stroke-miterlimit="10" stroke-linecap="round" stroke-linejoin="round"/>
<path d="M763.944 483.745C763.944 484.347 763.463 484.768 762.921 484.768C762.379 484.768 761.898 484.287 761.898 483.745C761.898 483.143 762.379 482.722 762.921 482.722C763.463 482.722 763.944 483.143 763.944 483.745Z" fill="#17005E" stroke="#17005E" stroke-width="1.5" stroke-miterlimit="10" stroke-linecap="round" stroke-linejoin="round"/>
<path d="M692.264 483.745H762.861" stroke="#17005E" stroke-width="1.5" stroke-miterlimit="10" stroke-linecap="round" stroke-linejoin="round"/>
<path d="M758.889 430.963H766.171" stroke="#17005E" stroke-width="1.5" stroke-miterlimit="10" stroke-linecap="round" stroke-linejoin="round"/>
<path d="M758.889 433.972H766.171" stroke="#17005E" stroke-width="1.5" stroke-miterlimit="10" stroke-linecap="round" stroke-linejoin="round"/>
<path d="M758.889 436.981H766.171" stroke="#17005E" stroke-width="1.5" stroke-miterlimit="10" stroke-linecap="round" stroke-linejoin="round"/>
<path d="M686.606 481.699H681.31V485.792H686.606V481.699Z" fill="#F5A3D2" stroke="#17005E" stroke-width="1.5" stroke-miterlimit="10" stroke-linecap="round" stroke-linejoin="round"/>
<path d="M258.472 204.625H149.417C146.407 204.625 144 202.218 144 199.208V125.782C144 122.773 146.407 120.366 149.417 120.366H258.472C261.481 120.366 263.889 122.773 263.889 125.782V199.148C263.889 202.157 261.481 204.625 258.472 204.625Z" fill="#00C2FF" stroke="#17005E" stroke-width="1.5" stroke-miterlimit="10" stroke-linecap="round" stroke-linejoin="round"/>
<path d="M195.458 144.981L214.537 155.935C215.861 156.657 215.861 158.523 214.537 159.305L195.458 170.259C194.194 170.981 192.569 170.079 192.569 168.574V146.667C192.569 145.162 194.194 144.259 195.458 144.981Z" fill="#DC4298" stroke="#17005E" stroke-width="1.5" stroke-miterlimit="10" stroke-linecap="round" stroke-linejoin="round"/>
<path d="M204.968 192.167C204.968 192.889 204.366 193.431 203.704 193.431C203.042 193.431 202.44 192.829 202.44 192.167C202.44 191.445 203.042 190.903 203.704 190.903C204.366 190.903 204.968 191.445 204.968 192.167Z" fill="#17005E" stroke="#17005E" stroke-width="1.5" stroke-miterlimit="10" stroke-linecap="round" stroke-linejoin="round"/>
<path d="M165.968 192.167H252.875" stroke="#17005E" stroke-width="1.5" stroke-miterlimit="10" stroke-linecap="round" stroke-linejoin="round"/>
<path d="M248 127.287H256.968" stroke="#17005E" stroke-width="1.5" stroke-miterlimit="10" stroke-linecap="round" stroke-linejoin="round"/>
<path d="M248 130.958H256.968" stroke="#17005E" stroke-width="1.5" stroke-miterlimit="10" stroke-linecap="round" stroke-linejoin="round"/>
<path d="M248 134.63H256.968" stroke="#17005E" stroke-width="1.5" stroke-miterlimit="10" stroke-linecap="round" stroke-linejoin="round"/>
<path d="M159.046 189.639H152.546V194.634H159.046V189.639Z" fill="#E9D1FA" stroke="#17005E" stroke-width="1.5" stroke-miterlimit="10" stroke-linecap="round" stroke-linejoin="round"/>
<path d="M309.472 586.69H207.398C204.389 586.69 201.981 584.282 201.981 581.273V512.782C201.981 509.773 204.389 507.366 207.398 507.366H309.472C312.481 507.366 314.889 509.773 314.889 512.782V581.273C314.889 584.222 312.481 586.69 309.472 586.69Z" fill="#8703F5" stroke="#17005E" stroke-width="1.5" stroke-miterlimit="10" stroke-linecap="round" stroke-linejoin="round"/>
<path d="M250.491 530.537L268.426 540.828C269.63 541.551 269.63 543.296 268.426 544.018L250.491 554.31C249.287 555.032 247.782 554.129 247.782 552.745V532.102C247.722 530.717 249.287 529.815 250.491 530.537Z" fill="#E9D1FA" stroke="#17005E" stroke-width="1.5" stroke-miterlimit="10" stroke-linecap="round" stroke-linejoin="round"/>
<path d="M285.699 574.954C285.699 575.616 285.157 576.157 284.495 576.157C283.833 576.157 283.292 575.616 283.292 574.954C283.292 574.292 283.833 573.75 284.495 573.75C285.157 573.75 285.699 574.292 285.699 574.954Z" fill="#17005E" stroke="#17005E" stroke-width="1.5" stroke-miterlimit="10" stroke-linecap="round" stroke-linejoin="round"/>
<path d="M222.685 574.954H304.537" stroke="#17005E" stroke-width="1.5" stroke-miterlimit="10" stroke-linecap="round" stroke-linejoin="round"/>
<path d="M299.903 513.866H308.389" stroke="#17005E" stroke-width="1.5" stroke-miterlimit="10" stroke-linecap="round" stroke-linejoin="round"/>
<path d="M299.903 517.296H308.389" stroke="#17005E" stroke-width="1.5" stroke-miterlimit="10" stroke-linecap="round" stroke-linejoin="round"/>
<path d="M299.903 520.727H308.389" stroke="#17005E" stroke-width="1.5" stroke-miterlimit="10" stroke-linecap="round" stroke-linejoin="round"/>
<path d="M216.185 572.606H210.046V577.361H216.185V572.606Z" fill="white" stroke="#17005E" stroke-width="1.5" stroke-miterlimit="10" stroke-linecap="round" stroke-linejoin="round"/>
</g>
<defs>
<filter id="filter0_f_727_31535" x="162.689" y="53.2656" width="587.4" height="588.7" filterUnits="userSpaceOnUse" color-interpolation-filters="sRGB">
<feFlood flood-opacity="0" result="BackgroundImageFix"/>
<feBlend mode="normal" in="SourceGraphic" in2="BackgroundImageFix" result="shape"/>
<feGaussianBlur stdDeviation="50" result="effect1_foregroundBlur_727_31535"/>
</filter>
<radialGradient id="paint0_radial_727_31535" cx="0" cy="0" r="1" gradientUnits="userSpaceOnUse" gradientTransform="translate(731.5 466.5) rotate(90) scale(175.5 191.5)">
<stop offset="0.0572917" stop-color="#FF0092" stop-opacity="0.27"/>
<stop offset="1" stop-color="#FF0092" stop-opacity="0"/>
<stop offset="1" stop-color="#FF0092" stop-opacity="0"/>
</radialGradient>
<radialGradient id="paint1_radial_727_31535" cx="0" cy="0" r="1" gradientUnits="userSpaceOnUse" gradientTransform="translate(189 168.5) rotate(90) scale(173.5 189)">
<stop stop-color="#00C2FF" stop-opacity="0.24"/>
<stop offset="0.9999" stop-color="#00C2FF" stop-opacity="0"/>
<stop offset="1" stop-color="white" stop-opacity="0"/>
</radialGradient>
<radialGradient id="paint2_radial_727_31535" cx="0" cy="0" r="1" gradientUnits="userSpaceOnUse" gradientTransform="translate(275.5 530.5) rotate(90) scale(192.5 209.5)">
<stop stop-color="#8E04EC" stop-opacity="0.41"/>
<stop offset="1" stop-color="#8E04EC" stop-opacity="0"/>
</radialGradient>
<clip-path id="clip0_727_31535">
<rect width="923" height="723" fill="white"/>
</clip-path>
</defs>
</svg>
