<svg width="630" height="377" viewBox="0 0 630 377" fill="none" xmlns="http://www.w3.org/2000/svg">
<rect width="619" height="377" fill="url(#paint0_radial_751_32072)"/>
<g clip-path="url(#clip0_751_32072)">
<path d="M592.273 288.002L490.926 287.751L444.565 287.637L434.617 287.613L398.52 287.525L354.527 287.417L316.392 287.325H314.232L304.173 287.301L215.935 287.084L171.638 286.973H167.46L143.187 286.914L79.9318 286.758C79.9318 286.758 1.47331 138.795 107.537 84.012C244.178 13.4272 341.619 115.094 393.959 111.245C470.938 105.579 621.582 62.686 592.273 288.002Z" fill="#00C2FF" fill-opacity="0.21"/>
<path d="M430.817 168.529C430.817 168.529 456.864 128.902 468.015 134.088C479.166 139.274 430.817 168.529 430.817 168.529Z" fill="#00F0FF"/>
<path d="M429.836 175.206C429.836 175.206 485.673 132.777 503.904 144.038C522.135 155.3 489.826 160.944 477.626 162.06C465.425 163.176 429.836 175.206 429.836 175.206Z" fill="#00F0FF"/>
<path d="M425.609 169.009C425.609 169.009 425.534 167.375 425.393 164.99C425.121 160.34 424.603 152.835 423.923 149.016C422.895 143.247 426.54 138.127 432.953 142.744C439.367 147.361 427.18 166.991 427.18 166.991L425.609 169.009Z" fill="#00F0FF"/>
<path d="M237.337 286.992L211.89 286.923C211.094 286.803 210.285 286.803 209.489 286.923L195.547 286.885C190.577 283.211 189.811 272.048 189.811 272.048C193.989 275.005 203.171 275.17 204.016 273.677C204.861 272.185 192.459 268.312 190.689 267.205C188.919 266.098 186.815 261.161 191.423 254.173C196.031 247.184 208.234 253.819 208.234 253.819C208.234 253.819 212.641 270.122 215.102 271.28C217.562 272.437 214.066 256.609 214.066 256.609C219.195 257.754 229.87 267.961 229.87 267.961C229.87 267.961 223.918 283.358 226.589 283.877C229.26 284.395 231.161 269.975 231.161 269.975C235.501 272.985 238.151 280.043 238.151 280.043C238.834 282.872 238.382 285.159 237.337 286.992Z" fill="#00F0FF"/>
<path d="M263.287 167.829C270.707 157.645 288.584 168.478 288.584 168.478C288.584 168.478 294.059 193.291 297.678 195.204C301.297 197.117 297.154 173.076 297.154 173.076C304.784 175.156 320.11 191.247 320.11 191.247C320.11 191.247 310.077 213.978 314.056 214.945C318.036 215.911 321.91 194.374 321.91 194.374C328.22 199.201 331.708 209.998 331.708 209.998C334.872 226.629 313.276 229.821 313.276 229.821C313.276 229.821 309.97 237.774 311.434 248.895C311.434 248.895 311.909 251.023 311.949 254.352L310.006 253.617C310.045 253.037 310.062 252.471 310.053 251.915V251.891C310.034 251.541 310.006 251.044 309.965 250.436C309.813 249.054 309.737 248.048 309.721 247.334C309.328 243.033 308.574 237.325 307.245 235.687C307.525 235.476 307.778 235.231 307.996 234.956L307.245 235.687C301.212 241.524 284.143 236.411 275.606 231.012C267.07 225.613 272.098 224.54 278.694 222.206C285.29 219.872 295.313 224.94 299.031 224.45C302.749 223.96 298.87 220.6 292.518 218.735C286.166 216.871 280.73 221.851 270.397 219.019C260.065 216.188 259.599 194.625 259.599 194.625C265.671 199.362 279.461 200.254 280.839 198.067C282.217 195.881 263.845 189.194 261.268 187.408C258.691 185.622 255.87 178.019 263.287 167.829Z" fill="#00F0FF"/>
<path d="M312.745 274.203C312.745 274.203 310.054 283.604 310.572 287.256L300.383 287.228C300.17 285.171 300.671 282.927 302.392 280.632C302.392 280.632 307.601 275.239 312.745 274.203Z" fill="#00F0FF"/>
<path d="M351.39 287.362L312.76 287.261C314.29 283.384 314.717 272.873 314.717 272.873C314.717 272.873 328.48 267.762 333.606 268.734C333.606 268.734 324.159 281.784 326.849 281.694C329.538 281.604 340.014 268.484 340.014 268.484C340.014 268.484 353.757 267.225 355.191 275.403C356.488 282.745 353.498 286.453 351.39 287.362Z" fill="#00F0FF"/>
<path d="M432.52 287.578L395.954 287.48C398.324 286.471 401.418 285.521 404.74 284.389C413.061 281.556 424.4 285.455 432.52 287.578Z" fill="#00F0FF"/>
<path d="M451.1 287.729L418.001 287.641C418.692 286.181 414.469 283.192 408.355 281.317C400.573 278.93 393.82 284.973 381.16 281.341C368.499 277.709 368.248 251.192 368.248 251.192C375.641 257.105 392.581 258.407 394.306 255.738C396.031 253.07 373.548 244.58 370.406 242.343C367.264 240.106 363.91 230.764 373.18 218.354C382.451 205.944 404.267 219.523 404.267 219.523C404.267 219.523 410.63 250.109 415.049 252.514C419.467 254.919 414.733 225.305 414.733 225.305C424.085 227.972 442.684 247.981 442.684 247.981C442.684 247.981 430.012 275.776 434.891 277.021C439.769 278.267 444.85 251.841 444.85 251.841C452.546 257.868 456.662 271.19 456.662 271.19C458.017 278.813 455.186 284.097 451.1 287.729Z" fill="#00F0FF"/>
<path d="M138.877 202.597C138.877 202.528 137.867 200.448 138.188 200.289C138.509 200.13 139.086 200.153 139.151 200.517C139.217 200.882 138.877 202.597 138.877 202.597Z" fill="#FFB27D"/>
<path d="M123.803 176.742C123.803 176.742 117.881 169.652 114.746 174.187C114.746 174.187 112.407 175.154 111.555 179.12C110.694 183.167 113.393 186.243 114.791 185.479C115.686 184.992 116.364 186.554 116.364 186.554L123.803 176.742Z" fill="#233862"/>
<path d="M131.146 214.464C135.855 212.736 140.388 204.712 140.388 204.712L138.903 203.676C137.667 205.479 132.105 208.938 132.105 208.938C131.977 207.42 131.793 206.042 131.564 204.794C130.02 196.312 126.487 193.798 125.539 193.265C125.462 193.22 125.383 193.179 125.301 193.144C125.301 193.144 125.301 193.207 125.301 193.331C125.314 193.585 125.344 194.101 125.395 194.804C125.772 200.052 127.214 215.91 131.146 214.464Z" fill="#FFB27D"/>
<path d="M115.393 173.47C115.393 173.47 114.605 170.296 109.912 171.289C109.912 171.289 112.15 171.007 112.764 171.867C112.764 171.867 110.99 171.057 109.879 171.734C108.767 172.411 108.585 174.693 108.752 175.386C108.92 176.08 110.145 178.147 110.958 178.147C111.771 178.147 112.734 177.436 112.734 177.436L115.393 173.47Z" fill="#233862"/>
<path d="M108.394 223.126C110.72 217.929 111.833 216.46 111.871 214.825C111.902 213.533 111.262 212.138 110.02 208.718C109.731 207.916 109.523 207.087 109.4 206.243C108.417 199.65 112.244 192.521 114.624 192.031C115.285 191.857 116.407 189.475 116.394 185.637L116.691 185.695L121.7 186.685C121.7 186.685 121.588 188.256 121.584 189.735C121.584 190.967 121.655 192.136 121.935 192.284C122.295 192.315 122.509 192.338 122.509 192.338C122.509 192.338 126.686 198.116 127.037 203.491C127.388 208.865 123.692 211.201 127.065 221.942C130.507 232.916 107.109 225.997 108.394 223.126Z" fill="#FFB27D"/>
<path d="M121.7 186.689C121.7 186.689 121.587 188.26 121.584 189.739C118.779 189.66 117.299 187.111 116.69 185.699L121.7 186.689Z" fill="#E8945B"/>
<path d="M116.175 185.157C116.175 185.157 114.705 182.843 114.352 180.867C114.1 179.455 114.823 174.223 120.101 174.976C121.164 175.123 122.18 175.507 123.074 176.098C124.221 176.869 125.875 178.529 124.024 183.1L123.546 184.642L116.175 185.157Z" fill="#233862"/>
<path d="M122.637 188.089C122.637 188.089 116.006 188.198 116 184.082C115.994 179.966 115.137 177.208 119.379 176.965C123.621 176.721 124.447 178.29 124.775 179.665C125.103 181.039 124.366 187.955 122.637 188.089Z" fill="#FFB27D"/>
<path d="M122.391 176.863C122.391 176.863 120.576 181.691 117.796 182.415C115.017 183.139 113.8 182.385 113.8 182.385C115.173 181.181 116.083 179.539 116.376 177.74C116.376 177.74 121.021 174.561 122.391 176.863Z" fill="#233862"/>
<path d="M121.94 177.256C121.94 177.256 123.297 178.334 123.63 179.383C123.962 180.432 124.108 182.588 124.741 182.515C124.741 182.515 126.109 179.233 124.57 177.376C122.939 175.407 121.94 177.256 121.94 177.256Z" fill="#233862"/>
<path d="M114.266 272.989C115.284 277.007 116.684 280.919 118.446 284.673L120.635 284.521C120.635 284.521 119.561 279.439 119.623 272.57C119.666 267.768 120.263 262.098 122.166 256.675C128.711 238.054 127.653 224.51 127.653 224.51L115.356 225.937L114.784 226.004C114.731 231.635 114.596 239.281 114.457 245.265C114.345 250.642 114.247 254.668 114.247 254.668C111.871 259.738 112.729 266.904 114.266 272.989Z" fill="#163560"/>
<path d="M99.7769 228.646L101.768 229.241C101.768 229.241 108.338 218.383 108.933 215.558C109.121 214.638 109.607 212.798 110.164 210.735C111.317 206.466 112.805 201.241 112.805 201.241L113.295 199.124L114.967 191.911C114.967 191.911 111.765 192.237 109.9 193.016C109.278 193.274 108.805 193.577 108.64 193.951C107.266 196.964 105.892 204.569 104.927 209.994C104.389 213.018 103.978 215.365 103.764 215.863C103.155 217.243 101.327 224.878 99.7769 228.646Z" fill="#FFB27D"/>
<path d="M122.194 177.419C122.194 177.419 120.899 182.468 117.383 184.095C117.383 184.095 120.899 180.989 121.197 177.651C121.496 174.313 122.194 177.419 122.194 177.419Z" fill="#233862"/>
<path d="M106.831 226.878C106.799 227.211 106.825 227.547 106.908 227.871C107.172 228.705 108.085 229.083 110.286 228.857C111.634 228.716 112.235 226.467 112.503 224.555C113.311 227.298 114.447 228.835 115.91 229.165C118.046 229.64 128.825 230.945 129.531 225.84C130.306 220.23 127.983 210.283 127.855 204.922C128.142 203.282 128.273 201.619 128.245 199.955C128.155 196.136 127.031 193.995 126.166 193.135C125.922 192.948 125.676 192.83 124.692 192.662C124.189 192.576 123.493 192.475 122.507 192.35C122.377 192.332 122.245 192.321 122.113 192.318C122.301 192.643 124.741 196.325 124.553 197.273C124.354 198.265 115.696 197.373 115.099 196.826C114.502 196.28 113.558 192.106 113.558 192.106C113.558 192.106 110.491 192.439 108.991 193.526L109.008 193.545C108.847 193.651 108.712 193.792 108.614 193.958C107.013 196.995 105.423 204.654 104.297 210.117C107.02 211.613 109.4 211.168 110.14 210.97C109.162 217.255 106.973 224.011 106.831 226.878Z" fill="#F99746"/>
<path d="M138.903 203.676C138.903 203.472 138.732 200.52 139.259 199.901C139.787 199.282 140.862 198.405 141.202 198.425C141.542 198.446 142.865 200.205 142.467 201.55C142.069 202.895 140.387 204.712 140.387 204.712L138.903 203.676Z" fill="#FFB27D"/>
<path d="M136.474 200.067L139.543 200.983C139.646 201.013 139.753 200.955 139.784 200.854L141.538 195.023C141.568 194.921 141.51 194.813 141.408 194.783L138.339 193.867C138.236 193.836 138.129 193.894 138.098 193.996L136.344 199.827C136.314 199.929 136.372 200.036 136.474 200.067Z" fill="#F1A34F"/>
<path d="M137.284 200.304L140.067 201.134C140.11 201.147 140.155 201.152 140.2 201.147C140.245 201.143 140.288 201.129 140.328 201.108C140.367 201.087 140.402 201.058 140.431 201.024C140.459 200.989 140.48 200.949 140.493 200.906L142.162 195.358C142.188 195.271 142.178 195.178 142.135 195.099C142.092 195.02 142.02 194.961 141.933 194.935L139.148 194.103C139.061 194.077 138.968 194.087 138.888 194.13C138.809 194.172 138.749 194.245 138.723 194.331L137.055 199.879C137.029 199.966 137.039 200.059 137.081 200.139C137.124 200.218 137.197 200.278 137.284 200.304Z" fill="#D86713"/>
<path d="M107.207 271.934C107.914 279.458 111.04 284.333 111.04 284.333L112.102 285.298C112.102 285.298 113.072 279.789 113.772 273.481C113.025 273.526 109.774 273.644 107.207 271.934Z" fill="#FFB27D"/>
<path d="M114.265 272.989C115.283 277.007 116.683 280.92 118.445 284.673L120.634 284.522C120.634 284.522 119.56 279.439 119.622 272.57C118.881 272.942 117.349 273.32 114.265 272.989Z" fill="#D9935C"/>
<path d="M117.186 286.501H118.583C119.052 286.428 119.398 286.291 119.876 286.23C120.604 286.134 120.94 286.432 121.002 286.501L121.016 286.514H126.947C127.097 286.302 126.947 285.811 126.814 285.448C126.766 285.326 126.69 285.217 126.592 285.129C126.494 285.042 126.377 284.978 126.25 284.943C125.622 284.756 124.373 284.599 123.247 283.576C122.609 283 120.163 281.461 120.163 281.461H120.15C120.096 281.461 119.841 281.541 118.727 282.476C118.153 282.959 117.171 281.794 117.171 281.794C117.037 281.917 116.928 282.065 116.85 282.23C116.712 282.51 116.667 282.828 116.723 283.136C116.811 283.668 116.526 284.659 116.299 285.326C116.16 285.732 116.043 286.02 116.043 286.02C116.043 286.02 115.987 286.351 117.186 286.501Z" fill="#233862"/>
<path d="M116.857 282.225C117.191 282.459 117.895 282.919 118.359 282.973C118.99 283.056 120.168 281.453 120.168 281.453H120.155C120.101 281.453 119.846 281.534 118.732 282.469C118.158 282.951 117.176 281.786 117.176 281.786C117.042 281.91 116.934 282.059 116.857 282.225V282.225Z" fill="#466AA5"/>
<path d="M117.187 286.5H118.583C119.053 286.427 119.398 286.291 119.877 286.229C120.605 286.134 120.941 286.431 121.003 286.5L121.016 286.513H126.947C127.097 286.302 126.947 285.81 126.814 285.448C126.626 285.289 126.583 286.141 126.484 286.276C126.384 286.411 121.645 286.326 121.371 286.128C121.097 285.93 120.276 285.582 119.131 285.855C118.135 286.093 116.667 285.481 116.305 285.322C116.166 285.728 116.049 286.016 116.049 286.016C116.049 286.016 115.987 286.351 117.187 286.5Z" fill="#466AA5"/>
<path d="M109.736 286.501H111.133C111.6 286.428 111.946 286.291 112.424 286.23C113.154 286.134 113.489 286.432 113.551 286.501L113.564 286.514H119.495C119.643 286.302 119.495 285.811 119.36 285.448C119.312 285.326 119.236 285.216 119.139 285.129C119.041 285.041 118.924 284.977 118.797 284.943C118.168 284.756 116.929 284.599 115.794 283.576C115.153 283 112.708 281.461 112.708 281.461H112.695C112.64 281.461 112.385 281.541 111.272 282.476C110.697 282.959 109.718 281.794 109.718 281.794C109.583 281.917 109.473 282.065 109.395 282.23C109.258 282.511 109.214 282.829 109.269 283.136C109.357 283.668 109.072 284.659 108.843 285.326C108.704 285.732 108.588 286.02 108.588 286.02C108.588 286.02 108.535 286.351 109.736 286.501Z" fill="#233862"/>
<path d="M109.408 282.225C109.742 282.459 110.446 282.919 110.91 282.973C111.539 283.056 112.717 281.453 112.717 281.453H112.704C112.65 281.453 112.395 281.534 111.281 282.469C110.707 282.951 109.727 281.786 109.727 281.786C109.593 281.91 109.485 282.06 109.408 282.225V282.225Z" fill="#466AA5"/>
<path d="M109.737 286.5H111.133C111.601 286.427 111.946 286.291 112.425 286.229C113.155 286.134 113.489 286.431 113.551 286.5L113.564 286.513H119.495C119.644 286.302 119.495 285.81 119.36 285.448C119.173 285.289 119.129 286.141 119.03 286.276C118.93 286.411 114.191 286.326 113.917 286.128C113.643 285.93 112.823 285.582 111.68 285.855C110.683 286.093 109.215 285.481 108.851 285.322C108.712 285.728 108.596 286.016 108.596 286.016C108.596 286.016 108.536 286.351 109.737 286.5Z" fill="#466AA5"/>
<path d="M125.798 192.951C125.798 192.951 129.927 195.025 131.311 203.394C131.311 203.394 129.957 205.245 128.048 205.791C127.772 205.87 127.487 205.919 127.2 205.935C124.856 206.058 125.798 192.951 125.798 192.951Z" fill="#F99746"/>
<path d="M141.518 198.653C141.518 198.653 140.239 196.693 139.928 196.801C139.481 196.956 141.086 199.444 141.086 199.444C141.086 199.444 139.898 197.585 139.712 197.725C139.288 198.043 139.961 199.221 140.63 200.106C140.63 200.106 139.434 199.015 139.395 199.212C139.259 199.9 140.709 201.568 140.709 201.568L141.518 199.724V198.653Z" fill="#FFB27D"/>
<path d="M142.477 200.47C142.415 200.231 142.101 195.552 141.97 195.995C141.839 196.439 141.518 198.894 141.518 198.894L142.477 200.47Z" fill="#FFB27D"/>
<path d="M121.342 185.645C121.342 185.645 121.456 186.131 122.667 186.056C122.667 186.056 123.684 185.993 123.653 185.46C123.653 185.46 122.676 185.08 121.342 185.645Z" fill="white"/>
<path d="M99.7771 228.647C99.7771 228.647 97.3764 230.236 97.0085 230.908C96.6406 231.579 95.7847 234.047 95.7847 234.047C95.7847 234.047 96.3966 234.139 97.0085 233.071C97.6204 232.003 99.6363 232.097 100.312 231.517C100.988 230.938 101.769 229.241 101.769 229.241L99.7771 228.647Z" fill="#FFB27D"/>
<path d="M101.498 229.765C101.498 229.765 101.098 231.635 100.608 232.196C100.118 232.757 99.4464 233.658 99.1704 233.413C98.8945 233.168 99.4764 231.128 99.4764 231.128L101.498 229.765Z" fill="#FFB27D"/>
<path d="M97.3364 231.121C97.2764 231.212 95.1647 233.447 95.1647 233.447C95.1647 233.447 95.9305 233.793 96.1445 233.447C96.3585 233.101 97.3364 231.121 97.3364 231.121Z" fill="#FFB27D"/>
<path d="M271.147 120.878L290.722 123.905L277.818 114.91L277.122 117.734L272.341 118.536L271.147 120.878Z" fill="#9EC3F6"/>
<path d="M290.723 123.906L274.507 115.324L258.525 114.327L290.723 123.906Z" fill="white"/>
<path d="M277.818 114.911L290.723 123.906L280.819 109.972L277.818 114.911Z" fill="white"/>
<path d="M557.738 176.867L541.708 179.145L552.345 171.923L552.886 174.238L556.785 174.941L557.738 176.867Z" fill="#9EC3F6"/>
<path d="M541.708 179.145L555.048 172.293L568.12 171.639L541.708 179.145Z" fill="white"/>
<path d="M552.345 171.923L541.708 179.145L549.943 167.855L552.345 171.923Z" fill="white"/>
<path d="M156.286 159.173H253.702V184.659H184.43V211.788H245.47V237.282H184.43V286.625H156.286V159.173Z" fill="#00BDD7"/>
<path d="M296.081 161.697H321.342L374.712 286.652H346.069L334.683 258.825H282.034L270.648 286.652H242.71L296.081 161.697ZM324.9 234.721L308.355 194.487L291.811 234.721H324.9Z" fill="#00BDD7"/>
<path d="M476.354 275.772C465.858 282.504 453.227 286.407 439.351 286.407C400.925 286.407 373.35 257.87 373.35 222.245C373.35 186.974 401.281 158.084 439.707 158.084C478.133 158.084 505.708 186.619 505.708 222.245C505.708 235.184 501.794 247.59 494.677 257.87L507.487 268.682L490.052 288.002L476.354 275.772ZM456.082 257.87C456.082 257.87 468.512 251.498 473.694 239.614C475.946 234.449 477.073 228.804 477.073 222.245C477.073 200.975 461.418 183.253 439.358 183.253C417.298 183.253 402.006 200.622 402.006 222.245C402.006 243.513 417.66 261.238 439.72 261.238C445.755 261.238 451.271 259.998 456.075 257.87H456.082Z" fill="#00BDD7"/>
<path d="M440.855 220.386C440.855 220.386 438.755 223.483 437.557 229.991C436.51 235.689 435.59 237.795 434.075 238.967C432.561 240.14 424.127 243.586 424.127 243.586L424.758 245.06C424.758 245.06 437.127 243.377 438.516 241.32C439.905 239.263 445.202 227.091 444.791 224.287C444.38 221.484 440.855 220.386 440.855 220.386Z" fill="#F4A269"/>
<path d="M406.51 285.455C406.384 286.656 404.68 286.616 402.756 286.332C400.832 286.048 401.328 286.553 398.627 286.508C395.926 286.463 395.013 285.541 394.893 285.15C394.788 284.806 396.1 284.557 397.506 284.262C397.682 284.226 397.861 284.187 398.037 284.148C399.623 283.798 400.703 282.652 402.08 281.676C403.394 280.741 405.138 277.285 405.138 277.285L408.841 277.232C408.841 277.232 407.186 280.331 406.559 281.67C406.183 282.457 406.305 283.443 406.431 284.2C406.514 284.613 406.54 285.035 406.51 285.455V285.455Z" fill="#FFB27D"/>
<path d="M402.753 286.326C400.827 286.044 401.324 286.547 398.623 286.502C395.922 286.457 395.01 285.535 394.89 285.144C394.785 284.8 396.097 284.552 397.503 284.256L397.52 284.282C398.734 284.908 400.096 285.195 401.461 285.114C403.284 284.989 405.161 284.29 406.418 284.194C406.505 284.607 406.535 285.029 406.508 285.449C406.385 286.65 404.68 286.61 402.753 286.326Z" fill="#C65447"/>
<path d="M446.646 245.573C446.646 245.573 422.369 245.69 417.836 248.54C413.303 251.39 402.989 280.741 402.989 280.741C402.989 280.741 403.792 281.793 404.789 281.93C406.39 282.151 407.299 281.528 407.299 281.528C407.299 281.528 421.123 267.828 421.859 264.088C422.594 260.348 422.422 257.008 424.09 256.918C425.759 256.828 446.65 259.448 449.805 253.904C452.96 248.359 450.353 242.87 450.353 242.87L446.646 245.573Z" fill="#EF7E29"/>
<path d="M419.407 284.894C419.381 286.1 417.68 286.203 415.736 286.081C413.791 285.96 414.332 286.42 411.629 286.599C408.926 286.779 407.946 285.937 407.794 285.56C407.659 285.225 408.946 284.868 410.322 284.456C410.497 284.406 410.67 284.351 410.842 284.299C412.394 283.817 413.372 282.592 414.662 281.494C415.886 280.458 417.34 276.864 417.34 276.864L421.027 276.503C421.027 276.503 419.638 279.731 419.125 281.116C418.825 281.932 419.022 282.904 419.212 283.648C419.332 284.053 419.398 284.472 419.407 284.894Z" fill="#FFB27D"/>
<path d="M415.736 286.083C413.793 285.962 414.332 286.422 411.629 286.601C408.926 286.781 407.946 285.939 407.794 285.562C407.659 285.227 408.946 284.87 410.322 284.458L410.341 284.483C411.607 285.007 412.992 285.179 414.348 284.982C416.154 284.705 417.967 283.86 419.212 283.652C419.33 284.057 419.393 284.475 419.399 284.896C419.381 286.102 417.68 286.203 415.736 286.083Z" fill="#C65447"/>
<path d="M451.354 247.059C451.354 247.059 429.969 248.067 425.553 251.091C421.136 254.115 414.925 279.574 414.925 279.574C414.925 279.574 415.854 280.799 416.802 281.137C418.007 281.567 419.633 281.081 419.633 281.081C419.633 281.081 428.218 270.775 428.808 267.007C429.397 263.239 430.309 261.303 431.989 261.148C433.669 260.993 450.07 264.187 457.571 257.139C462.235 252.763 451.354 247.059 451.354 247.059Z" fill="#F99746"/>
<path d="M444.034 218.683C443.619 217.958 443.121 216.653 442.763 214.293C442.81 214.526 443.422 217.492 444.69 219.11C449.642 221.9 457.467 232.374 457.418 234.349C457.418 234.349 462.225 228.009 462.278 227.972C462.278 227.972 467.686 220.094 460.401 216.269C456.696 214.326 456.527 211.527 456.512 209.088C456.497 206.65 454.678 196.262 447.731 199.473C447.731 199.473 446.552 199.041 446.042 199.151C446.277 199.181 446.501 199.27 446.693 199.409C445.864 199.409 444.685 199.553 443.735 200.178C441.218 201.831 439.769 215.265 444.034 218.683Z" fill="#B5453C"/>
<path d="M452.253 216.825C450.927 216.716 449.595 216.716 448.27 216.825C447.083 216.951 445.92 217.243 444.814 217.69C442.937 218.474 443.125 221.804 447.081 221.184C451.038 220.563 452.53 217.808 452.253 216.825Z" fill="#FFB27D"/>
<path d="M444.981 219.256C444.957 219.267 444.418 222.115 447.007 222.001C448.696 221.926 452.371 219.879 452.048 218.427C451.894 217.737 450.61 215.95 450.359 211.869L450.049 211.951L444.846 213.341C444.846 213.341 445.077 214.987 445.184 216.542C445.269 217.842 445.272 219.088 444.981 219.256Z" fill="#FFB27D"/>
<path d="M444.839 213.331C444.839 213.331 445.07 214.976 445.177 216.532C448.122 216.254 449.494 213.469 450.042 211.941L444.839 213.331Z" fill="#F4A269"/>
<path d="M450.549 211.332C450.549 211.332 451.932 208.796 452.163 206.691C452.328 205.195 451.2 199.73 445.699 200.894C444.59 201.123 443.548 201.597 442.649 202.281C441.496 203.173 439.873 205.039 442.14 209.716L442.754 211.308L450.549 211.332Z" fill="#B5453C"/>
<path d="M443.953 214.872C443.953 214.872 450.941 214.522 450.655 210.197C450.37 205.871 451.08 202.903 446.607 202.941C442.134 202.978 441.376 204.691 441.117 206.159C440.858 207.627 442.126 214.849 443.953 214.872Z" fill="#FFB27D"/>
<path d="M443.42 203.038C443.42 203.038 445.672 207.994 448.655 208.551C451.637 209.108 452.859 208.241 452.859 208.241C451.327 207.071 450.25 205.406 449.815 203.532C449.815 203.532 444.7 200.525 443.42 203.038Z" fill="#B5453C"/>
<path d="M443.921 203.42C443.921 203.42 442.569 204.65 442.295 205.776C442.021 206.902 442.017 209.183 441.347 209.142C441.347 209.142 439.677 205.776 441.16 203.719C442.742 201.544 443.921 203.42 443.921 203.42Z" fill="#B5453C"/>
<path d="M436.961 245.935C437.524 246.608 439.292 246.816 441.179 247.124C442.663 247.369 444.223 247.685 445.332 248.325C447.851 249.799 456.082 254.779 458.496 254.552C459.434 254.464 459.247 252.682 458.684 250.326C457.792 246.597 455.924 241.423 455.924 239.171C455.924 237.943 455.515 235.036 454.967 231.713C454.922 231.444 454.877 231.175 454.832 230.902C453.747 224.441 452.247 216.822 452.247 216.822C452.247 216.822 450.573 220.459 447.313 220.459C444.052 220.459 444.809 217.686 444.809 217.686C444.809 217.686 441.832 218.034 441.13 218.79C440.428 219.545 438.643 222.805 438.29 223.695C438.29 223.695 438.217 224.817 441.03 225.365C441.03 225.365 440.345 228.437 440.265 230.485C440.203 231.998 441.301 236.733 441.616 239.678C441.727 240.721 441.742 241.548 441.571 241.911C441.353 242.386 440.649 242.861 439.85 243.325C438.266 244.246 436.289 245.135 436.961 245.935Z" fill="#2B478B"/>
<path d="M439.855 243.325C438.05 246.392 444.751 247.314 445.862 247.963C448.381 249.436 456.084 254.779 458.498 254.553C459.436 254.465 459.249 252.683 458.686 250.326C457.794 246.597 455.926 241.423 455.926 239.171C455.926 237.943 455.517 235.037 454.969 231.714L452.065 228.935C452.065 228.935 448.953 236.948 445.988 238.261C444.578 238.865 443.115 239.34 441.618 239.678C441.729 240.722 441.744 241.548 441.573 241.911C441.359 242.386 440.655 242.861 439.855 243.325Z" fill="#233862"/>
<path d="M453.144 219.219C453.144 219.219 455.628 217.723 458.025 220.568C460.422 223.412 456.318 243.786 452.769 244.831C448.827 245.995 437.406 244.644 437.406 244.644L437.625 242.868C437.625 242.868 449.775 240.547 450.28 239.9C450.785 239.253 451.883 219.548 453.144 219.219Z" fill="#FFB27D"/>
<path d="M452.253 216.824C452.253 216.824 457.351 217.284 458.832 218.954C460.313 220.624 460.746 225.152 460.746 225.152C460.746 225.152 456.254 228.764 450.845 227.362L452.253 216.824Z" fill="#2B478B"/>
<path d="M438.612 242.764C438.612 242.764 434.656 242.001 434.209 242.192C433.762 242.382 431.275 244.608 431.531 245.053C431.786 245.498 432.807 245.816 433.954 245.427C435.101 245.038 437.591 244.855 438.038 244.282C438.485 243.71 438.612 242.764 438.612 242.764Z" fill="#FFB27D"/>
<path d="M435.427 247.91H442.162V247.117H435.427V247.91Z" fill="#9E332E"/>
<path d="M436.859 247.801C436.793 247.539 430.665 237.957 430.665 237.957H417.036L423.872 247.545L436.859 247.801Z" fill="#9E332E"/>
<path d="M436.285 247.909C436.22 247.648 430.074 237.957 430.074 237.957H417.041L423.544 247.909H436.285Z" fill="#B5453C"/>
<path d="M424.794 242.965C424.867 243.161 424.996 243.332 425.164 243.456C425.333 243.581 425.534 243.655 425.743 243.668C426.132 243.668 426.34 243.354 426.205 242.965C426.132 242.771 426.005 242.601 425.839 242.477C425.673 242.352 425.474 242.278 425.267 242.262C424.873 242.256 424.66 242.578 424.794 242.965Z" fill="#9E332E"/>
<path d="M531.64 214.58C531.64 214.58 534.891 216.422 535.801 216.422C536.711 216.422 540.285 215.734 541.28 216.235C542.275 216.736 544.079 218.782 544.418 219.448C545.027 220.647 541.969 220.118 540.524 219.096C540.42 219.023 540.303 218.972 540.179 218.947C540.055 218.921 539.927 218.922 539.803 218.949C539.052 219.111 537.5 219.392 536.749 219.115C535.739 218.741 530.422 218.33 530.422 218.33L531.64 214.58Z" fill="#EA9963"/>
<path d="M506.898 189.495C506.898 189.495 510.277 213.362 515.851 215.5C518.605 216.555 530.775 218.946 534.375 219.188C534.375 219.188 535.257 218.473 535.044 215.573C535.044 215.573 522.291 210.909 520.48 208.371C517.785 204.598 522.154 192.949 518.77 189.403C515.386 185.858 509.693 184.336 506.898 189.495Z" fill="#ED7D2B"/>
<path d="M508.039 239.781C509.026 241.419 510.126 242.987 511.331 244.473C514.954 249.031 518.897 252.787 519.59 256.339C519.745 257.111 519.958 257.87 520.226 258.611C520.513 259.424 520.868 260.281 521.277 261.165C522.814 264.492 525.114 268.219 527.409 271.608C531.377 277.466 535.105 282.355 535.105 282.355L541.947 282.063C541.673 281.38 538.688 273.292 534.696 263.407L529.688 251.011L529.025 249.371L527.524 245.664C523.77 236.383 520.789 228.993 520.789 228.993C520.789 228.993 505.805 223.338 504.249 227.001C502.969 230.023 504.014 232.982 508.039 239.781Z" fill="#233862"/>
<path d="M535.316 281.115C535.316 281.115 535.667 286.74 536.759 286.82C536.904 286.831 542.3 286.831 542.3 286.831L549.187 286.792C549.187 286.792 549.142 285.137 547.122 284.787C545.102 284.438 541.739 283.029 540.519 280.378C539.243 277.59 535.316 281.115 535.316 281.115Z" fill="#163560"/>
<path d="M511.003 263.422C511.003 263.422 505.889 265.832 506.219 266.874C506.264 267.012 508.265 272.003 508.265 272.003L510.859 278.362C510.859 278.362 512.383 277.707 511.963 275.716C511.542 273.724 511.604 270.081 513.622 267.97C515.745 265.746 511.003 263.422 511.003 263.422Z" fill="#163560"/>
<path d="M512.825 269.036C512.825 269.036 509.953 266.141 509.43 264.224C509.43 264.224 519.308 254.659 522.839 252.336C526.893 249.671 529.525 249.656 528.875 249.002C526.743 246.863 508.838 240.622 505.923 236.099C505.057 234.773 504.423 233.31 504.046 231.773C503.386 229.015 503.908 227.111 503.908 227.111L526.18 226.47C526.18 226.47 542.739 243.583 542.645 250.032C542.536 256.991 512.825 269.036 512.825 269.036Z" fill="#2B478B"/>
<path d="M520.08 187.992C515.575 189.152 508.104 185 508.104 185C508.104 185 511.004 183.059 512.08 178.792C512.134 178.578 512.183 178.358 512.226 178.132L514.541 177.642L517.983 180.714C517.882 181.879 517.712 183.037 517.473 184.181C517.399 184.564 517.312 184.974 517.214 185.412C518.319 186.09 519.29 186.965 520.08 187.992V187.992Z" fill="#FFB27D"/>
<path d="M503.332 206.599C503.977 215.246 503.129 228.398 503.861 230.676C504.493 232.642 511.692 231.473 514.56 230.816C515.624 230.573 516.912 230.227 518.242 229.818C521.953 228.671 525.998 227.037 526.432 225.823C526.449 225.778 526.462 225.731 526.471 225.683C526.512 225.516 526.512 225.342 526.471 225.174C526.327 224.557 525.769 223.888 525.703 222.356C525.63 220.645 525.642 218.631 525.578 216.466C525.578 216.221 525.578 215.955 525.544 215.718V215.63C525.544 215.583 525.544 215.538 525.544 215.491C525.482 213.075 525.356 210.536 525.208 208.011C525.116 206.429 525.007 204.862 524.883 203.362C524.559 199.488 524.123 196.043 523.545 193.866C522.606 190.313 520.521 188 518.629 186.302L517.259 185.133C515.731 185.464 513.923 185.243 512.289 184.473C510.52 183.635 509.909 183.037 509.601 183.263C505.511 186.405 502.581 196.026 503.332 206.599Z" fill="#F99746"/>
<path d="M518.249 229.817C521.96 228.671 526.005 227.036 526.439 225.823C526.456 225.777 526.469 225.73 526.478 225.682C526.478 225.514 526.478 225.344 526.478 225.174C526.334 224.557 525.776 223.887 525.71 222.355C525.637 220.644 525.649 218.63 525.585 216.465C525.585 216.22 525.585 215.954 525.551 215.717V215.629C525.551 215.582 525.551 215.537 525.551 215.491L510.535 196.44C510.535 196.44 500.45 217.364 518.249 229.817Z" fill="#ED7D2B"/>
<path d="M517.983 180.706C517.882 181.871 517.712 183.029 517.473 184.173C514.113 183.092 512.592 180.059 512.08 178.784C512.135 178.571 512.183 178.35 512.226 178.124L514.541 177.634L517.983 180.706Z" fill="#EA9963"/>
<path d="M518.433 182.64C518.433 182.64 511.113 181.421 511.937 176.886C512.761 172.351 512.384 169.138 517.099 169.725C521.814 170.313 522.401 172.207 522.493 173.787C522.585 175.367 520.363 182.84 518.433 182.64Z" fill="#FFB27D"/>
<path d="M547.257 221.473L547.903 221.683L553.402 204.822L552.756 204.613L547.257 221.473Z" fill="#00F0FF"/>
<path d="M529.246 221.289L547.915 221.686L547.938 220.573L529.27 220.177L529.246 221.289Z" fill="#00F0FF"/>
<path d="M529.634 222.144C529.634 222.144 535.64 223.721 537.881 223.554C540.122 223.388 542.001 222.324 542.285 221.767C542.568 221.209 543.163 220.224 541.632 220.407C540.1 220.59 538.009 220.912 537.945 220.62C537.881 220.329 539.193 220.355 539.193 220.355C539.193 220.355 539.589 219.779 539.09 219.758C538.591 219.738 537.132 219.343 536.59 219.614C536.047 219.885 535.548 220.878 535.154 220.837C534.76 220.796 530.133 218.763 530.133 218.763L529.634 222.144Z" fill="#FFB27D"/>
<path d="M508.399 190.475C508.399 190.475 509.109 214.567 514.419 217.305C517.047 218.657 528.872 222.369 532.423 223.003C532.423 223.003 533.378 222.391 533.485 219.485C533.485 219.485 521.328 213.449 519.808 210.728C517.546 206.679 523.186 195.581 520.209 191.689C517.233 187.797 511.735 185.653 508.399 190.475Z" fill="#F99746"/>
<path d="M512.08 178.783C512.08 178.783 511.996 177.227 512.959 176.337C512.959 176.337 512.625 174.776 513.244 174.52C513.863 174.263 513.995 175.574 514.276 175.369C514.558 175.163 515.825 174.185 516.367 172.751C516.91 171.316 521.871 173.055 522.449 173.312C523.027 173.568 524.889 172.62 525.246 171.849C525.246 171.849 524.213 171.026 523.744 170.409C523.275 169.792 520.026 165.626 515.485 166.808C510.945 167.989 510.323 170.151 510.581 172.003C510.838 173.854 510.22 178.162 512.08 178.783Z" fill="#2B478B"/>
<path d="M371.845 195.268C371.346 196.603 370.482 198.153 369.576 198.539C369.007 198.757 368.504 199.12 368.119 199.591L367.288 199.113L366.297 198.539C366.297 198.539 366.321 198.428 366.368 198.249C366.415 198.069 366.492 197.824 366.591 197.549C366.681 197.423 366.738 197.277 366.759 197.124C366.779 196.971 366.763 196.816 366.71 196.67C366.612 196.391 366.577 196.094 366.606 195.799C366.635 195.505 366.728 195.22 366.879 194.965C367.196 194.505 367.504 193.372 367.695 193.405C368.159 193.484 367.466 195.044 367.665 195.333C367.706 195.41 367.775 195.468 367.858 195.496C367.94 195.524 368.03 195.52 368.11 195.485H368.119C369.42 194.924 370.997 191.844 371.686 192.259C371.956 192.409 372.057 194.699 371.845 195.268Z" fill="#FFB27D"/>
<path d="M367.344 197.127L368.974 198.268C369.029 198.306 369.098 198.321 369.165 198.31C369.231 198.298 369.291 198.261 369.33 198.206L373.505 192.289C373.543 192.234 373.559 192.165 373.547 192.099C373.536 192.032 373.498 191.973 373.443 191.934L371.814 190.793C371.758 190.754 371.689 190.739 371.622 190.751C371.556 190.762 371.496 190.8 371.457 190.855L367.282 196.772C367.244 196.827 367.228 196.895 367.24 196.962C367.252 197.029 367.289 197.088 367.344 197.127V197.127Z" fill="#2B478B"/>
<path d="M368.836 198.172L369.792 198.84C369.812 198.856 369.836 198.867 369.861 198.873C369.886 198.879 369.912 198.88 369.937 198.875C369.962 198.871 369.986 198.861 370.008 198.847C370.029 198.833 370.048 198.815 370.062 198.793L374.308 192.777C374.337 192.735 374.348 192.683 374.339 192.632C374.33 192.581 374.301 192.536 374.259 192.506L373.304 191.839C373.283 191.823 373.259 191.812 373.234 191.806C373.209 191.8 373.184 191.799 373.158 191.804C373.133 191.808 373.109 191.817 373.087 191.832C373.066 191.846 373.047 191.864 373.033 191.885L368.789 197.901C368.773 197.922 368.762 197.945 368.756 197.97C368.75 197.996 368.749 198.022 368.753 198.047C368.758 198.073 368.767 198.097 368.781 198.118C368.796 198.14 368.814 198.158 368.836 198.172Z" fill="#233862"/>
<path d="M343.974 188.637C343.974 188.637 352.264 203.036 355.273 205.695L366.3 197.503C366.804 197.681 367.267 197.957 367.662 198.316C368.057 198.675 368.377 199.108 368.602 199.591C368.602 199.591 361.905 213.187 355.311 213.763C348.717 214.339 339.461 197.469 339.461 197.469L343.974 188.637Z" fill="#233862"/>
<path d="M325.204 286.625H320.418C319.815 286.3 319.278 285.554 319.104 284.439C318.871 282.902 317.14 282.064 316.767 280.805C316.393 279.547 318.31 277.778 318.31 277.778L318.631 277.366L318.965 276.938L322.143 277.686C322.143 277.686 322.221 278.434 322.27 279.403C322.304 280.095 322.323 280.899 322.283 281.6C322.19 283.283 322.755 285.082 324.25 285.41C325.36 285.641 325.311 286.302 325.204 286.625Z" fill="#233862"/>
<path d="M353.009 286.625H342.053C341.528 285.985 341.721 283.622 341.802 282.849C341.817 282.694 341.828 282.602 341.828 282.602C341.828 282.602 345.569 279.622 346.083 281.905C346.1 281.976 346.119 282.047 346.139 282.116C346.787 284.25 349.691 285.22 351.367 285.482C352.457 285.667 352.859 286.232 353.009 286.625Z" fill="#233862"/>
<path d="M350.919 225.703C350.919 225.703 350.356 232.765 349.684 241.251C348.775 252.782 347.685 266.943 347.576 269.627C347.388 274.285 346.638 281.737 346.638 281.737C346.638 281.737 344.862 283.508 341.307 282.762C341.307 282.762 338.14 272.123 337.236 260.868C337.223 260.681 337.208 260.494 337.194 260.307C336.352 248.847 335.043 224.72 335.043 224.72L350.919 225.703Z" fill="#F99746"/>
<path d="M350.919 225.703C350.919 225.703 350.356 232.764 349.684 241.251L337.24 260.867C337.227 260.68 337.212 260.493 337.198 260.306C336.356 248.847 335.047 224.719 335.047 224.719L350.919 225.703Z" fill="#ED7D2B"/>
<path d="M348.328 226.548C348.328 226.548 338.089 252.121 331.357 264.136C324.624 276.151 322.522 279.508 322.522 279.508C322.522 279.508 318.664 277.97 318.313 276.921C318.313 276.921 320.887 253.722 325.395 248.067C327.944 244.871 330.936 235.281 331.077 231.926C331.218 228.571 331.987 221.935 331.987 221.935L348.328 226.548Z" fill="#F99746"/>
<path d="M345.779 189.263C341.778 190.52 334.855 187.126 334.855 187.126C334.855 187.126 338.544 184.367 338.35 178.632L341.445 181.115L343.546 182.798C343.517 183.715 343.438 184.629 343.307 185.536C343.247 185.994 343.172 186.505 343.077 187.064C344.105 187.626 345.021 188.371 345.779 189.263Z" fill="#FFB27D"/>
<path d="M343.545 182.804C343.517 183.72 343.437 184.634 343.307 185.542C340.98 185.143 338.337 181.394 338.337 181.394C339.341 181.083 340.401 180.988 341.445 181.115L343.545 182.804Z" fill="#ED975D"/>
<path d="M344.77 182.709C344.77 182.709 338.161 183.803 337.541 179.693C336.922 175.582 335.649 172.96 339.843 172.082C344.036 171.203 345.098 172.656 345.637 173.978C346.176 175.3 346.472 182.318 344.77 182.709Z" fill="#FFB27D"/>
<path d="M351.363 226.29C351.247 226.393 351.098 226.45 350.943 226.451C349.441 226.431 345.058 227.263 341.351 226.883C338.226 226.584 335.459 225.662 332.49 224.334C332.096 224.158 331.187 223.676 331.208 223.236C331.221 222.756 331.268 222.058 331.328 221.179C331.538 218.124 331.906 212.869 331.548 206.808C331.484 205.679 331.45 204.562 331.446 203.457C331.416 195.242 333.051 188.016 336.327 185.57C336.608 185.37 338.331 186.208 339.914 186.986C341.248 187.642 342.768 187.825 344.221 187.506L345.603 188.723C347.292 190.281 349.13 192.396 349.931 195.61C350.612 198.344 351.012 203.277 351.234 208.385C351.333 210.702 351.421 213.037 351.435 215.253V215.332C351.453 215.551 351.453 215.792 351.453 216.011C351.543 221.699 351.463 226.21 351.363 226.29Z" fill="#2B478B"/>
<path d="M331.328 221.18C331.539 218.124 331.907 212.869 331.548 206.808C331.484 205.679 331.45 204.562 331.447 203.457C332.815 200.149 333.934 197.75 333.934 197.75H337.384C337.384 197.75 339.914 214.964 331.328 221.18Z" fill="#233862"/>
<path d="M313.657 240.686L328.37 242.775C329.293 242.904 330.23 242.663 330.976 242.106C331.721 241.549 332.215 240.72 332.35 239.801L333.258 233.443C333.386 232.524 333.144 231.591 332.585 230.848C332.026 230.105 331.194 229.613 330.272 229.479L315.558 227.39C314.635 227.262 313.699 227.503 312.954 228.061C312.209 228.618 311.715 229.447 311.581 230.365L310.672 236.723C310.543 237.643 310.784 238.576 311.344 239.318C311.903 240.061 312.734 240.553 313.657 240.686Z" fill="#233862"/>
<path d="M331.103 231.378C330.895 230.857 330.565 230.392 330.141 230.023C329.717 229.654 329.21 229.391 328.663 229.256C328.551 229.228 328.438 229.206 328.324 229.19L325.394 228.775L325.581 227.405C325.624 227.1 325.543 226.792 325.358 226.547C325.173 226.301 324.897 226.139 324.592 226.096L323.828 225.987L320.752 225.55L320.189 225.471C319.883 225.429 319.574 225.509 319.327 225.693C319.081 225.878 318.918 226.153 318.875 226.456L318.687 227.827L313.63 227.109C312.703 226.98 311.762 227.223 311.014 227.784C310.266 228.345 309.771 229.178 309.638 230.101L308.718 236.529C308.589 237.452 308.833 238.39 309.396 239.135C309.958 239.881 310.795 240.374 311.721 240.506L326.409 242.591C326.663 242.628 326.919 242.636 327.175 242.616C327.571 242.586 327.959 242.489 328.322 242.328C328.872 242.087 329.351 241.711 329.714 241.234C330.078 240.758 330.314 240.197 330.399 239.605L331.319 233.179C331.408 232.571 331.333 231.949 331.103 231.378V231.378ZM319.61 226.548C319.622 226.455 319.663 226.369 319.728 226.301C319.793 226.234 319.878 226.189 319.971 226.174C320.014 226.168 320.059 226.168 320.102 226.174L320.755 226.266L323.177 226.612L324.491 226.799C324.548 226.806 324.603 226.825 324.653 226.853C324.702 226.882 324.746 226.92 324.781 226.966C324.816 227.011 324.841 227.063 324.856 227.119C324.871 227.174 324.874 227.232 324.866 227.289L324.678 228.659L319.423 227.911L319.61 226.548Z" fill="#2B478B"/>
<path d="M324.845 221.771C324.845 221.771 324.074 222.795 324.042 223.205C323.835 225.984 325.108 226.367 321.81 227.91C321.81 227.91 320.402 228.445 320.38 227.349C320.357 226.253 321.356 226.242 321.174 224.718C320.962 222.96 320.986 222.943 322.142 222.025L322.908 220.761L324.845 221.771Z" fill="#FFB27D"/>
<path d="M322.882 222.556C323.736 222.703 324.605 222.751 325.47 222.7C325.47 222.7 329.159 211.349 329.634 210.313C330.109 209.277 340.595 197.002 340.595 197.002L336.229 186.116C336.229 186.116 324.894 204.981 323.744 207.622C321.84 212.003 321.182 221.834 321.182 221.834C321.695 222.183 322.273 222.429 322.882 222.556V222.556Z" fill="#2B478B"/>
<path d="M337.536 179.296C337.536 179.296 338.214 179.184 338.099 178.253C337.985 177.321 337.991 176.106 338.751 176.332C339.511 176.558 339.549 177.164 339.86 176.811C340.172 176.457 340.177 174.967 342.437 174.864C344.697 174.761 345.615 175.543 346.666 175.083C347.717 174.623 347.774 173.037 347.774 173.037C347.774 173.037 347.473 173.598 347.023 173.785C347.023 173.785 348.776 171.397 346.745 169.759C344.714 168.121 342.646 169.198 341.472 169.263C338.884 169.419 337.212 169.574 336.367 171.268C335.522 172.962 335.875 177.665 337.536 179.296Z" fill="#2B478B"/>
<path d="M323.628 222.995C323.628 222.995 324.379 223.768 324.418 224.089C324.57 225.122 324.915 225.569 324.743 225.681C324.382 225.913 323.906 225.15 323.677 224.463C323.544 223.985 323.527 223.482 323.628 222.995Z" fill="#FFB27D"/>
<path d="M602.377 286.504H69.0901C68.7459 286.504 68.4669 286.782 68.4669 287.125V287.379C68.4669 287.722 68.7459 288 69.0901 288H602.377C602.721 288 603 287.722 603 287.379V287.125C603 286.782 602.721 286.504 602.377 286.504Z" fill="#0085FF"/>
<path d="M199.035 153.056C201.236 157.125 204.148 159.167 204.148 159.167H216.264C216.264 159.167 197.357 149.957 199.035 153.056Z" fill="#233862"/>
<path d="M207.474 184.315C207.613 184.478 207.703 184.677 207.733 184.889C207.762 185.101 207.73 185.318 207.641 185.512V185.512C207.331 186.298 206.353 187.158 205.223 188.014C205.078 188.125 204.949 188.224 204.848 188.317L204.759 188.39C204.737 188.409 204.716 188.429 204.694 188.446C203.635 189.366 204.018 189.594 202.111 191.466C199.937 193.602 198.481 193.602 198.072 193.391C197.726 193.204 198.47 192.069 199.294 190.773C199.335 190.711 199.374 190.649 199.414 190.586C199.524 190.415 199.633 190.241 199.742 190.069C200.709 188.523 200.493 187.779 200.337 185.434C200.196 183.537 197.646 174.748 197.646 174.748L201.717 174.163C201.717 174.163 202.745 181.142 204.061 182.247C204.765 182.836 205.563 182.866 206.248 183.307C206.297 183.337 206.344 183.369 206.389 183.401C206.79 183.656 207.155 183.963 207.474 184.315V184.315Z" fill="#FFB27D"/>
<path d="M207.474 184.316C207.614 184.479 207.704 184.678 207.733 184.89C207.763 185.102 207.731 185.318 207.641 185.513V185.513C207.266 186.296 206.314 187.153 205.22 188.005C205.077 188.118 204.952 188.22 204.845 188.318L204.756 188.391C204.734 188.409 204.713 188.43 204.691 188.447C203.632 189.367 204.015 189.595 202.108 191.467C199.934 193.602 198.478 193.602 198.069 193.391C197.723 193.204 198.467 192.069 199.291 190.773C200.786 190.239 202.112 189.32 203.135 188.11C204.449 186.526 205.359 184.469 206.258 183.289C206.307 183.319 206.354 183.351 206.399 183.383C206.798 183.644 207.16 183.958 207.474 184.316V184.316Z" fill="#233862"/>
<path d="M174.875 180.908C174.59 182.146 172.81 181.889 170.836 181.351C168.861 180.812 169.313 181.401 166.489 181.012C163.664 180.623 162.832 179.546 162.757 179.124C162.691 178.75 164.095 178.656 165.601 178.523C165.788 178.508 165.976 178.49 166.164 178.471C167.866 178.306 169.139 177.25 170.702 176.395C172.185 175.587 174.456 172.189 174.456 172.189L178.334 172.603C178.334 172.603 176.21 175.634 175.386 176.954C174.899 177.73 174.896 178.776 174.931 179.584C174.971 180.025 174.952 180.471 174.875 180.908V180.908Z" fill="#FFB27D"/>
<path d="M170.836 181.352C168.857 180.813 169.313 181.402 166.489 181.013C163.664 180.624 162.832 179.547 162.757 179.125C162.691 178.751 164.095 178.657 165.601 178.524L165.614 178.554C166.807 179.364 168.199 179.836 169.64 179.921C171.562 180.02 173.614 179.527 174.941 179.585C174.977 180.027 174.955 180.472 174.875 180.909C174.59 182.147 172.814 181.891 170.836 181.352Z" fill="#233862"/>
<path d="M190.45 156.549L193.815 166.389L198.213 179.236C199.058 179.322 199.912 179.268 200.739 179.075C201.882 178.778 203.21 177.953 203.21 177.953C203.21 177.953 202.271 164.259 200.019 156.352C199.446 154.331 198.785 152.682 198.033 151.747C194.346 147.157 190.45 156.549 190.45 156.549Z" fill="#233862"/>
<path d="M194.566 141.177C196.968 140.478 203.731 141.644 210.52 143.159L212.012 140.852L226.777 140.104C226.777 140.104 231.343 150.976 228.496 157.747C228.077 158.742 227.338 159.185 226.011 159.17H225.748C225.748 159.17 216.977 159.247 214.131 159.17C206.811 158.97 198.757 153.587 197.706 153.347C195.983 152.954 195.196 156.388 193.364 159.963C191.532 163.539 176.648 175.567 176.648 175.567C176.648 175.567 174.41 175.53 173.496 175.159C172.513 174.761 172.164 174.269 172.164 174.269C172.164 174.269 189.15 142.757 194.566 141.177Z" fill="#2B478B"/>
<path d="M212.646 120.641C217.814 123.661 228.293 129.916 228.349 129.879C228.349 129.879 232.222 131.453 234.48 130.045C238.247 127.698 240.409 121.166 233.8 115.315C230.504 112.396 228.126 111.642 227.886 107.119C227.754 104.665 224.616 96.4911 219.013 97.0877C218.546 97.1449 218.074 97.1631 217.604 97.1419C216.61 97.0836 215.62 97.3094 214.751 97.7927C211.539 99.5823 204.812 119.313 212.646 120.641Z" fill="#233862"/>
<path d="M217.11 118.31C217.088 118.325 219.667 119.28 221.427 118.56C223.085 117.883 224.4 115.232 224.376 115.23C223.625 115.174 222.831 114.502 222.311 110.228L221.992 110.332L216.611 112.101C216.611 112.101 216.951 113.818 217.157 115.449C217.33 116.816 217.407 118.125 217.11 118.31Z" fill="#FFB27D"/>
<path d="M216.611 112.102C216.611 112.102 216.951 113.819 217.157 115.45C220.235 114.982 221.523 111.973 222 110.335L216.611 112.102Z" fill="#ED975D"/>
<path d="M215.776 113.772C215.776 113.772 223.096 112.994 222.546 108.456C221.996 103.917 222.561 100.76 217.854 101.065C213.146 101.37 212.457 103.212 212.273 104.772C212.09 106.331 213.85 113.858 215.776 113.772Z" fill="#FFB27D"/>
<path d="M212.607 102.3C212.607 102.3 217.17 106.441 220.34 106.85C223.51 107.26 224.74 106.276 224.74 106.276C223.503 105.11 222.519 103.704 221.849 102.143C221.697 101.777 221.45 101.457 221.133 101.217C220.815 100.977 220.439 100.827 220.044 100.78C217.78 100.524 213.48 100.32 212.607 102.3Z" fill="#233862"/>
<path d="M215.537 102.02C215.537 102.02 213.932 103.484 213.41 104.588C212.906 105.654 212.692 108.227 213.035 109.263C213.035 109.263 210.728 104.479 212.17 102.224C213.711 99.8302 215.537 102.02 215.537 102.02Z" fill="#233862"/>
<path d="M210.67 128.857C210.482 143.586 210.413 140.504 211.984 141.948C212.359 142.294 213.454 142.524 214.891 142.658C219.415 143.081 227.4 142.554 227.726 141.723C228.853 138.866 228.137 137.948 229.128 133.553C229.234 133.086 229.359 132.579 229.504 132.029C230.315 129.013 231.05 127.999 228.605 123.053C226.386 118.565 224.055 114.922 223.832 115.045C217.561 118.527 217.148 115.445 217.148 115.445C217.148 115.445 210.758 121.673 210.67 128.857Z" fill="white"/>
<path d="M193.815 166.389L198.212 179.236C199.058 179.322 199.911 179.268 200.739 179.076C201.882 178.778 203.209 177.954 203.209 177.954C203.209 177.954 202.271 164.259 200.018 156.353L193.815 166.389Z" fill="#2B478B"/>
<path d="M217.157 115.447C217.157 115.447 210.775 116.347 209.957 119.051C209.139 121.755 204.311 137.648 204.311 137.648C204.311 137.648 207.523 138.314 209.056 136.868C210.59 135.423 214.621 123.217 214.621 123.217L217.157 115.447Z" fill="white"/>
<path d="M214.899 142.656C219.423 143.079 227.408 142.552 227.734 141.721C228.861 138.864 228.145 137.946 229.136 133.551L227.119 127.359C227.119 127.359 227.293 134.198 225.225 135.939C223.156 137.68 216.855 139.18 215.84 140.654C215.394 141.251 215.074 141.932 214.899 142.656Z" fill="#EBF3FF"/>
<path d="M220.169 139.926C220.169 139.926 215.726 138.813 214.994 139.189C214.262 139.565 212.458 140.956 212.226 141.45C211.993 141.943 213.842 141.113 214.439 140.971C214.827 140.879 215.83 141.257 216.327 141.437C218.418 142.185 219.721 141.869 219.721 141.869L220.169 139.926Z" fill="#FFB27D"/>
<path d="M223.847 115.043C223.847 115.043 229.84 115.574 231.839 118.518C234.655 122.662 239.981 140.141 236.593 142.361C232.774 144.861 219.53 142.583 219.53 142.583C219.53 142.583 219.143 140.509 219.787 139.529C220.431 138.549 230.486 137.21 230.955 136.764C231.424 136.317 225.427 127.634 225.465 126.254C225.502 124.874 223.847 115.043 223.847 115.043Z" fill="white"/>
<path d="M214.743 140.422C214.743 140.422 213.775 141.6 213.463 141.731C213.306 141.81 213.129 141.842 212.954 141.824L213.617 140.702L214.743 140.422Z" fill="#FFB27D"/>
<path d="M214.994 139.189L212.235 140.433C212.286 140.5 212.354 140.552 212.432 140.585C212.51 140.618 212.596 140.63 212.68 140.62C213.016 140.62 213.87 140.328 213.87 140.328L214.994 139.189Z" fill="#FFB27D"/>
<path d="M213.412 143.58L191.872 142.995L185.829 126.765L207.338 127.348L213.412 143.58Z" fill="#F99746"/>
<path d="M191.635 142.362L220.081 143.135L220.064 143.759L191.871 142.994L191.635 142.362Z" fill="#ED7D2B"/>
<path d="M197.529 135.117C197.38 134.547 197.716 134.1 198.279 134.115C198.577 134.139 198.86 134.253 199.091 134.442C199.322 134.631 199.489 134.885 199.571 135.171C199.719 135.732 199.383 136.188 198.82 136.174C198.523 136.149 198.239 136.035 198.009 135.846C197.778 135.657 197.611 135.403 197.529 135.117Z" fill="white"/>
</g>
<defs>
<radialGradient id="paint0_radial_751_32072" cx="0" cy="0" r="1" gradientUnits="userSpaceOnUse" gradientTransform="translate(309 189) rotate(90) scale(188 308.679)">
<stop offset="0.104167" stop-color="#0066FF" stop-opacity="0.53"/>
<stop offset="0.427083" stop-color="#408CFF" stop-opacity="0.42"/>
<stop offset="0.630208" stop-color="#6AA5FF" stop-opacity="0.34"/>
<stop offset="1" stop-color="white" stop-opacity="0"/>
<stop offset="1" stop-color="#0066FF" stop-opacity="0"/>
</radialGradient>
<clip-path id="clip0_751_32072">
<rect width="551" height="229" fill="white" transform="translate(52 59)"/>
</clip-path>
</defs>
</svg>
