<svg width="555" height="361" viewBox="0 0 555 361" fill="none" xmlns="http://www.w3.org/2000/svg">
<g clip-path="url(#clip0_803_636)">
<rect x="-5" y="-7" width="564" height="367" fill="url(#paint0_radial_803_636)"/>
<g clip-path="url(#clip1_803_636)">
<path d="M129.124 315.509L112.825 309.809C111.031 300.914 111.433 291.714 113.997 283.009C120.181 297.908 139.466 302.074 150.174 314.132C153.485 317.919 155.902 322.403 157.246 327.252C158.59 332.1 158.827 337.19 157.939 342.142L161.06 353.993C152.996 353.068 145.229 350.404 138.294 346.184C131.358 341.965 125.419 336.292 120.885 329.554C118.379 325.749 116.362 321.643 114.881 317.334C121.917 316.835 129.124 315.509 129.124 315.509Z" fill="#F2F2F2"/>
<path d="M318.383 209.585H233.034C231.827 209.587 230.669 210.069 229.817 210.925C228.964 211.78 228.486 212.94 228.487 214.148V349.086H322.941V214.148C322.942 213.549 322.824 212.955 322.595 212.402C322.366 211.848 322.03 211.345 321.607 210.921C321.184 210.497 320.681 210.161 320.128 209.932C319.574 209.703 318.982 209.585 318.383 209.585ZM275.996 286.255C273.327 286.243 270.77 285.176 268.883 283.287C266.996 281.399 265.93 278.84 265.917 276.169V260.605C265.917 257.93 266.979 255.364 268.869 253.473C270.759 251.581 273.323 250.518 275.996 250.518C278.668 250.518 281.232 251.581 283.122 253.473C285.012 255.364 286.074 257.93 286.074 260.605V276.169C286.061 278.84 284.996 281.399 283.108 283.287C281.221 285.176 278.665 286.243 275.996 286.255Z" fill="#E6E6E6"/>
<path d="M228.194 344.77V357.789C228.196 358.463 228.464 359.11 228.941 359.587C229.417 360.064 230.063 360.333 230.737 360.334H320.691C321.365 360.331 322.01 360.061 322.486 359.585C322.962 359.108 323.231 358.463 323.234 357.789V344.77H228.194Z" fill="#CCCCCC"/>
<path d="M459.713 -1H94.8803C91.7458 -0.995009 88.7412 0.253403 86.5247 2.47165C84.3083 4.6899 83.0609 7.69706 83.0559 10.8341V257.229C83.0589 260.367 84.3057 263.375 86.5225 265.594C88.7394 267.812 91.7452 269.06 94.8803 269.063H459.713C462.848 269.06 465.853 267.812 468.07 265.594C470.287 263.375 471.534 260.367 471.537 257.229V10.8341C471.532 7.69706 470.285 4.6899 468.068 2.47165C465.852 0.253403 462.847 -0.995009 459.713 -1Z" fill="#E6E6E6"/>
<path d="M456.666 7.54443H97.9296C96.2508 7.54842 94.6421 8.21865 93.4564 9.40811C92.2707 10.5976 91.6048 12.2091 91.6047 13.8893V254.175C91.6066 255.853 92.2736 257.462 93.4593 258.649C94.6451 259.836 96.2527 260.503 97.9296 260.505H456.666C458.343 260.503 459.95 259.836 461.136 258.649C462.322 257.462 462.989 255.853 462.991 254.175V13.8893C462.991 12.2091 462.325 10.5976 461.139 9.4081C459.953 8.21864 458.345 7.54842 456.666 7.54443Z" fill="white"/>
<path d="M465.148 12.9806V222.126C437.545 230.178 408.073 229.011 381.193 218.8C354.313 208.589 331.489 189.891 316.176 165.537C300.863 141.183 293.896 112.498 296.329 83.8267C298.761 55.155 310.462 28.0571 329.658 6.63574H458.823C460.502 6.63973 462.11 7.30996 463.296 8.49942C464.482 9.68888 465.148 11.3005 465.148 12.9806Z" fill="#8000FF"/>
<path d="M438.634 40.6539H102.963C102.614 40.6464 102.282 40.5024 102.038 40.2527C101.794 40.0029 101.657 39.6674 101.657 39.3179C101.657 38.9684 101.794 38.6329 102.038 38.3831C102.282 38.1334 102.614 37.9894 102.963 37.9819H438.634C438.983 37.9894 439.315 38.1334 439.56 38.3831C439.804 38.6329 439.941 38.9684 439.941 39.3179C439.941 39.6674 439.804 40.0029 439.56 40.2527C439.315 40.5024 438.983 40.6464 438.634 40.6539Z" fill="#CACACA"/>
<path d="M125.813 31.1607C130.134 31.1607 133.636 27.5772 133.636 23.1568C133.636 18.7363 130.134 15.1528 125.813 15.1528C121.493 15.1528 117.99 18.7363 117.99 23.1568C117.99 27.5772 121.493 31.1607 125.813 31.1607Z" fill="#3F3D56"/>
<path d="M152.838 31.1607C157.158 31.1607 160.661 27.5772 160.661 23.1568C160.661 18.7363 157.158 15.1528 152.838 15.1528C148.517 15.1528 145.015 18.7363 145.015 23.1568C145.015 27.5772 148.517 31.1607 152.838 31.1607Z" fill="#3F3D56"/>
<path d="M179.863 31.1607C184.183 31.1607 187.685 27.5772 187.685 23.1568C187.685 18.7363 184.183 15.1528 179.863 15.1528C175.542 15.1528 172.04 18.7363 172.04 23.1568C172.04 27.5772 175.542 31.1607 179.863 31.1607Z" fill="#3F3D56"/>
<path d="M422.363 17.1367H403.166C402.785 17.1443 402.423 17.3009 402.157 17.5729C401.89 17.8449 401.741 18.2106 401.741 18.5915C401.741 18.9724 401.89 19.3381 402.157 19.6101C402.423 19.8821 402.785 20.0387 403.166 20.0463H422.363C422.743 20.0387 423.106 19.8821 423.372 19.6101C423.638 19.3381 423.788 18.9724 423.788 18.5915C423.788 18.2106 423.638 17.8449 423.372 17.5729C423.106 17.3009 422.743 17.1443 422.363 17.1367Z" fill="#3F3D56"/>
<path d="M422.363 22.5977H403.166C402.785 22.6052 402.423 22.7618 402.157 23.0338C401.89 23.3058 401.741 23.6715 401.741 24.0524C401.741 24.4333 401.89 24.799 402.157 25.071C402.423 25.343 402.785 25.4996 403.166 25.5072H422.363C422.743 25.4996 423.106 25.343 423.372 25.071C423.638 24.799 423.788 24.4333 423.788 24.0524C423.788 23.6715 423.638 23.3058 423.372 23.0338C423.106 22.7618 422.743 22.6052 422.363 22.5977Z" fill="#3F3D56"/>
<path d="M422.363 28.0513H403.166C402.785 28.0589 402.423 28.2155 402.157 28.4874C401.89 28.7594 401.741 29.1251 401.741 29.506C401.741 29.8869 401.89 30.2526 402.157 30.5246C402.423 30.7966 402.785 30.9532 403.166 30.9608H422.363C422.743 30.9532 423.106 30.7966 423.372 30.5246C423.638 30.2526 423.788 29.8869 423.788 29.506C423.788 29.1251 423.638 28.7594 423.372 28.4874C423.106 28.2155 422.743 28.0589 422.363 28.0513Z" fill="#3F3D56"/>
<path d="M187.647 187.042C188.141 186.504 188.511 185.864 188.732 185.167C188.952 184.471 189.017 183.734 188.922 183.009C188.827 182.285 188.574 181.59 188.182 180.973C187.79 180.357 187.267 179.834 186.651 179.442L190.744 162.156L182.081 165.324L179.522 181.253C178.932 182.333 178.758 183.591 179.033 184.79C179.309 185.99 180.014 187.046 181.015 187.76C182.017 188.473 183.245 188.794 184.467 188.662C185.69 188.53 186.821 187.953 187.647 187.042Z" fill="#9E616A"/>
<path d="M208.481 114.606L205.004 123.554C205.004 123.554 206.494 132.502 204.011 134.491C201.527 136.479 202.521 136.479 202.521 137.971C202.435 139.04 202.125 140.08 201.612 141.022C201.098 141.964 200.393 142.788 199.54 143.439C197.553 144.93 188.613 175.255 188.613 175.255H179.672C179.961 172.944 179.961 170.606 179.672 168.295C179.175 164.815 181.162 155.867 182.155 154.376C183.149 152.884 182.155 150.896 182.155 147.913C182.155 144.93 184.142 143.439 184.142 138.468C184.142 133.497 190.103 94.7211 189.606 90.247C189.109 85.7729 194.573 81.7959 194.573 81.7959H199.54L208.481 114.606Z" fill="#E6E6E6"/>
<path d="M240.738 347.704H247.621L250.896 321.134H240.738V347.704Z" fill="#9E616A"/>
<path d="M238.492 342.986L249.488 342.329V347.044L259.942 354.27C260.458 354.627 260.847 355.14 261.052 355.734C261.256 356.327 261.266 356.971 261.079 357.57C260.893 358.17 260.519 358.694 260.014 359.066C259.508 359.438 258.897 359.639 258.27 359.639H245.178L242.922 354.975L242.041 359.639H237.105L238.492 342.986Z" fill="#2F2E41"/>
<path d="M154.474 341.852L160.869 344.4L173.73 320.926L164.293 317.166L154.474 341.852Z" fill="#9E616A"/>
<path d="M154.13 336.637L164.589 340.097L162.847 344.478L169.89 355.061C170.238 355.584 170.409 356.204 170.38 356.831C170.351 357.459 170.122 358.06 169.727 358.548C169.332 359.036 168.791 359.385 168.184 359.544C167.577 359.702 166.935 359.663 166.352 359.43L154.189 354.585L153.816 349.416L151.274 353.423L146.688 351.596L154.13 336.637Z" fill="#2F2E41"/>
<path d="M226.864 268.642L215.387 215.037L197.465 274.597L169.086 331.075L168.936 331.374L159.947 326.53C158.678 303.598 161.691 282.108 172.712 263.317L177.93 211.74C178.09 209.978 181.982 168.604 194.308 161.267L197.918 153.029L233.82 144.155L233.951 144.302C237.403 148.186 239.684 152.97 240.528 158.099L251.256 223.143L251.262 223.179L248.385 268.555L252.32 335.498H238.083C229.275 318.912 225.536 296.627 226.864 268.642Z" fill="#2F2E41"/>
<path d="M260.812 90.1206L282.577 82.5C283.252 82.2663 283.991 82.3099 284.634 82.6211C285.277 82.9323 285.77 83.4858 286.006 84.1603C286.242 84.8348 286.201 85.5754 285.892 86.2197C285.583 86.8641 285.032 87.3597 284.359 87.5981L262.594 95.2187C261.919 95.4524 261.179 95.4088 260.537 95.0976C259.894 94.7863 259.401 94.2329 259.165 93.5583C258.929 92.8838 258.97 92.1433 259.279 91.499C259.587 90.8546 260.139 90.359 260.812 90.1206Z" fill="#2F2E41"/>
<path d="M284.198 86.9043C284.624 88.3794 286.461 89.0959 287.944 88.7027C289.411 88.1995 290.631 87.1549 291.355 85.7819C292.152 84.4699 292.699 83.0165 293.519 81.7186C295.093 79.2523 297.554 77.4863 300.393 76.7864C297.863 76.4528 295.293 76.94 293.061 78.1763C292.275 78.7159 291.408 79.1251 290.492 79.388C289.515 79.4399 288.536 79.4271 287.56 79.3497C286.699 79.3936 285.868 79.6831 285.165 80.184C284.463 80.6849 283.918 81.3763 283.595 82.1768C283.272 82.9773 283.185 83.8535 283.343 84.7021C283.501 85.5507 283.898 86.3364 284.488 86.9666" fill="#8000FF"/>
<path d="M281.352 89.2505C281.26 89.9755 281.011 90.6717 280.621 91.2899C280.232 91.908 279.712 92.4333 279.098 92.8285C278.483 93.2238 277.79 93.4794 277.066 93.5775C276.343 93.6755 275.607 93.6136 274.909 93.3961L264.363 107.685L261.187 99.0179L271.689 86.7779C272.131 85.6301 272.98 84.6846 274.072 84.1208C275.165 83.557 276.426 83.4139 277.617 83.7186C278.809 84.0234 279.847 84.7549 280.535 85.7745C281.223 86.794 281.514 88.0308 281.352 89.2505Z" fill="#9E616A"/>
<path d="M187.336 170.481C186.369 170.481 185.82 170.291 185.607 169.884C185.295 169.287 185.836 168.507 186.463 167.603C186.901 166.973 188.178 165.721 187.55 165.645C178.026 164.48 182.598 105.713 186.725 97.9446C187.564 96.3662 186.676 93.9446 187.621 91.2661C190.2 83.951 193.722 81.7028 200.737 77.2247C201.306 76.8611 201.899 76.4814 202.515 76.0855C203.313 75.5726 203.268 73.872 203.221 72.0712C203.169 70.0698 203.115 67.9999 204.095 66.7063L204.159 66.622L204.261 66.598C206.631 66.0498 214.601 65.032 219.321 66.6054L219.386 66.6276L219.435 66.6761C220.556 67.7982 220.658 69.9717 220.757 72.0735C220.838 73.7991 220.914 75.4284 221.549 76.1362C226.398 81.5461 231.898 81.4407 231.954 81.4395L232.226 81.4316L232.253 81.7028C235.653 88.1795 232.991 112.233 235.354 127.174C237.755 142.354 258.26 155.275 240.702 157.569C240.74 157.628 240.761 157.695 240.763 157.765C240.766 157.834 240.749 157.903 240.714 157.964C239.654 159.947 190.98 170.481 187.336 170.481Z" fill="#E6E6E6"/>
<path d="M242.914 126.273L233.433 120.936C216.901 109.467 212.828 100.359 212.319 94.7353C211.776 88.735 214.97 85.453 215.106 85.3168L215.18 85.2627L223.727 80.8922C224.812 80.3372 226.003 80.0194 227.221 79.9599C228.439 79.9005 229.655 80.1008 230.789 80.5475C231.924 80.9942 232.951 81.6772 233.801 82.5511C234.652 83.425 235.307 84.47 235.724 85.6166L243.629 107.376L252.394 100.907L256.132 99.4322L259.148 95.3958L267.432 90.5603L273.586 96.1036L265.847 111.594L261.547 112.69L260.635 115.041L260.554 115.093L242.914 126.273Z" fill="#E6E6E6"/>
<path d="M225.945 56.6545C224.185 59.8749 221.382 62.3996 217.997 63.8126C214.612 65.2257 210.848 65.4429 207.323 64.4285C203.798 63.4141 200.724 61.2285 198.606 58.2318C196.488 55.2351 195.453 51.6058 195.672 47.9418C195.89 44.2777 197.349 40.7973 199.807 38.0738C202.266 35.3503 205.578 33.546 209.198 32.9581C212.819 32.3702 216.531 33.0337 219.724 34.8395C222.917 36.6452 225.4 39.4854 226.765 42.8924C226.839 43.0773 226.905 43.2621 226.972 43.4544C227.744 45.6021 228.051 47.8893 227.874 50.1647C227.697 52.4402 227.039 54.6522 225.945 56.6545Z" fill="#9E616A"/>
<path d="M228.265 43.4544C227.57 41.5095 227.873 42.5226 227.171 40.5851C227.397 41.5397 227.328 42.5403 226.972 43.4544H207.754V32.2732C213.384 30.0399 218.889 28.1394 222.214 32.2732C225.176 32.2733 228.018 33.4513 230.113 35.5482C232.208 37.6451 233.385 40.489 233.385 43.4544H228.265Z" fill="#2F2E41"/>
<path d="M221.452 74.5357C221.438 74.3287 221.416 74.1142 221.386 73.9071C221.128 72.3881 220.709 70.9008 220.137 69.4701C219.583 67.9098 219.022 66.3421 218.46 64.7817C219.183 67.6141 218.963 70.6053 217.832 73.3007C214.588 70.7716 216.635 64.9888 212.394 64.9888C202.197 64.9888 191.705 56.7138 191.705 46.5013C191.705 36.2962 196.079 28.6646 206.276 28.6646C216.48 28.6646 224.755 33.3382 224.955 43.5433C212.394 46.5013 223.824 73.5004 221.452 74.5357Z" fill="#2F2E41"/>
<path d="M192.979 44.9369C199.508 44.9369 204.801 39.6396 204.801 33.1049C204.801 26.5703 199.508 21.2729 192.979 21.2729C186.45 21.2729 181.157 26.5703 181.157 33.1049C181.157 39.6396 186.45 44.9369 192.979 44.9369Z" fill="#2F2E41"/>
<path d="M196.943 33.5648C194.919 35.9238 191.749 36.8407 188.889 38.0683C183.843 40.2841 179.412 43.6985 175.982 48.0154C172.552 52.3323 170.226 57.4215 169.206 62.8415C168.415 67.2564 168.518 71.8265 167.27 76.1303C166.028 80.4342 162.955 84.6568 158.543 85.4037C155.558 85.9139 152.566 84.7603 149.758 83.6215C148.214 83.0003 146.67 82.3767 145.125 81.7506C146.736 77.7055 148.344 73.6604 149.95 69.6154C147.369 73.4328 144.368 76.9478 141.002 80.0941C135.468 77.8608 129.929 75.6275 124.385 73.3942C138.025 73.4459 135.697 60.1941 138.749 46.8979C140.426 39.5917 154.709 34.6444 157.509 27.6931C159.022 23.9228 161.583 20.6652 164.888 18.306C168.194 15.9468 172.105 14.5846 176.16 14.3808C180.214 14.177 184.242 15.14 187.767 17.1558C191.292 19.1717 194.166 22.156 196.049 25.7556C198.85 26.8723 198.931 31.2354 196.943 33.5648Z" fill="#2F2E41"/>
<path d="M554.12 360.773L0.879772 361C0.64644 361 0.422669 360.907 0.257679 360.742C0.0926886 360.577 0 360.353 0 360.12C0 359.886 0.0926886 359.662 0.257679 359.497C0.422669 359.332 0.64644 359.239 0.879772 359.239L554.12 359.012C554.354 359.012 554.577 359.104 554.742 359.27C554.907 359.435 555 359.659 555 359.892C555 360.126 554.907 360.35 554.742 360.515C554.577 360.68 554.354 360.773 554.12 360.773Z" fill="#CACACA"/>
</g>
</g>
<defs>
<radialGradient id="paint0_radial_803_636" cx="0" cy="0" r="1" gradientUnits="userSpaceOnUse" gradientTransform="translate(277 176.5) rotate(90) scale(183.5 282)">
<stop stop-color="#8000FF"/>
<stop offset="1" stop-color="#8000FF" stop-opacity="0"/>
</radialGradient>
<clipPath id="clip0_803_636">
<rect width="555" height="361" fill="white"/>
</clipPath>
<clipPath id="clip1_803_636">
<rect width="555" height="362" fill="white" transform="translate(0 -1)"/>
</clipPath>
</defs>
</svg>
