<svg width="728" height="580" viewBox="0 0 728 580" fill="none" xmlns="http://www.w3.org/2000/svg">
<g clip-path="url(#clip0_745_31810)">
<rect width="728" height="580" fill="url(#paint0_radial_745_31810)"/>
<g clip-path="url(#clip1_745_31810)">
<path d="M331.915 117.145C338.044 100.993 356.855 93.3736 372.543 92.4009C412.224 89.9265 434.697 118.706 456.949 147.144C467.874 161.103 483.784 171.59 504.695 171.59C535.602 171.59 590.791 158.433 620.528 189.089C632.027 200.975 639.658 216.061 642.418 232.363C645.179 248.666 642.939 265.422 635.994 280.428C619.777 316.034 586.31 324.208 551.127 330.701C509.074 338.457 477.177 350.069 451.742 377.006" stroke="#F48914" stroke-miterlimit="10" stroke-dasharray="5 3"/>
<path d="M262.105 128.578H284.681L280.549 125.088V113.86C280.549 113.274 280.317 112.712 279.902 112.297C279.487 111.883 278.925 111.65 278.339 111.65H262.122C261.535 111.65 260.973 111.883 260.559 112.297C260.144 112.712 259.911 113.274 259.911 113.86V126.368C259.911 126.951 260.142 127.511 260.553 127.925C260.963 128.339 261.521 128.574 262.105 128.578Z" fill="#FF9189"/>
<path d="M270.572 115.199L271.707 118.16L274.874 118.322C275.014 118.329 275.149 118.378 275.26 118.463C275.372 118.548 275.455 118.665 275.499 118.798C275.542 118.931 275.544 119.075 275.504 119.209C275.464 119.344 275.384 119.463 275.275 119.551L272.808 121.539L273.662 124.602C273.7 124.737 273.696 124.88 273.65 125.013C273.604 125.145 273.518 125.26 273.404 125.342C273.291 125.424 273.154 125.469 273.014 125.471C272.874 125.473 272.736 125.432 272.62 125.353L269.966 123.646L267.312 125.353C267.195 125.43 267.058 125.47 266.918 125.467C266.778 125.464 266.642 125.419 266.529 125.338C266.415 125.257 266.328 125.143 266.281 125.011C266.233 124.88 266.226 124.737 266.262 124.602L267.115 121.539L264.649 119.551C264.539 119.463 264.459 119.344 264.419 119.209C264.379 119.075 264.381 118.931 264.425 118.798C264.468 118.665 264.551 118.548 264.663 118.463C264.775 118.378 264.91 118.329 265.05 118.322L268.216 118.16L269.343 115.199C269.401 115.087 269.489 114.992 269.598 114.926C269.706 114.86 269.831 114.825 269.957 114.825C270.084 114.825 270.209 114.86 270.317 114.926C270.426 114.992 270.514 115.087 270.572 115.199V115.199Z" fill="white"/>
<path d="M516.551 105.003H489.648L494.572 100.839V87.4607C494.572 86.7637 494.849 86.0953 495.342 85.6024C495.835 85.1096 496.504 84.8327 497.201 84.8327H516.551C516.897 84.8316 517.24 84.8987 517.56 85.0303C517.879 85.1619 518.17 85.3553 518.415 85.5994C518.66 85.8435 518.855 86.1336 518.987 86.453C519.12 86.7724 519.188 87.1149 519.188 87.4607V102.367C519.188 103.066 518.91 103.737 518.416 104.231C517.921 104.725 517.25 105.003 516.551 105.003V105.003Z" fill="#FF9189"/>
<path d="M509.945 93.6722H512.821C513.239 93.6647 513.648 93.7902 513.99 94.0306C514.16 94.1541 514.297 94.3159 514.392 94.5027C514.487 94.6895 514.537 94.8961 514.537 95.1056C514.537 95.3152 514.487 95.5218 514.392 95.7086C514.297 95.8954 514.16 96.0572 513.99 96.1807L513.922 96.2319C514.085 96.3613 514.213 96.5285 514.296 96.719C514.379 96.9094 514.414 97.1173 514.398 97.3244C514.382 97.5315 514.315 97.7315 514.204 97.907C514.093 98.0824 513.94 98.228 513.76 98.3309C513.868 98.4669 513.946 98.625 513.987 98.7942C514.028 98.9633 514.032 99.1394 513.997 99.3101C513.963 99.4808 513.892 99.6419 513.789 99.7823C513.686 99.9226 513.554 100.039 513.401 100.123C513.461 100.293 513.51 100.467 513.546 100.643C513.565 100.777 513.557 100.914 513.521 101.044C513.485 101.175 513.423 101.297 513.338 101.402C513.253 101.508 513.148 101.595 513.028 101.658C512.908 101.721 512.777 101.759 512.642 101.769C512.508 101.778 512.374 101.778 512.241 101.769H505.677C505.496 101.767 505.317 101.726 505.153 101.648C504.99 101.57 504.845 101.457 504.729 101.317C504.723 101.302 504.72 101.286 504.72 101.27C504.72 101.254 504.723 101.238 504.729 101.223C504.729 99.0732 504.729 96.923 504.729 94.7729C504.737 94.6658 504.768 94.5616 504.82 94.4674C504.871 94.3732 504.942 94.2912 505.028 94.2268L506.069 93.3053C506.667 92.7763 507.256 92.2388 507.777 91.6671C508.511 90.8738 509.046 89.9175 509.338 88.877L509.415 88.6552C509.481 88.4433 509.626 88.2652 509.82 88.1585C510.015 88.0518 510.243 88.0249 510.457 88.0835C510.634 88.1072 510.804 88.172 510.952 88.2727C511.1 88.3734 511.223 88.5073 511.31 88.6637C511.568 89.1252 511.656 89.6629 511.558 90.1825C511.429 90.8782 511.177 91.5456 510.815 92.1534C510.576 92.6142 510.303 93.0579 510.047 93.5015L509.945 93.6722Z" fill="white"/>
<path d="M500.376 98.092V94.8838C500.368 94.816 500.375 94.7472 500.397 94.6826C500.42 94.6181 500.457 94.5596 500.506 94.5117C500.554 94.4638 500.613 94.4278 500.678 94.4065C500.743 94.3852 500.812 94.3792 500.88 94.3889H503.313C503.38 94.3821 503.448 94.3904 503.512 94.4134C503.576 94.4364 503.634 94.4735 503.681 94.5218C503.729 94.5701 503.765 94.6285 503.787 94.6927C503.808 94.7568 503.816 94.825 503.808 94.8923V101.292C503.816 101.359 503.809 101.427 503.787 101.49C503.765 101.554 503.729 101.612 503.681 101.66C503.633 101.708 503.575 101.744 503.511 101.766C503.448 101.788 503.38 101.795 503.313 101.786H500.871C500.805 101.795 500.738 101.788 500.675 101.766C500.612 101.745 500.554 101.709 500.507 101.662C500.459 101.616 500.423 101.559 500.4 101.496C500.378 101.433 500.37 101.366 500.376 101.3V98.092Z" fill="white"/>
<path d="M462.241 94.9179C462.241 95.2706 462.136 95.6154 461.94 95.9086C461.744 96.2019 461.465 96.4304 461.14 96.5654C460.814 96.7004 460.455 96.7357 460.109 96.6669C459.763 96.5981 459.445 96.4283 459.195 96.1789C458.946 95.9295 458.776 95.6117 458.707 95.2658C458.638 94.9199 458.674 94.5613 458.809 94.2355C458.944 93.9096 459.172 93.6311 459.466 93.4352C459.759 93.2392 460.104 93.1346 460.457 93.1346C460.93 93.1346 461.384 93.3225 461.718 93.6569C462.053 93.9914 462.241 94.445 462.241 94.9179V94.9179Z" stroke="#F48914" stroke-miterlimit="10"/>
<path d="M308.537 94.918C308.537 95.2707 308.433 95.6155 308.237 95.9088C308.041 96.202 307.762 96.4306 307.436 96.5655C307.11 96.7005 306.752 96.7358 306.406 96.667C306.06 96.5982 305.742 96.4284 305.492 96.179C305.243 95.9296 305.073 95.6118 305.004 95.2659C304.935 94.92 304.97 94.5614 305.106 94.2356C305.241 93.9098 305.469 93.6312 305.763 93.4353C306.056 93.2394 306.401 93.1348 306.754 93.1348C307.227 93.1348 307.68 93.3226 308.015 93.6571C308.35 93.9915 308.537 94.4451 308.537 94.918V94.918Z" stroke="#F48914" stroke-miterlimit="10"/>
<path d="M570.298 184.84C571.283 184.84 572.081 184.042 572.081 183.057C572.081 182.072 571.283 181.274 570.298 181.274C569.312 181.274 568.514 182.072 568.514 183.057C568.514 184.042 569.312 184.84 570.298 184.84Z" stroke="#F48914" stroke-miterlimit="10"/>
<path d="M230.021 352.271C231.006 352.271 231.805 351.472 231.805 350.487C231.805 349.502 231.006 348.704 230.021 348.704C229.036 348.704 228.237 349.502 228.237 350.487C228.237 351.472 229.036 352.271 230.021 352.271Z" stroke="#F48914" stroke-miterlimit="10"/>
<path d="M273.448 260.906C273.448 261.26 273.343 261.607 273.146 261.902C272.949 262.196 272.669 262.426 272.342 262.561C272.014 262.697 271.654 262.733 271.306 262.663C270.958 262.594 270.639 262.424 270.388 262.173C270.138 261.922 269.967 261.603 269.898 261.256C269.829 260.908 269.864 260.548 270 260.22C270.135 259.893 270.365 259.613 270.66 259.416C270.955 259.219 271.301 259.114 271.656 259.114C272.131 259.114 272.587 259.303 272.923 259.639C273.259 259.975 273.448 260.431 273.448 260.906V260.906Z" stroke="#F48914" stroke-miterlimit="10"/>
<path d="M220.129 132.87C221.114 132.87 221.912 132.071 221.912 131.086C221.912 130.102 221.114 129.303 220.129 129.303C219.143 129.303 218.345 130.102 218.345 131.086C218.345 132.071 219.143 132.87 220.129 132.87Z" stroke="#F48914" stroke-miterlimit="10"/>
<path d="M548.362 126.539V130.626" stroke="#F48914" stroke-miterlimit="10"/>
<path d="M550.402 128.578H546.313" stroke="#F48914" stroke-miterlimit="10"/>
<path d="M373.602 77V81.0955" stroke="#F48914" stroke-miterlimit="10"/>
<path d="M375.65 79.0479H371.553" stroke="#F48914" stroke-miterlimit="10"/>
<path d="M276.752 149.917V154.004" stroke="#F48914" stroke-miterlimit="10"/>
<path d="M278.8 151.957H274.703" stroke="#F48914" stroke-miterlimit="10"/>
<path d="M624.283 223.176V227.263" stroke="#F48914" stroke-miterlimit="10"/>
<path d="M626.332 225.224H622.243" stroke="#F48914" stroke-miterlimit="10"/>
<path d="M322.347 181.41C321.689 195.198 290.305 194.209 280.822 196.419C240.066 205.975 199.515 230.164 186.243 270.445C172.586 311.878 204.875 357.142 239.401 367.099C272.321 376.605 307.683 368.806 339.409 355.41C343.719 353.601 348.61 350.888 349.233 346.025" stroke="#F48914" stroke-miterlimit="10" stroke-dasharray="5 3"/>
<path d="M588.145 408.635C569.442 403.8 550.584 399.662 531.573 396.221C527.502 395.478 523.038 394.838 519.445 396.912C523.183 392.176 522.33 384.676 518.011 380.461C513.692 376.246 506.633 375.453 501.179 378.03C502.221 370.095 503.253 361.946 501.41 354.139C499.566 346.332 494.18 338.883 486.422 336.921C476.179 334.361 466.372 341.665 458.375 348.516C452.852 353.252 446.963 358.619 445.913 365.811L441.646 408.618L588.145 408.635Z" fill="#FF9900"/>
<path d="M588.256 408.225C576.062 405.074 563.799 402.216 551.469 399.65C545.437 398.393 539.394 397.213 533.34 396.11C528.654 395.256 523.661 394.198 519.231 396.545L519.82 397.133C523.456 392.227 522.841 385.026 518.719 380.581C514.229 375.743 506.769 375.06 500.965 377.663L501.605 378.029C503.313 365.018 504.755 348.892 493.07 339.796C481.556 330.812 468.096 339.728 458.861 347.543C454.089 351.579 448.909 355.965 446.527 361.912C445.771 364.024 445.325 366.234 445.204 368.473L443.002 390.384C442.393 396.465 441.782 402.549 441.167 408.635C441.169 408.747 441.215 408.855 441.294 408.934C441.374 409.014 441.481 409.059 441.594 409.062H582.128C583.835 409.062 586.207 409.488 587.889 409.062C587.974 409.053 588.06 409.053 588.145 409.062C588.258 409.062 588.367 409.017 588.447 408.937C588.527 408.857 588.572 408.748 588.572 408.635C588.572 408.522 588.527 408.413 588.447 408.333C588.367 408.253 588.258 408.208 588.145 408.208H444.897C444.146 408.208 442.388 407.859 441.696 408.208C441.457 408.328 441.969 408.72 442.046 408.584C442.121 408.288 442.152 407.984 442.14 407.679C442.277 406.272 442.422 404.864 442.558 403.456C443.565 393.467 444.57 383.479 445.571 373.49C445.827 370.931 445.981 368.371 446.339 365.811C447.577 356.938 456.471 350.325 463.069 345.197C470.494 339.421 480.54 333.772 489.878 338.687C498.593 343.286 501.827 353.576 501.99 362.808C501.953 367.894 501.539 372.97 500.752 377.995C500.709 378.354 501.145 378.473 501.401 378.362C506.838 375.931 513.939 376.588 518.113 381.152C520.018 383.241 521.153 385.917 521.328 388.738C521.504 391.56 520.71 394.356 519.077 396.664C518.804 397.031 519.316 397.432 519.666 397.244C524.787 394.54 531.086 396.511 536.412 397.509C542.188 398.595 547.952 399.733 553.705 400.922C565.205 403.345 576.645 406.03 588.025 408.976C588.109 408.968 588.188 408.935 588.252 408.881C588.317 408.828 588.365 408.757 588.389 408.677C588.414 408.597 588.414 408.512 588.391 408.431C588.367 408.351 588.32 408.279 588.256 408.225V408.225Z" fill="#EDF2F7"/>
<path d="M182.437 408.635C186.832 408.635 193.814 403.985 198.398 402.876C203.963 401.528 209.254 401.818 215.033 401.92C216.578 401.92 218.208 401.92 219.539 401.169C221.895 399.813 222.39 396.715 223.184 394.113C224.113 391.084 225.752 388.321 227.966 386.054C230.179 383.787 232.903 382.082 235.909 381.08C238.915 380.078 242.117 379.809 245.249 380.295C248.38 380.781 251.35 382.008 253.911 383.874C252.614 370.683 255.413 356.46 264.452 346.75C278.57 331.597 298.32 336.631 312.25 348.567C317.772 353.303 323.653 358.67 324.711 365.862L328.979 408.669L182.437 408.635Z" fill="#FF9900"/>
<path d="M182.437 409.062C188.454 408.857 193.532 404.369 199.311 403.089C203.664 402.142 208.145 402.193 212.583 402.236C215.502 402.287 219.002 402.799 221.119 400.325C223.09 398.021 223.227 394.6 224.456 391.92C225.645 389.285 227.405 386.946 229.61 385.075C231.815 383.204 234.41 381.848 237.204 381.103C239.999 380.359 242.925 380.246 245.769 380.773C248.613 381.299 251.304 382.452 253.647 384.147C253.712 384.184 253.786 384.203 253.861 384.203C253.936 384.203 254.009 384.184 254.074 384.147C254.14 384.11 254.194 384.057 254.233 383.993C254.272 383.929 254.293 383.855 254.295 383.781C252.648 366.05 259.135 343.201 278.774 338.44C287.062 336.426 295.743 338.619 303.083 342.646C306.98 344.86 310.616 347.505 313.923 350.53C317.337 353.559 320.751 356.887 322.757 361.059C324.362 364.395 324.464 367.927 324.814 371.528C325.343 376.739 325.867 381.952 326.384 387.168L327.946 402.663C328.1 404.241 328.262 405.828 328.424 407.407C328.424 407.637 328.424 408.26 328.518 408.405C328.612 408.55 328.885 408.14 328.902 408.149C327.963 407.867 326.504 408.149 325.531 408.149H197.279C192.559 408.149 187.805 407.987 183.085 408.149H182.437C182.323 408.149 182.215 408.194 182.135 408.274C182.055 408.354 182.01 408.462 182.01 408.576C182.01 408.689 182.055 408.797 182.135 408.877C182.215 408.957 182.323 409.002 182.437 409.002H322.928C324.635 409.002 327.025 409.429 328.706 409.002C328.791 408.994 328.877 408.994 328.962 409.002C329.075 409.002 329.184 408.957 329.264 408.877C329.344 408.797 329.389 408.689 329.389 408.576L325.241 367.253C324.903 363.658 323.606 360.219 321.485 357.296C317.499 351.742 311.678 346.921 305.908 343.312C295.205 336.631 281.403 334.02 270.256 341.179C256.241 350.18 251.982 368.141 253.442 383.781L254.082 383.414C251.499 381.58 248.525 380.373 245.395 379.886C242.266 379.399 239.065 379.647 236.048 380.609C233.03 381.572 230.278 383.223 228.008 385.432C225.738 387.641 224.014 390.347 222.971 393.337C221.981 396.195 221.665 400.214 218.217 401.195C216.627 401.49 215.003 401.559 213.394 401.4C211.533 401.4 209.673 401.315 207.812 401.349C204.754 401.367 201.707 401.71 198.722 402.373C193.165 403.669 188.258 408.012 182.505 408.209C181.89 408.226 181.89 409.079 182.437 409.062Z" fill="#EDF2F7"/>
<path d="M451.998 400.12C462.24 377.936 474.19 355.931 490.552 338.687C498.592 330.206 507.093 321.716 517.319 315.872C526.306 310.752 549.198 302.373 552.109 318.798C552.809 322.715 551.682 326.776 549.761 330.257C544.179 340.368 534.398 345.82 525.581 352.68C518.266 358.388 480.344 381.127 456.599 403.678" fill="#FFB800"/>
<path d="M538.921 322.595C492.361 344.839 471.347 380 452.126 407.739" stroke="white" stroke-miterlimit="10"/>
<path d="M443.761 354.967C441.5 309.745 442.148 263.269 454.157 220.864C462.078 192.912 471.928 162.938 492.857 141.701C501.119 133.322 514.878 128.399 527.126 132.87C541.73 138.211 545.05 154.84 545.05 168.236C545.05 191.103 536.003 212.383 524.394 231.674C502.416 268.21 463.99 301.921 456.658 345.538C456.53 346.306 456.419 347.066 456.308 347.825" fill="#FFB800"/>
<path d="M514.869 151.957C463.103 230.667 463.461 305.445 459.603 366.972" stroke="white" stroke-miterlimit="10"/>
<path d="M305.413 328.252C307.214 294.054 305.669 254.584 299.105 221.683C288.36 167.75 243.515 143.484 228.066 162.025C224.387 166.445 223.047 172.264 223.184 177.801C223.875 206.197 239.503 231.171 253.655 255.445C268.617 281.094 285.005 307.015 294.198 335.044C296.394 341.733 298.428 348.462 300.3 355.231" fill="#FFB800"/>
<path d="M239.623 171.581C258.768 190.531 301.786 287.22 304.491 340.743" stroke="white" stroke-miterlimit="10"/>
<path d="M275.54 236.691C275.54 236.691 287.088 200.523 283.06 183.057" stroke="white" stroke-miterlimit="10"/>
<path d="M279.124 245.446C279.124 245.446 253.826 242.357 243.105 238.62" stroke="white" stroke-miterlimit="10"/>
<path d="M256.761 196.623C256.761 196.623 233.767 191.163 224.003 187.485" stroke="white" stroke-miterlimit="10"/>
<path d="M267.619 218.833C267.619 218.833 275.762 184.772 273.457 171.581" stroke="white" stroke-miterlimit="10"/>
<path d="M285.782 263.022C285.782 263.022 267.397 260.864 253.63 255.454" stroke="white" stroke-miterlimit="10"/>
<path d="M334.937 395.615C324.609 365.24 313.402 334.438 296.092 307.228C281.053 283.602 259.741 263.389 233.247 253.346C223.858 249.797 213.479 247.323 203.416 248.551C196.392 249.404 189.324 252.502 185.902 259.037C179.074 272.066 188.462 286.87 197.484 296.093C202.725 301.469 208.691 306.076 214.555 310.743C221.383 316.196 227.964 321.955 234.741 327.475C248.926 339.028 263.701 349.839 277.767 361.536C291.498 372.853 304.546 384.973 316.842 397.833C319.858 401.007 322.825 404.224 325.744 407.483C325.966 407.739 326.316 407.372 326.103 407.125C303.638 381.007 276.811 359.583 249.737 338.525C236.371 328.132 223.534 317.109 210.338 306.511C199.038 297.433 185.219 285.547 184.374 269.899C183.845 260.189 189.598 252.724 198.756 250.155C207.914 247.587 217.892 249.217 226.786 251.862C252.972 259.643 275.232 278.423 290.801 300.445C308.955 326.136 320.461 355.982 331.07 385.376C332.311 388.789 333.545 392.219 334.774 395.666C334.817 395.785 335.005 395.734 334.962 395.615H334.937Z" fill="#F48914"/>
<path d="M201.129 266.469C229.014 277.28 256.139 303.619 277.136 327.902C298.132 352.185 315.596 379.898 332.939 407.432" stroke="#F48914" stroke-miterlimit="10"/>
<path d="M247.586 296.955C247.586 296.955 244.01 266.828 241.561 257.297" stroke="#F48914" stroke-miterlimit="10"/>
<path d="M255.805 305.069C255.805 305.069 254.329 270.94 252.187 263.15" stroke="#F48914" stroke-miterlimit="10"/>
<path d="M203.211 301.008C203.211 301.008 224.455 293.372 242.721 292.996" stroke="#F48914" stroke-miterlimit="10"/>
<path d="M234.57 326.895C234.57 326.895 258.588 322.194 273.832 324.122" stroke="#F48914" stroke-miterlimit="10"/>
<path d="M224.021 318.423C224.021 318.423 249.498 313.465 264.367 313.781" stroke="#F48914" stroke-miterlimit="10"/>
<path d="M456.232 402.432C457.239 370.862 459.604 338.806 469.769 308.628C477.852 284.635 488.547 257.886 511.072 243.884C515.237 241.324 520.076 239.072 525.078 239.225C530.754 239.405 535.269 243.227 537.787 248.125C542.635 257.51 539.289 269.003 535.064 277.988C531.189 286.247 525.957 293.815 520.554 301.153C514.341 309.592 507.751 317.774 501.529 326.179C487.369 345.163 474.643 365.427 467.866 388.337C466.944 391.451 466.159 394.591 465.484 397.765C465.416 398.089 465.903 398.226 465.98 397.901C471.954 372.876 484.407 350.726 499.489 330.103C506.061 321.11 513.018 312.407 519.675 303.483C525.36 295.863 530.933 288.022 535.115 279.455C539.084 271.316 542.362 261.538 540.117 252.451C538.845 247.331 535.559 242.169 530.643 239.84C526.691 237.963 522.202 238.295 518.147 239.661C508.639 242.869 500.488 250.514 494.137 258.048C484.979 268.892 479.004 282.169 473.934 295.309C468.043 310.358 463.685 325.963 460.927 341.887C458.326 357.871 456.783 374.009 456.309 390.197C456.164 394.267 456.079 398.337 456.027 402.406C456.034 402.428 456.047 402.446 456.064 402.459C456.082 402.473 456.103 402.48 456.126 402.48C456.148 402.48 456.169 402.473 456.187 402.459C456.204 402.446 456.217 402.428 456.224 402.406L456.232 402.432Z" fill="#F48914"/>
<path d="M522.585 258.056C476.478 311.247 469.376 366.707 460.457 411.929" stroke="#F48914" stroke-miterlimit="10"/>
<path d="M503.065 284.054C503.065 284.054 503.611 263.969 501.845 250.565" stroke="#F48914" stroke-miterlimit="10"/>
<path d="M492.148 302.979C492.148 302.979 488.18 279.029 486.174 270.044" stroke="#F48914" stroke-miterlimit="10"/>
<path d="M495.75 296.324C495.75 296.324 515.211 288.781 529.695 288.542" stroke="#F48914" stroke-miterlimit="10"/>
<path d="M499.864 289.191C499.864 289.191 516.73 282.203 533.596 281.708" stroke="#F48914" stroke-miterlimit="10"/>
<path d="M486.746 314.25C486.746 314.25 502.494 307.356 517.533 306.571" stroke="#F48914" stroke-miterlimit="10"/>
<path d="M478.39 335.573C485.387 332.413 492.804 330.281 500.411 329.242" stroke="#F48914" stroke-miterlimit="10"/>
<path d="M462.215 110.123H319.326C308.597 110.123 299.899 118.817 299.899 129.542V394.915C299.899 405.64 308.597 414.335 319.326 414.335H462.215C472.944 414.335 481.641 405.64 481.641 394.915V129.542C481.641 118.817 472.944 110.123 462.215 110.123Z" fill="#F48914"/>
<path d="M472.918 131.087H308.631V393.371H472.918V131.087Z" fill="#DFEAF7"/>
<path d="M405.455 122.503H376.077C375.882 122.518 375.686 122.493 375.502 122.429C375.317 122.364 375.148 122.263 375.004 122.13C374.861 121.998 374.747 121.837 374.668 121.658C374.59 121.479 374.55 121.286 374.55 121.091C374.55 120.895 374.59 120.702 374.668 120.523C374.747 120.344 374.861 120.184 375.004 120.051C375.148 119.918 375.317 119.817 375.502 119.753C375.686 119.689 375.882 119.663 376.077 119.679H405.455C405.65 119.663 405.846 119.689 406.03 119.753C406.215 119.817 406.384 119.918 406.527 120.051C406.671 120.184 406.785 120.344 406.863 120.523C406.941 120.702 406.982 120.895 406.982 121.091C406.982 121.286 406.941 121.479 406.863 121.658C406.785 121.837 406.671 121.998 406.527 122.13C406.384 122.263 406.215 122.364 406.03 122.429C405.846 122.493 405.65 122.518 405.455 122.503Z" fill="#223554"/>
<path d="M390.766 410.461C394.075 410.461 396.758 407.779 396.758 404.471C396.758 401.163 394.075 398.482 390.766 398.482C387.457 398.482 384.774 401.163 384.774 404.471C384.774 407.779 387.457 410.461 390.766 410.461Z" fill="#223554"/>
<path d="M308.622 142.827H461.481C462.778 142.827 464.022 143.342 464.939 144.259C465.856 145.176 466.372 146.42 466.372 147.716V224.371C466.373 225.013 466.247 225.65 466.002 226.244C465.756 226.838 465.396 227.378 464.942 227.833C464.488 228.288 463.948 228.649 463.354 228.895C462.76 229.142 462.124 229.268 461.481 229.268H308.622" stroke="white" stroke-width="2" stroke-miterlimit="10"/>
<path d="M524.668 221.657H368.02L385.858 206.572V153.484C385.857 152.836 385.984 152.193 386.231 151.594C386.479 150.995 386.842 150.45 387.3 149.991C387.758 149.532 388.303 149.168 388.902 148.92C389.501 148.672 390.143 148.544 390.792 148.544H524.668C525.316 148.544 525.959 148.672 526.558 148.92C527.157 149.168 527.701 149.532 528.159 149.991C528.618 150.45 528.981 150.995 529.228 151.594C529.476 152.193 529.602 152.836 529.601 153.484V216.734C529.599 218.041 529.078 219.293 528.153 220.216C527.228 221.139 525.975 221.657 524.668 221.657V221.657Z" fill="white"/>
<g opacity="0.55">
<path d="M521.502 175.95H397.953V178.851H521.502V175.95Z" fill="#FFB800"/>
<path d="M521.502 181.632H397.953V184.533H521.502V181.632Z" fill="#FFB800"/>
<path d="M521.502 187.306H397.953V190.207H521.502V187.306Z" fill="#FFB800"/>
</g>
<path d="M487.548 157.835H399.95C398.847 157.835 397.953 158.729 397.953 159.832V168.211C397.953 169.313 398.847 170.207 399.95 170.207H487.548C488.651 170.207 489.545 169.313 489.545 168.211V159.832C489.545 158.729 488.651 157.835 487.548 157.835Z" fill="#FFB800"/>
<path d="M408.016 195.497L409.851 200.275L414.972 200.54C415.196 200.551 415.412 200.631 415.59 200.767C415.769 200.904 415.901 201.091 415.971 201.305C416.04 201.519 416.043 201.748 415.979 201.964C415.915 202.179 415.787 202.37 415.612 202.511L411.635 205.727L412.966 210.668C413.032 210.889 413.027 211.126 412.952 211.344C412.877 211.563 412.736 211.752 412.548 211.887C412.36 212.021 412.135 212.093 411.904 212.093C411.673 212.094 411.447 212.022 411.259 211.888L406.991 209.098L402.724 211.888C402.536 212.022 402.31 212.094 402.079 212.093C401.848 212.093 401.623 212.021 401.435 211.887C401.247 211.752 401.105 211.563 401.031 211.344C400.956 211.126 400.951 210.889 401.017 210.668L402.348 205.727L398.371 202.511C398.196 202.37 398.068 202.179 398.004 201.964C397.94 201.748 397.943 201.519 398.012 201.305C398.082 201.091 398.214 200.904 398.393 200.767C398.571 200.631 398.787 200.551 399.011 200.54L404.132 200.275L405.959 195.497C406.042 195.292 406.184 195.117 406.367 194.994C406.55 194.87 406.766 194.804 406.987 194.804C407.208 194.804 407.424 194.87 407.607 194.994C407.791 195.117 407.933 195.292 408.016 195.497V195.497Z" fill="#FF9189"/>
<path d="M434.39 195.497L436.216 200.275L441.338 200.54C441.562 200.551 441.778 200.63 441.956 200.767C442.134 200.904 442.267 201.091 442.336 201.305C442.406 201.519 442.409 201.748 442.345 201.964C442.281 202.179 442.153 202.37 441.978 202.511L438 205.727L439.323 210.668C439.389 210.889 439.384 211.125 439.31 211.344C439.235 211.562 439.093 211.752 438.905 211.886C438.717 212.021 438.492 212.093 438.261 212.093C438.03 212.094 437.805 212.022 437.616 211.888L433.349 209.098L429.081 211.888C428.893 212.022 428.667 212.094 428.436 212.093C428.205 212.093 427.98 212.021 427.792 211.886C427.604 211.752 427.463 211.562 427.388 211.344C427.313 211.125 427.308 210.889 427.374 210.668L428.705 205.727L424.728 202.511C424.553 202.37 424.425 202.179 424.361 201.964C424.297 201.748 424.3 201.519 424.369 201.305C424.439 201.091 424.571 200.904 424.75 200.767C424.928 200.63 425.144 200.551 425.368 200.54L430.489 200.275L432.316 195.497C432.399 195.29 432.542 195.113 432.727 194.989C432.912 194.864 433.13 194.797 433.353 194.797C433.576 194.797 433.794 194.864 433.979 194.989C434.163 195.113 434.307 195.29 434.39 195.497V195.497Z" fill="#FF9189"/>
<path d="M460.756 195.497L462.582 200.275L467.703 200.54C467.928 200.551 468.143 200.63 468.322 200.767C468.5 200.904 468.633 201.091 468.702 201.305C468.771 201.519 468.774 201.748 468.71 201.964C468.646 202.179 468.518 202.37 468.344 202.511L464.366 205.727L465.698 210.668C465.764 210.889 465.759 211.125 465.684 211.344C465.609 211.562 465.468 211.752 465.28 211.886C465.092 212.021 464.866 212.093 464.635 212.093C464.404 212.094 464.179 212.022 463.991 211.888L459.723 209.098L455.455 211.888C455.267 212.022 455.042 212.094 454.811 212.093C454.579 212.093 454.354 212.021 454.166 211.886C453.978 211.752 453.837 211.562 453.762 211.344C453.687 211.125 453.682 210.889 453.748 210.668L455.071 205.727L451.094 202.511C450.919 202.37 450.791 202.179 450.727 201.964C450.663 201.748 450.666 201.519 450.735 201.305C450.805 201.091 450.937 200.904 451.115 200.767C451.294 200.63 451.509 200.551 451.734 200.54L456.855 200.275L458.682 195.497C458.765 195.29 458.908 195.113 459.093 194.989C459.278 194.864 459.496 194.797 459.719 194.797C459.942 194.797 460.159 194.864 460.344 194.989C460.529 195.113 460.672 195.29 460.756 195.497V195.497Z" fill="#FF9189"/>
<path d="M486.088 195.642C486.142 195.638 486.195 195.651 486.24 195.68C486.285 195.71 486.319 195.753 486.336 195.804L488.162 200.582L488.359 201.103H488.914L494.035 201.367C494.087 201.369 494.138 201.387 494.179 201.419C494.221 201.452 494.251 201.496 494.265 201.547C494.283 201.596 494.284 201.651 494.269 201.701C494.254 201.752 494.222 201.797 494.18 201.828L490.202 205.036L489.776 205.386L489.912 205.924L491.244 210.864C491.261 210.897 491.27 210.933 491.27 210.971C491.27 211.008 491.261 211.044 491.244 211.077C491.217 211.111 491.183 211.138 491.145 211.157C491.107 211.176 491.065 211.187 491.022 211.188C490.977 211.202 490.93 211.202 490.885 211.188L486.618 208.398L486.148 208.099L485.687 208.398L481.42 211.188C481.372 211.203 481.322 211.203 481.274 211.188C481.233 211.187 481.192 211.176 481.155 211.157C481.118 211.137 481.086 211.11 481.061 211.077C481.044 211.044 481.035 211.008 481.035 210.971C481.035 210.933 481.044 210.897 481.061 210.864L482.384 205.924L482.529 205.386L482.102 205.036L478.125 201.828C478.081 201.797 478.049 201.753 478.034 201.702C478.018 201.651 478.02 201.596 478.04 201.547C478.054 201.496 478.084 201.452 478.126 201.419C478.167 201.387 478.218 201.369 478.27 201.367L483.391 201.103H483.946L484.142 200.582L485.969 195.804C485.986 195.755 486.018 195.712 486.061 195.683C486.104 195.654 486.156 195.639 486.208 195.642M486.208 194.789C485.984 194.787 485.765 194.854 485.58 194.98C485.395 195.107 485.254 195.288 485.175 195.497L483.34 200.275L478.219 200.54C477.994 200.551 477.779 200.631 477.6 200.767C477.422 200.904 477.29 201.091 477.22 201.305C477.151 201.519 477.148 201.748 477.212 201.964C477.276 202.179 477.404 202.37 477.579 202.511L481.556 205.727L480.225 210.668C480.18 210.832 480.174 211.005 480.207 211.173C480.24 211.341 480.312 211.498 480.416 211.634C480.52 211.769 480.654 211.879 480.807 211.954C480.961 212.029 481.129 212.068 481.3 212.067C481.515 212.069 481.726 212.006 481.906 211.888L486.174 209.098L490.441 211.888C490.618 212.005 490.826 212.068 491.039 212.067C491.21 212.069 491.38 212.031 491.535 211.957C491.689 211.882 491.824 211.773 491.929 211.637C492.034 211.501 492.106 211.343 492.14 211.175C492.174 211.007 492.168 210.833 492.123 210.668L490.791 205.727L494.769 202.511C494.944 202.37 495.072 202.179 495.136 201.964C495.2 201.748 495.197 201.519 495.127 201.305C495.058 201.091 494.925 200.904 494.747 200.767C494.569 200.631 494.353 200.551 494.129 200.54L489.007 200.275L487.181 195.497C487.102 195.286 486.959 195.105 486.773 194.978C486.586 194.851 486.365 194.785 486.14 194.789H486.208Z" fill="#FF9189"/>
<path d="M512.462 195.642C512.514 195.64 512.566 195.654 512.609 195.683C512.652 195.712 512.685 195.755 512.701 195.804L514.536 200.583L514.733 201.103H515.287L520.409 201.368C520.461 201.368 520.513 201.385 520.554 201.418C520.596 201.45 520.626 201.496 520.639 201.547C520.658 201.596 520.66 201.649 520.647 201.7C520.633 201.751 520.603 201.796 520.562 201.828L516.585 205.036L516.149 205.386L516.295 205.924L517.626 210.864C517.636 210.9 517.638 210.939 517.63 210.976C517.623 211.013 517.607 211.048 517.583 211.077C517.558 211.11 517.526 211.138 517.489 211.157C517.452 211.176 517.412 211.187 517.37 211.188C517.326 211.203 517.278 211.203 517.233 211.188L512.966 208.398L512.496 208.1L512.027 208.398L507.759 211.188C507.715 211.203 507.667 211.203 507.623 211.188C507.581 211.187 507.54 211.176 507.504 211.157C507.467 211.138 507.434 211.11 507.409 211.077C507.386 211.048 507.37 211.013 507.362 210.976C507.355 210.939 507.356 210.9 507.367 210.864L508.698 205.924L508.843 205.386L508.408 205.036L504.431 201.828C504.39 201.795 504.36 201.751 504.345 201.7C504.33 201.65 504.33 201.597 504.345 201.547C504.361 201.496 504.393 201.451 504.436 201.419C504.479 201.387 504.531 201.369 504.584 201.368L509.705 201.103H510.26L510.456 200.583L512.292 195.804C512.307 195.754 512.339 195.711 512.382 195.681C512.426 195.652 512.478 195.638 512.53 195.642M512.53 194.789C512.306 194.788 512.086 194.855 511.9 194.981C511.714 195.108 511.571 195.288 511.489 195.497L509.663 200.275L504.541 200.54C504.316 200.55 504.1 200.628 503.92 200.764C503.74 200.9 503.606 201.087 503.536 201.301C503.466 201.515 503.462 201.746 503.526 201.962C503.589 202.178 503.718 202.369 503.893 202.511L507.87 205.728L506.547 210.668C506.481 210.889 506.486 211.126 506.561 211.344C506.636 211.563 506.777 211.752 506.965 211.887C507.153 212.021 507.379 212.093 507.61 212.094C507.841 212.094 508.066 212.022 508.254 211.888L512.522 209.098L516.79 211.888C516.969 212.006 517.18 212.069 517.396 212.067C517.566 212.068 517.735 212.029 517.889 211.954C518.042 211.879 518.176 211.769 518.28 211.634C518.384 211.498 518.455 211.341 518.489 211.173C518.522 211.006 518.516 210.833 518.471 210.668L517.088 205.728L521.066 202.511C521.241 202.369 521.369 202.178 521.433 201.962C521.497 201.746 521.493 201.515 521.423 201.301C521.352 201.087 521.218 200.9 521.039 200.764C520.859 200.628 520.642 200.55 520.417 200.54L515.296 200.275L513.469 195.497C513.388 195.288 513.245 195.108 513.059 194.981C512.873 194.855 512.653 194.788 512.428 194.789H512.53Z" fill="#FF9189"/>
<path d="M486.089 194.789C485.865 194.787 485.646 194.854 485.461 194.981C485.276 195.107 485.135 195.288 485.056 195.497L483.221 200.275L478.1 200.54C477.875 200.551 477.66 200.631 477.481 200.767C477.303 200.904 477.17 201.092 477.101 201.305C477.032 201.519 477.029 201.748 477.093 201.964C477.157 202.179 477.285 202.37 477.46 202.511L481.437 205.728L480.106 210.668C480.04 210.889 480.044 211.126 480.119 211.344C480.194 211.563 480.336 211.752 480.524 211.887C480.712 212.021 480.937 212.093 481.168 212.094C481.399 212.094 481.624 212.022 481.813 211.888L486.08 209.098L486.089 194.789Z" fill="#FF9189"/>
<path d="M357.027 216.644C372.447 210.417 379.897 192.872 373.667 177.458C367.437 162.043 349.886 154.596 334.467 160.824C319.047 167.052 311.597 184.596 317.827 200.011C324.057 215.425 341.608 222.872 357.027 216.644Z" fill="white"/>
<path d="M352.116 216.189C367.268 212.667 376.694 197.533 373.171 182.387C369.648 167.24 354.509 157.817 339.358 161.338C324.206 164.86 314.779 179.994 318.302 195.141C321.825 210.287 336.964 219.711 352.116 216.189Z" fill="#223554"/>
<path d="M327.759 198.902C333.511 192.323 342.081 192.468 342.081 192.468L350.539 192.323C350.539 192.323 358.067 193.313 362.6 197.024C376.154 208.116 373.909 227.621 373.909 227.621C373.909 227.621 318.924 215.676 318.848 215.335C318.771 214.994 323.918 203.287 327.759 198.902Z" stroke="white" stroke-miterlimit="10"/>
<path d="M351.503 176.274C353.21 183.177 350.104 188.33 347.441 188.731C343.625 189.303 341.466 187.426 340.365 184.03C339.87 182.52 339.136 176.837 340.723 175.165C343.361 172.392 350.052 170.395 351.503 176.274Z" fill="#FEE5E6"/>
<path d="M342.516 185.514L342.132 191.854C342.132 191.854 341.278 194.738 346.459 194.738C351.64 194.738 350.419 191.854 350.419 191.854L349.566 184.823" fill="#FEE5E6"/>
<path d="M342.26 187.528C342.675 188.119 343.235 188.594 343.887 188.904C344.539 189.215 345.261 189.353 345.981 189.303C346.768 189.303 347.544 189.111 348.24 188.743C348.936 188.376 349.532 187.845 349.976 187.195" stroke="#F2B6AA" stroke-width="0.5" stroke-miterlimit="10"/>
<path d="M339.469 172.059C342.934 169.055 349.396 168.27 352.904 171.863C354.968 174.019 356.505 176.624 357.393 179.474C358.282 182.323 358.498 185.34 358.025 188.287C358.024 188.455 357.989 188.62 357.921 188.773C357.853 188.926 357.755 189.064 357.631 189.177C357.508 189.29 357.362 189.376 357.204 189.43C357.045 189.484 356.877 189.504 356.71 189.49C355.569 189.691 354.412 189.794 353.253 189.798C352.229 189.798 351.273 189.635 350.258 189.687C350.196 189.703 350.131 189.703 350.07 189.687C349.933 189.635 349.891 189.456 349.873 189.303C349.822 188.867 349.763 188.449 349.711 187.997C349.686 187.822 349.686 187.644 349.711 187.468C349.765 187.272 349.849 187.085 349.959 186.914C350.718 185.615 351.146 184.15 351.205 182.647C351.136 181.047 350.863 179.461 350.394 177.929C349.848 175.847 348.687 176.376 347.134 176.948C345.938 177.386 344.621 177.355 343.446 176.862C342.882 176.53 342.264 176.299 341.62 176.18C339.059 176.035 340.092 181.368 340.348 182.682C340.604 183.996 340.843 185.472 341.85 186.564C342.022 186.729 342.177 186.912 342.311 187.11C342.481 187.426 342.58 187.776 342.601 188.134C342.662 188.661 342.694 189.19 342.695 189.721C341.56 189.721 340.451 189.823 339.324 189.823C338.197 189.823 336.874 189.687 335.654 189.687C335.32 189.706 334.991 189.6 334.732 189.388C334.615 189.226 334.533 189.041 334.494 188.845C334.454 188.65 334.457 188.448 334.501 188.253C334.988 182.519 334.996 175.915 339.469 172.059Z" fill="#F48914"/>
<path d="M340.638 181.479C340.448 181.302 340.205 181.194 339.947 181.171C339.689 181.148 339.431 181.211 339.213 181.351C339.057 181.479 338.933 181.643 338.852 181.828C338.77 182.013 338.733 182.215 338.743 182.417C338.706 182.79 338.756 183.167 338.889 183.518C338.966 183.71 339.081 183.885 339.228 184.032C339.375 184.178 339.55 184.294 339.742 184.371C339.948 184.452 340.171 184.48 340.39 184.452C340.61 184.424 340.818 184.34 340.997 184.209" fill="#FEE5E6"/>
<path d="M351.281 181.478C351.473 181.301 351.717 181.193 351.977 181.17C352.236 181.147 352.496 181.21 352.715 181.35C352.872 181.479 352.997 181.64 353.083 181.823C353.168 182.006 353.212 182.206 353.21 182.408C353.245 182.782 353.192 183.159 353.057 183.509C352.981 183.702 352.866 183.878 352.719 184.025C352.572 184.171 352.397 184.286 352.203 184.362C351.999 184.444 351.777 184.472 351.559 184.443C351.341 184.415 351.134 184.331 350.957 184.2" fill="#FEE5E6"/>
<path d="M359.353 281.726C363.461 271.731 358.687 260.3 348.69 256.193C338.692 252.086 327.256 256.858 323.148 266.852C319.039 276.847 323.814 288.278 333.811 292.385C343.809 296.492 355.244 291.72 359.353 281.726Z" fill="white"/>
<path d="M354.181 287.207C361.331 280.059 361.331 268.471 354.181 261.324C347.032 254.176 335.439 254.176 328.29 261.324C321.14 268.471 321.14 280.059 328.29 287.207C335.439 294.354 347.032 294.354 354.181 287.207Z" fill="#223554"/>
<path d="M353.885 281.222C350.65 277.399 344.069 277.433 344.069 277.433L339.213 277.348C339.213 277.348 332.905 277.442 330.046 280.479C323.935 286.981 325.164 296.52 325.164 296.52C325.164 296.52 357.35 296.708 357.393 296.52C357.436 296.332 357.231 285.172 353.885 281.222Z" stroke="white" stroke-miterlimit="10"/>
<path d="M338.7 268.142C337.719 272.101 339.503 275.053 341.03 275.283C343.224 275.616 344.445 274.541 345.085 272.587C345.375 271.734 345.793 268.466 344.88 267.51C343.335 265.923 339.494 264.771 338.7 268.142Z" fill="#EFC5C8"/>
<path d="M342.047 267.399C341.791 267.357 341.526 267.399 341.261 267.331C340.918 267.259 340.605 267.083 340.365 266.828C339.819 266.256 338.743 268.662 338.743 268.662C338.482 269.887 338.465 271.151 338.692 272.382C337.918 271.91 337.261 271.268 336.772 270.505C336.535 270.128 336.377 269.707 336.307 269.267C336.236 268.827 336.255 268.378 336.362 267.945C336.78 267.049 337.304 266.207 337.924 265.437C338.161 264.956 338.447 264.502 338.778 264.08C339.192 263.674 339.703 263.381 340.263 263.227C341.266 262.891 342.337 262.812 343.378 262.997C344.421 263.188 345.356 263.756 346.007 264.592C346.631 265.566 346.971 266.695 346.989 267.851C347.096 268.485 347.076 269.133 346.929 269.759C346.783 270.385 346.513 270.975 346.135 271.495C345.905 271.751 345.469 271.955 345.281 271.691C345.226 271.604 345.191 271.507 345.177 271.405C345.164 271.303 345.173 271.2 345.205 271.102C345.297 270.701 345.296 270.283 345.201 269.882C345.106 269.482 344.921 269.108 344.658 268.79C344.288 268.489 343.873 268.248 343.429 268.073C343.016 267.761 342.547 267.533 342.047 267.399V267.399Z" fill="#FFB800"/>
<path d="M343.822 273.44L344.043 277.084C344.043 277.084 344.556 278.73 341.56 278.73C338.564 278.73 339.289 277.084 339.289 277.084L339.784 273.048" fill="#EFC5C8"/>
<path d="M343.821 274.558C343.619 274.922 343.32 275.223 342.957 275.428C342.594 275.632 342.181 275.733 341.764 275.718C341.308 275.697 340.865 275.559 340.478 275.317C340.09 275.075 339.772 274.737 339.554 274.336" stroke="#E09DA5" stroke-width="0.5" stroke-miterlimit="10"/>
<path opacity="0.65" d="M455.797 254.089H373.517C371.74 254.089 370.299 255.529 370.299 257.306V291.23C370.299 293.007 371.74 294.447 373.517 294.447H455.797C457.574 294.447 459.015 293.007 459.015 291.23V257.306C459.015 255.529 457.574 254.089 455.797 254.089Z" fill="white"/>
<g opacity="0.55">
<path d="M452.348 269.677H374.78V272.519H452.348V269.677Z" fill="#FFB800"/>
<path d="M452.348 275.249H374.78V278.09H452.348V275.249Z" fill="#FFB800"/>
<path d="M452.348 280.821H374.78V283.662H452.348V280.821Z" fill="#FFB800"/>
<path d="M399.737 286.392H374.78V289.233H399.737V286.392Z" fill="#FFB800"/>
</g>
<g opacity="0.55">
<path d="M431.48 287.407C431.48 287.642 431.433 287.874 431.343 288.09L431.812 289.029L430.788 288.798C430.508 289.01 430.166 289.124 429.815 289.122C429.476 289.131 429.142 289.038 428.855 288.856C428.569 288.674 428.344 288.41 428.208 288.099C428.072 287.788 428.032 287.444 428.093 287.11C428.154 286.776 428.313 286.468 428.55 286.225C428.787 285.982 429.091 285.816 429.423 285.746C429.756 285.677 430.101 285.708 430.416 285.836C430.73 285.964 430.999 286.182 431.189 286.464C431.378 286.745 431.479 287.077 431.48 287.416V287.407Z" fill="#FFB800"/>
<path d="M442.456 286.793C442.21 286.92 441.94 286.995 441.664 287.014C441.388 287.033 441.11 286.997 440.848 286.906C440.587 286.815 440.346 286.672 440.141 286.485C439.937 286.299 439.772 286.072 439.657 285.82C439.531 285.823 439.407 285.85 439.292 285.9C439.177 285.95 439.073 286.022 438.986 286.112C438.899 286.203 438.83 286.309 438.784 286.426C438.738 286.543 438.716 286.668 438.718 286.793C438.717 287.047 438.815 287.292 438.991 287.476L440.587 289.122L442.183 287.476C442.359 287.292 442.457 287.047 442.456 286.793V286.793Z" fill="#FFB800"/>
<path d="M452.34 285.82H447.748V286.52H452.34V285.82Z" fill="#FFB800"/>
<path d="M452.34 287.271H447.748V287.971H452.34V287.271Z" fill="#FFB800"/>
<path d="M452.34 288.713H447.748V289.413H452.34V288.713Z" fill="#FFB800"/>
</g>
<path d="M425.223 259.208H375.787C375.23 259.208 374.78 259.659 374.78 260.215V265.027C374.78 265.583 375.23 266.034 375.787 266.034H425.223C425.779 266.034 426.23 265.583 426.23 265.027V260.215C426.23 259.659 425.779 259.208 425.223 259.208Z" fill="#FFB800"/>
<path d="M461.489 245.241H320.051C317.35 245.241 315.16 247.43 315.16 250.13V298.406C315.16 301.106 317.35 303.295 320.051 303.295H461.489C464.19 303.295 466.38 301.106 466.38 298.406V250.13C466.38 247.43 464.19 245.241 461.489 245.241Z" stroke="white" stroke-miterlimit="10"/>
<path d="M359.354 356.295C363.463 346.301 358.689 334.87 348.691 330.763C338.693 326.656 327.258 331.428 323.149 341.422C319.041 351.417 323.815 362.848 333.812 366.955C343.81 371.062 355.246 366.29 359.354 356.295Z" fill="white"/>
<path d="M354.185 361.765C361.335 354.618 361.335 343.03 354.185 335.883C347.035 328.735 335.443 328.735 328.293 335.883C321.144 343.03 321.144 354.618 328.293 361.765C335.443 368.913 347.035 368.913 354.185 361.765Z" fill="#223554"/>
<path opacity="0.65" d="M455.797 328.645H373.517C371.74 328.645 370.299 330.085 370.299 331.861V365.786C370.299 367.562 371.74 369.003 373.517 369.003H455.797C457.574 369.003 459.015 367.562 459.015 365.786V331.861C459.015 330.085 457.574 328.645 455.797 328.645Z" fill="white"/>
<g opacity="0.55">
<path d="M452.348 344.241H374.78V347.083H452.348V344.241Z" fill="#FFB800"/>
<path d="M452.348 349.813H374.78V352.654H452.348V349.813Z" fill="#FFB800"/>
<path d="M452.348 355.376H374.78V358.217H452.348V355.376Z" fill="#FFB800"/>
<path d="M399.737 360.948H374.78V363.789H399.737V360.948Z" fill="#FFB800"/>
</g>
<g opacity="0.55">
<path d="M431.48 361.972C431.478 362.206 431.432 362.437 431.343 362.654L431.812 363.593L430.788 363.362C430.508 363.574 430.166 363.688 429.815 363.687C429.476 363.695 429.142 363.602 428.855 363.42C428.569 363.238 428.344 362.974 428.208 362.663C428.072 362.352 428.032 362.008 428.093 361.674C428.154 361.34 428.313 361.032 428.55 360.789C428.787 360.546 429.091 360.38 429.423 360.31C429.756 360.241 430.101 360.272 430.416 360.4C430.73 360.528 430.999 360.746 431.189 361.028C431.378 361.309 431.479 361.641 431.48 361.98V361.972Z" fill="#FFB800"/>
<path d="M442.456 361.349C442.21 361.474 441.941 361.549 441.666 361.568C441.39 361.587 441.113 361.551 440.852 361.461C440.59 361.371 440.35 361.229 440.145 361.044C439.939 360.859 439.773 360.635 439.657 360.385C439.532 360.386 439.408 360.412 439.293 360.461C439.178 360.51 439.074 360.581 438.986 360.671C438.899 360.761 438.83 360.867 438.784 360.983C438.738 361.099 438.716 361.224 438.718 361.349C438.715 361.603 438.813 361.849 438.991 362.031L440.587 363.687L442.183 362.031C442.361 361.849 442.459 361.603 442.456 361.349V361.349Z" fill="#FFB800"/>
<path d="M452.34 360.385H447.748V361.084H452.34V360.385Z" fill="#FFB800"/>
<path d="M452.34 361.827H447.748V362.526H452.34V361.827Z" fill="#FFB800"/>
<path d="M452.34 363.277H447.748V363.977H452.34V363.277Z" fill="#FFB800"/>
</g>
<path d="M425.223 333.772H375.787C375.23 333.772 374.78 334.223 374.78 334.779V339.591C374.78 340.147 375.23 340.598 375.787 340.598H425.223C425.779 340.598 426.23 340.147 426.23 339.591V334.779C426.23 334.223 425.779 333.772 425.223 333.772Z" fill="#FFB800"/>
<path d="M461.489 319.796H320.051C317.35 319.796 315.16 321.985 315.16 324.685V372.961C315.16 375.662 317.35 377.85 320.051 377.85H461.489C464.19 377.85 466.38 375.662 466.38 372.961V324.685C466.38 321.985 464.19 319.796 461.489 319.796Z" stroke="white" stroke-miterlimit="10"/>
<path d="M504.422 222.937C504.098 222.084 503.782 221.162 503.458 220.284C503.316 219.819 503.109 219.376 502.843 218.97C502.706 218.769 502.528 218.599 502.321 218.473C502.113 218.346 501.881 218.265 501.64 218.236C501.179 218.236 501.025 217.997 500.786 217.664C500.349 217.144 499.843 216.685 499.284 216.299C498.77 215.857 498.154 215.549 497.492 215.403C497.142 215.403 497.253 215.744 497.381 215.949C497.995 216.939 498.977 217.459 499.728 218.458C499.262 218.622 498.869 218.945 498.618 219.371C498.431 219.668 498.301 219.998 498.234 220.343C498.227 220.745 498.241 221.146 498.277 221.546C498.251 221.805 498.251 222.065 498.277 222.323C498.318 222.507 498.396 222.682 498.507 222.835C498.717 223.11 498.982 223.338 499.284 223.505C499.587 223.673 499.921 223.776 500.266 223.807C500.47 223.807 500.718 223.807 500.795 223.603C500.841 223.766 500.921 223.919 501.03 224.05C501.138 224.18 501.274 224.287 501.426 224.362C501.729 224.508 502.046 224.62 502.374 224.695C502.45 224.712 502.523 224.744 502.587 224.789C502.65 224.85 502.702 224.922 502.741 225.002C502.947 225.408 503.215 225.779 503.535 226.103" fill="#FFDFD9"/>
<path d="M554.567 413.285C554.567 413.285 556.394 416.877 555.131 417.782C554.166 418.481 540.399 418.848 540.04 417.048C539.835 416.007 551.136 412.995 551.136 412.995L555.241 409.667L554.567 413.285Z" fill="#223554"/>
<path d="M547.892 310.155C547.892 310.155 544.239 333.354 544.239 352.689C544.239 380.606 550.709 411.024 551.067 412.995C551.591 413.287 552.171 413.464 552.769 413.514C553.366 413.564 553.968 413.486 554.533 413.285C554.533 413.285 562.795 388.925 563.683 381.716C565.04 370.7 561.233 358.311 561.233 358.311C561.233 358.311 567.78 338.32 570.221 324.011C571.347 317.586 547.892 310.155 547.892 310.155Z" fill="#FFDFD9"/>
<path d="M592.942 413.285C592.942 413.285 594.769 416.877 593.506 417.782C592.541 418.481 578.765 418.848 578.415 417.048C578.202 416.007 589.468 412.995 589.468 412.995L593.574 409.667L592.942 413.285Z" fill="#223554"/>
<path d="M578.372 310.155C578.372 310.155 578.568 335.265 578.372 352.689C578.039 381.434 589.083 411.024 589.468 412.995C589.994 413.285 590.575 413.461 591.173 413.511C591.772 413.561 592.375 413.484 592.941 413.285C592.941 413.285 597.593 393.738 598.216 381.716C598.797 370.623 595.767 358.311 595.767 358.311C595.767 358.311 598.455 336.835 600.888 322.527C601.997 316.102 578.372 310.155 578.372 310.155Z" fill="#FFDFD9"/>
<path d="M546.475 294.037C546.475 294.037 542.865 304.387 542.071 332.083C541.782 338.297 542.016 344.525 542.771 350.7C571.791 358.021 599.761 351.63 599.761 351.63C599.761 351.63 607.042 316.289 599.514 301.938C592.848 289.225 586.173 281.802 586.173 281.802" fill="#223554"/>
<path d="M595.417 241.162C595.417 241.162 598.959 278.133 598.993 281.699C599.113 295.488 604.379 304.011 603.099 305.291C600.82 307.569 550.462 310.701 545.059 305.291C545.059 298.184 546.766 276.06 547.048 271.734C548.473 250.974 555.096 230.855 555.096 230.855C555.096 230.855 554.14 224.883 574.89 225.488C584.518 225.488 592.455 228.543 595.417 241.162Z" fill="#FF9189"/>
<path d="M562.394 226.154C554.733 226.47 547.264 228.643 540.629 232.485C530.967 238.219 525.991 244.149 520.87 244.149C515.749 244.149 503.961 221.726 503.961 221.726L501.964 224.891C501.964 224.891 505.651 258.082 519.163 262.032C537.249 267.314 556.718 252.886 556.718 252.886" fill="#F41414"/>
<path d="M575.803 225.488C575.803 225.488 573.242 237.109 573.242 263.031C573.242 275.565 574.497 314.668 574.497 314.668C574.497 314.668 592.618 316.477 604.004 309.549C602.826 297.604 604.78 260.522 599.992 245.411C597.005 235.966 597.764 230.377 592.541 227.835C587.098 226.277 581.464 225.487 575.803 225.488V225.488Z" fill="#F41414"/>
<path d="M562.394 226.154C562.394 226.154 559.774 247.544 558.63 266.955C557.487 286.367 558.63 313.815 558.63 313.815C558.63 313.815 545.725 311.964 541.961 307.621C542.934 294.583 544.82 258.355 547.791 246.657C551.597 231.632 562.394 226.154 562.394 226.154Z" fill="#F41414"/>
<path d="M545.887 258.969L547.705 242.681" stroke="black" stroke-width="0.75" stroke-miterlimit="10"/>
<path d="M595.853 296.93C592.158 298.392 588.234 299.195 584.262 299.302" stroke="black" stroke-width="2" stroke-miterlimit="10"/>
<path d="M555.096 299.037C555.096 299.037 551.887 299.216 546.134 296.93" stroke="black" stroke-width="2" stroke-miterlimit="10"/>
<path d="M583.331 225.966C583.331 225.966 584.611 244.225 583.092 245.369C581.714 246.232 580.289 247.018 578.825 247.724L582.631 250.241C582.426 260.232 573.669 282.723 573.669 282.723" stroke="black" stroke-width="0.75" stroke-linejoin="round"/>
<path d="M560.286 226.265C560.286 226.265 555.352 237.357 555.677 241.623C555.677 242.937 558.912 245.036 558.912 245.036L555.258 246.853C553.841 258.043 554.53 269.398 557.29 280.334" stroke="black" stroke-width="0.75" stroke-linejoin="round"/>
<path d="M565.927 202.621C565.927 202.621 556.427 215.42 559.858 218.833C563.29 222.246 569.964 220.411 572.448 217.98C575.982 214.447 580.249 197.639 565.927 202.621Z" fill="#FFDFD9"/>
<path d="M564.408 210.983C564.408 210.983 561.421 212.92 561.541 213.654C561.66 214.388 562.531 214.371 562.531 214.371" stroke="#F2B6AA" stroke-width="0.5" stroke-miterlimit="10"/>
<path d="M567.233 212.272C567.237 212.32 567.237 212.368 567.233 212.417C567.174 212.727 567.042 213.019 566.849 213.27C566.576 213.731 565.842 213.27 566.166 212.784C566.363 212.499 566.598 212.243 566.866 212.024C567.139 211.811 567.225 212.007 567.233 212.272Z" fill="#223554"/>
<path d="M563.179 208.995V209.14C563.12 209.451 562.988 209.743 562.795 209.994C562.522 210.454 561.788 209.951 562.112 209.507C562.307 209.221 562.543 208.965 562.812 208.748C563.094 208.569 563.179 208.765 563.179 208.995Z" fill="#223554"/>
<path d="M569.154 212.843C569.237 212.649 569.284 212.44 569.291 212.229C569.304 211.752 569.173 211.282 568.915 210.881C568.653 210.475 568.258 210.173 567.797 210.028C567.639 209.996 567.477 209.996 567.319 210.028L567.148 210.079L567.302 210.156C567.418 210.224 567.527 210.304 567.626 210.394C567.914 210.644 568.166 210.931 568.378 211.248C568.59 211.585 568.776 211.939 568.932 212.306C568.994 212.436 569.048 212.57 569.094 212.707C569.112 212.753 569.132 212.799 569.154 212.843V212.843Z" fill="#223554"/>
<path d="M565.031 208.628C565.035 208.586 565.035 208.543 565.031 208.5C565.042 208.379 565.028 208.257 564.988 208.142C564.924 207.97 564.825 207.813 564.697 207.68C564.57 207.548 564.416 207.444 564.246 207.374C563.913 207.231 563.541 207.213 563.196 207.323C563.04 207.369 562.899 207.454 562.786 207.57H562.914C563.015 207.593 563.115 207.621 563.213 207.656C563.479 207.724 563.739 207.815 563.99 207.929C564.236 208.025 564.469 208.154 564.681 208.313C564.81 208.404 564.927 208.51 565.031 208.628Z" fill="#223554"/>
<path d="M565.449 215.992L563.35 225.966C563.35 225.966 565.492 229.251 566.721 229.251C568.513 229.251 574.403 225.488 574.403 225.488L572.26 213.756" fill="#FFDFD9"/>
<path d="M560.841 215.54L563.495 216.819C561.532 219.098 559.911 216.913 560.841 215.54Z" fill="white"/>
<path d="M564.408 220.727C564.408 220.727 568.676 221.171 570.921 219.089" stroke="#F2B6AA" stroke-width="0.5" stroke-miterlimit="10"/>
<path d="M574.181 223.901L566.729 229.26L569.76 233.364L575.12 225.488L574.181 223.901Z" fill="white"/>
<path d="M566.73 229.26L563.64 224.601L562.966 226.094L563.64 232.664L566.73 229.26Z" fill="white"/>
<path d="M598.635 296.87C597.944 297.608 597.321 298.408 596.774 299.259C595.773 301.089 595.261 303.146 595.289 305.232C595.289 305.283 595.289 305.36 595.34 305.385C595.358 305.396 595.379 305.401 595.4 305.401C595.421 305.401 595.441 305.396 595.46 305.385C595.655 305.299 595.825 305.165 595.954 304.995C596.082 304.824 596.165 304.624 596.194 304.412C596.27 304.08 596.288 303.448 596.595 303.261C596.724 303.556 596.774 303.879 596.74 304.199V308.465C596.719 308.549 596.719 308.637 596.74 308.721C596.76 308.76 596.793 308.791 596.834 308.809C596.874 308.826 596.92 308.828 596.962 308.815C597.002 308.783 597.034 308.742 597.056 308.696C597.169 308.423 597.244 308.136 597.278 307.842C597.463 306.768 597.571 305.682 597.602 304.592C597.64 305.867 597.563 307.144 597.372 308.406C597.372 308.585 597.261 309.122 597.482 309.259C597.704 309.395 598.029 308.269 598.106 308.056C598.432 306.953 598.682 305.83 598.857 304.694C598.788 306.298 598.532 308.363 598.618 308.474C598.993 309.011 599.471 306.656 599.471 306.366C599.548 305.718 599.616 305.061 599.685 304.404C599.685 305.462 599.335 307.586 599.685 307.586C600.035 307.586 600.12 307.1 600.205 306.776C600.671 304.775 600.833 302.716 600.683 300.667C600.649 300.466 600.649 300.261 600.683 300.061C600.749 299.854 600.856 299.662 600.999 299.498L602.211 297.851" fill="#FFDFD9"/>
<path d="M583.835 226.154C583.835 226.154 593.676 226.154 604.849 234.26C617.601 243.534 625.863 258.807 625.863 271.298C625.863 288.363 601.11 299.89 601.11 299.89L598.302 297.595C598.302 297.595 609.398 272.621 609.398 270.343C609.398 268.065 590.006 245.548 590.006 245.548" fill="#F41414"/>
<path d="M602.408 260.479L592.806 248.858" stroke="black" stroke-width="0.75" stroke-linejoin="round"/>
<path d="M598.311 297.621L603.423 285.821" stroke="black" stroke-width="0.75" stroke-linejoin="round"/>
<path d="M567.038 199.302C567.372 199.137 567.724 199.008 568.087 198.918C570.923 198.307 573.881 198.627 576.52 199.831C577.874 200.47 579.084 201.379 580.074 202.501C581.065 203.623 581.816 204.936 582.282 206.359C583.245 209.421 583.197 212.712 582.145 215.744C580.967 218.679 577.792 220.488 574.643 220.667C573.936 220.754 573.221 220.629 572.586 220.309C572.274 220.143 572.026 219.88 571.879 219.559C571.733 219.238 571.696 218.878 571.775 218.534C571.997 217.877 572.765 217.314 572.5 216.683C572.065 215.65 569.598 216.393 570.144 214.55C570.298 214.029 570.998 213.696 571.339 213.27C571.976 212.542 572.547 211.76 573.046 210.932C573.156 210.838 573.238 210.716 573.282 210.579C573.326 210.442 573.331 210.295 573.296 210.155C573.262 210.015 573.189 209.888 573.086 209.787C572.983 209.686 572.854 209.616 572.714 209.584L569.453 207.963C569.141 207.831 568.853 207.649 568.599 207.425C567.746 206.572 568.096 205.249 568.463 204.157C567.979 204.374 567.564 204.719 567.263 205.155C566.962 205.592 566.786 206.102 566.756 206.632C565.657 206.546 564.592 206.214 563.64 205.659C563.355 205.533 563.125 205.309 562.992 205.028C562.948 204.833 562.943 204.632 562.978 204.435C563.014 204.239 563.088 204.052 563.197 203.884C564.084 202.118 565.228 200.215 567.038 199.302Z" fill="#223554"/>
<path d="M572.132 215.19C572.393 214.985 572.707 214.861 573.036 214.832C573.366 214.803 573.697 214.87 573.989 215.025C574.281 215.181 574.522 215.418 574.682 215.708C574.842 215.997 574.914 216.327 574.889 216.657C574.865 217.177 574.677 217.675 574.352 218.081C574.027 218.487 573.581 218.78 573.08 218.918C571.646 219.473 569.427 217.587 570.801 216.649" fill="#FFDFD9"/>
<path d="M579.677 201.828C579.882 201.122 580.247 200.473 580.743 199.931C581.24 199.389 581.854 198.968 582.54 198.703C583.225 198.437 583.963 198.333 584.695 198.398C585.427 198.464 586.134 198.697 586.762 199.081C587.074 199.304 587.402 199.503 587.743 199.678C588.676 199.967 589.679 199.928 590.586 199.567C592.394 198.968 594.231 198.461 596.091 198.048C598.127 197.594 600.243 197.629 602.263 198.151C604.283 198.673 606.151 199.666 607.713 201.049C609.275 202.432 610.486 204.166 611.248 206.108C612.01 208.05 612.3 210.145 612.095 212.22C611.13 220.522 600.358 224.524 594.085 216.708C593.288 215.646 592.168 214.87 590.893 214.499C589.595 214.149 588.17 213.901 587.223 212.954C586.019 211.76 585.951 209.883 585.43 208.27C584.91 206.657 583.39 203.825 581.376 204.072C580.821 204.14 580.3 204.388 579.746 204.447C579.474 204.506 579.19 204.478 578.935 204.368C578.68 204.258 578.465 204.071 578.32 203.833" fill="#223554"/>
<path d="M263.223 428.2C263.091 428.203 262.961 428.177 262.841 428.122C262.722 428.067 262.616 427.985 262.534 427.882C262.451 427.78 262.393 427.66 262.365 427.531C262.336 427.403 262.338 427.269 262.37 427.142L272.74 372.68H276.862L264.06 427.551C264.013 427.738 263.906 427.903 263.754 428.021C263.602 428.138 263.415 428.201 263.223 428.2V428.2Z" fill="#F41414"/>
<path d="M314.401 428.2C314.533 428.203 314.663 428.177 314.783 428.122C314.903 428.067 315.008 427.985 315.091 427.882C315.173 427.78 315.231 427.66 315.26 427.531C315.288 427.403 315.286 427.269 315.255 427.142L304.876 372.68H300.762L313.565 427.551C313.611 427.738 313.718 427.903 313.87 428.021C314.022 428.138 314.209 428.201 314.401 428.2V428.2Z" fill="#F41414"/>
<path d="M293.404 428.2C293.523 428.2 293.64 428.176 293.749 428.128C293.858 428.081 293.956 428.011 294.036 427.923C294.117 427.836 294.178 427.732 294.216 427.62C294.254 427.507 294.268 427.388 294.257 427.27L291.893 372.663H287.779L292.448 427.415C292.456 427.53 292.488 427.643 292.541 427.745C292.595 427.848 292.668 427.939 292.758 428.012C292.847 428.086 292.95 428.14 293.061 428.172C293.173 428.205 293.289 428.214 293.404 428.2Z" fill="#F41414"/>
<path d="M307.547 349.813C307.547 352.475 307.436 362.731 310.039 365.939C312.915 369.472 316.372 368.277 322.202 370.939C326.051 372.697 325.445 378.721 318.651 378.721H272.168C251.751 378.721 245.085 354.327 248.807 330.086C252.647 305.052 265.664 297.356 280.037 297.902C297.321 298.534 307.547 320.095 307.547 349.813Z" fill="#F48914"/>
<path d="M350.232 399.693C350.232 399.693 357.06 400.726 357.598 402.688C357.769 403.336 353.706 404.045 350.3 403.925C349.745 403.925 348.644 404.036 348.286 402.671C348.11 401.853 348.133 401.004 348.354 400.197" fill="#F41414"/>
<path d="M339.025 424.224C339.025 424.224 344.999 427.756 344.709 429.77C344.632 430.435 340.604 429.565 337.488 428.174C336.985 427.944 335.918 427.645 336.089 426.254C336.237 425.428 336.582 424.649 337.096 423.985" fill="#F41414"/>
<path d="M284.997 343.158C284.997 343.158 321.041 352.765 329.585 361.767C333.247 365.623 336.123 384.036 338.035 400.751C339.742 416.041 339.845 424.744 339.845 424.744L336.499 424.838C336.499 424.838 321.135 399.352 319.223 393.738C316.424 385.529 316.261 379.386 316.577 375.768C316.614 375.339 316.552 374.907 316.397 374.505C316.241 374.104 315.996 373.743 315.68 373.45C315.364 373.157 314.986 372.94 314.573 372.815C314.161 372.691 313.725 372.662 313.3 372.731C303.399 374.284 277.306 377.603 265.579 371.536C256.83 367.014 254.031 349.352 259.8 342.322" fill="#223554"/>
<path d="M337.096 423.985C337.096 423.985 322.868 396.63 320.947 391.007C318.148 382.799 317.985 376.656 318.301 373.038C318.338 372.609 318.276 372.177 318.121 371.775C317.965 371.373 317.72 371.012 317.404 370.719C317.088 370.426 316.71 370.209 316.297 370.085C315.884 369.96 315.449 369.931 315.024 370C305.114 371.562 279.03 374.872 267.303 368.814" stroke="#56647A" stroke-width="0.5" stroke-miterlimit="10" stroke-dasharray="2 1"/>
<path d="M275.975 346.391C275.975 346.391 319.659 338.994 336.414 349.48C351.094 358.669 350.599 399.821 350.599 399.821C350.331 400.254 349.978 400.628 349.562 400.922C349.145 401.215 348.673 401.421 348.175 401.527C347.381 400.922 336.644 386.673 331.89 377.483C328.297 370.555 329.585 361.801 329.585 361.801C329.585 361.801 292.303 380.521 268.131 372.671C251.189 367.168 257.889 345.965 257.889 345.965" fill="#223554"/>
<path d="M335.431 383.575C333.477 361.767 329.585 361.767 329.585 361.767C329.585 361.767 306.633 373.396 285.363 374.633" stroke="#15243A" stroke-width="0.75" stroke-miterlimit="10"/>
<path d="M262.148 347.083C262.148 347.083 260.048 363.49 270.376 367.338C292.09 375.435 328.484 357.586 330.67 358.593C339.845 362.799 333.862 380.427 348.662 400.401" stroke="#56647A" stroke-width="0.5" stroke-miterlimit="10" stroke-dasharray="2 1"/>
<path d="M300.395 284.797C300.395 284.797 309.63 285.351 317.218 294.754C328.459 308.679 323.005 330.829 324.575 332.296C329.594 336.998 344.718 338.841 344.718 338.841V341.11C344.718 341.11 317.346 347.365 311.089 341.11C304.833 334.856 301.999 303.167 301.999 303.167" fill="#F41414"/>
<path d="M287.847 284.797C287.847 284.797 256.19 288.372 256.762 348.107C272.74 361.144 308.622 350.479 315.519 344.941C315.519 341.238 313.351 332.885 312.062 326.383C311.518 323.676 312.067 320.864 313.59 318.559C315.553 315.607 317.857 311.094 317.123 306.998C315.519 298.184 306.181 289.14 303.364 287.066C300.548 284.993 287.847 284.797 287.847 284.797Z" fill="#F41414"/>
<path d="M315.476 344.941C315.476 341.238 313.308 332.885 312.019 326.383C311.475 323.676 312.025 320.863 313.547 318.559C315.51 315.607 317.815 311.093 317.081 306.998C316.346 302.902 313.427 298.466 310.525 294.805" stroke="#9B8E89" stroke-width="0.75" stroke-miterlimit="10"/>
<path d="M295.598 340.257L301.385 341.63C301.385 341.63 306.95 339.659 308.58 340.257C310.21 340.854 314.375 344.924 313.309 344.924H294.42" fill="#FDE5DF"/>
<path d="M293.405 284.068C293.405 284.068 270.321 280.084 261.659 298.45C252.996 316.816 254.211 330.407 263.418 339.088C274.037 349.108 294.186 345.279 294.186 345.279L294.518 340.548C294.518 340.548 275.252 332.219 275.252 323.375C275.252 314.532 279.559 298.733 279.559 298.733" fill="#F41414"/>
<path d="M297.731 340.59C297.731 340.59 276.888 332.313 276.888 323.525C276.888 314.737 281.514 299.037 281.514 299.037" stroke="#9B8E89" stroke-width="0.75" stroke-miterlimit="10"/>
<path d="M257.615 330.453C265.937 351.784 297.347 345.291 297.347 345.291" stroke="#9B8E89" stroke-width="0.75" stroke-miterlimit="10"/>
<path d="M310.202 266.264C310.876 267.561 313.565 273.235 311.363 283.815C310.927 284.25 306.241 284.191 303.322 283.218C302.496 282.72 301.8 282.033 301.291 281.213" fill="#223554"/>
<path d="M308.998 269.063C310.346 271.401 310.969 283.414 303.339 283.414C302.47 283.361 301.62 283.134 300.84 282.747C300.061 282.36 299.366 281.821 298.798 281.162C296.741 279.105 296.451 276.495 297.176 271.776C297.842 267.51 300.053 265.496 302.451 265.257C305.652 264.916 307.649 266.716 308.998 269.063Z" fill="#FFDFD9"/>
<path d="M302.084 276.589L301.999 285.309C301.999 285.309 302.468 287.561 299.618 287.561C295.947 287.561 294.735 285.488 294.735 285.488L296.562 276.793" fill="#FFDFD9"/>
<path d="M306.266 274.302C306.266 274.302 307.547 277.629 307.017 278.15C306.488 278.67 305.797 278.15 305.797 278.15" stroke="#F2B6AA" stroke-width="0.5" stroke-miterlimit="10"/>
<path d="M303.262 273.705L303.177 273.824C303.039 274.114 302.972 274.433 302.98 274.754C302.929 275.283 303.834 275.3 303.834 274.754C303.846 274.4 303.803 274.046 303.706 273.705C303.587 273.372 303.399 273.483 303.262 273.705Z" fill="#223554"/>
<path d="M308.443 273.406L308.358 273.525C308.22 273.816 308.153 274.134 308.162 274.455C308.11 274.984 309.015 275.002 309.015 274.455C309.027 274.11 308.987 273.765 308.896 273.432C308.768 273.116 308.58 273.227 308.443 273.406Z" fill="#223554"/>
<path d="M301.351 273.039C301.4 272.832 301.487 272.635 301.607 272.459C301.879 272.073 302.259 271.776 302.699 271.606C303.151 271.424 303.652 271.406 304.116 271.555C304.267 271.614 304.406 271.7 304.526 271.811C304.566 271.854 304.603 271.899 304.637 271.947H304.466C304.333 271.934 304.198 271.934 304.065 271.947C303.675 271.988 303.293 272.083 302.93 272.229C302.559 272.377 302.202 272.556 301.863 272.766C301.739 272.833 301.619 272.907 301.504 272.988C301.455 273.01 301.403 273.027 301.351 273.039Z" fill="#223554"/>
<path d="M307.163 271.998C307.178 271.957 307.195 271.917 307.214 271.879C307.277 271.774 307.361 271.684 307.462 271.614C307.615 271.513 307.787 271.444 307.967 271.412C308.148 271.379 308.333 271.384 308.512 271.427C308.855 271.511 309.157 271.713 309.365 271.998C309.458 272.131 309.519 272.282 309.544 272.442L309.425 272.399C309.331 272.355 309.234 272.318 309.135 272.288C308.876 272.19 308.611 272.11 308.341 272.049C308.084 271.987 307.82 271.956 307.556 271.956C307.424 271.958 307.292 271.973 307.163 271.998V271.998Z" fill="#223554"/>
<path d="M303.604 279.566C303.766 281.332 306.233 281.273 306.506 280.087" stroke="#F2B6AA" stroke-width="0.5" stroke-miterlimit="10"/>
<path d="M297.348 278.935C297.348 278.935 298.304 282.672 302.042 283.261" stroke="#F2B6AA" stroke-width="0.5" stroke-miterlimit="10"/>
<path d="M311.081 267.877C311.125 268.141 311.113 268.411 311.045 268.67C310.977 268.929 310.856 269.17 310.688 269.379C310.078 269.823 309.334 270.046 308.58 270.01C305.687 270.189 302.187 268.432 300.173 271.205C297.706 274.618 297.945 279.208 298.287 283.406C296.033 283.568 290.511 282.74 288.744 278.508C288.861 274.239 290.003 270.06 292.073 266.324C293.009 264.604 294.409 263.182 296.114 262.219C297.82 261.257 299.761 260.793 301.718 260.881C305.414 261.137 310.705 263.662 311.081 267.877Z" fill="#223554"/>
<path d="M299.651 274.763C299.619 274.595 299.553 274.436 299.459 274.294C299.364 274.152 299.242 274.03 299.1 273.936C298.958 273.841 298.798 273.776 298.631 273.744C298.463 273.711 298.291 273.712 298.124 273.747C297.894 273.816 297.683 273.935 297.506 274.096C297.329 274.257 297.19 274.456 297.099 274.677C296.964 275.115 296.934 275.578 297.009 276.03C297.085 276.482 297.265 276.91 297.535 277.28C298.124 278.133 299.114 278.286 299.66 277.365" fill="#FFDFD9"/>
<path d="M309.084 320.042L303.963 346.987H344.847L350.054 319.684C350.073 319.553 350.064 319.419 350.027 319.291C349.991 319.164 349.927 319.046 349.84 318.945C349.753 318.845 349.646 318.764 349.525 318.709C349.404 318.654 349.273 318.626 349.14 318.626H310.791C310.385 318.62 309.989 318.759 309.676 319.019C309.363 319.279 309.153 319.641 309.084 320.042V320.042Z" fill="white"/>
<path d="M291.859 344.916H315.955V347.091H290.349V346.451C290.349 346.048 290.507 345.662 290.79 345.374C291.072 345.087 291.456 344.922 291.859 344.916V344.916Z" fill="white"/>
<path d="M331.36 333.261C331.219 334.134 330.779 334.932 330.113 335.516C329.448 336.1 328.6 336.434 327.715 336.46C327.311 336.472 326.91 336.393 326.54 336.23C326.17 336.066 325.841 335.822 325.578 335.516C325.314 335.209 325.123 334.847 325.017 334.457C324.912 334.067 324.894 333.658 324.967 333.261C325.109 332.388 325.551 331.593 326.216 331.011C326.881 330.428 327.728 330.096 328.612 330.069C329.015 330.058 329.416 330.137 329.785 330.3C330.154 330.463 330.482 330.706 330.745 331.011C331.009 331.317 331.2 331.677 331.307 332.067C331.413 332.456 331.431 332.864 331.36 333.261V333.261Z" fill="#FEE5E6"/>
<path d="M414.665 307.1H332.103L337.044 302.877V291.708C337.043 291.057 337.171 290.413 337.419 289.811C337.667 289.21 338.032 288.663 338.491 288.203C338.951 287.743 339.497 287.377 340.099 287.128C340.7 286.879 341.344 286.75 341.995 286.75H414.665C415.978 286.753 417.237 287.276 418.166 288.205C419.094 289.135 419.615 290.394 419.615 291.708V302.143C419.615 303.456 419.094 304.716 418.166 305.645C417.237 306.575 415.978 307.098 414.665 307.1V307.1Z" fill="white" stroke="#FF9189" stroke-miterlimit="10"/>
<path d="M351.18 292.757L352.136 295.266L354.824 295.402C354.942 295.411 355.054 295.454 355.146 295.527C355.239 295.6 355.307 295.698 355.343 295.81C355.379 295.922 355.38 296.042 355.347 296.155C355.314 296.268 355.248 296.368 355.157 296.443L353.066 298.15L353.766 300.709C353.793 300.82 353.787 300.936 353.748 301.042C353.71 301.149 353.641 301.243 353.55 301.311C353.459 301.379 353.351 301.419 353.237 301.426C353.124 301.433 353.011 301.406 352.912 301.349L350.651 299.907L348.397 301.367C348.298 301.419 348.187 301.443 348.075 301.434C347.963 301.425 347.856 301.385 347.767 301.318C347.677 301.251 347.609 301.159 347.569 301.055C347.53 300.95 347.521 300.836 347.544 300.727L348.244 298.167L346.153 296.46C346.062 296.385 345.995 296.284 345.963 296.17C345.93 296.057 345.932 295.936 345.969 295.824C346.006 295.711 346.075 295.613 346.169 295.541C346.263 295.469 346.376 295.426 346.494 295.419L349.174 295.283L350.138 292.774C350.187 292.679 350.261 292.598 350.351 292.542C350.442 292.485 350.547 292.454 350.654 292.452C350.761 292.45 350.867 292.478 350.959 292.532C351.052 292.585 351.128 292.663 351.18 292.757V292.757Z" fill="#FF9189"/>
<path d="M365.032 292.757L365.997 295.266L368.677 295.402C368.795 295.409 368.908 295.452 369.002 295.524C369.096 295.596 369.165 295.694 369.202 295.807C369.239 295.919 369.241 296.04 369.208 296.153C369.176 296.267 369.109 296.368 369.018 296.443L366.927 298.15L367.627 300.709C367.65 300.819 367.641 300.933 367.602 301.038C367.562 301.142 367.494 301.234 367.404 301.301C367.314 301.368 367.208 301.408 367.096 301.417C366.984 301.425 366.873 301.402 366.774 301.349L364.52 299.89L362.267 301.349C362.169 301.406 362.056 301.433 361.942 301.426C361.829 301.419 361.72 301.379 361.629 301.311C361.538 301.243 361.47 301.149 361.431 301.042C361.393 300.936 361.387 300.82 361.414 300.709L362.113 298.15L360.022 296.443C359.932 296.368 359.865 296.268 359.832 296.155C359.799 296.042 359.801 295.922 359.837 295.81C359.872 295.698 359.941 295.6 360.033 295.527C360.126 295.454 360.238 295.411 360.355 295.402L363.044 295.266L364 292.757C364.051 292.665 364.125 292.588 364.216 292.534C364.307 292.48 364.411 292.452 364.516 292.452C364.622 292.452 364.725 292.48 364.816 292.534C364.907 292.588 364.982 292.665 365.032 292.757V292.757Z" fill="#FF9189"/>
<path d="M378.894 292.757L379.85 295.266L382.538 295.402C382.656 295.411 382.768 295.454 382.86 295.527C382.953 295.6 383.021 295.698 383.057 295.81C383.093 295.922 383.094 296.042 383.061 296.155C383.028 296.268 382.962 296.368 382.871 296.443L380.78 298.15L381.48 300.709C381.507 300.82 381.501 300.936 381.462 301.042C381.424 301.149 381.355 301.243 381.264 301.311C381.174 301.379 381.065 301.419 380.951 301.426C380.838 301.433 380.725 301.406 380.627 301.349L378.373 299.89L376.12 301.349C376.021 301.402 375.909 301.425 375.798 301.417C375.686 301.408 375.579 301.368 375.49 301.301C375.4 301.234 375.331 301.142 375.292 301.038C375.252 300.933 375.244 300.819 375.266 300.709L375.966 298.15L373.875 296.443C373.784 296.368 373.718 296.267 373.685 296.153C373.652 296.04 373.655 295.919 373.691 295.807C373.728 295.694 373.798 295.596 373.892 295.524C373.985 295.452 374.099 295.409 374.217 295.402L376.897 295.266L377.861 292.757C377.912 292.665 377.987 292.588 378.077 292.534C378.168 292.48 378.272 292.452 378.378 292.452C378.483 292.452 378.587 292.48 378.678 292.534C378.768 292.588 378.843 292.665 378.894 292.757V292.757Z" fill="#FF9189"/>
<path d="M392.746 292.757L393.711 295.266L396.391 295.402C396.509 295.409 396.622 295.451 396.716 295.524C396.809 295.596 396.879 295.694 396.916 295.807C396.953 295.919 396.955 296.04 396.922 296.153C396.889 296.267 396.823 296.368 396.732 296.443L394.641 298.15L395.341 300.709C395.364 300.819 395.355 300.933 395.316 301.038C395.276 301.142 395.207 301.234 395.118 301.301C395.028 301.368 394.921 301.408 394.81 301.417C394.698 301.425 394.586 301.402 394.487 301.349L392.234 299.89L389.913 301.366C389.814 301.423 389.701 301.45 389.588 301.443C389.474 301.436 389.366 301.396 389.275 301.328C389.184 301.26 389.115 301.166 389.077 301.059C389.038 300.953 389.032 300.837 389.059 300.726L389.759 298.167L387.668 296.46C387.577 296.385 387.511 296.285 387.478 296.172C387.445 296.059 387.446 295.939 387.482 295.827C387.518 295.715 387.586 295.617 387.679 295.544C387.771 295.471 387.883 295.428 388.001 295.419L390.689 295.283L391.645 292.774C391.686 292.662 391.76 292.565 391.857 292.495C391.954 292.426 392.07 292.388 392.19 292.386C392.309 292.384 392.427 292.419 392.526 292.485C392.625 292.551 392.702 292.646 392.746 292.757Z" fill="#FF9189"/>
<path d="M406.061 293.721L406.77 295.573L406.966 296.093H407.521L409.51 296.196L407.965 297.442L407.529 297.791L407.675 298.329L408.187 300.249L406.48 299.165L406.019 298.858L405.549 299.165L403.885 300.249L404.406 298.329L404.551 297.791L404.115 297.442L402.57 296.196L404.551 296.093H405.105L405.31 295.573L406.019 293.721M406.019 292.382C405.9 292.381 405.784 292.417 405.687 292.484C405.589 292.551 405.514 292.646 405.472 292.757L404.508 295.266L401.828 295.402C401.71 295.409 401.597 295.451 401.503 295.524C401.409 295.596 401.34 295.694 401.303 295.807C401.266 295.919 401.264 296.04 401.297 296.153C401.329 296.267 401.395 296.368 401.486 296.443L403.578 298.15L402.886 300.709C402.863 300.796 402.86 300.887 402.877 300.976C402.894 301.064 402.931 301.147 402.986 301.219C403.04 301.29 403.11 301.349 403.191 301.389C403.271 301.43 403.36 301.451 403.45 301.452C403.563 301.449 403.672 301.413 403.765 301.349L406.019 299.89L408.272 301.349C408.365 301.413 408.475 301.449 408.588 301.452C408.678 301.451 408.766 301.43 408.847 301.389C408.927 301.349 408.997 301.29 409.052 301.219C409.106 301.147 409.143 301.064 409.161 300.976C409.178 300.887 409.175 300.796 409.151 300.709L408.46 298.15L410.542 296.443C410.633 296.368 410.699 296.268 410.732 296.155C410.765 296.042 410.764 295.922 410.728 295.81C410.692 295.698 410.624 295.6 410.531 295.527C410.439 295.454 410.327 295.411 410.21 295.402L407.521 295.266L406.565 292.757C406.523 292.646 406.448 292.551 406.351 292.484C406.253 292.417 406.137 292.381 406.019 292.382V292.382Z" fill="#FF9189"/>
<path d="M245.725 222.613C246.455 221.477 246.872 220.17 246.935 218.821C246.998 217.473 246.704 216.132 246.084 214.934C246.05 214.843 245.997 214.761 245.929 214.692C245.862 214.623 245.781 214.569 245.691 214.533C245.549 214.51 245.403 214.531 245.273 214.592C244.131 215.166 243.239 216.137 242.764 217.323C242.301 218.493 241.765 219.633 241.159 220.736C240.818 221.265 240.408 221.734 240.066 222.263C239.587 223.025 239.275 223.879 239.15 224.771C239.025 225.662 239.09 226.569 239.341 227.434" fill="#FFDFD9"/>
<path d="M239.546 222.835L244.061 223.492C244.279 223.514 244.498 223.466 244.686 223.355C244.875 223.245 245.024 223.078 245.111 222.877L248.781 213.936C248.829 213.852 248.855 213.757 248.856 213.661C248.858 213.565 248.835 213.47 248.79 213.385C248.745 213.299 248.679 213.227 248.598 213.174C248.518 213.121 248.425 213.09 248.329 213.082L243.814 212.417C243.596 212.397 243.377 212.446 243.188 212.558C243 212.67 242.851 212.839 242.764 213.04L239.094 221.982C239.046 222.065 239.02 222.16 239.019 222.256C239.017 222.352 239.04 222.447 239.085 222.533C239.13 222.618 239.196 222.69 239.277 222.743C239.357 222.796 239.45 222.827 239.546 222.835Z" fill="#223554"/>
<path d="M240.69 229.063C242.081 226.768 244.958 225.599 246.135 223.193C246.551 222.27 246.791 221.277 246.844 220.267C246.928 219.353 246.948 218.435 246.904 217.519C246.315 217.314 245.743 217.946 245.623 218.552C245.591 219.173 245.514 219.792 245.393 220.403C245.349 220.53 245.279 220.646 245.188 220.744C244.997 220.916 244.765 221.033 244.514 221.086C243.102 221.492 241.844 222.312 240.903 223.441C240.369 224.119 239.982 224.901 239.768 225.737C239.553 226.573 239.516 227.444 239.657 228.295" fill="#FFDFD9"/>
<path d="M173.304 215.173C147.928 214.422 133 254.08 133 264.362C133 283.227 157.121 298.738 157.121 298.738L158.657 294.797L147.211 269.925C147.211 269.925 169.625 244.43 169.676 236.743C169.753 226.47 176.641 215.173 173.304 215.173Z" fill="#F41414"/>
<path d="M165.571 422.415C163.702 425.136 163.966 429.607 164.607 429.607C165.247 429.607 182.113 430.734 182.113 429.164C182.113 426.834 169.873 422.978 169.873 422.978" fill="#223554"/>
<path d="M173.116 403.67L170.616 423.217C170.616 423.217 170.103 424.523 168.055 424.523C167.503 424.557 166.949 424.472 166.433 424.271C165.918 424.071 165.452 423.761 165.068 423.362L163.497 400.999" fill="#FFDFD9"/>
<path d="M184.212 286.085C184.212 286.085 186.994 308.568 184.272 353.84C182.932 376.101 171.631 418.464 171.631 418.464H164.35C164.35 418.464 159.733 382.722 159.733 373.123C159.772 366.924 160.211 360.734 161.047 354.591C158.657 339.702 155.687 320.718 155.687 320.718C153.183 314.875 152.422 308.434 153.494 302.169C154.566 295.903 157.426 290.081 161.73 285.402" fill="#223554"/>
<path d="M180.533 286.085C180.533 286.085 183.307 308.568 180.584 353.84C179.244 376.101 170.76 418.464 170.76 418.464" stroke="#FFB800" stroke-width="0.75" stroke-miterlimit="10"/>
<path d="M198.944 422.415C197.075 425.136 197.34 429.607 197.98 429.607C198.62 429.607 215.486 430.734 215.486 429.164C215.486 426.834 203.254 422.978 203.254 422.978" fill="#223554"/>
<path d="M206.498 403.67L203.989 423.217C203.989 423.217 203.476 424.523 201.428 424.523C200.876 424.557 200.322 424.472 199.806 424.271C199.291 424.071 198.825 423.761 198.441 423.362L196.87 400.999" fill="#FFDFD9"/>
<path d="M206.754 286.085C206.754 286.085 212.729 310.872 211.389 357.936C210.757 380.231 205.047 418.464 205.047 418.464H197.758C197.758 418.464 189.598 379.523 189.598 369.932C189.598 360.342 174.158 320.718 174.158 320.718C174.158 320.718 159.52 310.872 169.762 282.519" fill="#223554"/>
<path d="M203.374 418.464C203.374 418.464 208.828 374.898 208.333 344.131C208.042 326.213 203.254 296.076 203.254 296.076" stroke="#FFB800" stroke-width="0.75" stroke-miterlimit="10"/>
<path d="M184.135 348.38C179.697 334.924 174.157 320.718 174.157 320.718C174.157 320.718 164.188 310.59 165.767 296.682" stroke="#FFB800" stroke-width="0.75" stroke-miterlimit="10"/>
<path d="M208.333 294.797C208.333 294.797 180.61 303.44 156.156 293.798" stroke="#FFB800" stroke-width="0.75" stroke-miterlimit="10"/>
<path d="M193.404 297.706C193.413 296.032 193.157 294.368 192.645 292.774" stroke="#FFB800" stroke-width="0.75" stroke-miterlimit="10"/>
<path d="M170.769 297.595C170.732 295.976 170.936 294.359 171.375 292.8" stroke="#FFB800" stroke-width="0.75" stroke-miterlimit="10"/>
<path d="M197.502 418.925H205.346L205.815 415.726H197.101L197.502 418.925Z" fill="#FFB800"/>
<path d="M164.214 418.925H172.177L172.655 415.725H163.804L164.214 418.925Z" fill="#FFB800"/>
<path d="M173.304 215.173C173.304 215.173 158.725 219.371 154.987 225.599C153.237 228.509 154.133 246.205 155.465 260.002C157.658 282.757 156.131 287.117 157.522 290.146C158.768 292.86 169.821 294.797 178.86 294.797C187.899 294.797 210.176 294.353 208.409 290.027C206.993 286.546 205.806 275.59 208.495 241.922C210.338 240.07 205.388 215.173 173.304 215.173Z" fill="#F41414"/>
<path d="M178.561 214.831C178.561 214.831 196.05 211.555 208.828 224.328C215.57 231.077 218.216 237.869 222.322 244.157C227.22 237.598 232.643 231.449 238.539 225.77L242.252 228.227C242.252 228.227 229.364 276.094 214.845 268.244C205.098 262.979 190.878 242.067 190.878 242.067" fill="#F41414"/>
<path d="M190.793 196.624C191.894 197.901 192.832 199.312 193.584 200.821C193.707 201.051 193.793 201.299 193.84 201.555C193.856 201.684 193.841 201.815 193.798 201.938C193.755 202.061 193.685 202.172 193.593 202.263C193.475 202.351 193.342 202.415 193.2 202.451C192.062 202.799 190.847 202.799 189.709 202.451" fill="#FFDFD9"/>
<path d="M190.186 191.154C190.186 191.154 193.907 206.512 190.024 208.552C189.399 208.933 188.683 209.138 187.951 209.146C187.22 209.153 186.499 208.963 185.867 208.594L186.721 214.806C185.492 217.186 174.532 217.178 173.32 215.173L174.652 202.886C174.652 202.886 176.632 190.941 179.329 189.234C182.026 187.528 187.89 187.391 190.186 191.154Z" fill="#FFDFD9"/>
<path d="M182.769 185.343C183.258 185.309 183.748 185.309 184.237 185.343C185.533 185.503 186.796 185.86 187.984 186.401C188.782 186.707 189.53 187.13 190.203 187.656C190.795 188.082 191.224 188.697 191.423 189.398C191.621 190.1 191.576 190.848 191.296 191.521C191.226 191.788 191.099 192.037 190.924 192.251C190.748 192.464 190.529 192.637 190.28 192.758C189.904 192.848 189.512 192.848 189.136 192.758C188.167 192.576 187.167 192.649 186.234 192.971C185.483 193.287 184.527 193.475 184.177 194.319C183.682 195.557 185.031 196.879 184.672 198.202C184.492 198.711 184.154 199.15 183.708 199.456C183.629 199.537 183.522 199.585 183.409 199.592C183.291 199.57 183.186 199.507 183.111 199.413C182.556 198.867 182.257 197.912 181.327 198.15C180.166 198.458 179.91 200.215 180.046 201.188C180.128 201.819 180.392 202.412 180.806 202.894C181.216 203.313 181.907 203.074 182.257 203.441C182.321 203.528 182.367 203.627 182.39 203.733C182.414 203.839 182.415 203.949 182.394 204.055C182.333 204.712 182.166 205.354 181.898 205.958C181.637 206.632 181.167 207.205 180.558 207.596C179.551 208.024 178.417 208.048 177.392 207.664C176.246 207.404 175.161 206.923 174.2 206.248C172.82 205.059 171.847 203.469 171.417 201.7C170.62 199.067 170.405 196.293 170.786 193.569C170.935 192.161 171.555 190.845 172.544 189.831C173.348 189.017 174.251 188.306 175.232 187.715C176.075 187.069 176.996 186.53 177.972 186.111C178.834 185.858 179.717 185.681 180.61 185.582C181.327 185.488 182.044 185.386 182.769 185.343Z" fill="#223554"/>
<path d="M188.727 196.914C188.756 196.975 188.781 197.037 188.803 197.101C188.91 197.536 188.91 197.989 188.803 198.424C188.692 199.166 187.48 198.893 187.668 198.151C187.763 197.679 187.936 197.226 188.18 196.811C188.385 196.444 188.599 196.666 188.727 196.914Z" fill="#223554"/>
<path d="M189.879 194.601C188.377 194.072 186.26 194.123 185.33 195.241" stroke="#223554" stroke-miterlimit="10"/>
<path d="M190.272 204.286C189.546 205.002 188.181 204.883 186.704 204.396" stroke="#D8889B" stroke-width="0.5" stroke-miterlimit="10"/>
<path d="M206.532 261.486L194.394 249.362" stroke="black" stroke-width="0.75" stroke-linejoin="round"/>
<path d="M155.465 260.002C155.465 260.002 154.927 243.526 151.419 240.019" stroke="black" stroke-width="0.75" stroke-linejoin="round"/>
<path d="M284.698 199.26H201.547L207.035 195.617V183.859C207.037 182.546 207.561 181.287 208.491 180.359C209.42 179.431 210.68 178.91 211.994 178.91H284.698C285.348 178.91 285.992 179.038 286.592 179.287C287.193 179.536 287.739 179.9 288.198 180.36C288.658 180.819 289.023 181.365 289.272 181.965C289.52 182.566 289.648 183.209 289.648 183.859V194.303C289.648 195.616 289.127 196.876 288.199 197.805C287.271 198.734 286.012 199.258 284.698 199.26V199.26Z" fill="white" stroke="#FF9189" stroke-miterlimit="10"/>
<path d="M221.179 184.917L222.134 187.425L224.815 187.562C224.933 187.569 225.046 187.611 225.139 187.683C225.233 187.755 225.303 187.854 225.34 187.966C225.377 188.079 225.379 188.199 225.346 188.313C225.313 188.426 225.247 188.527 225.156 188.603L223.065 190.309L223.765 192.869C223.788 192.979 223.779 193.092 223.739 193.197C223.7 193.302 223.631 193.393 223.542 193.46C223.452 193.528 223.345 193.568 223.233 193.576C223.122 193.585 223.01 193.562 222.911 193.509L220.666 192.05L218.353 193.5C218.255 193.553 218.143 193.577 218.031 193.568C217.919 193.559 217.813 193.519 217.723 193.452C217.633 193.385 217.565 193.293 217.525 193.189C217.486 193.084 217.477 192.97 217.5 192.861L218.2 190.301L216.109 188.594C216.018 188.519 215.951 188.418 215.919 188.304C215.886 188.191 215.888 188.07 215.925 187.958C215.962 187.845 216.031 187.747 216.125 187.675C216.219 187.603 216.332 187.56 216.45 187.553L219.13 187.417L220.095 184.908C220.141 184.802 220.217 184.712 220.314 184.649C220.411 184.586 220.524 184.553 220.639 184.554C220.755 184.555 220.868 184.59 220.964 184.654C221.059 184.719 221.134 184.81 221.179 184.917V184.917Z" fill="#FF9189"/>
<path d="M235.031 184.917L235.996 187.426L238.676 187.562C238.794 187.569 238.907 187.611 239.001 187.684C239.094 187.756 239.164 187.854 239.201 187.967C239.238 188.079 239.24 188.2 239.207 188.313C239.175 188.427 239.108 188.528 239.017 188.603L236.926 190.31L237.618 192.869C237.644 192.98 237.638 193.095 237.6 193.202C237.562 193.309 237.493 193.402 237.402 193.471C237.311 193.539 237.202 193.579 237.089 193.586C236.975 193.592 236.862 193.566 236.764 193.509L234.511 192.05L232.232 193.501C232.133 193.557 232.02 193.584 231.907 193.577C231.794 193.57 231.685 193.53 231.594 193.462C231.503 193.394 231.434 193.301 231.396 193.194C231.358 193.087 231.351 192.971 231.378 192.861L232.07 190.301L229.987 188.595C229.888 188.523 229.813 188.423 229.773 188.307C229.733 188.192 229.731 188.066 229.765 187.949C229.8 187.832 229.871 187.728 229.967 187.653C230.063 187.577 230.181 187.534 230.303 187.528L232.991 187.392L233.947 184.883C233.996 184.778 234.074 184.69 234.173 184.629C234.271 184.568 234.385 184.538 234.501 184.541C234.616 184.545 234.728 184.583 234.823 184.649C234.917 184.716 234.99 184.809 235.031 184.917V184.917Z" fill="#FF9189"/>
<path d="M248.892 184.917L249.848 187.426L252.537 187.562C252.654 187.571 252.766 187.614 252.859 187.687C252.951 187.759 253.02 187.858 253.055 187.97C253.091 188.082 253.093 188.202 253.06 188.315C253.027 188.428 252.96 188.528 252.87 188.603L250.779 190.309L251.478 192.869C251.501 192.979 251.493 193.093 251.453 193.197C251.414 193.302 251.345 193.393 251.255 193.461C251.166 193.528 251.059 193.568 250.947 193.577C250.836 193.585 250.724 193.562 250.625 193.509L248.38 192.05L246.093 193.501C245.994 193.553 245.882 193.577 245.77 193.568C245.659 193.559 245.552 193.519 245.462 193.452C245.373 193.385 245.304 193.294 245.265 193.189C245.225 193.084 245.216 192.97 245.239 192.861L245.939 190.301L243.848 188.595C243.757 188.519 243.691 188.418 243.658 188.304C243.625 188.191 243.627 188.07 243.664 187.958C243.701 187.846 243.771 187.747 243.864 187.675C243.958 187.603 244.071 187.56 244.189 187.554L246.869 187.417L247.834 184.909C247.883 184.81 247.959 184.727 248.053 184.669C248.147 184.612 248.255 184.582 248.366 184.582C248.476 184.583 248.584 184.615 248.677 184.674C248.77 184.733 248.845 184.818 248.892 184.917V184.917Z" fill="#FF9189"/>
<path d="M262.737 184.917L263.701 187.426L266.381 187.562C266.499 187.569 266.612 187.611 266.706 187.683C266.8 187.755 266.869 187.854 266.906 187.966C266.943 188.079 266.945 188.199 266.913 188.313C266.88 188.427 266.814 188.528 266.723 188.603L264.631 190.309L265.331 192.869C265.354 192.979 265.345 193.093 265.306 193.197C265.266 193.302 265.198 193.393 265.108 193.461C265.019 193.528 264.912 193.568 264.8 193.577C264.688 193.585 264.577 193.562 264.478 193.509L262.224 192.05L259.946 193.501C259.847 193.557 259.734 193.584 259.621 193.577C259.507 193.57 259.399 193.53 259.308 193.462C259.217 193.394 259.148 193.301 259.11 193.194C259.071 193.087 259.065 192.971 259.092 192.861L259.783 190.301L257.701 188.595C257.61 188.52 257.544 188.419 257.511 188.306C257.478 188.194 257.479 188.073 257.515 187.962C257.551 187.85 257.619 187.751 257.712 187.678C257.804 187.605 257.916 187.562 258.034 187.554L260.722 187.417L261.678 184.909C261.727 184.81 261.803 184.727 261.897 184.669C261.991 184.612 262.1 184.582 262.21 184.582C262.32 184.583 262.428 184.615 262.521 184.674C262.614 184.733 262.689 184.818 262.737 184.917Z" fill="#FF9189"/>
<path d="M276.06 185.881L276.768 187.733L276.964 188.253H277.519L279.499 188.356L277.955 189.601L277.528 189.951L277.673 190.489L278.185 192.409L276.521 191.325L276.06 191.018L275.59 191.325L273.926 192.409L274.447 190.489L274.583 189.951L274.156 189.601L272.611 188.381L274.592 188.279H275.146L275.343 187.758L276.06 185.907M276.06 184.567C275.941 184.565 275.825 184.601 275.727 184.668C275.629 184.735 275.554 184.831 275.513 184.943L274.549 187.451L271.869 187.588C271.751 187.595 271.638 187.637 271.544 187.709C271.45 187.781 271.381 187.88 271.344 187.992C271.307 188.104 271.305 188.225 271.338 188.339C271.37 188.452 271.437 188.553 271.528 188.629L273.619 190.335L272.919 192.895C272.897 192.982 272.895 193.074 272.913 193.162C272.932 193.25 272.97 193.333 273.025 193.404C273.08 193.476 273.15 193.534 273.231 193.574C273.312 193.614 273.4 193.636 273.491 193.637C273.616 193.63 273.736 193.582 273.832 193.501L276.085 192.042L278.339 193.501C278.431 193.566 278.541 193.602 278.654 193.603C278.744 193.602 278.833 193.581 278.914 193.541C278.994 193.5 279.064 193.442 279.118 193.37C279.173 193.299 279.21 193.215 279.227 193.127C279.245 193.039 279.241 192.948 279.218 192.861L278.518 190.301L280.609 188.595C280.7 188.52 280.766 188.419 280.799 188.307C280.832 188.194 280.831 188.074 280.795 187.962C280.759 187.85 280.69 187.751 280.598 187.678C280.506 187.605 280.393 187.562 280.276 187.554L277.588 187.417L276.632 184.909C276.589 184.798 276.514 184.704 276.416 184.637C276.319 184.57 276.204 184.534 276.085 184.533L276.06 184.567Z" fill="#FF9189"/>
</g>
</g>
<defs>
<radialGradient id="paint0_radial_745_31810" cx="0" cy="0" r="1" gradientUnits="userSpaceOnUse" gradientTransform="translate(364 290) rotate(90) scale(290 364)">
<stop stop-color="#B70000" stop-opacity="0.3"/>
<stop offset="0.90625" stop-color="#B70000" stop-opacity="0"/>
</radialGradient>
<clip-path id="clip0_745_31810">
<rect width="728" height="580" fill="white"/>
</clip-path>
<clip-path id="clip1_745_31810">
<rect width="511" height="353" fill="white" transform="translate(133 77)"/>
</clip-path>
</defs>
</svg>
